<?xml version="1.0" standalone="no"?>
<!DOCTYPE svg PUBLIC "-//W3C//DTD SVG 1.1//EN" "http://www.w3.org/Graphics/SVG/1.1/DTD/svg11.dtd" >
<svg xmlns="http://www.w3.org/2000/svg" xmlns:xlink="http://www.w3.org/1999/xlink" version="1.1">
<metadata>
Created by FontForge 20201107 at Fri Nov 15 15:25:12 2024
 By 
Copyright 2024 The Red Hat Project Authors (https://github.com/RedHatOfficial/RedHatFont)
</metadata>
<defs>
<font id="RedHatDisplay-Medium" horiz-adv-x="600" >
  <font-face 
    font-family="Red Hat Display Medium"
    font-weight="500"
    font-stretch="normal"
    units-per-em="1000"
    panose-1="2 1 3 3 4 2 1 6 3 3"
    ascent="800"
    descent="-200"
    x-height="505"
    cap-height="700"
    bbox="-69 -268 1071 1004"
    underline-thickness="100"
    underline-position="-250"
    unicode-range="U+000D-FFFD"
  />
<missing-glyph horiz-adv-x="514" 
d="M60 -100v850h394v-850h-394z" />
    <glyph glyph-name="fi" unicode="fi" horiz-adv-x="593" 
d="M135 0v432h-118v73h118v86q0 77 42 117.5t121 40.5q20 0 37 -2t33 -7v-76q-18 5 -32 7.5t-31 2.5q-43 0 -64 -20.5t-21 -64.5v-84h148v-73h-148v-432h-85zM446 0v505h86v-505h-86zM489 594q-22 0 -38.5 16.5t-16.5 39.5t16.5 39t38.5 16q23 0 39.5 -16t16.5 -39
t-16.5 -39.5t-39.5 -16.5z" />
    <glyph glyph-name="fl" unicode="fl" horiz-adv-x="593" 
d="M135 0v432h-118v73h118v86q0 77 42 117.5t121 40.5q20 0 37 -2t33 -7v-76q-18 5 -32 7.5t-31 2.5q-43 0 -64 -20.5t-21 -64.5v-84h148v-73h-148v-432h-85zM446 0v700l86 18v-718h-86z" />
    <glyph glyph-name=".notdef" horiz-adv-x="514" 
d="M60 -100v850h394v-850h-394z" />
    <glyph glyph-name=".null" horiz-adv-x="0" 
 />
    <glyph glyph-name="nonmarkingreturn" horiz-adv-x="333" 
 />
    <glyph glyph-name="CR" unicode="&#xd;" horiz-adv-x="212" 
 />
    <glyph glyph-name="space" unicode=" " horiz-adv-x="212" 
 />
    <glyph glyph-name="exclam" unicode="!" horiz-adv-x="206" 
d="M69 197l-11 508h89l-10 -508h-68zM103 -7q-23 0 -40 17t-17 40t17 40t40 17t40 -17t17 -40t-17 -40t-40 -17z" />
    <glyph glyph-name="quotedbl" unicode="&#x22;" horiz-adv-x="340" 
d="M70 483l-12 219h86l-12 -219h-62zM209 483l-12 219h86l-12 -219h-62z" />
    <glyph glyph-name="numbersign" unicode="#" horiz-adv-x="701" 
d="M77 0l62 214h-109v66h127l41 140h-118v66h136l61 214h79l-62 -214h189l62 214h78l-61 -214h109v-66h-127l-41 -140h118v-66h-136l-62 -214h-78l62 214h-190l-61 -214h-79zM236 280h189l40 140h-189z" />
    <glyph glyph-name="dollar" unicode="$" horiz-adv-x="573" 
d="M256 -67v88q-70 6 -130.5 34t-106.5 77l51 58q79 -84 186 -99v230l-38 7q-100 22 -142 61t-42 111q0 55 28 95.5t78.5 63.5t115.5 24v84h54v-87q59 -6 115 -27.5t105 -56.5l-42 -65q-46 31 -90 50t-88 26v-218l38 -7q107 -23 151.5 -62.5t44.5 -111.5q0 -54 -29 -95.5
t-82 -66t-123 -27.5v-86h-54zM256 399v212q-63 -1 -102.5 -29.5t-39.5 -74.5q0 -29 12 -49t39.5 -33t75.5 -23zM310 88q67 4 109.5 35.5t42.5 79.5q0 30 -12.5 49.5t-42 32.5t-82.5 24l-15 2v-223z" />
    <glyph glyph-name="percent" unicode="%" horiz-adv-x="749" 
d="M177 345q-68 0 -109.5 50t-41.5 130t41.5 130t109.5 50q66 0 107.5 -50t42.5 -130q-1 -80 -42.5 -130t-107.5 -50zM177 396q43 0 68 35t25 94q0 60 -25.5 95t-67.5 35q-43 0 -68 -35t-26 -95q1 -59 26 -94t68 -35zM142 0l393 700h70l-395 -700h-68zM575 -5
q-68 0 -109.5 50t-41.5 130t41.5 130t109.5 50q66 0 107.5 -50t42.5 -130q-1 -80 -42.5 -130t-107.5 -50zM575 46q43 0 68 35t25 94q0 60 -25.5 95t-67.5 35q-43 0 -68 -35t-26 -95q1 -59 26 -94t68 -35z" />
    <glyph glyph-name="ampersand" unicode="&#x26;" horiz-adv-x="659" 
d="M260 -11q-70 0 -122.5 25t-82 70t-29.5 104q0 42 14 75.5t47.5 63t89.5 61.5q-34 43 -48.5 79.5t-14.5 76.5q0 48 22.5 85.5t62.5 59.5t89 22q48 0 85 -19t58 -52.5t21 -77.5q0 -48 -26.5 -87t-82.5 -72l-51 -30q39 -43 85.5 -88.5t94.5 -89.5q24 38 39.5 84.5t25.5 97.5
l78 -13q-14 -64 -34.5 -119t-51.5 -101q31 -27 61.5 -51t57.5 -46l-51 -61q-28 21 -57.5 44.5t-59.5 48.5q-42 -44 -99 -67t-121 -23zM248 425l54 31q35 21 52.5 46.5t17.5 57.5q0 35 -25 59t-61 24q-40 0 -66 -27.5t-26 -70.5q0 -29 12 -56t42 -64zM265 61q46 0 86.5 17.5
t72.5 50.5q-55 51 -107.5 103t-95.5 101q-43 -23 -68.5 -44.5t-36 -44.5t-10.5 -52q0 -59 44 -95t115 -36z" />
    <glyph glyph-name="quotesingle" unicode="'" horiz-adv-x="202" 
d="M70 483l-12 219h86l-12 -219h-62z" />
    <glyph glyph-name="parenleft" unicode="(" horiz-adv-x="393" 
d="M313 -214q-122 72 -186.5 191t-64.5 272t64.5 271.5t186.5 190.5l46 -57q-104 -61 -159.5 -166.5t-55.5 -238.5q0 -134 55.5 -239.5t159.5 -166.5z" />
    <glyph glyph-name="parenright" unicode=")" horiz-adv-x="393" 
d="M80 716q122 -73 187 -191.5t65 -271.5t-65 -272t-187 -190l-45 56q103 62 159 167t56 239t-56 239.5t-159 165.5z" />
    <glyph glyph-name="asterisk" unicode="*" horiz-adv-x="452" 
d="M196 336l2 134l-117 -71l-32 50l122 72l-119 71l33 50l112 -70l-1 128h60l-1 -127l111 69l34 -50l-119 -71l123 -72l-35 -50l-115 71l2 -134h-60z" />
    <glyph glyph-name="plus" unicode="+" 
d="M265 142v180h-167v68h167v180h70v-180h167v-68h-167v-180h-70z" />
    <glyph glyph-name="comma" unicode="," horiz-adv-x="250" 
d="M36 -140l60 221h92l-85 -221h-67z" />
    <glyph glyph-name="hyphen" unicode="-" horiz-adv-x="449" 
d="M48 244v75h354v-75h-354z" />
    <glyph glyph-name="period" unicode="." horiz-adv-x="250" 
d="M125 -7q-23 0 -40 17t-17 40t17 40t40 17t40 -17t17 -40t-17 -40t-40 -17z" />
    <glyph glyph-name="slash" unicode="/" horiz-adv-x="467" 
d="M-65 -205l418 905h86l-419 -905h-85z" />
    <glyph glyph-name="zero" unicode="0" horiz-adv-x="666" 
d="M333 -11q-85 0 -150 46t-102 127.5t-37 187.5t37 187.5t102 127.5t150 46q86 0 151 -46t102 -127.5t37 -187.5t-37 -187.5t-102 -127.5t-151 -46zM333 64q63 0 109 35t71 100t25 151q0 87 -25 151.5t-71 99.5t-109 35q-62 0 -108 -35t-71.5 -99.5t-25.5 -151.5
q0 -86 25.5 -151t71.5 -100t108 -35z" />
    <glyph glyph-name="one" unicode="1" horiz-adv-x="300" 
d="M148 0v611l-121 -53v77l152 65h54v-700h-85z" />
    <glyph glyph-name="two" unicode="2" 
d="M71 0v61l282 304q31 33 48 59t24.5 49t7.5 48q0 51 -40 83.5t-101 32.5q-49 0 -91 -19t-93 -66l-48 58q55 51 113 76t120 25q65 0 115 -24t78 -65.5t28 -95.5q0 -35 -9 -64.5t-31.5 -62.5t-63.5 -77l-234 -251l353 1v-72h-458z" />
    <glyph glyph-name="three" unicode="3" 
d="M287 -11q-74 0 -138 25.5t-112 75.5l56 54q43 -44 88.5 -63t103.5 -19q50 0 88 17t59 47t21 69q0 37 -18.5 65.5t-50.5 44.5t-74 16h-84v71h79q55 0 89 33t34 86q0 36 -19 64.5t-52.5 45t-74.5 16.5q-54 0 -95.5 -19t-84.5 -65l-56 54q47 51 108 77.5t129 26.5
q66 0 117.5 -25t81 -69t29.5 -99q0 -56 -36 -99t-95 -60q71 -16 113.5 -61.5t42.5 -105.5q0 -58 -32 -104.5t-88.5 -72.5t-128.5 -26z" />
    <glyph glyph-name="four" unicode="4" horiz-adv-x="629" 
d="M424 0v183h-397v68l389 449h94v-445h84v-72h-84v-183h-86zM130 255h294v340z" />
    <glyph glyph-name="five" unicode="5" 
d="M287 -11q-139 0 -241 95l52 57q45 -42 90 -61t101 -19q49 0 86.5 19.5t58 55.5t20.5 83q0 66 -46 107t-120 41q-39 0 -75.5 -9t-75.5 -30l-59 18l16 354h407v-72h-334l-11 -230q40 20 76 28t76 8q69 0 120.5 -26.5t80.5 -74.5t29 -111q0 -69 -32 -121.5t-88 -82
t-131 -29.5z" />
    <glyph glyph-name="six" unicode="6" 
d="M322 -10q-83 0 -145.5 43t-98 119t-35.5 176q0 115 39.5 201t111 134t166.5 48q46 0 91.5 -13t79.5 -38l-43 -63q-31 19 -64.5 29t-69.5 10q-70 0 -121 -36t-78 -104t-29 -163q38 50 91 77.5t110 27.5q69 0 122 -28t83 -77t30 -112q0 -66 -31.5 -118.5t-86 -82.5
t-122.5 -30zM315 371q-53 0 -101.5 -26t-84.5 -71q8 -64 33.5 -111.5t66 -74t91.5 -26.5q46 0 81.5 20.5t56.5 56t21 80.5q0 44 -21 78.5t-57.5 54t-85.5 19.5z" />
    <glyph glyph-name="seven" unicode="7" 
d="M121 0l341 627h-414v73h504v-64l-335 -636h-96z" />
    <glyph glyph-name="eight" unicode="8" 
d="M300 -11q-73 0 -130 26t-89.5 72t-32.5 103q0 42 20.5 78t56.5 62.5t83 37.5q-59 17 -96.5 60.5t-37.5 97.5q0 53 29.5 94.5t81 66t115.5 24.5q65 0 116 -24.5t80.5 -66t29.5 -94.5q0 -54 -37 -97.5t-97 -60.5q71 -18 115.5 -66.5t44.5 -111.5q0 -57 -32 -103t-89.5 -72
t-130.5 -26zM300 401q41 0 74 16t52 43.5t19 61.5q0 35 -19 62.5t-52 43t-74 15.5t-74 -15.5t-52 -43t-19 -62.5q0 -34 19 -61.5t52 -43.5t74 -16zM300 57q49 0 87 18t60.5 49t22.5 70t-22.5 70.5t-60.5 49.5t-87 18t-87 -18t-60.5 -49.5t-22.5 -70.5t22.5 -70t60.5 -49
t87 -18z" />
    <glyph glyph-name="nine" unicode="9" horiz-adv-x="616" 
d="M284 711q82 0 144.5 -43t98 -119t35.5 -176q0 -115 -39.5 -201.5t-110.5 -134t-167 -47.5q-45 0 -90.5 13.5t-80.5 37.5l43 63q31 -19 65.5 -29t69.5 -10q70 0 120.5 36t78 104.5t28.5 162.5q-38 -50 -91 -77.5t-110 -27.5q-68 0 -121 28t-83 77t-30 112q0 67 31 119
t85.5 82t123.5 30zM290 330q53 0 102 26t84 71q-7 64 -33 111.5t-66 74t-91 26.5q-45 0 -81.5 -20.5t-57.5 -56t-21 -80.5q0 -44 21 -78.5t58 -54t85 -19.5z" />
    <glyph glyph-name="colon" unicode=":" horiz-adv-x="250" 
d="M125 -7q-23 0 -40 17t-17 40t17 40t40 17t40 -17t17 -40t-17 -40t-40 -17zM125 402q-23 0 -40 17t-17 40t17 40t40 17t40 -17t17 -40t-17 -40t-40 -17z" />
    <glyph glyph-name="semicolon" unicode=";" horiz-adv-x="250" 
d="M134 402q-23 0 -40 17t-17 40t17 40t40 17t40 -17t17 -40t-17 -40t-40 -17zM29 -140l60 221h92l-85 -221h-67z" />
    <glyph glyph-name="less" unicode="&#x3c;" 
d="M422 95l-321 254l322 253l44 -53l-260 -199l260 -201z" />
    <glyph glyph-name="equal" unicode="=" 
d="M98 238v68h404v-68h-404zM98 406v68h404v-68h-404z" />
    <glyph glyph-name="greater" unicode="&#x3e;" 
d="M178 602l321 -254l-322 -253l-44 53l260 199l-260 200z" />
    <glyph glyph-name="question" unicode="?" horiz-adv-x="510" 
d="M186 202q-2 46 5 79t26 59.5t50 49.5l46 32q41 30 58 55t17 56q0 30 -18.5 52.5t-49.5 36.5t-70 14q-48 0 -90.5 -23t-73.5 -66l-68 39q27 40 64 68t80.5 42.5t91.5 14.5q63 0 112 -23t77.5 -62.5t28.5 -90.5q0 -34 -10.5 -61.5t-36 -54t-71.5 -57.5l-33 -23
q-36 -24 -50.5 -56.5t-10.5 -80.5h-74zM223 -7q-23 0 -39.5 17t-16.5 40t16.5 40t39.5 17q24 0 40.5 -17t16.5 -40t-16.5 -40t-40.5 -17z" />
    <glyph glyph-name="at" unicode="@" horiz-adv-x="778" 
d="M404 -144q-77 0 -143 26.5t-115 74t-76 111.5t-27 139q0 79 27 146.5t75.5 117.5t114 78t142.5 28q71 0 132 -23.5t106 -65t70.5 -97.5t25.5 -120q0 -63 -23 -112t-64 -77t-93 -28q-66 0 -95 41q-24 -22 -51 -33.5t-54 -11.5q-41 0 -74 20.5t-51.5 54.5t-18.5 77
q0 50 23 90t61.5 64t86.5 24q60 0 99 -37l5 24h64l-40 -194q-7 -34 7 -52.5t46 -18.5q34 0 61.5 21.5t43 59.5t15.5 85q0 75 -38 134.5t-101.5 93.5t-144.5 34q-64 0 -119 -24.5t-97 -68t-65 -102t-23 -125.5q0 -89 40 -157.5t110.5 -108t160.5 -39.5q93 0 169 40l19 -44
q-44 -22 -92 -33.5t-99 -11.5zM370 103q44 0 77 34v20t3 23l20 102q-14 21 -36.5 32.5t-50.5 11.5q-30 0 -54.5 -16t-39.5 -43.5t-15 -59.5q0 -46 27 -75t69 -29z" />
    <glyph glyph-name="A" unicode="A" horiz-adv-x="689" 
d="M3 0l289 700h107l288 -700h-98l-85 213h-322l-86 -213h-93zM212 289h262l-131 327z" />
    <glyph glyph-name="B" unicode="B" horiz-adv-x="664" 
d="M74 0v700h293q69 0 119 -22.5t77.5 -63.5t27.5 -96q0 -53 -27.5 -92.5t-75.5 -61.5q60 -20 95.5 -63.5t35.5 -102.5q0 -60 -29.5 -104.5t-83.5 -69t-126 -24.5h-306zM164 399h198q64 0 102 30t38 82t-38 82t-102 30h-198v-224zM164 77h209q71 0 113 34t42 90
q0 57 -42 90.5t-113 33.5h-209v-248z" />
    <glyph glyph-name="C" unicode="C" horiz-adv-x="721" 
d="M407 -11q-76 0 -142.5 27.5t-116.5 77t-77.5 115t-27.5 141.5t27.5 141.5t77.5 115t116.5 77t142.5 27.5q56 0 107 -14t95 -40t78 -64l-60 -62q-40 47 -98 72t-122 25q-58 0 -108 -21t-87 -59t-57.5 -88t-20.5 -110q0 -59 20.5 -109.5t58 -88.5t88 -59t109.5 -21
q63 0 120 25t96 70l59 -60q-35 -37 -79 -63.5t-94.5 -40.5t-104.5 -14z" />
    <glyph glyph-name="D" unicode="D" horiz-adv-x="723" 
d="M164 81h152q58 0 107.5 20.5t87 57t58 85t20.5 106.5q0 57 -20.5 106t-58 85.5t-87 57t-107.5 20.5h-152v-538zM74 0v700h239q79 0 146 -26t117 -73.5t77.5 -111.5t27.5 -139q0 -76 -27.5 -140t-77 -111t-117 -73t-146.5 -26h-239z" />
    <glyph glyph-name="E" unicode="E" horiz-adv-x="622" 
d="M74 0v700h508v-79h-418v-229h274v-77h-274v-236h422v-79h-512z" />
    <glyph glyph-name="F" unicode="F" horiz-adv-x="613" 
d="M74 0v700h509v-79h-419v-234h275v-77h-275v-310h-90z" />
    <glyph glyph-name="G" unicode="G" horiz-adv-x="789" 
d="M406 -11q-76 0 -142 28t-115.5 77.5t-77.5 115t-28 140.5t27.5 140.5t77 115t115.5 77.5t142 28q82 0 155 -31t124 -87l-62 -61q-39 46 -96.5 71t-120.5 25q-58 0 -107 -21t-86 -59t-57.5 -88t-20.5 -110q0 -59 20.5 -109.5t57.5 -88.5t86.5 -59t107.5 -21q67 0 121 28.5
t88 78.5t41 113h-243v79h335v-33q0 -74 -26 -137.5t-72 -111t-108.5 -74t-135.5 -26.5z" />
    <glyph glyph-name="H" unicode="H" horiz-adv-x="719" 
d="M74 0v700h90v-307h391v307h90v-700h-90v312h-391v-312h-90z" />
    <glyph glyph-name="I" unicode="I" horiz-adv-x="239" 
d="M74 0v700h90v-700h-90z" />
    <glyph glyph-name="J" unicode="J" horiz-adv-x="608" 
d="M276 -11q-92 0 -160 48t-99 136l82 33q26 -68 70.5 -101t107.5 -33q82 0 131 53t49 142v433h90v-435q0 -84 -33 -146t-93.5 -96t-144.5 -34z" />
    <glyph glyph-name="K" unicode="K" horiz-adv-x="632" 
d="M74 0v700h90v-328l352 328h115l-372 -341l382 -359h-125l-352 334v-334h-90z" />
    <glyph glyph-name="L" unicode="L" horiz-adv-x="608" 
d="M74 0v700h90v-620h411v-80h-501z" />
    <glyph glyph-name="M" unicode="M" horiz-adv-x="854" 
d="M74 0v700h123l230 -474l229 474h123v-700h-85v594l-268 -544l-268 543v-593h-84z" />
    <glyph glyph-name="N" unicode="N" horiz-adv-x="729" 
d="M74 0v700h89l407 -546v546h85v-700h-79l-416 561v-561h-86z" />
    <glyph glyph-name="O" unicode="O" horiz-adv-x="810" 
d="M405 -11q-76 0 -142 27.5t-115.5 77t-77 115t-27.5 141.5t27.5 141.5t77 115t115.5 77t142 27.5t141.5 -27.5t115.5 -77t77.5 -115t27.5 -141.5t-27.5 -141.5t-77.5 -115t-115.5 -77t-141.5 -27.5zM405 72q58 0 107 21t85.5 59t57.5 88.5t21 109.5q0 60 -21 110t-57.5 88
t-85.5 59t-107 21q-57 0 -106.5 -21t-86.5 -59t-57.5 -88t-20.5 -110q0 -59 20.5 -109.5t57.5 -88.5t86.5 -59t106.5 -21z" />
    <glyph glyph-name="P" unicode="P" horiz-adv-x="654" 
d="M74 0v700h313q69 0 120 -25.5t79.5 -72t28.5 -107.5q0 -62 -28.5 -108t-80 -72t-119.5 -26h-223v-289h-90zM164 366h215q67 0 106.5 34.5t39.5 93.5q0 58 -39.5 92t-106.5 34h-215v-254z" />
    <glyph glyph-name="Q" unicode="Q" horiz-adv-x="810" 
d="M639 -19l-49 58q-40 -23 -86.5 -36.5t-98.5 -13.5q-76 0 -142 27.5t-115.5 77t-77 115t-27.5 141.5t27.5 141.5t77 115t115.5 77t142 27.5t141.5 -27.5t115.5 -77t77.5 -115t27.5 -141.5q0 -78 -30.5 -146.5t-82.5 -117.5l73 -89zM405 72q36 0 68.5 8.5t61.5 25.5
l-96 114l88 18l71 -85q37 38 57.5 88.5t20.5 108.5q0 60 -21 110t-57.5 88t-85.5 59t-107 21q-57 0 -106.5 -21t-86.5 -59t-57.5 -88t-20.5 -110q0 -59 20.5 -109.5t57.5 -88.5t86.5 -59t106.5 -21z" />
    <glyph glyph-name="R" unicode="R" horiz-adv-x="652" 
d="M74 0v700h308q70 0 121.5 -25.5t80.5 -71t29 -107.5q0 -69 -40 -118.5t-107 -70.5l157 -307h-100l-147 295h-212v-295h-90zM164 370h212q67 0 107 34t40 92q0 56 -40 90t-107 34h-212v-250z" />
    <glyph glyph-name="S" unicode="S" horiz-adv-x="606" 
d="M306 -10q-84 0 -161 33t-135 95l57 63q55 -57 115.5 -85t127.5 -28q53 0 93.5 16t63.5 45.5t23 66.5q0 51 -35.5 78t-117.5 40l-108 18q-99 17 -146.5 61t-47.5 118q0 59 31.5 104t88 69.5t131.5 24.5t147.5 -24.5t131.5 -69.5l-51 -69q-114 87 -232 87q-48 0 -84 -14.5
t-56 -40t-20 -60.5q0 -46 31 -70.5t103 -35.5l106 -17q113 -19 165 -65t52 -128q0 -63 -34.5 -111t-96 -74.5t-142.5 -26.5z" />
    <glyph glyph-name="T" unicode="T" horiz-adv-x="624" 
d="M267 0v620h-250v80h590v-80h-250v-620h-90z" />
    <glyph glyph-name="U" unicode="U" horiz-adv-x="708" 
d="M354 -11q-90 0 -156 37.5t-101.5 107t-35.5 163.5v403h90v-403q0 -68 25 -119t71 -78.5t107 -27.5q62 0 107.5 27.5t70.5 78.5t25 119v403h90v-403q0 -94 -36 -163t-101.5 -107t-155.5 -38z" />
    <glyph glyph-name="V" unicode="V" horiz-adv-x="689" 
d="M289 0l-286 700h97l245 -613l250 613h92l-291 -700h-107z" />
    <glyph glyph-name="W" unicode="W" horiz-adv-x="894" 
d="M185 0l-152 700h92l114 -558l166 558h87l166 -556l115 556h88l-151 -700h-92l-170 573l-171 -573h-92z" />
    <glyph glyph-name="X" unicode="X" horiz-adv-x="650" 
d="M2 0l269 363l-253 337h109l198 -269l197 269h105l-250 -336l271 -364h-108l-217 295l-217 -295h-104z" />
    <glyph glyph-name="Y" unicode="Y" horiz-adv-x="652" 
d="M281 0v282l-280 418h105l223 -339l222 339h100l-280 -421v-279h-90z" />
    <glyph glyph-name="Z" unicode="Z" horiz-adv-x="606" 
d="M23 0v63l434 558h-430v79h548v-63l-435 -558h442v-79h-559z" />
    <glyph glyph-name="bracketleft" unicode="[" horiz-adv-x="356" 
d="M57 -208v908h261v-69h-179v-770h179v-69h-261z" />
    <glyph glyph-name="backslash" unicode="\" horiz-adv-x="473" 
d="M449 -205l-419 905h89l419 -905h-89z" />
    <glyph glyph-name="bracketright" unicode="]" horiz-adv-x="356" 
d="M299 700v-908h-261v69h179v770h-179v69h261z" />
    <glyph glyph-name="asciicircum" unicode="^" horiz-adv-x="545" 
d="M50 350l186 350h74l185 -350h-77l-146 278l-146 -278h-76z" />
    <glyph glyph-name="underscore" unicode="_" horiz-adv-x="484" 
d="M-1 -144v64h486v-64h-486z" />
    <glyph glyph-name="grave" unicode="`" 
d="M287 601l-125 119h107l92 -119h-74z" />
    <glyph glyph-name="a" unicode="a" horiz-adv-x="523" 
d="M221 -9q-55 0 -97 19.5t-65.5 53.5t-23.5 80q0 71 54.5 112.5t147.5 41.5q79 0 144 -32v61q0 57 -33 86t-96 29q-36 0 -74 -10.5t-84 -33.5l-32 66q56 26 104 38.5t96 12.5q97 0 150 -46t53 -132v-337h-84v47q-34 -28 -74 -42t-86 -14zM117 146q0 -40 33.5 -64.5
t87.5 -24.5q43 0 78.5 12.5t64.5 40.5v91q-30 19 -63.5 27.5t-75.5 8.5q-57 0 -91 -25t-34 -66z" />
    <glyph glyph-name="b" unicode="b" horiz-adv-x="598" 
d="M61 0v700l86 18v-264q64 59 158 59q72 0 129.5 -35t91.5 -93.5t34 -131.5q0 -74 -34 -132.5t-92 -93.5t-130 -35q-43 0 -83.5 14.5t-74.5 40.5v-47h-85zM295 67q52 0 92.5 24.5t64 66t23.5 94.5t-23.5 95t-64 66.5t-92.5 24.5q-45 0 -83.5 -17.5t-64.5 -48.5v-240
q26 -30 65 -47.5t83 -17.5z" />
    <glyph glyph-name="c" unicode="c" horiz-adv-x="517" 
d="M296 -9q-72 0 -130.5 34.5t-93 94t-34.5 133.5q0 73 34.5 132t93 94.5t130.5 35.5q57 0 109 -21.5t91 -60.5l-54 -60q-29 32 -66.5 48t-77.5 16q-49 0 -88.5 -24.5t-63 -66t-23.5 -93.5t23.5 -94t63.5 -66.5t89 -24.5q40 0 75.5 15.5t66.5 46.5l53 -57q-40 -39 -91 -60.5
t-107 -21.5z" />
    <glyph glyph-name="d" unicode="d" horiz-adv-x="598" 
d="M293 -8q-71 0 -129 35t-92 93.5t-34 132.5q0 73 34 131.5t92 93.5t130 35q43 0 83 -14t74 -40v241l86 18v-718h-85v51q-66 -59 -159 -59zM302 67q46 0 84.5 17.5t64.5 48.5v240q-26 30 -64.5 47.5t-84.5 17.5q-50 0 -91 -24t-64.5 -65.5t-23.5 -94.5t23.5 -95t64.5 -67
t91 -25z" />
    <glyph glyph-name="e" unicode="e" horiz-adv-x="568" 
d="M300 -9q-73 0 -132.5 34.5t-94.5 94t-35 133.5q0 72 33.5 131t90.5 94t127 35q69 0 123 -35t86 -94.5t32 -132.5v-26h-406q6 -45 31 -81.5t63.5 -57.5t85.5 -21q38 0 73.5 12t60.5 34l54 -56q-43 -32 -89.5 -48t-102.5 -16zM125 292h320q-7 42 -29.5 75.5t-55.5 52.5
t-73 19q-41 0 -75 -18.5t-57 -52t-30 -76.5z" />
    <glyph glyph-name="f" unicode="f" horiz-adv-x="385" 
d="M135 0v432h-118v73h118v86q0 77 42 117.5t121 40.5q20 0 37 -2t33 -7v-76q-18 5 -32 7.5t-31 2.5q-43 0 -64 -20.5t-21 -64.5v-84h148v-73h-148v-432h-85z" />
    <glyph glyph-name="g" unicode="g" horiz-adv-x="594" 
d="M309 -214q-54 0 -106 13.5t-94 37.5l35 67q44 -23 83 -34t79 -11q69 0 105 32.5t36 96.5v64q-68 -56 -156 -56q-70 0 -127.5 34.5t-91.5 93.5t-34 131t34 131t91.5 93.5t129.5 34.5q42 0 82 -14.5t73 -41.5v47h85v-517q0 -97 -58 -149.5t-166 -52.5zM300 71q46 0 84 17
t63 48v238q-25 30 -63.5 47t-83.5 17q-50 0 -90.5 -24t-63.5 -65.5t-23 -93.5t23.5 -93.5t63.5 -66t90 -24.5z" />
    <glyph glyph-name="h" unicode="h" horiz-adv-x="557" 
d="M61 0v700l86 19v-270q59 66 156 66q58 0 102 -25t68.5 -69t24.5 -103v-318h-85v302q0 64 -36 101t-98 37q-43 0 -76.5 -19t-55.5 -53v-368h-86z" />
    <glyph glyph-name="i" unicode="i" horiz-adv-x="208" 
d="M61 0v505h86v-505h-86zM104 594q-22 0 -38.5 16.5t-16.5 39.5t16.5 39t38.5 16q23 0 39.5 -16t16.5 -39t-16.5 -39.5t-39.5 -16.5z" />
    <glyph glyph-name="j" unicode="j" horiz-adv-x="208" 
d="M104 594q-22 0 -38.5 16.5t-16.5 39.5t16.5 39t38.5 16q23 0 39.5 -16t16.5 -39t-16.5 -39.5t-39.5 -16.5zM11 -214q-15 0 -28.5 2t-22.5 5v70q16 -4 38 -4q34 0 48.5 15t14.5 50v581h86v-587q0 -64 -35.5 -98t-100.5 -34z" />
    <glyph glyph-name="k" unicode="k" horiz-adv-x="508" 
d="M61 0v700l86 18v-438l255 225h103l-270 -238l283 -267h-115l-256 240v-240h-86z" />
    <glyph glyph-name="l" unicode="l" horiz-adv-x="208" 
d="M61 0v700l86 18v-718h-86z" />
    <glyph glyph-name="m" unicode="m" horiz-adv-x="868" 
d="M61 0v505h86v-52q57 62 145 62q53 0 93.5 -24t64.5 -65q31 45 74 67t98 22q56 0 97.5 -25t65.5 -69t24 -103v-318h-85v302q0 64 -33.5 101t-90.5 37q-39 0 -71.5 -19t-55.5 -58q2 -10 3.5 -21t1.5 -24v-318h-85v302q0 64 -33.5 101t-90.5 37q-38 0 -69 -17.5t-53 -50.5
v-372h-86z" />
    <glyph glyph-name="n" unicode="n" horiz-adv-x="557" 
d="M61 0v505h86v-56q59 66 156 66q58 0 102 -25t68.5 -69t24.5 -103v-318h-85v302q0 64 -36 101t-98 37q-43 0 -76.5 -19t-55.5 -53v-368h-86z" />
    <glyph glyph-name="o" unicode="o" horiz-adv-x="597" 
d="M298 -10q-72 0 -131.5 35t-94 94t-34.5 133q0 73 34.5 132.5t94 94.5t131.5 35q73 0 132 -35t94 -94.5t35 -132.5q0 -74 -35 -133t-94 -94t-132 -35zM298 66q49 0 89 25t63.5 67t23.5 94q0 53 -23.5 94.5t-63.5 66.5t-89 25t-88.5 -25t-63 -66.5t-23.5 -94.5
q0 -52 23.5 -94t63 -67t88.5 -25z" />
    <glyph glyph-name="p" unicode="p" horiz-adv-x="598" 
d="M61 -204v709h85v-52q65 60 159 60q72 0 129.5 -35t91.5 -93.5t34 -131.5q0 -74 -34 -132.5t-92 -93.5t-130 -35q-43 0 -83 14.5t-74 40.5v-251h-86zM295 67q52 0 92.5 24.5t64 66t23.5 94.5t-23.5 95t-64 66.5t-91.5 24.5q-46 0 -84.5 -17.5t-64.5 -48.5v-240
q26 -30 65 -47.5t83 -17.5z" />
    <glyph glyph-name="q" unicode="q" horiz-adv-x="598" 
d="M451 -204v254q-66 -58 -158 -58q-71 0 -129 35t-92 93.5t-34 132.5q0 73 34 131.5t92 93.5t130 35q44 0 84.5 -14.5t73.5 -40.5v47h85v-709h-86zM302 67q46 0 84.5 17.5t64.5 48.5v240q-26 30 -64.5 47.5t-84.5 17.5q-50 0 -91 -24t-64.5 -65.5t-23.5 -94.5t23.5 -95
t64.5 -67t91 -25z" />
    <glyph glyph-name="r" unicode="r" horiz-adv-x="358" 
d="M61 0v505h86v-69q24 38 59 59t81 21q28 0 49 -8v-78q-13 6 -27 8t-28 2q-45 0 -79.5 -25t-54.5 -73v-342h-86z" />
    <glyph glyph-name="s" unicode="s" horiz-adv-x="455" 
d="M228 -10q-64 0 -119.5 20t-96.5 57l49 56q37 -32 79 -49t85 -17q57 0 93.5 23.5t36.5 60.5q0 30 -21.5 47.5t-66.5 24.5l-90 12q-75 11 -112.5 46t-37.5 94q0 44 24.5 77.5t68.5 53t101 19.5q55 0 104.5 -16t95.5 -50l-44 -58q-42 29 -81.5 42t-80.5 13q-49 0 -79 -21
t-30 -56q0 -31 20.5 -47.5t67.5 -23.5l90 -12q75 -10 113.5 -45t38.5 -94q0 -45 -27.5 -80.5t-74.5 -56t-106 -20.5z" />
    <glyph glyph-name="t" unicode="t" horiz-adv-x="376" 
d="M268 -10q-69 0 -106 33t-37 95v314h-108v73h108v128l85 21v-149h151v-73h-151v-293q0 -40 17.5 -57t58.5 -17q21 0 37.5 3t35.5 10v-74q-19 -7 -44 -10.5t-47 -3.5z" />
    <glyph glyph-name="u" unicode="u" horiz-adv-x="557" 
d="M255 -10q-57 0 -101.5 25t-69.5 69t-25 103v318h85v-302q0 -64 36.5 -101t97.5 -37q43 0 77 19t55 54v367h86v-505h-86v55q-59 -65 -155 -65z" />
    <glyph glyph-name="v" unicode="v" horiz-adv-x="526" 
d="M222 0l-218 505h95l165 -394l166 394h92l-218 -505h-82z" />
    <glyph glyph-name="w" unicode="w" horiz-adv-x="716" 
d="M155 0l-142 505h84l104 -388l121 388h75l120 -388l105 388h81l-143 -505h-82l-120 388l-120 -388h-83z" />
    <glyph glyph-name="x" unicode="x" horiz-adv-x="503" 
d="M4 0l197 259l-188 246h101l137 -182l137 182h98l-186 -245l199 -260h-102l-147 197l-149 -197h-97z" />
    <glyph glyph-name="y" unicode="y" horiz-adv-x="523" 
d="M88 -214q-15 0 -28 1.5t-22 3.5v77q18 -4 43 -4q68 0 101 76l26 60l-204 505h95l156 -401l170 401h93l-248 -576q-23 -51 -48.5 -82.5t-58 -46t-75.5 -14.5z" />
    <glyph glyph-name="z" unicode="z" horiz-adv-x="470" 
d="M30 0v65l295 364h-292v76h398v-65l-295 -365h299v-75h-405z" />
    <glyph glyph-name="braceleft" unicode="{" horiz-adv-x="391" 
d="M267 -215q-59 0 -96.5 26.5t-47 72t13.5 101.5l40 99q22 55 2 92.5t-73 37.5h-80v68h80q53 0 73 38.5t-2 92.5l-40 97q-23 57 -13.5 102.5t47 72t96.5 26.5q21 0 41 -3.5t43 -12.5l-16 -64q-17 6 -31.5 8.5t-30.5 2.5q-47 0 -64 -32.5t3 -83.5l45 -117q22 -56 -2 -101
t-80 -60q57 -15 80 -60.5t2 -99.5l-45 -118q-20 -50 -3 -83t64 -33q16 0 30.5 2.5t31.5 8.5l16 -64q-23 -9 -43 -12.5t-41 -3.5z" />
    <glyph glyph-name="bar" unicode="|" horiz-adv-x="285" 
d="M103 -205v905h79v-905h-79z" />
    <glyph glyph-name="braceright" unicode="}" horiz-adv-x="391" 
d="M124 711q60 0 97 -26.5t46.5 -71.5t-13.5 -102l-40 -99q-22 -54 -2 -91.5t73 -37.5h80v-69h-80q-53 0 -73 -38t2 -92l40 -98q24 -56 14 -101.5t-47 -72.5t-97 -27q-21 0 -41 4t-43 12l16 64q17 -6 31.5 -8.5t30.5 -2.5q47 0 64.5 33t-3.5 84l-45 117q-22 55 2 100t80 60
q-56 16 -79.5 61t-2.5 99l45 118q21 51 3.5 83.5t-64.5 33.5q-16 0 -30.5 -3t-31.5 -8l-16 64q23 8 43 11.5t41 3.5z" />
    <glyph glyph-name="asciitilde" unicode="~" horiz-adv-x="581" 
d="M102 298l-64 8q9 72 43 111t87 39q20 0 42.5 -6.5t50.5 -21.5l81 -40q23 -12 38 -17t27 -5q61 0 73 89l63 -8q-9 -72 -43 -111t-87 -39q-19 0 -42 6.5t-51 20.5l-81 40q-25 14 -39 18.5t-26 4.5q-60 0 -72 -89z" />
    <glyph glyph-name="uni00A0" unicode="&#xa0;" horiz-adv-x="212" 
 />
    <glyph glyph-name="exclamdown" unicode="&#xa1;" horiz-adv-x="206" 
d="M137 300l11 -508h-89l11 508h67zM103 504q23 0 40 -17t17 -40t-17 -40t-40 -17t-40 17t-17 40t17 40t40 17z" />
    <glyph glyph-name="cent" unicode="&#xa2;" horiz-adv-x="518" 
d="M265 -117v110q-64 8 -115.5 43.5t-81.5 92t-30 124.5t30 124t81.5 92t115.5 44v98h53v-97q50 -4 96.5 -24.5t81.5 -56.5l-54 -60q-26 27 -58 43t-66 20v-367q33 3 64.5 18.5t58.5 42.5l53 -57q-36 -35 -81.5 -56t-94.5 -25v-109h-53zM123 253q0 -46 18.5 -84.5t50.5 -64
t73 -33.5v363q-41 -8 -73 -34t-50.5 -63.5t-18.5 -83.5z" />
    <glyph glyph-name="sterling" unicode="&#xa3;" horiz-adv-x="621" 
d="M460 -21q-14 0 -29 1.5t-31 4.5l-195 42q-10 2 -20 3t-19 1q-34 0 -57.5 -16.5t-40.5 -51.5l-63 42q25 46 59 70t79 28q24 19 24 59q0 3 -0.5 8t-2.5 18.5t-7 41.5t-13 77h-104v63h92q-7 43 -11 66.5t-5 36.5t-1 22q0 66 26.5 114.5t76 75t117.5 26.5q91 0 149.5 -44.5
t80.5 -131.5l-74 -22q-15 61 -54.5 93t-100.5 32q-68 0 -103.5 -37t-35.5 -103q0 -8 1 -19t5 -36t12 -73h206v-63h-194q7 -40 11 -64.5t6 -38t2.5 -19.5t0.5 -10q0 -50 -26 -79l192 -39q11 -3 21.5 -4t20.5 -1q61 0 92 59l64 -39q-54 -93 -151 -93z" />
    <glyph glyph-name="currency" unicode="&#xa4;" horiz-adv-x="683" 
d="M87 60l-45 45l94 95q-25 32 -39 74t-14 87q0 47 14 87.5t40 73.5l-95 96l45 46l95 -96q33 26 73.5 40.5t85.5 14.5q46 0 86.5 -14.5t73.5 -40.5l95 95l43 -44l-95 -96q26 -33 40.5 -74t14.5 -88q0 -45 -13.5 -86.5t-39.5 -74.5l94 -95l-44 -46l-95 95
q-33 -26 -73.5 -40.5t-86.5 -14.5q-45 0 -86.5 15t-74.5 41zM341 175q49 0 89 25t63.5 67.5t23.5 93.5q0 53 -23.5 95t-63.5 66.5t-89 24.5t-88.5 -24.5t-63 -66.5t-23.5 -95q0 -51 23.5 -93.5t63 -67.5t88.5 -25z" />
    <glyph glyph-name="yen" unicode="&#xa5;" horiz-adv-x="654" 
d="M283 0v133h-186v58h186v72h-186v58h161l-251 379h104l220 -339l216 339h100l-248 -379h158v-58h-184v-72h184v-58h-184v-133h-90z" />
    <glyph glyph-name="brokenbar" unicode="&#xa6;" horiz-adv-x="286" 
d="M103 288v412h80v-412h-80zM103 -205v412h80v-412h-80z" />
    <glyph glyph-name="section" unicode="&#xa7;" horiz-adv-x="568" 
d="M280 -51q-45 0 -92 13t-91 37l33 58q87 -46 150 -46q46 0 72.5 19.5t26.5 54.5q0 27 -17.5 45.5t-55.5 31.5l-109 36q-78 25 -110 58t-32 87q0 47 27.5 80.5t75.5 47.5q-47 37 -47 98q0 64 48.5 102.5t129.5 38.5q44 0 91 -13.5t92 -36.5l-34 -59q-84 47 -150 47
q-47 0 -73 -19.5t-26 -54.5q0 -27 18 -45.5t56 -31.5l108 -35q79 -26 110.5 -58.5t31.5 -88.5q0 -46 -27.5 -79.5t-75.5 -48.5q47 -37 47 -98q0 -63 -49 -101.5t-128 -38.5zM343 223q44 5 70 27.5t26 57.5q0 31 -20.5 51t-66.5 35l-115 37q-4 1 -6.5 2.5t-5.5 2.5
q-45 -5 -71 -28t-26 -58q0 -30 20.5 -49.5t66.5 -36.5l116 -37q3 -1 6 -1.5t6 -2.5z" />
    <glyph glyph-name="dieresis" unicode="&#xa8;" 
d="M208 610q-23 0 -38.5 15t-15.5 37q0 23 15.5 38t38.5 15t38.5 -15t15.5 -38q0 -22 -15.5 -37t-38.5 -15zM392 610q-23 0 -38.5 15t-15.5 37q0 23 15.5 38t38.5 15t38.5 -15t15.5 -38q0 -22 -15.5 -37t-38.5 -15z" />
    <glyph glyph-name="copyright" unicode="&#xa9;" horiz-adv-x="801" 
d="M411 165q-52 0 -93.5 24.5t-66 67t-24.5 93.5q0 52 24.5 94t66 67t93.5 25q41 0 78 -15.5t65 -44.5l-42 -45q-21 23 -46.5 34t-53.5 11q-33 0 -60 -16.5t-42.5 -45t-15.5 -64.5q0 -35 15.5 -63.5t42.5 -45t61 -16.5q28 0 52 11t46 33l41 -45q-28 -29 -64 -44t-77 -15z
M401 -11q-76 0 -141 27.5t-114 77t-76 115t-27 141.5t27 141.5t76 115t114 77t141 27.5q75 0 140.5 -27.5t114 -76.5t76 -114.5t27.5 -142.5q0 -76 -27.5 -142t-76 -115t-114 -76.5t-140.5 -27.5zM400 36q65 0 121 24.5t98 67.5t65.5 100t23.5 122t-23.5 122t-65.5 100
t-98 67.5t-120 24.5q-65 0 -120 -24.5t-97 -67.5t-65.5 -100t-23.5 -122t23.5 -122t65.5 -100t97 -67.5t119 -24.5z" />
    <glyph glyph-name="ordfeminine" unicode="&#xaa;" horiz-adv-x="414" 
d="M173 316q-62 0 -101.5 32t-39.5 84q0 53 42 84t113 31q28 0 54.5 -5.5t49.5 -15.5v42q0 83 -94 83q-26 0 -54 -7.5t-64 -24.5l-26 53q42 20 79.5 29.5t74.5 9.5q74 0 114 -35t40 -101v-252h-70v34q-50 -41 -118 -41zM188 370q30 0 56 9t47 27v68q-21 12 -45.5 18t-54.5 6
q-41 0 -66 -17.5t-25 -46.5q0 -30 24.5 -47t63.5 -17z" />
    <glyph glyph-name="guillemotleft" unicode="&#xab;" horiz-adv-x="613" 
d="M264 0l-235 253l235 252h91l-230 -250l233 -255h-94zM480 0l-236 253l236 252h90l-229 -250l232 -255h-93z" />
    <glyph glyph-name="logicalnot" unicode="&#xac;" horiz-adv-x="585" 
d="M456 0v251h-390v68h460v-319h-70z" />
    <glyph glyph-name="registered" unicode="&#xae;" horiz-adv-x="489" 
d="M244 310q-56 0 -101.5 26.5t-72 73t-26.5 102.5q0 57 26.5 103t72 72.5t101.5 26.5t101.5 -26.5t72.5 -72.5t27 -103q0 -56 -27 -102.5t-72.5 -73t-101.5 -26.5zM244 346q47 0 83.5 21.5t57.5 59t21 85.5t-21 85.5t-57.5 59t-83.5 21.5q-46 0 -82.5 -21.5t-57.5 -59
t-21 -85.5q0 -47 21 -84.5t57.5 -59.5t82.5 -22zM177 419v188h76q30 0 47 -15t17 -42q0 -17 -9.5 -31t-25.5 -22l46 -78h-40l-41 70h-34v-70h-36zM248 578h-35v-61h34q33 0 33 31q0 14 -8 22t-24 8z" />
    <glyph glyph-name="macron" unicode="&#xaf;" 
d="M155 622v59h290v-59h-290z" />
    <glyph glyph-name="degree" unicode="&#xb0;" horiz-adv-x="404" 
d="M202 421q-40 0 -73 20t-52.5 53t-19.5 72q0 40 19.5 73t52.5 52.5t73 19.5q41 0 73 -19.5t51.5 -52.5t19.5 -73q0 -39 -19.5 -72t-51.5 -53t-73 -20zM202 475q37 0 63.5 27t26.5 64q0 38 -26.5 65t-63.5 27t-63.5 -27t-26.5 -65q0 -37 26.5 -64t63.5 -27z" />
    <glyph glyph-name="plusminus" unicode="&#xb1;" 
d="M98 -1v68h404v-68h-404zM265 178v172h-167v69h167v172h70v-172h167v-69h-167v-172h-70z" />
    <glyph glyph-name="uni00B2" unicode="&#xb2;" horiz-adv-x="294" 
d="M26 350v42l137 124q27 26 38 43.5t11 36.5q0 26 -19 42.5t-50 16.5q-25 0 -47 -10t-48 -33l-33 39q30 26 62.5 40t66.5 14q55 0 90 -29.5t35 -75.5q0 -30 -15 -56t-54 -61l-92 -84h165v-49h-247z" />
    <glyph glyph-name="uni00B3" unicode="&#xb3;" horiz-adv-x="316" 
d="M152 345q-39 0 -74.5 14t-60.5 39l40 37q21 -22 43 -31t52 -9q36 0 57 15.5t21 40.5q0 22 -20.5 35.5t-53.5 13.5h-31v47h26q29 0 48 16t19 40q0 23 -19 37.5t-48 14.5q-28 0 -48 -9.5t-43 -32.5l-39 37q26 26 60 41t72 15q54 0 89 -27.5t35 -70.5q0 -26 -15 -47t-41 -34
q31 -10 49.5 -31t18.5 -49q0 -45 -38.5 -73.5t-98.5 -28.5z" />
    <glyph glyph-name="acute" unicode="&#xb4;" 
d="M233 601l93 119h107l-127 -119h-73z" />
    <glyph glyph-name="uni00B5" unicode="&#xb5;" horiz-adv-x="563" 
d="M63 -204v709h85v-304q0 -64 36.5 -100.5t97.5 -36.5q43 0 77 19.5t55 55.5v366h86v-505h-86v63q-29 -36 -68 -54.5t-88 -18.5q-32 0 -60 8.5t-50 24.5v-227h-85z" />
    <glyph glyph-name="paragraph" unicode="&#xb6;" horiz-adv-x="660" 
d="M317 0v282h-55q-66 0 -117.5 26.5t-80 73.5t-28.5 108q0 63 28.5 110t79.5 73.5t117 26.5h325v-700h-78v282h-114v-282h-77zM394 354h114v274h-114v-274zM261 354h56v274h-56q-64 0 -104 -37.5t-40 -99.5t40 -99.5t104 -37.5z" />
    <glyph glyph-name="periodcentered" unicode="&#xb7;" horiz-adv-x="250" 
d="M125 226q-23 0 -40 16.5t-17 40.5q0 23 17 39.5t40 16.5t40 -16.5t17 -39.5q0 -24 -17 -40.5t-40 -16.5z" />
    <glyph glyph-name="cedilla" unicode="&#xb8;" 
d="M285 -229q-70 0 -116 41l33 35q38 -31 82 -31q30 0 46.5 13t16.5 34t-18 33t-49 12h-31l26 92h48l-15 -53q44 -3 69.5 -25t25.5 -59q0 -40 -33.5 -66t-84.5 -26z" />
    <glyph glyph-name="uni00B9" unicode="&#xb9;" horiz-adv-x="171" 
d="M84 350v290l-65 -27v51l87 36h36v-350h-58z" />
    <glyph glyph-name="ordmasculine" unicode="&#xba;" horiz-adv-x="468" 
d="M234 314q-55 0 -100 26.5t-71 71.5t-26 101q0 55 26 100t71 71.5t100 26.5t99.5 -26.5t71 -71.5t26.5 -100q0 -56 -26.5 -101t-71 -71.5t-99.5 -26.5zM234 376q35 0 64 18.5t45.5 49t16.5 69.5q0 38 -16.5 68.5t-45.5 49t-64 18.5q-36 0 -64.5 -18.5t-45.5 -49t-17 -68.5
q0 -39 17 -69.5t45.5 -49t64.5 -18.5z" />
    <glyph glyph-name="guillemotright" unicode="&#xbb;" horiz-adv-x="613" 
d="M349 505l236 -253l-236 -252h-91l230 250l-233 255h94zM133 505l235 -253l-235 -252h-91l230 250l-233 255h94z" />
    <glyph glyph-name="onequarter" unicode="&#xbc;" horiz-adv-x="615" 
d="M499 0v86h-198v47l190 217h66v-215h43v-49h-43v-86h-58zM369 135h130v148zM84 350v290l-65 -27v51l87 36h36v-350h-58zM41 1l393 700h70l-395 -700h-68z" />
    <glyph glyph-name="onehalf" unicode="&#xbd;" horiz-adv-x="648" 
d="M84 350v290l-65 -27v51l87 36h36v-350h-58zM41 0l393 700h70l-395 -700h-68zM380 0v42l137 124q27 26 38 43.5t11 36.5q0 26 -19 42.5t-50 16.5q-25 0 -47 -10t-48 -33l-33 39q30 26 62.5 40t66.5 14q55 0 90 -29.5t35 -75.5q0 -30 -15 -56t-54 -61l-92 -84h165v-49h-247
z" />
    <glyph glyph-name="threequarters" unicode="&#xbe;" horiz-adv-x="709" 
d="M593 0v86h-198v47l190 217h66v-215h43v-49h-43v-86h-58zM463 135h130v148zM152 345q-39 0 -74.5 14t-60.5 39l40 37q21 -22 43 -31t52 -9q36 0 57 15.5t21 40.5q0 22 -20.5 35.5t-53.5 13.5h-31v47h26q29 0 48 16t19 40q0 23 -19 37.5t-48 14.5q-28 0 -48 -9.5t-43 -32.5
l-39 37q26 26 60 41t72 15q54 0 89 -27.5t35 -70.5q0 -26 -15 -47t-41 -34q31 -10 49.5 -31t18.5 -49q0 -45 -38.5 -73.5t-98.5 -28.5zM135 0l393 700h70l-395 -700h-68z" />
    <glyph glyph-name="questiondown" unicode="&#xbf;" horiz-adv-x="510" 
d="M322 295q3 -45 -4.5 -78.5t-26 -59.5t-50.5 -50l-46 -32q-40 -29 -57.5 -54.5t-17.5 -56.5q0 -29 18.5 -52t50 -37t69.5 -14q49 0 91 23t73 66l68 -39q-27 -40 -64 -68t-80.5 -42.5t-91.5 -14.5q-62 0 -111.5 23t-78 63t-28.5 90q0 35 10.5 62t36.5 54t71 57l33 23
q36 25 50.5 57t10.5 80h74zM285 504q23 0 39.5 -17t16.5 -40t-16.5 -40t-39.5 -17q-24 0 -40.5 17t-16.5 40t16.5 40t40.5 17z" />
    <glyph glyph-name="Agrave" unicode="&#xc0;" horiz-adv-x="689" 
d="M3 0l289 700h107l288 -700h-98l-85 213h-322l-86 -213h-93zM212 289h262l-131 327zM329 796l-125 119h107l92 -119h-74z" />
    <glyph glyph-name="Aacute" unicode="&#xc1;" horiz-adv-x="689" 
d="M3 0l289 700h107l288 -700h-98l-85 213h-322l-86 -213h-93zM212 289h262l-131 327zM278 796l93 119h107l-127 -119h-73z" />
    <glyph glyph-name="Acircumflex" unicode="&#xc2;" horiz-adv-x="689" 
d="M3 0l289 700h107l288 -700h-98l-85 213h-322l-86 -213h-93zM212 289h262l-131 327zM426 793l-82 79l-81 -79h-70l106 123h92l106 -123h-71z" />
    <glyph glyph-name="Atilde" unicode="&#xc3;" horiz-adv-x="689" 
d="M3 0l289 700h107l288 -700h-98l-85 213h-322l-86 -213h-93zM212 289h262l-131 327zM230 791l-58 11q23 104 98 104q27 0 52.5 -13t49 -27t43.5 -14q17 0 27.5 13t17.5 43l57 -11q-10 -52 -35 -78t-63 -26q-26 0 -51.5 13.5t-49 27t-44.5 13.5q-18 0 -28 -13t-16 -43z" />
    <glyph glyph-name="Adieresis" unicode="&#xc4;" horiz-adv-x="689" 
d="M3 0l289 700h107l288 -700h-98l-85 213h-322l-86 -213h-93zM212 289h262l-131 327zM253 805q-23 0 -38.5 15t-15.5 37q0 23 15.5 38t38.5 15t38.5 -15t15.5 -38q0 -22 -15.5 -37t-38.5 -15zM437 805q-23 0 -38.5 15t-15.5 37q0 23 15.5 38t38.5 15t38.5 -15t15.5 -38
q0 -22 -15.5 -37t-38.5 -15z" />
    <glyph glyph-name="Aring" unicode="&#xc5;" horiz-adv-x="689" 
d="M3 0l289 700h107l288 -700h-98l-85 213h-322l-86 -213h-93zM212 289h262l-131 327zM345 778q-32 0 -57.5 15.5t-41 41.5t-15.5 56q0 32 15.5 57t41 40.5t57.5 15.5t57.5 -15.5t41 -40.5t15.5 -57q0 -30 -15.5 -56t-41 -41.5t-57.5 -15.5zM345 823q28 0 48.5 20t20.5 48
q0 29 -20.5 49t-48.5 20t-48.5 -20t-20.5 -49q0 -28 20.5 -48t48.5 -20z" />
    <glyph glyph-name="AE" unicode="&#xc6;" horiz-adv-x="959" 
d="M3 0l290 700h630v-79h-489l93 -229h258v-77h-228l95 -236h271v-79h-334l-85 213h-322l-86 -213h-93zM212 289h262l-130 326z" />
    <glyph glyph-name="Ccedilla" unicode="&#xc7;" horiz-adv-x="721" 
d="M392 -229q-70 0 -115 41l33 35q38 -31 82 -31q29 0 45.5 13t16.5 34t-17.5 33t-48.5 12h-32l24 82q-72 6 -133.5 35t-107.5 77.5t-71 111.5t-25 136q0 76 27.5 141.5t77.5 115t116.5 77t142.5 27.5q56 0 107 -14t95 -40t78 -64l-60 -62q-40 47 -98 72t-122 25
q-58 0 -108 -21t-87 -59t-57.5 -88t-20.5 -110q0 -59 20.5 -109.5t58 -88.5t88 -59t109.5 -21q63 0 120 25t96 70l59 -60q-49 -53 -116 -83t-142 -35l-11 -42q44 -3 69.5 -25t25.5 -59q0 -40 -33.5 -66t-85.5 -26z" />
    <glyph glyph-name="Egrave" unicode="&#xc8;" horiz-adv-x="622" 
d="M74 0v700h508v-79h-418v-229h274v-77h-274v-236h422v-79h-512zM325 796l-125 119h107l92 -119h-74z" />
    <glyph glyph-name="Eacute" unicode="&#xc9;" horiz-adv-x="622" 
d="M74 0v700h508v-79h-418v-229h274v-77h-274v-236h422v-79h-512zM274 796l93 119h107l-127 -119h-73z" />
    <glyph glyph-name="Ecircumflex" unicode="&#xca;" horiz-adv-x="622" 
d="M74 0v700h508v-79h-418v-229h274v-77h-274v-236h422v-79h-512zM422 793l-82 79l-81 -79h-70l106 123h92l106 -123h-71z" />
    <glyph glyph-name="Edieresis" unicode="&#xcb;" horiz-adv-x="622" 
d="M74 0v700h508v-79h-418v-229h274v-77h-274v-236h422v-79h-512zM249 805q-23 0 -38.5 15t-15.5 37q0 23 15.5 38t38.5 15t38.5 -15t15.5 -38q0 -22 -15.5 -37t-38.5 -15zM433 805q-23 0 -38.5 15t-15.5 37q0 23 15.5 38t38.5 15t38.5 -15t15.5 -38q0 -22 -15.5 -37
t-38.5 -15z" />
    <glyph glyph-name="Igrave" unicode="&#xcc;" horiz-adv-x="239" 
d="M74 0v700h90v-700h-90zM104 796l-125 119h107l92 -119h-74z" />
    <glyph glyph-name="Iacute" unicode="&#xcd;" horiz-adv-x="239" 
d="M74 0v700h90v-700h-90zM53 796l93 119h107l-127 -119h-73z" />
    <glyph glyph-name="Icircumflex" unicode="&#xce;" horiz-adv-x="239" 
d="M74 0v700h90v-700h-90zM201 793l-82 79l-81 -79h-70l106 123h92l106 -123h-71z" />
    <glyph glyph-name="Idieresis" unicode="&#xcf;" horiz-adv-x="239" 
d="M74 0v700h90v-700h-90zM28 805q-23 0 -38.5 15t-15.5 37q0 23 15.5 38t38.5 15t38.5 -15t15.5 -38q0 -22 -15.5 -37t-38.5 -15zM212 805q-23 0 -38.5 15t-15.5 37q0 23 15.5 38t38.5 15t38.5 -15t15.5 -38q0 -22 -15.5 -37t-38.5 -15z" />
    <glyph glyph-name="Eth" unicode="&#xd0;" horiz-adv-x="749" 
d="M99 0v312h-85v76h85v312h238q80 0 147 -26t116.5 -73.5t77.5 -111.5t28 -139q0 -76 -27.5 -140t-77 -111t-117 -73t-147.5 -26h-238zM189 81h151q59 0 108.5 20.5t87 57t58 85t20.5 106.5q0 57 -20.5 106t-58 85.5t-87.5 57t-108 20.5h-151v-231h184v-76h-184v-231z" />
    <glyph glyph-name="Ntilde" unicode="&#xd1;" horiz-adv-x="729" 
d="M74 0v700h89l407 -546v546h85v-700h-79l-416 561v-561h-86zM249 791l-58 11q23 104 98 104q27 0 52.5 -13t49 -27t43.5 -14q17 0 27.5 13t17.5 43l57 -11q-10 -52 -35 -78t-63 -26q-26 0 -51.5 13.5t-49 27t-44.5 13.5q-18 0 -28 -13t-16 -43z" />
    <glyph glyph-name="Ograve" unicode="&#xd2;" horiz-adv-x="810" 
d="M405 -11q-76 0 -142 27.5t-115.5 77t-77 115t-27.5 141.5t27.5 141.5t77 115t115.5 77t142 27.5t141.5 -27.5t115.5 -77t77.5 -115t27.5 -141.5t-27.5 -141.5t-77.5 -115t-115.5 -77t-141.5 -27.5zM405 72q58 0 107 21t85.5 59t57.5 88.5t21 109.5q0 60 -21 110t-57.5 88
t-85.5 59t-107 21q-57 0 -106.5 -21t-86.5 -59t-57.5 -88t-20.5 -110q0 -59 20.5 -109.5t57.5 -88.5t86.5 -59t106.5 -21zM390 796l-125 119h107l92 -119h-74z" />
    <glyph glyph-name="Oacute" unicode="&#xd3;" horiz-adv-x="810" 
d="M405 -11q-76 0 -142 27.5t-115.5 77t-77 115t-27.5 141.5t27.5 141.5t77 115t115.5 77t142 27.5t141.5 -27.5t115.5 -77t77.5 -115t27.5 -141.5t-27.5 -141.5t-77.5 -115t-115.5 -77t-141.5 -27.5zM405 72q58 0 107 21t85.5 59t57.5 88.5t21 109.5q0 60 -21 110t-57.5 88
t-85.5 59t-107 21q-57 0 -106.5 -21t-86.5 -59t-57.5 -88t-20.5 -110q0 -59 20.5 -109.5t57.5 -88.5t86.5 -59t106.5 -21zM338 796l93 119h107l-127 -119h-73z" />
    <glyph glyph-name="Ocircumflex" unicode="&#xd4;" horiz-adv-x="810" 
d="M405 -11q-76 0 -142 27.5t-115.5 77t-77 115t-27.5 141.5t27.5 141.5t77 115t115.5 77t142 27.5t141.5 -27.5t115.5 -77t77.5 -115t27.5 -141.5t-27.5 -141.5t-77.5 -115t-115.5 -77t-141.5 -27.5zM405 72q58 0 107 21t85.5 59t57.5 88.5t21 109.5q0 60 -21 110t-57.5 88
t-85.5 59t-107 21q-57 0 -106.5 -21t-86.5 -59t-57.5 -88t-20.5 -110q0 -59 20.5 -109.5t57.5 -88.5t86.5 -59t106.5 -21zM486 793l-82 79l-81 -79h-70l106 123h92l106 -123h-71z" />
    <glyph glyph-name="Otilde" unicode="&#xd5;" horiz-adv-x="810" 
d="M405 -11q-76 0 -142 27.5t-115.5 77t-77 115t-27.5 141.5t27.5 141.5t77 115t115.5 77t142 27.5t141.5 -27.5t115.5 -77t77.5 -115t27.5 -141.5t-27.5 -141.5t-77.5 -115t-115.5 -77t-141.5 -27.5zM405 72q58 0 107 21t85.5 59t57.5 88.5t21 109.5q0 60 -21 110t-57.5 88
t-85.5 59t-107 21q-57 0 -106.5 -21t-86.5 -59t-57.5 -88t-20.5 -110q0 -59 20.5 -109.5t57.5 -88.5t86.5 -59t106.5 -21zM290 791l-58 11q23 104 98 104q27 0 52.5 -13t49 -27t43.5 -14q17 0 27.5 13t17.5 43l57 -11q-10 -52 -35 -78t-63 -26q-26 0 -51.5 13.5t-49 27
t-44.5 13.5q-18 0 -28 -13t-16 -43z" />
    <glyph glyph-name="Odieresis" unicode="&#xd6;" horiz-adv-x="810" 
d="M405 -11q-76 0 -142 27.5t-115.5 77t-77 115t-27.5 141.5t27.5 141.5t77 115t115.5 77t142 27.5t141.5 -27.5t115.5 -77t77.5 -115t27.5 -141.5t-27.5 -141.5t-77.5 -115t-115.5 -77t-141.5 -27.5zM405 72q58 0 107 21t85.5 59t57.5 88.5t21 109.5q0 60 -21 110t-57.5 88
t-85.5 59t-107 21q-57 0 -106.5 -21t-86.5 -59t-57.5 -88t-20.5 -110q0 -59 20.5 -109.5t57.5 -88.5t86.5 -59t106.5 -21zM313 805q-23 0 -38.5 15t-15.5 37q0 23 15.5 38t38.5 15t38.5 -15t15.5 -38q0 -22 -15.5 -37t-38.5 -15zM497 805q-23 0 -38.5 15t-15.5 37
q0 23 15.5 38t38.5 15t38.5 -15t15.5 -38q0 -22 -15.5 -37t-38.5 -15z" />
    <glyph glyph-name="multiply" unicode="&#xd7;" 
d="M153 158l-42 45l146 155l-147 157l43 46l147 -156l146 156l44 -45l-147 -156l147 -157l-45 -46l-146 156z" />
    <glyph glyph-name="Oslash" unicode="&#xd8;" horiz-adv-x="810" 
d="M405 -11q-57 0 -109.5 16.5t-96.5 46.5l-43 -52h-88l78 95q-48 49 -75.5 114.5t-27.5 140.5q0 76 27.5 141.5t77 115t115.5 77t142 27.5q56 0 107.5 -16t93.5 -44l40 49h90l-76 -92q50 -48 78.5 -115t28.5 -143t-27.5 -141.5t-77.5 -115t-115.5 -77t-141.5 -27.5z
M203 163l348 423q-31 20 -68 31t-78 11q-57 0 -106.5 -21t-86.5 -59t-57.5 -88t-20.5 -110q0 -54 18.5 -102.5t50.5 -84.5zM405 72q58 0 107 21t85.5 59t57.5 88.5t21 109.5q0 56 -19 105t-52 85l-351 -423q32 -21 70.5 -33t80.5 -12z" />
    <glyph glyph-name="Ugrave" unicode="&#xd9;" horiz-adv-x="708" 
d="M354 -11q-90 0 -156 37.5t-101.5 107t-35.5 163.5v403h90v-403q0 -68 25 -119t71 -78.5t107 -27.5q62 0 107.5 27.5t70.5 78.5t25 119v403h90v-403q0 -94 -36 -163t-101.5 -107t-155.5 -38zM338 796l-125 119h107l92 -119h-74z" />
    <glyph glyph-name="Uacute" unicode="&#xda;" horiz-adv-x="708" 
d="M354 -11q-90 0 -156 37.5t-101.5 107t-35.5 163.5v403h90v-403q0 -68 25 -119t71 -78.5t107 -27.5q62 0 107.5 27.5t70.5 78.5t25 119v403h90v-403q0 -94 -36 -163t-101.5 -107t-155.5 -38zM287 796l93 119h107l-127 -119h-73z" />
    <glyph glyph-name="Ucircumflex" unicode="&#xdb;" horiz-adv-x="708" 
d="M354 -11q-90 0 -156 37.5t-101.5 107t-35.5 163.5v403h90v-403q0 -68 25 -119t71 -78.5t107 -27.5q62 0 107.5 27.5t70.5 78.5t25 119v403h90v-403q0 -94 -36 -163t-101.5 -107t-155.5 -38zM435 793l-82 79l-81 -79h-70l106 123h92l106 -123h-71z" />
    <glyph glyph-name="Udieresis" unicode="&#xdc;" horiz-adv-x="708" 
d="M354 -11q-90 0 -156 37.5t-101.5 107t-35.5 163.5v403h90v-403q0 -68 25 -119t71 -78.5t107 -27.5q62 0 107.5 27.5t70.5 78.5t25 119v403h90v-403q0 -94 -36 -163t-101.5 -107t-155.5 -38zM262 805q-23 0 -38.5 15t-15.5 37q0 23 15.5 38t38.5 15t38.5 -15t15.5 -38
q0 -22 -15.5 -37t-38.5 -15zM446 805q-23 0 -38.5 15t-15.5 37q0 23 15.5 38t38.5 15t38.5 -15t15.5 -38q0 -22 -15.5 -37t-38.5 -15z" />
    <glyph glyph-name="Yacute" unicode="&#xdd;" horiz-adv-x="652" 
d="M281 0v282l-280 418h105l223 -339l222 339h100l-280 -421v-279h-90zM259 796l93 119h107l-127 -119h-73z" />
    <glyph glyph-name="Thorn" unicode="&#xde;" horiz-adv-x="645" 
d="M74 0v700h90v-139h225q63 0 112 -27.5t77.5 -75t28.5 -109.5q0 -60 -28.5 -107.5t-77.5 -74.5t-112 -27h-225v-140h-90zM164 217h215q39 0 70 17.5t49 47t18 67.5t-18 68.5t-49 47.5t-70 17h-215v-265z" />
    <glyph glyph-name="germandbls" unicode="&#xdf;" horiz-adv-x="639" 
d="M433 -11q-115 0 -199 81l49 49q66 -66 148 -66q50 0 79 20.5t29 53.5q0 32 -17.5 51t-61.5 33l-81 27q-60 20 -84.5 44t-24.5 61q0 35 19 57.5t47 38t56.5 30t47.5 33.5t19 47q0 42 -41 68t-106 26q-80 0 -123 -43.5t-43 -126.5v-473h-85v472q0 114 66 178t183 64
q71 0 123 -19t81 -54.5t29 -82.5q0 -41 -19 -67.5t-47.5 -44t-57 -30.5t-47.5 -27.5t-19 -34.5q0 -18 13 -29.5t51 -24.5l78 -27q66 -22 95 -54.5t29 -83.5q0 -66 -51 -106t-135 -40z" />
    <glyph glyph-name="agrave" unicode="&#xe0;" horiz-adv-x="523" 
d="M221 -9q-55 0 -97 19.5t-65.5 53.5t-23.5 80q0 71 54.5 112.5t147.5 41.5q79 0 144 -32v61q0 57 -33 86t-96 29q-36 0 -74 -10.5t-84 -33.5l-32 66q56 26 104 38.5t96 12.5q97 0 150 -46t53 -132v-337h-84v47q-34 -28 -74 -42t-86 -14zM117 146q0 -40 33.5 -64.5
t87.5 -24.5q43 0 78.5 12.5t64.5 40.5v91q-30 19 -63.5 27.5t-75.5 8.5q-57 0 -91 -25t-34 -66zM237 601l-125 119h107l92 -119h-74z" />
    <glyph glyph-name="aacute" unicode="&#xe1;" horiz-adv-x="523" 
d="M221 -9q-55 0 -97 19.5t-65.5 53.5t-23.5 80q0 71 54.5 112.5t147.5 41.5q79 0 144 -32v61q0 57 -33 86t-96 29q-36 0 -74 -10.5t-84 -33.5l-32 66q56 26 104 38.5t96 12.5q97 0 150 -46t53 -132v-337h-84v47q-34 -28 -74 -42t-86 -14zM117 146q0 -40 33.5 -64.5
t87.5 -24.5q43 0 78.5 12.5t64.5 40.5v91q-30 19 -63.5 27.5t-75.5 8.5q-57 0 -91 -25t-34 -66zM186 601l93 119h107l-127 -119h-73z" />
    <glyph glyph-name="acircumflex" unicode="&#xe2;" horiz-adv-x="523" 
d="M221 -9q-55 0 -97 19.5t-65.5 53.5t-23.5 80q0 71 54.5 112.5t147.5 41.5q79 0 144 -32v61q0 57 -33 86t-96 29q-36 0 -74 -10.5t-84 -33.5l-32 66q56 26 104 38.5t96 12.5q97 0 150 -46t53 -132v-337h-84v47q-34 -28 -74 -42t-86 -14zM117 146q0 -40 33.5 -64.5
t87.5 -24.5q43 0 78.5 12.5t64.5 40.5v91q-30 19 -63.5 27.5t-75.5 8.5q-57 0 -91 -25t-34 -66zM334 598l-82 79l-81 -79h-70l106 123h92l106 -123h-71z" />
    <glyph glyph-name="atilde" unicode="&#xe3;" horiz-adv-x="523" 
d="M221 -9q-55 0 -97 19.5t-65.5 53.5t-23.5 80q0 71 54.5 112.5t147.5 41.5q79 0 144 -32v61q0 57 -33 86t-96 29q-36 0 -74 -10.5t-84 -33.5l-32 66q56 26 104 38.5t96 12.5q97 0 150 -46t53 -132v-337h-84v47q-34 -28 -74 -42t-86 -14zM117 146q0 -40 33.5 -64.5
t87.5 -24.5q43 0 78.5 12.5t64.5 40.5v91q-30 19 -63.5 27.5t-75.5 8.5q-57 0 -91 -25t-34 -66zM138 596l-58 11q23 104 98 104q27 0 52.5 -13t49 -27t43.5 -14q17 0 27.5 13t17.5 43l57 -11q-10 -52 -35 -78t-63 -26q-26 0 -51.5 13.5t-49 27t-44.5 13.5q-18 0 -28 -13
t-16 -43z" />
    <glyph glyph-name="adieresis" unicode="&#xe4;" horiz-adv-x="523" 
d="M221 -9q-55 0 -97 19.5t-65.5 53.5t-23.5 80q0 71 54.5 112.5t147.5 41.5q79 0 144 -32v61q0 57 -33 86t-96 29q-36 0 -74 -10.5t-84 -33.5l-32 66q56 26 104 38.5t96 12.5q97 0 150 -46t53 -132v-337h-84v47q-34 -28 -74 -42t-86 -14zM117 146q0 -40 33.5 -64.5
t87.5 -24.5q43 0 78.5 12.5t64.5 40.5v91q-30 19 -63.5 27.5t-75.5 8.5q-57 0 -91 -25t-34 -66zM161 610q-23 0 -38.5 15t-15.5 37q0 23 15.5 38t38.5 15t38.5 -15t15.5 -38q0 -22 -15.5 -37t-38.5 -15zM345 610q-23 0 -38.5 15t-15.5 37q0 23 15.5 38t38.5 15t38.5 -15
t15.5 -38q0 -22 -15.5 -37t-38.5 -15z" />
    <glyph glyph-name="aring" unicode="&#xe5;" horiz-adv-x="523" 
d="M221 -9q-55 0 -97 19.5t-65.5 53.5t-23.5 80q0 71 54.5 112.5t147.5 41.5q79 0 144 -32v61q0 57 -33 86t-96 29q-36 0 -74 -10.5t-84 -33.5l-32 66q56 26 104 38.5t96 12.5q97 0 150 -46t53 -132v-337h-84v47q-34 -28 -74 -42t-86 -14zM117 146q0 -40 33.5 -64.5
t87.5 -24.5q43 0 78.5 12.5t64.5 40.5v91q-30 19 -63.5 27.5t-75.5 8.5q-57 0 -91 -25t-34 -66zM253 583q-32 0 -57.5 15.5t-41 41.5t-15.5 56q0 32 15.5 57t41 40.5t57.5 15.5t57.5 -15.5t41 -40.5t15.5 -57q0 -30 -15.5 -56t-41 -41.5t-57.5 -15.5zM253 628q28 0 48.5 20
t20.5 48q0 29 -20.5 49t-48.5 20t-48.5 -20t-20.5 -49q0 -28 20.5 -48t48.5 -20z" />
    <glyph glyph-name="ae" unicode="&#xe6;" horiz-adv-x="911" 
d="M221 -9q-55 0 -96.5 19.5t-65 53.5t-23.5 80q0 71 55.5 112.5t148.5 41.5q77 0 141 -30v59q0 57 -33 86t-96 29q-36 0 -74 -10.5t-84 -33.5l-32 66q56 26 104 38.5t96 12.5q69 0 115.5 -24t66.5 -69q34 43 82.5 67t104.5 24q69 0 123.5 -35t86.5 -94.5t32 -132.5v-26
h-407q7 -45 31.5 -81.5t63.5 -57.5t85 -21q38 0 74 12t60 34l54 -56q-43 -32 -89.5 -48t-101.5 -16q-64 0 -117.5 27t-89.5 72q-42 -49 -96 -74t-119 -25zM468 292h319q-6 42 -28.5 75.5t-56 52.5t-73.5 19t-74.5 -18.5t-57 -52t-29.5 -76.5zM238 57q50 0 91.5 20.5
t75.5 61.5q-6 14 -11 29.5t-9 31.5q-30 19 -64.5 28t-75.5 9q-57 0 -91.5 -25t-34.5 -66q0 -40 33.5 -64.5t85.5 -24.5z" />
    <glyph glyph-name="ccedilla" unicode="&#xe7;" horiz-adv-x="517" 
d="M283 -229q-70 0 -116 41l33 35q38 -31 82 -31q30 0 46.5 13t16.5 34t-18 33t-49 12h-31l24 84q-66 7 -119 42.5t-83.5 92t-30.5 126.5q0 73 34.5 132t93 94.5t130.5 35.5q57 0 109 -21.5t91 -60.5l-54 -60q-29 32 -66.5 48t-77.5 16q-49 0 -88.5 -24.5t-63 -66
t-23.5 -93.5t23.5 -94t63.5 -66.5t89 -24.5q40 0 75.5 15.5t66.5 46.5l53 -57q-36 -35 -81 -56t-94 -25l-13 -45q44 -3 69.5 -25t25.5 -59q0 -40 -33.5 -66t-84.5 -26z" />
    <glyph glyph-name="egrave" unicode="&#xe8;" horiz-adv-x="568" 
d="M300 -9q-73 0 -132.5 34.5t-94.5 94t-35 133.5q0 72 33.5 131t90.5 94t127 35q69 0 123 -35t86 -94.5t32 -132.5v-26h-406q6 -45 31 -81.5t63.5 -57.5t85.5 -21q38 0 73.5 12t60.5 34l54 -56q-43 -32 -89.5 -48t-102.5 -16zM125 292h320q-7 42 -29.5 75.5t-55.5 52.5
t-73 19q-41 0 -75 -18.5t-57 -52t-30 -76.5zM272 601l-125 119h107l92 -119h-74z" />
    <glyph glyph-name="eacute" unicode="&#xe9;" horiz-adv-x="568" 
d="M300 -9q-73 0 -132.5 34.5t-94.5 94t-35 133.5q0 72 33.5 131t90.5 94t127 35q69 0 123 -35t86 -94.5t32 -132.5v-26h-406q6 -45 31 -81.5t63.5 -57.5t85.5 -21q38 0 73.5 12t60.5 34l54 -56q-43 -32 -89.5 -48t-102.5 -16zM125 292h320q-7 42 -29.5 75.5t-55.5 52.5
t-73 19q-41 0 -75 -18.5t-57 -52t-30 -76.5zM221 601l93 119h107l-127 -119h-73z" />
    <glyph glyph-name="ecircumflex" unicode="&#xea;" horiz-adv-x="568" 
d="M300 -9q-73 0 -132.5 34.5t-94.5 94t-35 133.5q0 72 33.5 131t90.5 94t127 35q69 0 123 -35t86 -94.5t32 -132.5v-26h-406q6 -45 31 -81.5t63.5 -57.5t85.5 -21q38 0 73.5 12t60.5 34l54 -56q-43 -32 -89.5 -48t-102.5 -16zM125 292h320q-7 42 -29.5 75.5t-55.5 52.5
t-73 19q-41 0 -75 -18.5t-57 -52t-30 -76.5zM369 598l-82 79l-81 -79h-70l106 123h92l106 -123h-71z" />
    <glyph glyph-name="edieresis" unicode="&#xeb;" horiz-adv-x="568" 
d="M300 -9q-73 0 -132.5 34.5t-94.5 94t-35 133.5q0 72 33.5 131t90.5 94t127 35q69 0 123 -35t86 -94.5t32 -132.5v-26h-406q6 -45 31 -81.5t63.5 -57.5t85.5 -21q38 0 73.5 12t60.5 34l54 -56q-43 -32 -89.5 -48t-102.5 -16zM125 292h320q-7 42 -29.5 75.5t-55.5 52.5
t-73 19q-41 0 -75 -18.5t-57 -52t-30 -76.5zM196 610q-23 0 -38.5 15t-15.5 37q0 23 15.5 38t38.5 15t38.5 -15t15.5 -38q0 -22 -15.5 -37t-38.5 -15zM380 610q-23 0 -38.5 15t-15.5 37q0 23 15.5 38t38.5 15t38.5 -15t15.5 -38q0 -22 -15.5 -37t-38.5 -15z" />
    <glyph glyph-name="igrave" unicode="&#xec;" horiz-adv-x="208" 
d="M61 0v505h86v-505h-86zM88 601l-125 119h107l92 -119h-74z" />
    <glyph glyph-name="iacute" unicode="&#xed;" horiz-adv-x="208" 
d="M61 0v505h86v-505h-86zM37 601l93 119h107l-127 -119h-73z" />
    <glyph glyph-name="icircumflex" unicode="&#xee;" horiz-adv-x="208" 
d="M61 0v505h86v-505h-86zM185 598l-82 79l-81 -79h-70l106 123h92l106 -123h-71z" />
    <glyph glyph-name="idieresis" unicode="&#xef;" horiz-adv-x="208" 
d="M61 0v505h86v-505h-86zM12 610q-23 0 -38.5 15t-15.5 37q0 23 15.5 38t38.5 15t38.5 -15t15.5 -38q0 -22 -15.5 -37t-38.5 -15zM196 610q-23 0 -38.5 15t-15.5 37q0 23 15.5 38t38.5 15t38.5 -15t15.5 -38q0 -22 -15.5 -37t-38.5 -15z" />
    <glyph glyph-name="eth" unicode="&#xf0;" 
d="M290 -10q-71 0 -128 34t-90 92t-33 130q0 50 18.5 94.5t52 78t78 52t94.5 18.5q59 0 105 -26t74 -70q-10 57 -36 106.5t-66 88.5l-100 -63l-34 51l83 52q-22 16 -48 27.5t-54 19.5l37 61q37 -12 70.5 -28.5t62.5 -37.5l107 67l35 -50l-94 -59q62 -61 94.5 -145t32.5 -187
q0 -93 -32.5 -161.5t-91 -106.5t-137.5 -38zM292 67q47 0 85.5 23.5t60.5 63t22 88.5t-22 88t-60.5 62t-85.5 23q-48 0 -86.5 -23t-61 -62t-22.5 -88t22.5 -88.5t61 -63t86.5 -23.5z" />
    <glyph glyph-name="ntilde" unicode="&#xf1;" horiz-adv-x="557" 
d="M61 0v505h86v-56q59 66 156 66q58 0 102 -25t68.5 -69t24.5 -103v-318h-85v302q0 64 -36 101t-98 37q-43 0 -76.5 -19t-55.5 -53v-368h-86zM165 596l-58 11q23 104 98 104q27 0 52.5 -13t49 -27t43.5 -14q17 0 27.5 13t17.5 43l57 -11q-10 -52 -35 -78t-63 -26
q-26 0 -51.5 13.5t-49 27t-44.5 13.5q-18 0 -28 -13t-16 -43z" />
    <glyph glyph-name="ograve" unicode="&#xf2;" horiz-adv-x="597" 
d="M298 -10q-72 0 -131.5 35t-94 94t-34.5 133q0 73 34.5 132.5t94 94.5t131.5 35q73 0 132 -35t94 -94.5t35 -132.5q0 -74 -35 -133t-94 -94t-132 -35zM298 66q49 0 89 25t63.5 67t23.5 94q0 53 -23.5 94.5t-63.5 66.5t-89 25t-88.5 -25t-63 -66.5t-23.5 -94.5
q0 -52 23.5 -94t63 -67t88.5 -25zM283 601l-125 119h107l92 -119h-74z" />
    <glyph glyph-name="oacute" unicode="&#xf3;" horiz-adv-x="597" 
d="M298 -10q-72 0 -131.5 35t-94 94t-34.5 133q0 73 34.5 132.5t94 94.5t131.5 35q73 0 132 -35t94 -94.5t35 -132.5q0 -74 -35 -133t-94 -94t-132 -35zM298 66q49 0 89 25t63.5 67t23.5 94q0 53 -23.5 94.5t-63.5 66.5t-89 25t-88.5 -25t-63 -66.5t-23.5 -94.5
q0 -52 23.5 -94t63 -67t88.5 -25zM231 601l93 119h107l-127 -119h-73z" />
    <glyph glyph-name="ocircumflex" unicode="&#xf4;" horiz-adv-x="597" 
d="M298 -10q-72 0 -131.5 35t-94 94t-34.5 133q0 73 34.5 132.5t94 94.5t131.5 35q73 0 132 -35t94 -94.5t35 -132.5q0 -74 -35 -133t-94 -94t-132 -35zM298 66q49 0 89 25t63.5 67t23.5 94q0 53 -23.5 94.5t-63.5 66.5t-89 25t-88.5 -25t-63 -66.5t-23.5 -94.5
q0 -52 23.5 -94t63 -67t88.5 -25zM379 598l-82 79l-81 -79h-70l106 123h92l106 -123h-71z" />
    <glyph glyph-name="otilde" unicode="&#xf5;" horiz-adv-x="597" 
d="M298 -10q-72 0 -131.5 35t-94 94t-34.5 133q0 73 34.5 132.5t94 94.5t131.5 35q73 0 132 -35t94 -94.5t35 -132.5q0 -74 -35 -133t-94 -94t-132 -35zM298 66q49 0 89 25t63.5 67t23.5 94q0 53 -23.5 94.5t-63.5 66.5t-89 25t-88.5 -25t-63 -66.5t-23.5 -94.5
q0 -52 23.5 -94t63 -67t88.5 -25zM183 596l-58 11q23 104 98 104q27 0 52.5 -13t49 -27t43.5 -14q17 0 27.5 13t17.5 43l57 -11q-10 -52 -35 -78t-63 -26q-26 0 -51.5 13.5t-49 27t-44.5 13.5q-18 0 -28 -13t-16 -43z" />
    <glyph glyph-name="odieresis" unicode="&#xf6;" horiz-adv-x="597" 
d="M298 -10q-72 0 -131.5 35t-94 94t-34.5 133q0 73 34.5 132.5t94 94.5t131.5 35q73 0 132 -35t94 -94.5t35 -132.5q0 -74 -35 -133t-94 -94t-132 -35zM298 66q49 0 89 25t63.5 67t23.5 94q0 53 -23.5 94.5t-63.5 66.5t-89 25t-88.5 -25t-63 -66.5t-23.5 -94.5
q0 -52 23.5 -94t63 -67t88.5 -25zM206 610q-23 0 -38.5 15t-15.5 37q0 23 15.5 38t38.5 15t38.5 -15t15.5 -38q0 -22 -15.5 -37t-38.5 -15zM390 610q-23 0 -38.5 15t-15.5 37q0 23 15.5 38t38.5 15t38.5 -15t15.5 -38q0 -22 -15.5 -37t-38.5 -15z" />
    <glyph glyph-name="divide" unicode="&#xf7;" 
d="M300 490q-24 0 -41 17t-17 42q0 24 17 41t41 17t41 -17t17 -41q0 -25 -17 -42t-41 -17zM300 109q-24 0 -41 17.5t-17 41.5t17 41t41 17t41 -17t17 -41t-17 -41.5t-41 -17.5zM98 324v68h404v-68h-404z" />
    <glyph glyph-name="oslash" unicode="&#xf8;" horiz-adv-x="597" 
d="M298 -10q-41 0 -78 11.5t-68 33.5l-29 -35h-71l58 70q-33 35 -52.5 82t-19.5 101q0 73 34.5 132.5t94 94.5t131.5 35q41 0 77.5 -12t67.5 -32l29 34h71l-57 -69q33 -35 52.5 -82.5t19.5 -100.5q0 -74 -34.5 -133.5t-93.5 -94.5t-132 -35zM162 134l231 276q-20 13 -44 21
t-51 8q-49 0 -88.5 -25t-63 -67t-23.5 -94q0 -35 10.5 -65t28.5 -54zM298 66q49 0 89 25t63 67.5t23 94.5q0 34 -10.5 65t-29.5 54l-230 -276q20 -14 44 -22t51 -8z" />
    <glyph glyph-name="ugrave" unicode="&#xf9;" horiz-adv-x="557" 
d="M255 -10q-57 0 -101.5 25t-69.5 69t-25 103v318h85v-302q0 -64 36.5 -101t97.5 -37q43 0 77 19t55 54v367h86v-505h-86v55q-59 -65 -155 -65zM263 601l-125 119h107l92 -119h-74z" />
    <glyph glyph-name="uacute" unicode="&#xfa;" horiz-adv-x="557" 
d="M255 -10q-57 0 -101.5 25t-69.5 69t-25 103v318h85v-302q0 -64 36.5 -101t97.5 -37q43 0 77 19t55 54v367h86v-505h-86v55q-59 -65 -155 -65zM211 601l93 119h107l-127 -119h-73z" />
    <glyph glyph-name="ucircumflex" unicode="&#xfb;" horiz-adv-x="557" 
d="M255 -10q-57 0 -101.5 25t-69.5 69t-25 103v318h85v-302q0 -64 36.5 -101t97.5 -37q43 0 77 19t55 54v367h86v-505h-86v55q-59 -65 -155 -65zM359 598l-82 79l-81 -79h-70l106 123h92l106 -123h-71z" />
    <glyph glyph-name="udieresis" unicode="&#xfc;" horiz-adv-x="557" 
d="M255 -10q-57 0 -101.5 25t-69.5 69t-25 103v318h85v-302q0 -64 36.5 -101t97.5 -37q43 0 77 19t55 54v367h86v-505h-86v55q-59 -65 -155 -65zM186 610q-23 0 -38.5 15t-15.5 37q0 23 15.5 38t38.5 15t38.5 -15t15.5 -38q0 -22 -15.5 -37t-38.5 -15zM370 610
q-23 0 -38.5 15t-15.5 37q0 23 15.5 38t38.5 15t38.5 -15t15.5 -38q0 -22 -15.5 -37t-38.5 -15z" />
    <glyph glyph-name="yacute" unicode="&#xfd;" horiz-adv-x="523" 
d="M88 -214q-15 0 -28 1.5t-22 3.5v77q18 -4 43 -4q68 0 101 76l26 60l-204 505h95l156 -401l170 401h93l-248 -576q-23 -51 -48.5 -82.5t-58 -46t-75.5 -14.5zM190 601l93 119h107l-127 -119h-73z" />
    <glyph glyph-name="thorn" unicode="&#xfe;" horiz-adv-x="599" 
d="M61 -205v905l86 19v-265q64 59 158 59q72 0 129.5 -35t91.5 -93.5t34 -131.5q0 -74 -34 -132.5t-92 -93.5t-130 -35q-43 0 -83 14.5t-74 40.5v-252h-86zM295 438q-45 0 -83.5 -17.5t-64.5 -48.5v-240q26 -30 65 -47.5t83 -17.5q52 0 92.5 24.5t64 66t23.5 94.5t-23.5 95
t-64 66.5t-92.5 24.5z" />
    <glyph glyph-name="ydieresis" unicode="&#xff;" horiz-adv-x="523" 
d="M88 -214q-15 0 -28 1.5t-22 3.5v77q18 -4 43 -4q68 0 101 76l26 60l-204 505h95l156 -401l170 401h93l-248 -576q-23 -51 -48.5 -82.5t-58 -46t-75.5 -14.5zM165 610q-23 0 -38.5 15t-15.5 37q0 23 15.5 38t38.5 15t38.5 -15t15.5 -38q0 -22 -15.5 -37t-38.5 -15z
M349 610q-23 0 -38.5 15t-15.5 37q0 23 15.5 38t38.5 15t38.5 -15t15.5 -38q0 -22 -15.5 -37t-38.5 -15z" />
    <glyph glyph-name="Amacron" unicode="&#x100;" horiz-adv-x="689" 
d="M3 0l289 700h107l288 -700h-98l-85 213h-322l-86 -213h-93zM212 289h262l-131 327zM200 817v59h290v-59h-290z" />
    <glyph glyph-name="amacron" unicode="&#x101;" horiz-adv-x="523" 
d="M221 -9q-55 0 -97 19.5t-65.5 53.5t-23.5 80q0 71 54.5 112.5t147.5 41.5q79 0 144 -32v61q0 57 -33 86t-96 29q-36 0 -74 -10.5t-84 -33.5l-32 66q56 26 104 38.5t96 12.5q97 0 150 -46t53 -132v-337h-84v47q-34 -28 -74 -42t-86 -14zM117 146q0 -40 33.5 -64.5
t87.5 -24.5q43 0 78.5 12.5t64.5 40.5v91q-30 19 -63.5 27.5t-75.5 8.5q-57 0 -91 -25t-34 -66zM108 622v59h290v-59h-290z" />
    <glyph glyph-name="Abreve" unicode="&#x102;" horiz-adv-x="689" 
d="M3 0l289 700h107l288 -700h-98l-85 213h-322l-86 -213h-93zM212 289h262l-131 327zM345 788q-61 0 -103 33.5t-55 92.5l58 14q22 -85 100 -85q37 0 63 21.5t37 63.5l58 -14q-13 -59 -55 -92.5t-103 -33.5z" />
    <glyph glyph-name="abreve" unicode="&#x103;" horiz-adv-x="523" 
d="M221 -9q-55 0 -97 19.5t-65.5 53.5t-23.5 80q0 71 54.5 112.5t147.5 41.5q79 0 144 -32v61q0 57 -33 86t-96 29q-36 0 -74 -10.5t-84 -33.5l-32 66q56 26 104 38.5t96 12.5q97 0 150 -46t53 -132v-337h-84v47q-34 -28 -74 -42t-86 -14zM117 146q0 -40 33.5 -64.5
t87.5 -24.5q43 0 78.5 12.5t64.5 40.5v91q-30 19 -63.5 27.5t-75.5 8.5q-57 0 -91 -25t-34 -66zM253 593q-61 0 -103 33.5t-55 92.5l58 14q22 -85 100 -85q37 0 63 21.5t37 63.5l58 -14q-13 -59 -55 -92.5t-103 -33.5z" />
    <glyph glyph-name="Aogonek" unicode="&#x104;" horiz-adv-x="689" 
d="M627 -221q-44 0 -71.5 24t-27.5 63q0 35 23 67t74 67h-36l-85 213h-322l-86 -213h-93l290 700h107l287 -700q-53 -33 -78 -62t-25 -58q0 -24 15 -37t42 -13q12 0 24.5 3.5t21.5 9.5l16 -43q-16 -10 -35 -15.5t-41 -5.5zM212 289h262l-130 326z" />
    <glyph glyph-name="aogonek" unicode="&#x105;" horiz-adv-x="523" 
d="M405 -221q-44 0 -71.5 24t-27.5 63q0 35 23 67t74 67h-22v47q-34 -28 -74 -42t-86 -14q-55 0 -97 19.5t-65.5 53.5t-23.5 80q0 71 54.5 112.5t147.5 41.5q79 0 144 -32v61q0 57 -33 86t-96 29q-36 0 -74 -10.5t-84 -33.5l-32 66q56 26 104 38.5t96 12.5q97 0 150 -46
t53 -132v-337q-54 -33 -78.5 -62t-24.5 -58q0 -24 15 -37t42 -13q12 0 24.5 3.5t21.5 9.5l16 -43q-16 -10 -35 -15.5t-41 -5.5zM238 57q43 0 78.5 12.5t64.5 40.5v91q-30 19 -63.5 27.5t-75.5 8.5q-57 0 -91 -25t-34 -66q0 -40 33.5 -64.5t87.5 -24.5z" />
    <glyph glyph-name="Cacute" unicode="&#x106;" horiz-adv-x="721" 
d="M407 -11q-76 0 -142.5 27.5t-116.5 77t-77.5 115t-27.5 141.5t27.5 141.5t77.5 115t116.5 77t142.5 27.5q56 0 107 -14t95 -40t78 -64l-60 -62q-40 47 -98 72t-122 25q-58 0 -108 -21t-87 -59t-57.5 -88t-20.5 -110q0 -59 20.5 -109.5t58 -88.5t88 -59t109.5 -21
q63 0 120 25t96 70l59 -60q-35 -37 -79 -63.5t-94.5 -40.5t-104.5 -14zM337 796l93 119h107l-127 -119h-73z" />
    <glyph glyph-name="cacute" unicode="&#x107;" horiz-adv-x="517" 
d="M296 -9q-72 0 -130.5 34.5t-93 94t-34.5 133.5q0 73 34.5 132t93 94.5t130.5 35.5q57 0 109 -21.5t91 -60.5l-54 -60q-29 32 -66.5 48t-77.5 16q-49 0 -88.5 -24.5t-63 -66t-23.5 -93.5t23.5 -94t63.5 -66.5t89 -24.5q40 0 75.5 15.5t66.5 46.5l53 -57q-40 -39 -91 -60.5
t-107 -21.5zM228 601l93 119h107l-127 -119h-73z" />
    <glyph glyph-name="Ccircumflex" unicode="&#x108;" horiz-adv-x="721" 
d="M407 -11q-76 0 -142.5 27.5t-116.5 77t-77.5 115t-27.5 141.5t27.5 141.5t77.5 115t116.5 77t142.5 27.5q56 0 107 -14t95 -40t78 -64l-60 -62q-40 47 -98 72t-122 25q-58 0 -108 -21t-87 -59t-57.5 -88t-20.5 -110q0 -59 20.5 -109.5t58 -88.5t88 -59t109.5 -21
q63 0 120 25t96 70l59 -60q-35 -37 -79 -63.5t-94.5 -40.5t-104.5 -14zM485 793l-82 79l-81 -79h-70l106 123h92l106 -123h-71z" />
    <glyph glyph-name="ccircumflex" unicode="&#x109;" horiz-adv-x="517" 
d="M296 -9q-72 0 -130.5 34.5t-93 94t-34.5 133.5q0 73 34.5 132t93 94.5t130.5 35.5q57 0 109 -21.5t91 -60.5l-54 -60q-29 32 -66.5 48t-77.5 16q-49 0 -88.5 -24.5t-63 -66t-23.5 -93.5t23.5 -94t63.5 -66.5t89 -24.5q40 0 75.5 15.5t66.5 46.5l53 -57q-40 -39 -91 -60.5
t-107 -21.5zM376 598l-82 79l-81 -79h-70l106 123h92l106 -123h-71z" />
    <glyph glyph-name="Cdotaccent" unicode="&#x10a;" horiz-adv-x="721" 
d="M407 -11q-76 0 -142.5 27.5t-116.5 77t-77.5 115t-27.5 141.5t27.5 141.5t77.5 115t116.5 77t142.5 27.5q56 0 107 -14t95 -40t78 -64l-60 -62q-40 47 -98 72t-122 25q-58 0 -108 -21t-87 -59t-57.5 -88t-20.5 -110q0 -59 20.5 -109.5t58 -88.5t88 -59t109.5 -21
q63 0 120 25t96 70l59 -60q-35 -37 -79 -63.5t-94.5 -40.5t-104.5 -14zM404 797q-22 0 -38 15.5t-16 37.5q0 23 16 38.5t38 15.5t38 -15.5t16 -38.5q0 -22 -16 -37.5t-38 -15.5z" />
    <glyph glyph-name="cdotaccent" unicode="&#x10b;" horiz-adv-x="517" 
d="M296 -9q-72 0 -130.5 34.5t-93 94t-34.5 133.5q0 73 34.5 132t93 94.5t130.5 35.5q57 0 109 -21.5t91 -60.5l-54 -60q-29 32 -66.5 48t-77.5 16q-49 0 -88.5 -24.5t-63 -66t-23.5 -93.5t23.5 -94t63.5 -66.5t89 -24.5q40 0 75.5 15.5t66.5 46.5l53 -57q-40 -39 -91 -60.5
t-107 -21.5zM295 602q-22 0 -38 15.5t-16 37.5q0 23 16 38.5t38 15.5t38 -15.5t16 -38.5q0 -22 -16 -37.5t-38 -15.5z" />
    <glyph glyph-name="Ccaron" unicode="&#x10c;" horiz-adv-x="721" 
d="M407 -11q-76 0 -142.5 27.5t-116.5 77t-77.5 115t-27.5 141.5t27.5 141.5t77.5 115t116.5 77t142.5 27.5q56 0 107 -14t95 -40t78 -64l-60 -62q-40 47 -98 72t-122 25q-58 0 -108 -21t-87 -59t-57.5 -88t-20.5 -110q0 -59 20.5 -109.5t58 -88.5t88 -59t109.5 -21
q63 0 120 25t96 70l59 -60q-35 -37 -79 -63.5t-94.5 -40.5t-104.5 -14zM324 917l80 -78l81 78h71l-106 -123h-92l-106 123h72z" />
    <glyph glyph-name="ccaron" unicode="&#x10d;" horiz-adv-x="517" 
d="M296 -9q-72 0 -130.5 34.5t-93 94t-34.5 133.5q0 73 34.5 132t93 94.5t130.5 35.5q57 0 109 -21.5t91 -60.5l-54 -60q-29 32 -66.5 48t-77.5 16q-49 0 -88.5 -24.5t-63 -66t-23.5 -93.5t23.5 -94t63.5 -66.5t89 -24.5q40 0 75.5 15.5t66.5 46.5l53 -57q-40 -39 -91 -60.5
t-107 -21.5zM215 722l80 -78l81 78h71l-106 -123h-92l-106 123h72z" />
    <glyph glyph-name="Dcaron" unicode="&#x10e;" horiz-adv-x="723" 
d="M164 81h152q58 0 107.5 20.5t87 57t58 85t20.5 106.5q0 57 -20.5 106t-58 85.5t-87 57t-107.5 20.5h-152v-538zM74 0v700h239q79 0 146 -26t117 -73.5t77.5 -111.5t27.5 -139q0 -76 -27.5 -140t-77 -111t-117 -73t-146.5 -26h-239zM282 917l80 -78l81 78h71l-106 -123
h-92l-106 123h72z" />
    <glyph glyph-name="dcaron" unicode="&#x10f;" horiz-adv-x="598" 
d="M293 -8q-71 0 -129 35t-92 93.5t-34 132.5q0 73 34 131.5t92 93.5t130 35q43 0 83 -14t74 -40v241l86 18v-718h-85v51q-66 -59 -159 -59zM302 67q46 0 84.5 17.5t64.5 48.5v240q-26 30 -64.5 47.5t-84.5 17.5q-50 0 -91 -24t-64.5 -65.5t-23.5 -94.5t23.5 -95t64.5 -67
t91 -25zM630 524l4 193l83 13l-27 -206h-60z" />
    <glyph glyph-name="Dcroat" unicode="&#x110;" horiz-adv-x="749" 
d="M99 0v312h-85v76h85v312h238q80 0 147 -26t116.5 -73.5t77.5 -111.5t28 -139q0 -76 -27.5 -140t-77 -111t-117 -73t-147.5 -26h-238zM189 81h151q59 0 108.5 20.5t87 57t58 85t20.5 106.5q0 57 -20.5 106t-58 85.5t-87.5 57t-108 20.5h-151v-231h184v-76h-184v-231z" />
    <glyph glyph-name="dcroat" unicode="&#x111;" horiz-adv-x="597" 
d="M293 -8q-71 0 -129 35t-92 93.5t-34 132.5q0 73 34 131.5t92 93.5t130 35q43 0 83 -14t74 -40v126h-160v63h160v52l86 19v-71h60v-63h-60v-585h-85v51q-66 -59 -159 -59zM302 67q46 0 84.5 17.5t64.5 48.5v240q-26 30 -64.5 47.5t-84.5 17.5q-50 0 -91 -24t-64.5 -65.5
t-23.5 -94.5t23.5 -95t64.5 -67t91 -25z" />
    <glyph glyph-name="Emacron" unicode="&#x112;" horiz-adv-x="622" 
d="M74 0v700h508v-79h-418v-229h274v-77h-274v-236h422v-79h-512zM196 817v59h290v-59h-290z" />
    <glyph glyph-name="emacron" unicode="&#x113;" horiz-adv-x="568" 
d="M300 -9q-73 0 -132.5 34.5t-94.5 94t-35 133.5q0 72 33.5 131t90.5 94t127 35q69 0 123 -35t86 -94.5t32 -132.5v-26h-406q6 -45 31 -81.5t63.5 -57.5t85.5 -21q38 0 73.5 12t60.5 34l54 -56q-43 -32 -89.5 -48t-102.5 -16zM125 292h320q-7 42 -29.5 75.5t-55.5 52.5
t-73 19q-41 0 -75 -18.5t-57 -52t-30 -76.5zM143 622v59h290v-59h-290z" />
    <glyph glyph-name="Ebreve" unicode="&#x114;" horiz-adv-x="622" 
d="M74 0v700h508v-79h-418v-229h274v-77h-274v-236h422v-79h-512zM341 788q-61 0 -103 33.5t-55 92.5l58 14q22 -85 100 -85q37 0 63 21.5t37 63.5l58 -14q-13 -59 -55 -92.5t-103 -33.5z" />
    <glyph glyph-name="ebreve" unicode="&#x115;" horiz-adv-x="568" 
d="M300 -9q-73 0 -132.5 34.5t-94.5 94t-35 133.5q0 72 33.5 131t90.5 94t127 35q69 0 123 -35t86 -94.5t32 -132.5v-26h-406q6 -45 31 -81.5t63.5 -57.5t85.5 -21q38 0 73.5 12t60.5 34l54 -56q-43 -32 -89.5 -48t-102.5 -16zM125 292h320q-7 42 -29.5 75.5t-55.5 52.5
t-73 19q-41 0 -75 -18.5t-57 -52t-30 -76.5zM288 593q-61 0 -103 33.5t-55 92.5l58 14q22 -85 100 -85q37 0 63 21.5t37 63.5l58 -14q-13 -59 -55 -92.5t-103 -33.5z" />
    <glyph glyph-name="Edotaccent" unicode="&#x116;" horiz-adv-x="622" 
d="M74 0v700h508v-79h-418v-229h274v-77h-274v-236h422v-79h-512zM341 797q-22 0 -38 15.5t-16 37.5q0 23 16 38.5t38 15.5t38 -15.5t16 -38.5q0 -22 -16 -37.5t-38 -15.5z" />
    <glyph glyph-name="edotaccent" unicode="&#x117;" horiz-adv-x="568" 
d="M300 -9q-73 0 -132.5 34.5t-94.5 94t-35 133.5q0 72 33.5 131t90.5 94t127 35q69 0 123 -35t86 -94.5t32 -132.5v-26h-406q6 -45 31 -81.5t63.5 -57.5t85.5 -21q38 0 73.5 12t60.5 34l54 -56q-43 -32 -89.5 -48t-102.5 -16zM125 292h320q-7 42 -29.5 75.5t-55.5 52.5
t-73 19q-41 0 -75 -18.5t-57 -52t-30 -76.5zM288 602q-22 0 -38 15.5t-16 37.5q0 23 16 38.5t38 15.5t38 -15.5t16 -38.5q0 -22 -16 -37.5t-38 -15.5z" />
    <glyph glyph-name="Eogonek" unicode="&#x118;" horiz-adv-x="622" 
d="M602 -200q-16 -10 -35 -15.5t-41 -5.5q-44 0 -71.5 24t-27.5 63q0 35 23 67t74 67h-450v700h508v-79h-418v-229h274v-77h-274v-236h422v-79q-53 -33 -78 -62t-25 -58q0 -24 15 -37t42 -13q12 0 24.5 3.5t21.5 9.5z" />
    <glyph glyph-name="eogonek" unicode="&#x119;" horiz-adv-x="568" 
d="M318 -221q-45 0 -72.5 24t-27.5 63q0 33 20.5 63t64.5 62q-76 0 -135.5 35t-94.5 94t-35 133q0 72 33.5 131t90.5 94t127 35q69 0 123 -35t86 -94.5t32 -132.5v-26h-406q6 -45 31 -81.5t63.5 -57.5t85.5 -21q38 0 73.5 12t60.5 34l54 -56q-27 -21 -55.5 -34.5
t-59.5 -21.5q-53 -33 -77.5 -61.5t-24.5 -57.5q0 -24 14.5 -37t41.5 -13q13 0 25 3.5t22 9.5l15 -43q-16 -10 -35 -15.5t-40 -5.5zM125 292h320q-7 42 -29.5 75.5t-55.5 52.5t-73 19q-41 0 -75 -18.5t-57 -52t-30 -76.5z" />
    <glyph glyph-name="Ecaron" unicode="&#x11a;" horiz-adv-x="622" 
d="M74 0v700h508v-79h-418v-229h274v-77h-274v-236h422v-79h-512zM261 917l80 -78l81 78h71l-106 -123h-92l-106 123h72z" />
    <glyph glyph-name="ecaron" unicode="&#x11b;" horiz-adv-x="568" 
d="M300 -9q-73 0 -132.5 34.5t-94.5 94t-35 133.5q0 72 33.5 131t90.5 94t127 35q69 0 123 -35t86 -94.5t32 -132.5v-26h-406q6 -45 31 -81.5t63.5 -57.5t85.5 -21q38 0 73.5 12t60.5 34l54 -56q-43 -32 -89.5 -48t-102.5 -16zM125 292h320q-7 42 -29.5 75.5t-55.5 52.5
t-73 19q-41 0 -75 -18.5t-57 -52t-30 -76.5zM208 722l80 -78l81 78h71l-106 -123h-92l-106 123h72z" />
    <glyph glyph-name="Gcircumflex" unicode="&#x11c;" horiz-adv-x="789" 
d="M406 -11q-76 0 -142 28t-115.5 77.5t-77.5 115t-28 140.5t27.5 140.5t77 115t115.5 77.5t142 28q82 0 155 -31t124 -87l-62 -61q-39 46 -96.5 71t-120.5 25q-58 0 -107 -21t-86 -59t-57.5 -88t-20.5 -110q0 -59 20.5 -109.5t57.5 -88.5t86.5 -59t107.5 -21q67 0 121 28.5
t88 78.5t41 113h-243v79h335v-33q0 -74 -26 -137.5t-72 -111t-108.5 -74t-135.5 -26.5zM485 793l-82 79l-81 -79h-70l106 123h92l106 -123h-71z" />
    <glyph glyph-name="gcircumflex" unicode="&#x11d;" horiz-adv-x="594" 
d="M309 -214q-54 0 -106 13.5t-94 37.5l35 67q44 -23 83 -34t79 -11q69 0 105 32.5t36 96.5v64q-68 -56 -156 -56q-70 0 -127.5 34.5t-91.5 93.5t-34 131t34 131t91.5 93.5t129.5 34.5q42 0 82 -14.5t73 -41.5v47h85v-517q0 -97 -58 -149.5t-166 -52.5zM300 71q46 0 84 17
t63 48v238q-25 30 -63.5 47t-83.5 17q-50 0 -90.5 -24t-63.5 -65.5t-23 -93.5t23.5 -93.5t63.5 -66t90 -24.5zM377 598l-82 79l-81 -79h-70l106 123h92l106 -123h-71z" />
    <glyph glyph-name="Gbreve" unicode="&#x11e;" horiz-adv-x="789" 
d="M406 -11q-76 0 -142 28t-115.5 77.5t-77.5 115t-28 140.5t27.5 140.5t77 115t115.5 77.5t142 28q82 0 155 -31t124 -87l-62 -61q-39 46 -96.5 71t-120.5 25q-58 0 -107 -21t-86 -59t-57.5 -88t-20.5 -110q0 -59 20.5 -109.5t57.5 -88.5t86.5 -59t107.5 -21q67 0 121 28.5
t88 78.5t41 113h-243v79h335v-33q0 -74 -26 -137.5t-72 -111t-108.5 -74t-135.5 -26.5zM404 788q-61 0 -103 33.5t-55 92.5l58 14q22 -85 100 -85q37 0 63 21.5t37 63.5l58 -14q-13 -59 -55 -92.5t-103 -33.5z" />
    <glyph glyph-name="gbreve" unicode="&#x11f;" horiz-adv-x="594" 
d="M309 -214q-54 0 -106 13.5t-94 37.5l35 67q44 -23 83 -34t79 -11q69 0 105 32.5t36 96.5v64q-68 -56 -156 -56q-70 0 -127.5 34.5t-91.5 93.5t-34 131t34 131t91.5 93.5t129.5 34.5q42 0 82 -14.5t73 -41.5v47h85v-517q0 -97 -58 -149.5t-166 -52.5zM300 71q46 0 84 17
t63 48v238q-25 30 -63.5 47t-83.5 17q-50 0 -90.5 -24t-63.5 -65.5t-23 -93.5t23.5 -93.5t63.5 -66t90 -24.5zM296 593q-61 0 -103 33.5t-55 92.5l58 14q22 -85 100 -85q37 0 63 21.5t37 63.5l58 -14q-13 -59 -55 -92.5t-103 -33.5z" />
    <glyph glyph-name="Gdotaccent" unicode="&#x120;" horiz-adv-x="789" 
d="M406 -11q-76 0 -142 28t-115.5 77.5t-77.5 115t-28 140.5t27.5 140.5t77 115t115.5 77.5t142 28q82 0 155 -31t124 -87l-62 -61q-39 46 -96.5 71t-120.5 25q-58 0 -107 -21t-86 -59t-57.5 -88t-20.5 -110q0 -59 20.5 -109.5t57.5 -88.5t86.5 -59t107.5 -21q67 0 121 28.5
t88 78.5t41 113h-243v79h335v-33q0 -74 -26 -137.5t-72 -111t-108.5 -74t-135.5 -26.5zM404 797q-22 0 -38 15.5t-16 37.5q0 23 16 38.5t38 15.5t38 -15.5t16 -38.5q0 -22 -16 -37.5t-38 -15.5z" />
    <glyph glyph-name="gdotaccent" unicode="&#x121;" horiz-adv-x="594" 
d="M309 -214q-54 0 -106 13.5t-94 37.5l35 67q44 -23 83 -34t79 -11q69 0 105 32.5t36 96.5v64q-68 -56 -156 -56q-70 0 -127.5 34.5t-91.5 93.5t-34 131t34 131t91.5 93.5t129.5 34.5q42 0 82 -14.5t73 -41.5v47h85v-517q0 -97 -58 -149.5t-166 -52.5zM300 71q46 0 84 17
t63 48v238q-25 30 -63.5 47t-83.5 17q-50 0 -90.5 -24t-63.5 -65.5t-23 -93.5t23.5 -93.5t63.5 -66t90 -24.5zM296 602q-22 0 -38 15.5t-16 37.5q0 23 16 38.5t38 15.5t38 -15.5t16 -38.5q0 -22 -16 -37.5t-38 -15.5z" />
    <glyph glyph-name="uni0122" unicode="&#x122;" horiz-adv-x="789" 
d="M406 -11q-76 0 -142 28t-115.5 77.5t-77.5 115t-28 140.5t27.5 140.5t77 115t115.5 77.5t142 28q82 0 155 -31t124 -87l-62 -61q-39 46 -96.5 71t-120.5 25q-58 0 -107 -21t-86 -59t-57.5 -88t-20.5 -110q0 -59 20.5 -109.5t57.5 -88.5t86.5 -59t107.5 -21q67 0 121 28.5
t88 78.5t41 113h-243v79h335v-33q0 -74 -26 -137.5t-72 -111t-108.5 -74t-135.5 -26.5zM324 -268l43 184h84l-64 -184h-63z" />
    <glyph glyph-name="uni0123" unicode="&#x123;" horiz-adv-x="593" 
d="M380 791l-43 -184h-85l64 184h64zM309 -214q-54 0 -106 13.5t-94 37.5l35 67q44 -23 83 -34t79 -11q69 0 105 32.5t36 96.5v64q-68 -56 -156 -56q-70 0 -127.5 34.5t-91.5 93.5t-34 131t34 131t91.5 93.5t129.5 34.5q42 0 82 -14.5t73 -41.5v47h85v-517q0 -97 -58 -149.5
t-166 -52.5zM300 71q46 0 84 17t63 48v238q-25 30 -63.5 47t-83.5 17q-50 0 -90.5 -24t-63.5 -65.5t-23 -93.5t23.5 -93.5t63.5 -66t90 -24.5z" />
    <glyph glyph-name="Hcircumflex" unicode="&#x124;" horiz-adv-x="719" 
d="M74 0v700h90v-307h391v307h90v-700h-90v312h-391v-312h-90zM440 793l-82 79l-81 -79h-70l106 123h92l106 -123h-71z" />
    <glyph glyph-name="hcircumflex" unicode="&#x125;" horiz-adv-x="557" 
d="M61 0v700l86 19v-270q59 66 156 66q58 0 102 -25t68.5 -69t24.5 -103v-318h-85v302q0 64 -36 101t-98 37q-43 0 -76.5 -19t-55.5 -53v-368h-86zM184 793l-82 79l-81 -79h-70l106 123h92l106 -123h-71z" />
    <glyph glyph-name="Hbar" unicode="&#x126;" horiz-adv-x="733" 
d="M81 0v517h-67v71h67v112h90v-112h391v112h90v-112h67v-71h-67v-517h-90v312h-391v-312h-90zM171 392h391v125h-391v-125z" />
    <glyph glyph-name="hbar" unicode="&#x127;" horiz-adv-x="557" 
d="M61 0v585h-62v63h62v52l86 19v-71h158v-63h-158v-136q59 66 156 66q58 0 102 -25t68.5 -69t24.5 -103v-318h-85v302q0 64 -36 101t-98 37q-43 0 -76.5 -19t-55.5 -53v-368h-86z" />
    <glyph glyph-name="Itilde" unicode="&#x128;" horiz-adv-x="239" 
d="M74 0v700h90v-700h-90zM5 791l-58 11q23 104 98 104q27 0 52.5 -13t49 -27t43.5 -14q17 0 27.5 13t17.5 43l57 -11q-10 -52 -35 -78t-63 -26q-26 0 -51.5 13.5t-49 27t-44.5 13.5q-18 0 -28 -13t-16 -43z" />
    <glyph glyph-name="itilde" unicode="&#x129;" horiz-adv-x="208" 
d="M61 0v505h86v-505h-86zM-11 596l-58 11q23 104 98 104q27 0 52.5 -13t49 -27t43.5 -14q17 0 27.5 13t17.5 43l57 -11q-10 -52 -35 -78t-63 -26q-26 0 -51.5 13.5t-49 27t-44.5 13.5q-18 0 -28 -13t-16 -43z" />
    <glyph glyph-name="Imacron" unicode="&#x12a;" horiz-adv-x="239" 
d="M74 0v700h90v-700h-90zM-25 817v59h290v-59h-290z" />
    <glyph glyph-name="imacron" unicode="&#x12b;" horiz-adv-x="208" 
d="M61 0v505h86v-505h-86zM-41 622v59h290v-59h-290z" />
    <glyph glyph-name="Ibreve" unicode="&#x12c;" horiz-adv-x="239" 
d="M74 0v700h90v-700h-90zM120 788q-61 0 -103 33.5t-55 92.5l58 14q22 -85 100 -85q37 0 63 21.5t37 63.5l58 -14q-13 -59 -55 -92.5t-103 -33.5z" />
    <glyph glyph-name="ibreve" unicode="&#x12d;" horiz-adv-x="208" 
d="M61 0v505h86v-505h-86zM104 593q-61 0 -103 33.5t-55 92.5l58 14q22 -85 100 -85q37 0 63 21.5t37 63.5l58 -14q-13 -59 -55 -92.5t-103 -33.5z" />
    <glyph glyph-name="Iogonek" unicode="&#x12e;" horiz-adv-x="239" 
d="M104 -221q-44 0 -71.5 24t-27.5 63q0 35 23 67t74 67h-28v700h90v-700q-53 -33 -78 -62t-25 -58q0 -24 15 -37t42 -13q12 0 24.5 3.5t21.5 9.5l16 -43q-16 -10 -35 -15.5t-41 -5.5z" />
    <glyph glyph-name="iogonek" unicode="&#x12f;" horiz-adv-x="208" 
d="M104 594q-22 0 -38.5 16.5t-16.5 39.5t16.5 39t38.5 16q23 0 39.5 -16t16.5 -39t-16.5 -39.5t-39.5 -16.5zM87 -221q-45 0 -72 24t-27 63q0 35 23 67t74 67h-24v505h86v-505q-53 -33 -78 -62t-25 -58q0 -24 15 -37t42 -13q12 0 24 3.5t22 9.5l16 -43q-16 -10 -35 -15.5
t-41 -5.5z" />
    <glyph glyph-name="Idotaccent" unicode="&#x130;" horiz-adv-x="239" 
d="M74 0v700h90v-700h-90zM120 797q-22 0 -38 15.5t-16 37.5q0 23 16 38.5t38 15.5t38 -15.5t16 -38.5q0 -22 -16 -37.5t-38 -15.5z" />
    <glyph glyph-name="dotlessi" unicode="&#x131;" horiz-adv-x="208" 
d="M61 0v505h86v-505h-86z" />
    <glyph glyph-name="IJ" unicode="&#x132;" horiz-adv-x="847" 
d="M74 0v700h90v-700h-90zM515 -11q-92 0 -160 48t-99 136l82 33q26 -68 70.5 -101t107.5 -33q82 0 131 53t49 142v433h90v-435q0 -84 -33 -146t-93.5 -96t-144.5 -34z" />
    <glyph glyph-name="ij" unicode="&#x133;" horiz-adv-x="417" 
d="M61 0v505h86v-505h-86zM104 594q-22 0 -38.5 16.5t-16.5 39.5t16.5 39t38.5 16q23 0 39.5 -16t16.5 -39t-16.5 -39.5t-39.5 -16.5zM312 594q-22 0 -38.5 16.5t-16.5 39.5t16.5 39t38.5 16q23 0 39.5 -16t16.5 -39t-16.5 -39.5t-39.5 -16.5zM219 -214q-15 0 -28.5 2
t-22.5 5v70q16 -4 38 -4q34 0 48.5 15t14.5 50v581h86v-587q0 -64 -35.5 -98t-100.5 -34z" />
    <glyph glyph-name="Jcircumflex" unicode="&#x134;" horiz-adv-x="608" 
d="M276 -11q-92 0 -160 48t-99 136l82 33q26 -68 70.5 -101t107.5 -33q82 0 131 53t49 142v433h90v-435q0 -84 -33 -146t-93.5 -96t-144.5 -34zM584 793l-82 79l-81 -79h-70l106 123h92l106 -123h-71z" />
    <glyph glyph-name="jcircumflex" unicode="&#x135;" horiz-adv-x="208" 
d="M12 -214q-15 0 -28 2t-24 5v70q17 -4 39 -4q34 0 48 15t14 50v581h86v-588q0 -62 -35 -96.5t-100 -34.5zM185 598l-82 79l-81 -79h-70l106 123h92l106 -123h-71z" />
    <glyph glyph-name="uni0136" unicode="&#x136;" horiz-adv-x="632" 
d="M74 0v700h90v-328l352 328h115l-372 -341l382 -359h-125l-352 334v-334h-90zM251 -268l43 184h84l-64 -184h-63z" />
    <glyph glyph-name="uni0137" unicode="&#x137;" horiz-adv-x="508" 
d="M61 0v700l86 18v-438l255 225h103l-270 -238l283 -267h-115l-256 240v-240h-86zM171 -268l43 184h84l-64 -184h-63z" />
    <glyph glyph-name="kgreenlandic" unicode="&#x138;" horiz-adv-x="508" 
d="M61 0v505h86v-225l255 225h103l-270 -238l283 -267h-115l-256 240v-240h-86z" />
    <glyph glyph-name="Lacute" unicode="&#x139;" horiz-adv-x="608" 
d="M74 0v700h90v-620h411v-80h-501zM52 796l93 119h107l-127 -119h-73z" />
    <glyph glyph-name="lacute" unicode="&#x13a;" horiz-adv-x="208" 
d="M61 0v700l86 18v-718h-86zM37 797l93 119h107l-127 -119h-73z" />
    <glyph glyph-name="uni013B" unicode="&#x13b;" horiz-adv-x="608" 
d="M74 0v700h90v-620h411v-80h-501zM259 -268l43 184h84l-64 -184h-63z" />
    <glyph glyph-name="uni013C" unicode="&#x13c;" horiz-adv-x="208" 
d="M61 0v700l86 18v-718h-86zM19 -268l43 184h84l-64 -184h-63z" />
    <glyph glyph-name="Lcaron" unicode="&#x13d;" horiz-adv-x="603" 
d="M74 0v700h90v-620h411v-80h-501zM399 507l5 193l83 13l-27 -206h-61z" />
    <glyph glyph-name="lcaron" unicode="&#x13e;" horiz-adv-x="208" 
d="M61 0v700l86 18v-718h-86zM238 524l4 193l83 13l-27 -206h-60z" />
    <glyph glyph-name="Lslash" unicode="&#x141;" horiz-adv-x="620" 
d="M91 0v228l-80 -59v83l80 59v389h90v-325l195 144v-83l-195 -145v-211h410v-80h-500z" />
    <glyph glyph-name="lslash" unicode="&#x142;" horiz-adv-x="249" 
d="M83 0v304l-74 -59v84l74 59v312l86 19v-264l74 59v-85l-74 -59v-370h-86z" />
    <glyph glyph-name="Nacute" unicode="&#x143;" horiz-adv-x="729" 
d="M74 0v700h89l407 -546v546h85v-700h-79l-416 561v-561h-86zM297 796l93 119h107l-127 -119h-73z" />
    <glyph glyph-name="nacute" unicode="&#x144;" horiz-adv-x="557" 
d="M61 0v505h86v-56q59 66 156 66q58 0 102 -25t68.5 -69t24.5 -103v-318h-85v302q0 64 -36 101t-98 37q-43 0 -76.5 -19t-55.5 -53v-368h-86zM213 601l93 119h107l-127 -119h-73z" />
    <glyph glyph-name="uni0145" unicode="&#x145;" horiz-adv-x="729" 
d="M74 0v700h89l407 -546v546h85v-700h-79l-416 561v-561h-86zM280 -268l43 184h84l-64 -184h-63z" />
    <glyph glyph-name="uni0146" unicode="&#x146;" horiz-adv-x="557" 
d="M61 0v505h86v-56q59 66 156 66q58 0 102 -25t68.5 -69t24.5 -103v-318h-85v302q0 64 -36 101t-98 37q-43 0 -76.5 -19t-55.5 -53v-368h-86zM196 -268l43 184h84l-64 -184h-63z" />
    <glyph glyph-name="Ncaron" unicode="&#x147;" horiz-adv-x="729" 
d="M74 0v700h89l407 -546v546h85v-700h-79l-416 561v-561h-86zM284 917l80 -78l81 78h71l-106 -123h-92l-106 123h72z" />
    <glyph glyph-name="ncaron" unicode="&#x148;" horiz-adv-x="557" 
d="M61 0v505h86v-56q59 66 156 66q58 0 102 -25t68.5 -69t24.5 -103v-318h-85v302q0 64 -36 101t-98 37q-43 0 -76.5 -19t-55.5 -53v-368h-86zM200 722l80 -78l81 78h71l-106 -123h-92l-106 123h72z" />
    <glyph glyph-name="Eng" unicode="&#x14a;" horiz-adv-x="729" 
d="M519 -209q-11 0 -26.5 2t-24.5 5v70q17 -4 39 -4q33 0 48 15.5t15 49.5v72l-410 554v-555h-86v700h84l412 -554v554h85v-778q0 -63 -35 -97t-101 -34z" />
    <glyph glyph-name="eng" unicode="&#x14b;" horiz-adv-x="557" 
d="M363 -209q-13 0 -26.5 2t-25.5 4v70q18 -4 40 -4q33 0 47.5 15.5t14.5 50.5v373q0 64 -36 101t-98 37q-43 0 -76.5 -19t-55.5 -53v-368h-86v505h86v-56q59 66 156 66q58 0 102 -25t68.5 -69t24.5 -103v-397q0 -62 -35 -96t-100 -34z" />
    <glyph glyph-name="Omacron" unicode="&#x14c;" horiz-adv-x="810" 
d="M405 -11q-76 0 -142 27.5t-115.5 77t-77 115t-27.5 141.5t27.5 141.5t77 115t115.5 77t142 27.5t141.5 -27.5t115.5 -77t77.5 -115t27.5 -141.5t-27.5 -141.5t-77.5 -115t-115.5 -77t-141.5 -27.5zM405 72q58 0 107 21t85.5 59t57.5 88.5t21 109.5q0 60 -21 110t-57.5 88
t-85.5 59t-107 21q-57 0 -106.5 -21t-86.5 -59t-57.5 -88t-20.5 -110q0 -59 20.5 -109.5t57.5 -88.5t86.5 -59t106.5 -21zM260 817v59h290v-59h-290z" />
    <glyph glyph-name="omacron" unicode="&#x14d;" horiz-adv-x="597" 
d="M298 -10q-72 0 -131.5 35t-94 94t-34.5 133q0 73 34.5 132.5t94 94.5t131.5 35q73 0 132 -35t94 -94.5t35 -132.5q0 -74 -35 -133t-94 -94t-132 -35zM298 66q49 0 89 25t63.5 67t23.5 94q0 53 -23.5 94.5t-63.5 66.5t-89 25t-88.5 -25t-63 -66.5t-23.5 -94.5
q0 -52 23.5 -94t63 -67t88.5 -25zM153 622v59h290v-59h-290z" />
    <glyph glyph-name="Obreve" unicode="&#x14e;" horiz-adv-x="810" 
d="M405 -11q-76 0 -142 27.5t-115.5 77t-77 115t-27.5 141.5t27.5 141.5t77 115t115.5 77t142 27.5t141.5 -27.5t115.5 -77t77.5 -115t27.5 -141.5t-27.5 -141.5t-77.5 -115t-115.5 -77t-141.5 -27.5zM405 72q58 0 107 21t85.5 59t57.5 88.5t21 109.5q0 60 -21 110t-57.5 88
t-85.5 59t-107 21q-57 0 -106.5 -21t-86.5 -59t-57.5 -88t-20.5 -110q0 -59 20.5 -109.5t57.5 -88.5t86.5 -59t106.5 -21zM405 788q-61 0 -103 33.5t-55 92.5l58 14q22 -85 100 -85q37 0 63 21.5t37 63.5l58 -14q-13 -59 -55 -92.5t-103 -33.5z" />
    <glyph glyph-name="obreve" unicode="&#x14f;" horiz-adv-x="597" 
d="M298 -10q-72 0 -131.5 35t-94 94t-34.5 133q0 73 34.5 132.5t94 94.5t131.5 35q73 0 132 -35t94 -94.5t35 -132.5q0 -74 -35 -133t-94 -94t-132 -35zM298 66q49 0 89 25t63.5 67t23.5 94q0 53 -23.5 94.5t-63.5 66.5t-89 25t-88.5 -25t-63 -66.5t-23.5 -94.5
q0 -52 23.5 -94t63 -67t88.5 -25zM298 593q-61 0 -103 33.5t-55 92.5l58 14q22 -85 100 -85q37 0 63 21.5t37 63.5l58 -14q-13 -59 -55 -92.5t-103 -33.5z" />
    <glyph glyph-name="Ohungarumlaut" unicode="&#x150;" horiz-adv-x="810" 
d="M405 -11q-76 0 -142 27.5t-115.5 77t-77 115t-27.5 141.5t27.5 141.5t77 115t115.5 77t142 27.5t141.5 -27.5t115.5 -77t77.5 -115t27.5 -141.5t-27.5 -141.5t-77.5 -115t-115.5 -77t-141.5 -27.5zM405 72q58 0 107 21t85.5 59t57.5 88.5t21 109.5q0 60 -21 110t-57.5 88
t-85.5 59t-107 21q-57 0 -106.5 -21t-86.5 -59t-57.5 -88t-20.5 -110q0 -59 20.5 -109.5t57.5 -88.5t86.5 -59t106.5 -21zM278 799l104 116h95l-128 -116h-71zM451 799l104 116h96l-132 -116h-68z" />
    <glyph glyph-name="ohungarumlaut" unicode="&#x151;" horiz-adv-x="597" 
d="M298 -10q-72 0 -131.5 35t-94 94t-34.5 133q0 73 34.5 132.5t94 94.5t131.5 35q73 0 132 -35t94 -94.5t35 -132.5q0 -74 -35 -133t-94 -94t-132 -35zM298 66q49 0 89 25t63.5 67t23.5 94q0 53 -23.5 94.5t-63.5 66.5t-89 25t-88.5 -25t-63 -66.5t-23.5 -94.5
q0 -52 23.5 -94t63 -67t88.5 -25zM171 604l104 116h95l-128 -116h-71zM344 604l104 116h96l-132 -116h-68z" />
    <glyph glyph-name="OE" unicode="&#x152;" horiz-adv-x="1088" 
d="M395 0q-73 0 -137 27t-112 75t-75 111.5t-27 136.5t27 136.5t75 111.5t112 75t137 27h657v-79h-443q56 -38 91 -98t43 -131h181v-77h-180q-7 -73 -42.5 -134.5t-91.5 -101.5h442v-79h-657zM395 81q55 0 102 20.5t82.5 57t55.5 85.5t20 106t-20 106t-55.5 85.5t-82.5 57
t-102 20.5q-54 0 -101 -20.5t-83 -57t-55.5 -85.5t-19.5 -106t19.5 -106t55.5 -85.5t82.5 -57t101.5 -20.5z" />
    <glyph glyph-name="oe" unicode="&#x153;" horiz-adv-x="1004" 
d="M298 -10q-72 0 -131.5 35t-94 94.5t-34.5 133.5q0 73 34.5 132.5t94 94.5t131.5 35q70 0 127 -33.5t90 -90.5q32 55 87 88.5t123 33.5t122.5 -35t86 -94.5t31.5 -132.5v-26h-405q7 -45 31.5 -81.5t63.5 -57.5t85 -21q38 0 73.5 12t60.5 34l54 -56q-43 -32 -90 -48
t-102 -16q-71 0 -129.5 34t-91.5 90q-33 -57 -90 -91t-127 -34zM298 66q49 0 89 25t63 67.5t23 94.5t-23 94t-63 67t-89 25t-88.5 -25t-63 -67t-23.5 -94t23.5 -94.5t63 -67.5t88.5 -25zM561 292h320q-7 42 -30 75.5t-56 52.5t-73 19q-41 0 -75 -18.5t-56.5 -52t-29.5 -76.5
z" />
    <glyph glyph-name="Racute" unicode="&#x154;" horiz-adv-x="652" 
d="M74 0v700h308q70 0 121.5 -25.5t80.5 -71t29 -107.5q0 -69 -40 -118.5t-107 -70.5l157 -307h-100l-147 295h-212v-295h-90zM164 370h212q67 0 107 34t40 92q0 56 -40 90t-107 34h-212v-250zM254 796l93 119h107l-127 -119h-73z" />
    <glyph glyph-name="racute" unicode="&#x155;" horiz-adv-x="358" 
d="M61 0v505h86v-69q24 38 59 59t81 21q28 0 49 -8v-78q-13 6 -27 8t-28 2q-45 0 -79.5 -25t-54.5 -73v-342h-86zM124 601l93 119h107l-127 -119h-73z" />
    <glyph glyph-name="uni0156" unicode="&#x156;" horiz-adv-x="652" 
d="M74 0v700h308q70 0 121.5 -25.5t80.5 -71t29 -107.5q0 -69 -40 -118.5t-107 -70.5l157 -307h-100l-147 295h-212v-295h-90zM164 370h212q67 0 107 34t40 92q0 56 -40 90t-107 34h-212v-250zM240 -268l43 184h84l-64 -184h-63z" />
    <glyph glyph-name="uni0157" unicode="&#x157;" horiz-adv-x="358" 
d="M61 0v505h86v-69q24 38 59 59t81 21q28 0 49 -8v-78q-13 6 -27 8t-28 2q-45 0 -79.5 -25t-54.5 -73v-342h-86zM19 -268l43 184h84l-64 -184h-63z" />
    <glyph glyph-name="Rcaron" unicode="&#x158;" horiz-adv-x="652" 
d="M74 0v700h308q70 0 121.5 -25.5t80.5 -71t29 -107.5q0 -69 -40 -118.5t-107 -70.5l157 -307h-100l-147 295h-212v-295h-90zM164 370h212q67 0 107 34t40 92q0 56 -40 90t-107 34h-212v-250zM241 917l80 -78l81 78h71l-106 -123h-92l-106 123h72z" />
    <glyph glyph-name="rcaron" unicode="&#x159;" horiz-adv-x="358" 
d="M61 0v505h86v-69q24 38 59 59t81 21q28 0 49 -8v-78q-13 6 -27 8t-28 2q-45 0 -79.5 -25t-54.5 -73v-342h-86zM111 722l80 -78l81 78h71l-106 -123h-92l-106 123h72z" />
    <glyph glyph-name="Sacute" unicode="&#x15a;" horiz-adv-x="606" 
d="M306 -10q-84 0 -161 33t-135 95l57 63q55 -57 115.5 -85t127.5 -28q53 0 93.5 16t63.5 45.5t23 66.5q0 51 -35.5 78t-117.5 40l-108 18q-99 17 -146.5 61t-47.5 118q0 59 31.5 104t88 69.5t131.5 24.5t147.5 -24.5t131.5 -69.5l-51 -69q-114 87 -232 87q-48 0 -84 -14.5
t-56 -40t-20 -60.5q0 -46 31 -70.5t103 -35.5l106 -17q113 -19 165 -65t52 -128q0 -63 -34.5 -111t-96 -74.5t-142.5 -26.5zM218 798l93 119h107l-127 -119h-73z" />
    <glyph glyph-name="sacute" unicode="&#x15b;" horiz-adv-x="455" 
d="M228 -10q-64 0 -119.5 20t-96.5 57l49 56q37 -32 79 -49t85 -17q57 0 93.5 23.5t36.5 60.5q0 30 -21.5 47.5t-66.5 24.5l-90 12q-75 11 -112.5 46t-37.5 94q0 44 24.5 77.5t68.5 53t101 19.5q55 0 104.5 -16t95.5 -50l-44 -58q-42 29 -81.5 42t-80.5 13q-49 0 -79 -21
t-30 -56q0 -31 20.5 -47.5t67.5 -23.5l90 -12q75 -10 113.5 -45t38.5 -94q0 -45 -27.5 -80.5t-74.5 -56t-106 -20.5zM159 601l93 119h107l-127 -119h-73z" />
    <glyph glyph-name="Scircumflex" unicode="&#x15c;" horiz-adv-x="606" 
d="M306 -10q-84 0 -161 33t-135 95l57 63q55 -57 115.5 -85t127.5 -28q53 0 93.5 16t63.5 45.5t23 66.5q0 51 -35.5 78t-117.5 40l-108 18q-99 17 -146.5 61t-47.5 118q0 59 31.5 104t88 69.5t131.5 24.5t147.5 -24.5t131.5 -69.5l-51 -69q-114 87 -232 87q-48 0 -84 -14.5
t-56 -40t-20 -60.5q0 -46 31 -70.5t103 -35.5l106 -17q113 -19 165 -65t52 -128q0 -63 -34.5 -111t-96 -74.5t-142.5 -26.5zM366 795l-82 79l-81 -79h-70l106 123h92l106 -123h-71z" />
    <glyph glyph-name="scircumflex" unicode="&#x15d;" horiz-adv-x="455" 
d="M228 -10q-64 0 -119.5 20t-96.5 57l49 56q37 -32 79 -49t85 -17q57 0 93.5 23.5t36.5 60.5q0 30 -21.5 47.5t-66.5 24.5l-90 12q-75 11 -112.5 46t-37.5 94q0 44 24.5 77.5t68.5 53t101 19.5q55 0 104.5 -16t95.5 -50l-44 -58q-42 29 -81.5 42t-80.5 13q-49 0 -79 -21
t-30 -56q0 -31 20.5 -47.5t67.5 -23.5l90 -12q75 -10 113.5 -45t38.5 -94q0 -45 -27.5 -80.5t-74.5 -56t-106 -20.5zM307 598l-82 79l-81 -79h-70l106 123h92l106 -123h-71z" />
    <glyph glyph-name="Scedilla" unicode="&#x15e;" horiz-adv-x="606" 
d="M277 -228q-70 0 -115 42l33 35q37 -31 82 -31q29 0 45.5 12.5t16.5 34.5q0 21 -18 33t-48 12h-32l24 82q-73 8 -139 40t-116 86l57 63q55 -57 115.5 -85t127.5 -28q53 0 93.5 16t63.5 45.5t23 66.5q0 51 -35.5 78t-117.5 40l-108 18q-99 17 -146.5 61t-47.5 118
q0 59 31.5 104t88 69.5t131.5 24.5t147.5 -24.5t131.5 -69.5l-51 -69q-114 87 -232 87q-48 0 -84 -14.5t-56 -40t-20 -60.5q0 -46 31 -70.5t103 -35.5l106 -17q113 -19 165 -65t52 -128q0 -62 -34 -110t-94 -74.5t-139 -27.5l-12 -42q44 -2 69.5 -24.5t25.5 -58.5
q0 -40 -33.5 -66.5t-84.5 -26.5z" />
    <glyph glyph-name="scedilla" unicode="&#x15f;" horiz-adv-x="455" 
d="M215 -229q-70 0 -116 41l33 35q38 -31 82 -31q30 0 46 13t16 34t-17.5 33t-48.5 12h-31l24 84q-56 3 -105.5 22.5t-85.5 53.5l49 56q37 -32 79 -49t85 -17q57 0 93.5 23.5t36.5 60.5q0 29 -21.5 46.5t-66.5 24.5l-90 12q-75 11 -112.5 45.5t-37.5 92.5q0 44 24.5 77.5
t68.5 53t101 19.5q55 0 104.5 -16t95.5 -50l-44 -57q-42 28 -81.5 41.5t-80.5 13.5q-49 0 -79 -21.5t-30 -55.5q0 -30 20.5 -46t67.5 -24l90 -12q75 -10 113.5 -45t38.5 -94q0 -41 -24.5 -75t-66 -55t-94.5 -25l-13 -45q44 -3 69.5 -25t25.5 -59q0 -40 -33.5 -66t-84.5 -26z
" />
    <glyph glyph-name="Scaron" unicode="&#x160;" horiz-adv-x="606" 
d="M306 -10q-84 0 -161 33t-135 95l57 63q55 -57 115.5 -85t127.5 -28q53 0 93.5 16t63.5 45.5t23 66.5q0 51 -35.5 78t-117.5 40l-108 18q-99 17 -146.5 61t-47.5 118q0 59 31.5 104t88 69.5t131.5 24.5t147.5 -24.5t131.5 -69.5l-51 -69q-114 87 -232 87q-48 0 -84 -14.5
t-56 -40t-20 -60.5q0 -46 31 -70.5t103 -35.5l106 -17q113 -19 165 -65t52 -128q0 -63 -34.5 -111t-96 -74.5t-142.5 -26.5zM205 919l80 -78l81 78h71l-106 -123h-92l-106 123h72z" />
    <glyph glyph-name="scaron" unicode="&#x161;" horiz-adv-x="455" 
d="M228 -10q-64 0 -119.5 20t-96.5 57l49 56q37 -32 79 -49t85 -17q57 0 93.5 23.5t36.5 60.5q0 30 -21.5 47.5t-66.5 24.5l-90 12q-75 11 -112.5 46t-37.5 94q0 44 24.5 77.5t68.5 53t101 19.5q55 0 104.5 -16t95.5 -50l-44 -58q-42 29 -81.5 42t-80.5 13q-49 0 -79 -21
t-30 -56q0 -31 20.5 -47.5t67.5 -23.5l90 -12q75 -10 113.5 -45t38.5 -94q0 -45 -27.5 -80.5t-74.5 -56t-106 -20.5zM146 722l80 -78l81 78h71l-106 -123h-92l-106 123h72z" />
    <glyph glyph-name="uni0162" unicode="&#x162;" horiz-adv-x="624" 
d="M297 -229q-70 0 -115 41l33 35q38 -31 82 -31q29 0 45.5 13t16.5 34t-18 33t-48 12h-32l27 92h-21v620h-250v80h590v-80h-250v-620h-22l-15 -53q44 -3 69.5 -25t25.5 -59q0 -40 -33.5 -66t-84.5 -26z" />
    <glyph glyph-name="uni0163" unicode="&#x163;" horiz-adv-x="376" 
d="M222 -229q-70 0 -115 41l33 35q38 -31 82 -31q29 0 45.5 13t16.5 34t-18 33t-48 12h-32l26 90q-87 23 -87 121v313h-108v73h108v128l85 21v-149h151v-73h-151v-293q0 -39 17.5 -56t58.5 -17q21 0 37.5 3t35.5 10v-74q-19 -7 -44 -10.5t-47 -3.5h-5h-5l-13 -44
q44 -3 69.5 -25t25.5 -59q0 -40 -33.5 -66t-84.5 -26z" />
    <glyph glyph-name="Tcaron" unicode="&#x164;" horiz-adv-x="624" 
d="M267 0v620h-250v80h590v-80h-250v-620h-90zM231 917l80 -78l81 78h71l-106 -123h-92l-106 123h72z" />
    <glyph glyph-name="tcaron" unicode="&#x165;" horiz-adv-x="376" 
d="M268 -10q-69 0 -106 33t-37 95v314h-108v73h108v128l85 21v-149h151v-73h-151v-293q0 -40 17.5 -57t58.5 -17q21 0 37.5 3t35.5 10v-74q-19 -7 -44 -10.5t-47 -3.5zM287 582l4 193l83 13l-27 -206h-60z" />
    <glyph glyph-name="Tbar" unicode="&#x166;" horiz-adv-x="624" 
d="M267 0v301h-147v75h147v244h-250v80h590v-80h-250v-244h146v-75h-146v-301h-90z" />
    <glyph glyph-name="tbar" unicode="&#x167;" horiz-adv-x="376" 
d="M268 -10q-69 0 -106 33t-37 95v138h-108v67h108v109h-108v73h108v128l85 21v-149h151v-73h-151v-109h153v-67h-153v-117q0 -40 17.5 -57t58.5 -17q21 0 37.5 3t35.5 10v-74q-19 -7 -44 -10.5t-47 -3.5z" />
    <glyph glyph-name="Utilde" unicode="&#x168;" horiz-adv-x="708" 
d="M354 -11q-90 0 -156 37.5t-101.5 107t-35.5 163.5v403h90v-403q0 -68 25 -119t71 -78.5t107 -27.5q62 0 107.5 27.5t70.5 78.5t25 119v403h90v-403q0 -94 -36 -163t-101.5 -107t-155.5 -38zM239 791l-58 11q23 104 98 104q27 0 52.5 -13t49 -27t43.5 -14q17 0 27.5 13
t17.5 43l57 -11q-10 -52 -35 -78t-63 -26q-26 0 -51.5 13.5t-49 27t-44.5 13.5q-18 0 -28 -13t-16 -43z" />
    <glyph glyph-name="utilde" unicode="&#x169;" horiz-adv-x="557" 
d="M255 -10q-57 0 -101.5 25t-69.5 69t-25 103v318h85v-302q0 -64 36.5 -101t97.5 -37q43 0 77 19t55 54v367h86v-505h-86v55q-59 -65 -155 -65zM163 596l-58 11q23 104 98 104q27 0 52.5 -13t49 -27t43.5 -14q17 0 27.5 13t17.5 43l57 -11q-10 -52 -35 -78t-63 -26
q-26 0 -51.5 13.5t-49 27t-44.5 13.5q-18 0 -28 -13t-16 -43z" />
    <glyph glyph-name="Umacron" unicode="&#x16a;" horiz-adv-x="708" 
d="M354 -11q-90 0 -156 37.5t-101.5 107t-35.5 163.5v403h90v-403q0 -68 25 -119t71 -78.5t107 -27.5q62 0 107.5 27.5t70.5 78.5t25 119v403h90v-403q0 -94 -36 -163t-101.5 -107t-155.5 -38zM209 817v59h290v-59h-290z" />
    <glyph glyph-name="umacron" unicode="&#x16b;" horiz-adv-x="557" 
d="M255 -10q-57 0 -101.5 25t-69.5 69t-25 103v318h85v-302q0 -64 36.5 -101t97.5 -37q43 0 77 19t55 54v367h86v-505h-86v55q-59 -65 -155 -65zM133 622v59h290v-59h-290z" />
    <glyph glyph-name="Ubreve" unicode="&#x16c;" horiz-adv-x="708" 
d="M354 -11q-90 0 -156 37.5t-101.5 107t-35.5 163.5v403h90v-403q0 -68 25 -119t71 -78.5t107 -27.5q62 0 107.5 27.5t70.5 78.5t25 119v403h90v-403q0 -94 -36 -163t-101.5 -107t-155.5 -38zM354 788q-61 0 -103 33.5t-55 92.5l58 14q22 -85 100 -85q37 0 63 21.5t37 63.5
l58 -14q-13 -59 -55 -92.5t-103 -33.5z" />
    <glyph glyph-name="ubreve" unicode="&#x16d;" horiz-adv-x="557" 
d="M255 -10q-57 0 -101.5 25t-69.5 69t-25 103v318h85v-302q0 -64 36.5 -101t97.5 -37q43 0 77 19t55 54v367h86v-505h-86v55q-59 -65 -155 -65zM278 593q-61 0 -103 33.5t-55 92.5l58 14q22 -85 100 -85q37 0 63 21.5t37 63.5l58 -14q-13 -59 -55 -92.5t-103 -33.5z" />
    <glyph glyph-name="Uring" unicode="&#x16e;" horiz-adv-x="708" 
d="M354 -11q-90 0 -156 37.5t-101.5 107t-35.5 163.5v403h90v-403q0 -68 25 -119t71 -78.5t107 -27.5q62 0 107.5 27.5t70.5 78.5t25 119v403h90v-403q0 -94 -36 -163t-101.5 -107t-155.5 -38zM354 778q-32 0 -57.5 15.5t-41 41.5t-15.5 56q0 32 15.5 57t41 40.5t57.5 15.5
t57.5 -15.5t41 -40.5t15.5 -57q0 -30 -15.5 -56t-41 -41.5t-57.5 -15.5zM354 823q28 0 48.5 20t20.5 48q0 29 -20.5 49t-48.5 20t-48.5 -20t-20.5 -49q0 -28 20.5 -48t48.5 -20z" />
    <glyph glyph-name="uring" unicode="&#x16f;" horiz-adv-x="557" 
d="M255 -10q-57 0 -101.5 25t-69.5 69t-25 103v318h85v-302q0 -64 36.5 -101t97.5 -37q43 0 77 19t55 54v367h86v-505h-86v55q-59 -65 -155 -65zM278 583q-32 0 -57.5 15.5t-41 41.5t-15.5 56q0 32 15.5 57t41 40.5t57.5 15.5t57.5 -15.5t41 -40.5t15.5 -57q0 -30 -15.5 -56
t-41 -41.5t-57.5 -15.5zM278 628q28 0 48.5 20t20.5 48q0 29 -20.5 49t-48.5 20t-48.5 -20t-20.5 -49q0 -28 20.5 -48t48.5 -20z" />
    <glyph glyph-name="Uhungarumlaut" unicode="&#x170;" horiz-adv-x="708" 
d="M354 -11q-90 0 -156 37.5t-101.5 107t-35.5 163.5v403h90v-403q0 -68 25 -119t71 -78.5t107 -27.5q62 0 107.5 27.5t70.5 78.5t25 119v403h90v-403q0 -94 -36 -163t-101.5 -107t-155.5 -38zM227 799l104 116h95l-128 -116h-71zM400 799l104 116h96l-132 -116h-68z" />
    <glyph glyph-name="uhungarumlaut" unicode="&#x171;" horiz-adv-x="557" 
d="M255 -10q-57 0 -101.5 25t-69.5 69t-25 103v318h85v-302q0 -64 36.5 -101t97.5 -37q43 0 77 19t55 54v367h86v-505h-86v55q-59 -65 -155 -65zM151 604l104 116h95l-128 -116h-71zM324 604l104 116h96l-132 -116h-68z" />
    <glyph glyph-name="Uogonek" unicode="&#x172;" horiz-adv-x="708" 
d="M375 -221q-44 0 -71.5 24t-27.5 63q0 32 20 61.5t64 61.5q-91 0 -158 37t-104 106t-37 165v403h90v-403q0 -68 25 -119t71 -78.5t107 -27.5q62 0 107.5 27.5t70.5 78.5t25 119v403h90v-403q0 -119 -57.5 -198t-157.5 -102q-51 -33 -75 -60.5t-24 -56.5q0 -24 14.5 -37
t41.5 -13q13 0 25 3.5t21 9.5l16 -43q-16 -10 -35 -15.5t-41 -5.5z" />
    <glyph glyph-name="uogonek" unicode="&#x173;" horiz-adv-x="557" 
d="M437 -221q-44 0 -71.5 24t-27.5 63q0 35 23 67t74 67h-25v55q-59 -65 -155 -65q-57 0 -101.5 25t-69.5 69t-25 103v318h85v-302q0 -64 36.5 -101t97.5 -37q43 0 77 19t55 54v367h86v-505q-53 -33 -77.5 -62t-24.5 -58q0 -24 15 -37t42 -13q12 0 24.5 3.5t21.5 9.5l16 -43
q-16 -10 -35 -15.5t-41 -5.5z" />
    <glyph glyph-name="Wcircumflex" unicode="&#x174;" horiz-adv-x="894" 
d="M185 0l-152 700h92l114 -558l166 558h87l166 -556l115 556h88l-151 -700h-92l-170 573l-171 -573h-92zM526 793l-82 79l-81 -79h-70l106 123h92l106 -123h-71z" />
    <glyph glyph-name="wcircumflex" unicode="&#x175;" horiz-adv-x="716" 
d="M155 0l-142 505h84l104 -388l121 388h75l120 -388l105 388h81l-143 -505h-82l-120 388l-120 -388h-83zM440 598l-82 79l-81 -79h-70l106 123h92l106 -123h-71z" />
    <glyph glyph-name="Ycircumflex" unicode="&#x176;" horiz-adv-x="652" 
d="M281 0v282l-280 418h105l223 -339l222 339h100l-280 -421v-279h-90zM407 793l-82 79l-81 -79h-70l106 123h92l106 -123h-71z" />
    <glyph glyph-name="ycircumflex" unicode="&#x177;" horiz-adv-x="523" 
d="M88 -214q-15 0 -28 1.5t-22 3.5v77q18 -4 43 -4q68 0 101 76l26 60l-204 505h95l156 -401l170 401h93l-248 -576q-23 -51 -48.5 -82.5t-58 -46t-75.5 -14.5zM338 598l-82 79l-81 -79h-70l106 123h92l106 -123h-71z" />
    <glyph glyph-name="Ydieresis" unicode="&#x178;" horiz-adv-x="652" 
d="M281 0v282l-280 418h105l223 -339l222 339h100l-280 -421v-279h-90zM234 805q-23 0 -38.5 15t-15.5 37q0 23 15.5 38t38.5 15t38.5 -15t15.5 -38q0 -22 -15.5 -37t-38.5 -15zM418 805q-23 0 -38.5 15t-15.5 37q0 23 15.5 38t38.5 15t38.5 -15t15.5 -38q0 -22 -15.5 -37
t-38.5 -15z" />
    <glyph glyph-name="Zacute" unicode="&#x179;" horiz-adv-x="606" 
d="M23 0v63l434 558h-430v79h548v-63l-435 -558h442v-79h-559zM243 796l93 119h107l-127 -119h-73z" />
    <glyph glyph-name="zacute" unicode="&#x17a;" horiz-adv-x="470" 
d="M30 0v65l295 364h-292v76h398v-65l-295 -365h299v-75h-405zM164 601l93 119h107l-127 -119h-73z" />
    <glyph glyph-name="Zdotaccent" unicode="&#x17b;" horiz-adv-x="606" 
d="M23 0v63l434 558h-430v79h548v-63l-435 -558h442v-79h-559zM310 797q-22 0 -38 15.5t-16 37.5q0 23 16 38.5t38 15.5t38 -15.5t16 -38.5q0 -22 -16 -37.5t-38 -15.5z" />
    <glyph glyph-name="zdotaccent" unicode="&#x17c;" horiz-adv-x="470" 
d="M30 0v65l295 364h-292v76h398v-65l-295 -365h299v-75h-405zM231 602q-22 0 -38 15.5t-16 37.5q0 23 16 38.5t38 15.5t38 -15.5t16 -38.5q0 -22 -16 -37.5t-38 -15.5z" />
    <glyph glyph-name="Zcaron" unicode="&#x17d;" horiz-adv-x="606" 
d="M23 0v63l434 558h-430v79h548v-63l-435 -558h442v-79h-559zM230 917l80 -78l81 78h71l-106 -123h-92l-106 123h72z" />
    <glyph glyph-name="zcaron" unicode="&#x17e;" horiz-adv-x="470" 
d="M30 0v65l295 364h-292v76h398v-65l-295 -365h299v-75h-405zM151 722l80 -78l81 78h71l-106 -123h-92l-106 123h72z" />
    <glyph glyph-name="uni0218" unicode="&#x218;" horiz-adv-x="606" 
d="M306 -10q-84 0 -161 33t-135 95l57 63q55 -57 115.5 -85t127.5 -28q53 0 93.5 16t63.5 45.5t23 66.5q0 51 -35.5 78t-117.5 40l-108 18q-99 17 -146.5 61t-47.5 118q0 59 31.5 104t88 69.5t131.5 24.5t147.5 -24.5t131.5 -69.5l-51 -69q-114 87 -232 87q-48 0 -84 -14.5
t-56 -40t-20 -60.5q0 -46 31 -70.5t103 -35.5l106 -17q113 -19 165 -65t52 -128q0 -63 -34.5 -111t-96 -74.5t-142.5 -26.5zM207 -266l43 184h84l-64 -184h-63z" />
    <glyph glyph-name="uni0219" unicode="&#x219;" horiz-adv-x="455" 
d="M228 -10q-64 0 -119.5 20t-96.5 57l49 56q37 -32 79 -49t85 -17q57 0 93.5 23.5t36.5 60.5q0 30 -21.5 47.5t-66.5 24.5l-90 12q-75 11 -112.5 46t-37.5 94q0 44 24.5 77.5t68.5 53t101 19.5q55 0 104.5 -16t95.5 -50l-44 -58q-42 29 -81.5 42t-80.5 13q-49 0 -79 -21
t-30 -56q0 -31 20.5 -47.5t67.5 -23.5l90 -12q75 -10 113.5 -45t38.5 -94q0 -45 -27.5 -80.5t-74.5 -56t-106 -20.5zM144 -268l43 184h84l-64 -184h-63z" />
    <glyph glyph-name="uni021A" unicode="&#x21a;" horiz-adv-x="624" 
d="M267 0v620h-250v80h590v-80h-250v-620h-90zM227 -268l43 184h84l-64 -184h-63z" />
    <glyph glyph-name="uni021B" unicode="&#x21b;" horiz-adv-x="376" 
d="M268 -10q-69 0 -106 33t-37 95v314h-108v73h108v128l85 21v-149h151v-73h-151v-293q0 -40 17.5 -57t58.5 -17q21 0 37.5 3t35.5 10v-74q-19 -7 -44 -10.5t-47 -3.5zM154 -268l43 184h84l-64 -184h-63z" />
    <glyph glyph-name="uni0237" unicode="&#x237;" horiz-adv-x="208" 
d="M12 -214q-15 0 -28 2t-24 5v70q17 -4 39 -4q34 0 48 15t14 50v581h86v-588q0 -62 -35 -96.5t-100 -34.5z" />
    <glyph glyph-name="uni02BB" unicode="&#x2bb;" horiz-adv-x="250" 
d="M208 723l-61 -221h-91l85 221h67z" />
    <glyph glyph-name="uni02BC" unicode="&#x2bc;" horiz-adv-x="250" 
d="M55 502l60 221h91l-85 -221h-66z" />
    <glyph glyph-name="circumflex" unicode="&#x2c6;" 
d="M381 598l-82 79l-81 -79h-70l106 123h92l106 -123h-71z" />
    <glyph glyph-name="caron" unicode="&#x2c7;" 
d="M220 722l80 -78l81 78h71l-106 -123h-92l-106 123h72z" />
    <glyph glyph-name="breve" unicode="&#x2d8;" 
d="M300 593q-61 0 -103 33.5t-55 92.5l58 14q22 -85 100 -85q37 0 63 21.5t37 63.5l58 -14q-13 -59 -55 -92.5t-103 -33.5z" />
    <glyph glyph-name="dotaccent" unicode="&#x2d9;" 
d="M300 602q-22 0 -38 15.5t-16 37.5q0 23 16 38.5t38 15.5t38 -15.5t16 -38.5q0 -22 -16 -37.5t-38 -15.5z" />
    <glyph glyph-name="ring" unicode="&#x2da;" 
d="M300 583q-32 0 -57.5 15.5t-41 41.5t-15.5 56q0 32 15.5 57t41 40.5t57.5 15.5t57.5 -15.5t41 -40.5t15.5 -57q0 -30 -15.5 -56t-41 -41.5t-57.5 -15.5zM300 628q28 0 48.5 20t20.5 48q0 29 -20.5 49t-48.5 20t-48.5 -20t-20.5 -49q0 -28 20.5 -48t48.5 -20z" />
    <glyph glyph-name="ogonek" unicode="&#x2db;" 
d="M295 -221q-44 0 -71.5 24t-27.5 63q0 40 29 75t94 76l36 -17q-53 -33 -78 -62t-25 -58q0 -24 15 -37t42 -13q12 0 24.5 3.5t21.5 9.5l16 -43q-16 -10 -35 -15.5t-41 -5.5z" />
    <glyph glyph-name="tilde" unicode="&#x2dc;" 
d="M185 595l-58 11q23 104 98 104q27 0 52.5 -13t49 -27t43.5 -14q17 0 27.5 13t17.5 43l57 -11q-10 -52 -35 -78t-63 -26q-26 0 -51.5 13.5t-49 27t-44.5 13.5q-18 0 -28 -13t-16 -43z" />
    <glyph glyph-name="hungarumlaut" unicode="&#x2dd;" 
d="M173 604l104 116h95l-128 -116h-71zM346 604l104 116h96l-132 -116h-68z" />
    <glyph glyph-name="gravecomb" unicode="&#x300;" horiz-adv-x="0" 
d="M287 601l-125 119h107l92 -119h-74z" />
    <glyph glyph-name="acutecomb" unicode="&#x301;" horiz-adv-x="0" 
d="M233 601l93 119h107l-127 -119h-73z" />
    <glyph glyph-name="uni0302" unicode="&#x302;" horiz-adv-x="0" 
d="M381 598l-82 79l-81 -79h-70l106 123h92l106 -123h-71z" />
    <glyph glyph-name="tildecomb" unicode="&#x303;" horiz-adv-x="0" 
d="M185 595l-58 11q23 104 98 104q27 0 52.5 -13t49 -27t43.5 -14q17 0 27.5 13t17.5 43l57 -11q-10 -52 -35 -78t-63 -26q-26 0 -51.5 13.5t-49 27t-44.5 13.5q-18 0 -28 -13t-16 -43z" />
    <glyph glyph-name="uni0304" unicode="&#x304;" horiz-adv-x="0" 
d="M155 622v59h290v-59h-290z" />
    <glyph glyph-name="uni0306" unicode="&#x306;" horiz-adv-x="0" 
d="M300 593q-61 0 -103 33.5t-55 92.5l58 14q22 -85 100 -85q37 0 63 21.5t37 63.5l58 -14q-13 -59 -55 -92.5t-103 -33.5z" />
    <glyph glyph-name="uni0307" unicode="&#x307;" horiz-adv-x="0" 
d="M300 602q-22 0 -38 15.5t-16 37.5q0 23 16 38.5t38 15.5t38 -15.5t16 -38.5q0 -22 -16 -37.5t-38 -15.5z" />
    <glyph glyph-name="uni0308" unicode="&#x308;" horiz-adv-x="0" 
d="M208 610q-23 0 -38.5 15t-15.5 37q0 23 15.5 38t38.5 15t38.5 -15t15.5 -38q0 -22 -15.5 -37t-38.5 -15zM392 610q-23 0 -38.5 15t-15.5 37q0 23 15.5 38t38.5 15t38.5 -15t15.5 -38q0 -22 -15.5 -37t-38.5 -15z" />
    <glyph glyph-name="uni030A" unicode="&#x30a;" horiz-adv-x="0" 
d="M300 583q-32 0 -57.5 15.5t-41 41.5t-15.5 56q0 32 15.5 57t41 40.5t57.5 15.5t57.5 -15.5t41 -40.5t15.5 -57q0 -30 -15.5 -56t-41 -41.5t-57.5 -15.5zM300 628q28 0 48.5 20t20.5 48q0 29 -20.5 49t-48.5 20t-48.5 -20t-20.5 -49q0 -28 20.5 -48t48.5 -20z" />
    <glyph glyph-name="uni030B" unicode="&#x30b;" horiz-adv-x="0" 
d="M173 604l104 116h95l-128 -116h-71zM346 604l104 116h96l-132 -116h-68z" />
    <glyph glyph-name="uni030C" unicode="&#x30c;" horiz-adv-x="0" 
d="M220 722l80 -78l81 78h71l-106 -123h-92l-106 123h72z" />
    <glyph glyph-name="uni0312" unicode="&#x312;" horiz-adv-x="0" 
d="M208 723l-61 -221h-91l85 221h67z" />
    <glyph glyph-name="uni0326" unicode="&#x326;" horiz-adv-x="0" 
d="M215 -268l43 184h84l-64 -184h-63z" />
    <glyph glyph-name="uni0327" unicode="&#x327;" horiz-adv-x="0" 
d="M285 -229q-70 0 -116 41l33 35q38 -31 82 -31q30 0 46.5 13t16.5 34t-18 33t-49 12h-31l26 92h48l-15 -53q44 -3 69.5 -25t25.5 -59q0 -40 -33.5 -66t-84.5 -26z" />
    <glyph glyph-name="uni0328" unicode="&#x328;" horiz-adv-x="0" 
d="M295 -221q-44 0 -71.5 24t-27.5 63q0 40 29 75t94 76l36 -17q-53 -33 -78 -62t-25 -58q0 -24 15 -37t42 -13q12 0 24.5 3.5t21.5 9.5l16 -43q-16 -10 -35 -15.5t-41 -5.5z" />
    <glyph glyph-name="Wgrave" unicode="&#x1e80;" horiz-adv-x="894" 
d="M185 0l-152 700h92l114 -558l166 558h87l166 -556l115 556h88l-151 -700h-92l-170 573l-171 -573h-92zM429 796l-125 119h107l92 -119h-74z" />
    <glyph glyph-name="wgrave" unicode="&#x1e81;" horiz-adv-x="716" 
d="M155 0l-142 505h84l104 -388l121 388h75l120 -388l105 388h81l-143 -505h-82l-120 388l-120 -388h-83zM343 601l-125 119h107l92 -119h-74z" />
    <glyph glyph-name="Wacute" unicode="&#x1e82;" horiz-adv-x="894" 
d="M185 0l-152 700h92l114 -558l166 558h87l166 -556l115 556h88l-151 -700h-92l-170 573l-171 -573h-92zM378 796l93 119h107l-127 -119h-73z" />
    <glyph glyph-name="wacute" unicode="&#x1e83;" horiz-adv-x="716" 
d="M155 0l-142 505h84l104 -388l121 388h75l120 -388l105 388h81l-143 -505h-82l-120 388l-120 -388h-83zM292 601l93 119h107l-127 -119h-73z" />
    <glyph glyph-name="Wdieresis" unicode="&#x1e84;" horiz-adv-x="894" 
d="M185 0l-152 700h92l114 -558l166 558h87l166 -556l115 556h88l-151 -700h-92l-170 573l-171 -573h-92zM353 805q-23 0 -38.5 15t-15.5 37q0 23 15.5 38t38.5 15t38.5 -15t15.5 -38q0 -22 -15.5 -37t-38.5 -15zM537 805q-23 0 -38.5 15t-15.5 37q0 23 15.5 38t38.5 15
t38.5 -15t15.5 -38q0 -22 -15.5 -37t-38.5 -15z" />
    <glyph glyph-name="wdieresis" unicode="&#x1e85;" horiz-adv-x="716" 
d="M155 0l-142 505h84l104 -388l121 388h75l120 -388l105 388h81l-143 -505h-82l-120 388l-120 -388h-83zM267 610q-23 0 -38.5 15t-15.5 37q0 23 15.5 38t38.5 15t38.5 -15t15.5 -38q0 -22 -15.5 -37t-38.5 -15zM451 610q-23 0 -38.5 15t-15.5 37q0 23 15.5 38t38.5 15
t38.5 -15t15.5 -38q0 -22 -15.5 -37t-38.5 -15z" />
    <glyph glyph-name="uni1E9E" unicode="&#x1e9e;" horiz-adv-x="638" 
d="M403 -11q-47 0 -94 16t-84 45l45 77q32 -27 64.5 -41t63.5 -14q30 0 54 11t38 31t14 44q0 28 -8 47t-27.5 35.5t-55.5 34.5q-41 23 -65 40t-34 35t-10 38q0 21 9.5 40.5t35.5 55.5l103 135h-288v-619h-90v700h477v-90l-120 -153q-12 -15 -20 -27t-11.5 -20.5t-3.5 -15.5
q0 -9 6 -16.5t25 -18t57 -30.5q56 -28 83.5 -69t27.5 -97q0 -49 -25.5 -88.5t-69 -62.5t-97.5 -23z" />
    <glyph glyph-name="Ygrave" unicode="&#x1ef2;" horiz-adv-x="652" 
d="M281 0v282l-280 418h105l223 -339l222 339h100l-280 -421v-279h-90zM311 796l-125 119h107l92 -119h-74z" />
    <glyph glyph-name="ygrave" unicode="&#x1ef3;" horiz-adv-x="523" 
d="M88 -214q-15 0 -28 1.5t-22 3.5v77q18 -4 43 -4q68 0 101 76l26 60l-204 505h95l156 -401l170 401h93l-248 -576q-23 -51 -48.5 -82.5t-58 -46t-75.5 -14.5zM241 601l-125 119h107l92 -119h-74z" />
    <glyph glyph-name="uni2002" unicode="&#x2002;" horiz-adv-x="500" 
 />
    <glyph glyph-name="uni2003" unicode="&#x2003;" horiz-adv-x="1000" 
 />
    <glyph glyph-name="uni2009" unicode="&#x2009;" horiz-adv-x="175" 
 />
    <glyph glyph-name="uni200A" unicode="&#x200a;" horiz-adv-x="100" 
 />
    <glyph glyph-name="uni200B" unicode="&#x200b;" horiz-adv-x="0" 
 />
    <glyph glyph-name="endash" unicode="&#x2013;" horiz-adv-x="549" 
d="M48 244v75h454v-75h-454z" />
    <glyph glyph-name="emdash" unicode="&#x2014;" horiz-adv-x="699" 
d="M48 244v75h604v-75h-604z" />
    <glyph glyph-name="uni2015" unicode="&#x2015;" horiz-adv-x="949" 
d="M48 244v75h854v-75h-854z" />
    <glyph glyph-name="quoteleft" unicode="&#x2018;" horiz-adv-x="250" 
d="M208 723l-61 -221h-91l85 221h67z" />
    <glyph glyph-name="quoteright" unicode="&#x2019;" horiz-adv-x="250" 
d="M55 502l60 221h91l-85 -221h-66z" />
    <glyph glyph-name="quotesinglbase" unicode="&#x201a;" horiz-adv-x="250" 
d="M36 -140l60 221h92l-85 -221h-67z" />
    <glyph glyph-name="quotedblleft" unicode="&#x201c;" horiz-adv-x="397" 
d="M208 723l-61 -221h-91l85 221h67zM354 723l-60 -221h-92l86 221h66z" />
    <glyph glyph-name="quotedblright" unicode="&#x201d;" horiz-adv-x="397" 
d="M201 502l60 221h92l-85 -221h-67zM55 502l60 221h91l-85 -221h-66z" />
    <glyph glyph-name="quotedblbase" unicode="&#x201e;" horiz-adv-x="397" 
d="M183 -140l60 221h92l-85 -221h-67zM36 -140l60 221h92l-85 -221h-67z" />
    <glyph glyph-name="dagger" unicode="&#x2020;" horiz-adv-x="429" 
d="M178 0v437h-125v68h125v195h75v-195h124v-68h-124v-437h-75z" />
    <glyph glyph-name="daggerdbl" unicode="&#x2021;" horiz-adv-x="429" 
d="M178 0v195h-125v68h125v174h-125v68h125v195h75v-195h124v-68h-124v-174h124v-68h-124v-195h-75z" />
    <glyph glyph-name="bullet" unicode="&#x2022;" horiz-adv-x="333" 
d="M166 245q-28 0 -52 14t-38 37.5t-14 51.5q0 29 14 52.5t38 38t52 14.5q29 0 52.5 -14.5t38 -38t14.5 -52.5q0 -28 -14 -51.5t-37.5 -37.5t-53.5 -14z" />
    <glyph glyph-name="ellipsis" unicode="&#x2026;" horiz-adv-x="652" 
d="M125 -7q-23 0 -40 17t-17 40t17 40t40 17t40 -17t17 -40t-17 -40t-40 -17zM326 -7q-23 0 -40 17t-17 40t17 40t40 17t40 -17t17 -40t-17 -40t-40 -17zM527 -7q-23 0 -40 17t-17 40t17 40t40 17t40 -17t17 -40t-17 -40t-40 -17z" />
    <glyph glyph-name="perthousand" unicode="&#x2030;" horiz-adv-x="1096" 
d="M177 345q-68 0 -109.5 50t-41.5 130t41.5 130t109.5 50q66 0 107.5 -50t42.5 -130q-1 -80 -42.5 -130t-107.5 -50zM177 396q43 0 68 35t25 94q0 60 -25.5 95t-67.5 35q-43 0 -68 -35t-26 -95q1 -59 26 -94t68 -35zM142 0l393 700h70l-395 -700h-68zM575 -5
q-68 0 -109.5 50t-41.5 130t41.5 130t109.5 50q66 0 107.5 -50t42.5 -130q-1 -80 -42.5 -130t-107.5 -50zM575 46q43 0 68 35t25 94q0 60 -25.5 95t-67.5 35q-43 0 -68 -35t-26 -95q1 -59 26 -94t68 -35zM921 -5q-68 0 -109.5 50t-41.5 130t41.5 130t109.5 50
q66 0 107.5 -50t42.5 -130q-1 -80 -42.5 -130t-107.5 -50zM921 46q43 0 68 35t25 94q0 60 -25.5 95t-67.5 35q-43 0 -68 -35t-26 -95q1 -59 26 -94t68 -35z" />
    <glyph glyph-name="minute" unicode="&#x2032;" horiz-adv-x="250" 
d="M55 502l60 221h91l-85 -221h-66z" />
    <glyph glyph-name="second" unicode="&#x2033;" horiz-adv-x="397" 
d="M201 502l60 221h92l-85 -221h-67zM55 502l60 221h91l-85 -221h-66z" />
    <glyph glyph-name="guilsinglleft" unicode="&#x2039;" horiz-adv-x="397" 
d="M264 0l-235 253l235 252h91l-230 -250l233 -255h-94z" />
    <glyph glyph-name="guilsinglright" unicode="&#x203a;" horiz-adv-x="397" 
d="M133 505l235 -253l-235 -252h-91l230 250l-233 255h94z" />
    <glyph glyph-name="fraction" unicode="&#x2044;" horiz-adv-x="578" 
d="M28 0l393 700h70l-395 -700h-68z" />
    <glyph glyph-name="uni2070" unicode="&#x2070;" horiz-adv-x="352" 
d="M177 345q-68 0 -109.5 50t-41.5 130t41.5 130t109.5 50q66 0 107.5 -50t42.5 -130q-1 -80 -42.5 -130t-107.5 -50zM177 396q43 0 68 35t25 94q0 60 -25.5 95t-67.5 35q-43 0 -68 -35t-26 -95q1 -59 26 -94t68 -35z" />
    <glyph glyph-name="uni2074" unicode="&#x2074;" horiz-adv-x="335" 
d="M219 350v86h-198v47l190 217h66v-215h43v-49h-43v-86h-58zM89 485h130v148z" />
    <glyph glyph-name="uni2075" unicode="&#x2075;" horiz-adv-x="312" 
d="M148 345q-75 0 -128 47l36 40q22 -20 44.5 -29t49.5 -9q36 0 57 18.5t21 47.5q0 27 -22.5 45t-59.5 18q-16 0 -34 -3t-36 -10l-36 11l8 179h220v-50h-173l-4 -92q17 6 33.5 9t33.5 3q59 0 94.5 -30t35.5 -79q0 -53 -39 -84.5t-101 -31.5z" />
    <glyph glyph-name="uni2076" unicode="&#x2076;" horiz-adv-x="328" 
d="M176 345q-67 0 -108.5 47.5t-41.5 123.5q0 86 47 137t124 51q25 0 51 -8t44 -22l-32 -43q-15 12 -32 17t-36 5q-50 0 -77.5 -33t-30.5 -96q19 21 45 33t54 12q53 0 87.5 -31t34.5 -78q0 -49 -36.5 -82t-92.5 -33zM173 522q-24 0 -46.5 -11t-38.5 -32q7 -39 30 -61.5
t57 -22.5q31 0 51.5 18t20.5 46t-20.5 45.5t-53.5 17.5z" />
    <glyph glyph-name="uni2077" unicode="&#x2077;" horiz-adv-x="302" 
d="M57 350l168 300h-209v50h275v-43l-165 -307h-69z" />
    <glyph glyph-name="uni2078" unicode="&#x2078;" horiz-adv-x="329" 
d="M165 345q-61 0 -99.5 28.5t-38.5 73.5q0 28 18 51t48 33q-24 12 -38.5 33t-14.5 46q0 41 35.5 68.5t88.5 27.5q54 0 89.5 -27.5t35.5 -68.5q0 -25 -14.5 -46t-38.5 -33q29 -10 47 -33t18 -51q0 -45 -38 -73.5t-98 -28.5zM165 554q28 0 47 14.5t19 37.5t-19 38t-47 15
q-30 0 -49 -15t-19 -38t19 -37.5t49 -14.5zM165 393q33 0 55.5 16.5t22.5 40.5q0 25 -22.5 41.5t-55.5 16.5q-35 0 -57.5 -16.5t-22.5 -41.5q0 -24 22.5 -40.5t57.5 -16.5z" />
    <glyph glyph-name="uni2079" unicode="&#x2079;" horiz-adv-x="328" 
d="M152 704q67 0 109 -47t42 -124q0 -84 -47 -136t-125 -52q-24 0 -50.5 8t-44.5 22l32 43q15 -11 32.5 -16.5t35.5 -5.5q50 0 77.5 33.5t30.5 95.5q-18 -21 -44 -32.5t-55 -11.5q-53 0 -87.5 30.5t-34.5 77.5q0 50 36.5 82.5t92.5 32.5zM155 527q25 0 47 11t39 32
q-8 39 -31 61.5t-57 22.5q-31 0 -51.5 -18t-20.5 -46t20.5 -45.5t53.5 -17.5z" />
    <glyph glyph-name="uni2080" unicode="&#x2080;" horiz-adv-x="352" 
d="M177 -5q-68 0 -109.5 50t-41.5 130t41.5 130t109.5 50q66 0 107.5 -50t42.5 -130q-1 -80 -42.5 -130t-107.5 -50zM177 46q43 0 68 35t25 94q0 60 -25.5 95t-67.5 35q-43 0 -68 -35t-26 -95q1 -59 26 -94t68 -35z" />
    <glyph glyph-name="uni2081" unicode="&#x2081;" horiz-adv-x="171" 
d="M84 0v290l-65 -27v51l87 36h36v-350h-58z" />
    <glyph glyph-name="uni2082" unicode="&#x2082;" horiz-adv-x="294" 
d="M26 0v42l137 124q27 26 38 43.5t11 36.5q0 26 -19 42.5t-50 16.5q-25 0 -47 -10t-48 -33l-33 39q30 26 62.5 40t66.5 14q55 0 90 -29.5t35 -75.5q0 -30 -15 -56t-54 -61l-92 -84h165v-49h-247z" />
    <glyph glyph-name="uni2083" unicode="&#x2083;" horiz-adv-x="316" 
d="M152 -5q-39 0 -74.5 14t-60.5 39l40 37q21 -22 43 -31t52 -9q36 0 57 15.5t21 40.5q0 22 -20.5 35.5t-53.5 13.5h-31v47h26q29 0 48 16t19 40q0 23 -19 37.5t-48 14.5q-28 0 -48 -9.5t-43 -32.5l-39 37q26 26 60 41t72 15q54 0 89 -27.5t35 -70.5q0 -26 -15 -47t-41 -34
q31 -10 49.5 -31t18.5 -49q0 -45 -38.5 -73.5t-98.5 -28.5z" />
    <glyph glyph-name="uni2084" unicode="&#x2084;" horiz-adv-x="335" 
d="M219 0v86h-198v47l190 217h66v-215h43v-49h-43v-86h-58zM89 135h130v148z" />
    <glyph glyph-name="uni2085" unicode="&#x2085;" horiz-adv-x="312" 
d="M148 -5q-75 0 -128 47l36 40q22 -20 44.5 -29t49.5 -9q36 0 57 18.5t21 47.5q0 27 -22.5 45t-59.5 18q-16 0 -34 -3t-36 -10l-36 11l8 179h220v-50h-173l-4 -92q17 6 33.5 9t33.5 3q59 0 94.5 -30t35.5 -79q0 -53 -39 -84.5t-101 -31.5z" />
    <glyph glyph-name="uni2086" unicode="&#x2086;" horiz-adv-x="328" 
d="M176 -5q-67 0 -108.5 47.5t-41.5 123.5q0 86 47 137t124 51q25 0 51 -8t44 -22l-32 -43q-15 12 -32 17t-36 5q-50 0 -77.5 -33t-30.5 -96q19 21 45 33t54 12q53 0 87.5 -31t34.5 -78q0 -49 -36.5 -82t-92.5 -33zM173 172q-24 0 -46.5 -11t-38.5 -32q7 -39 30 -61.5
t57 -22.5q31 0 51.5 18t20.5 46t-20.5 45.5t-53.5 17.5z" />
    <glyph glyph-name="uni2087" unicode="&#x2087;" horiz-adv-x="302" 
d="M57 0l168 300h-209v50h275v-43l-165 -307h-69z" />
    <glyph glyph-name="uni2088" unicode="&#x2088;" horiz-adv-x="329" 
d="M165 -5q-61 0 -99.5 28.5t-38.5 73.5q0 28 18 51t48 33q-24 12 -38.5 33t-14.5 46q0 41 35.5 68.5t88.5 27.5q54 0 89.5 -27.5t35.5 -68.5q0 -25 -14.5 -46t-38.5 -33q29 -10 47 -33t18 -51q0 -45 -38 -73.5t-98 -28.5zM165 204q28 0 47 14.5t19 37.5t-19 38t-47 15
q-30 0 -49 -15t-19 -38t19 -37.5t49 -14.5zM165 43q33 0 55.5 16.5t22.5 40.5q0 25 -22.5 41.5t-55.5 16.5q-35 0 -57.5 -16.5t-22.5 -41.5q0 -24 22.5 -40.5t57.5 -16.5z" />
    <glyph glyph-name="uni2089" unicode="&#x2089;" horiz-adv-x="328" 
d="M152 354q67 0 109 -47t42 -124q0 -84 -47 -136t-125 -52q-24 0 -50.5 8t-44.5 22l32 43q15 -11 32.5 -16.5t35.5 -5.5q50 0 77.5 33.5t30.5 95.5q-18 -21 -44 -32.5t-55 -11.5q-53 0 -87.5 30.5t-34.5 77.5q0 50 36.5 82.5t92.5 32.5zM155 177q25 0 47 11t39 32
q-8 39 -31 61.5t-57 22.5q-31 0 -51.5 -18t-20.5 -46t20.5 -45.5t53.5 -17.5z" />
    <glyph glyph-name="Euro" unicode="&#x20ac;" horiz-adv-x="778" 
d="M465 -11q-84 0 -152.5 33.5t-115 94t-64.5 140.5h-100v55h92q-1 9 -1.5 18.5t-0.5 19.5t0.5 20.5t1.5 20.5h-92v54h101q18 80 64.5 140t115.5 93t153 33q85 0 153.5 -31.5t114.5 -94.5l-61 -46q-35 48 -89 73.5t-119 25.5q-62 0 -112 -23.5t-84.5 -67t-51.5 -102.5h278
l-20 -54h-268q-1 -10 -1.5 -20.5t-0.5 -20.5t0.5 -19.5t1.5 -18.5h241l-20 -55h-211q16 -59 50.5 -103t84.5 -67.5t112 -23.5q64 0 119.5 26t89.5 73l58 -46q-46 -61 -115 -94t-152 -33z" />
    <glyph glyph-name="trademark" unicode="&#x2122;" horiz-adv-x="678" 
d="M325 421v279h60l86 -175l85 175h61v-279h-47l2 220l-101 -201l-101 198l1 -217h-46zM130 421v237h-98v42h244v-42h-98v-237h-48z" />
    <glyph glyph-name="arrowup" unicode="&#x2191;" horiz-adv-x="526" 
d="M221 0v591l-159 -208l-54 44l254 323l253 -323l-54 -44l-161 212v-595h-79z" />
    <glyph glyph-name="arrowdown" unicode="&#x2193;" horiz-adv-x="526" 
d="M301 700v-591l160 208l54 -44l-254 -323l-253 323l53 44l161 -212v595h79z" />
    <glyph glyph-name="minus" unicode="&#x2212;" 
d="M98 324v68h404v-68h-404z" />
    <glyph glyph-name="uni2215" unicode="&#x2215;" horiz-adv-x="578" 
d="M28 0l394 700h69l-394 -700h-69z" />
    <glyph glyph-name="notequal" unicode="&#x2260;" 
d="M107 117l81 121h-90v68h135l68 100h-203v68h249l80 119h66l-80 -119h89v-68h-134l-68 -100h202v-68h-247l-82 -121h-66z" />
    <glyph glyph-name="uniFEFF" unicode="&#xfeff;" horiz-adv-x="0" 
 />
    <glyph glyph-name="uniFFFD" unicode="&#xfffd;" horiz-adv-x="588" 
d="M97 -100v850h394v-850h-394z" />
    <glyph glyph-name="i.loclTRK" horiz-adv-x="208" 
d="M61 0v505h86v-505h-86zM104 594q-22 0 -38.5 16.5t-16.5 39.5t16.5 39t38.5 16q23 0 39.5 -16t16.5 -39t-16.5 -39.5t-39.5 -16.5z" />
    <glyph glyph-name="a.ss01" horiz-adv-x="598" 
d="M293 -8q-71 0 -129 35t-92 93.5t-34 132.5q0 73 34 131.5t92 93.5t130 35q43 0 83 -14t74 -40v46h86v-505h-85v51q-66 -59 -159 -59zM302 67q46 0 84.5 17.5t64.5 48.5v240q-26 30 -64.5 47.5t-84.5 17.5q-50 0 -91 -24t-64.5 -65.5t-23.5 -94.5t23.5 -95t64.5 -67
t91 -25z" />
    <glyph glyph-name="aacute.ss01" horiz-adv-x="598" 
d="M293 -8q-71 0 -129 35t-92 93.5t-34 132.5q0 73 34 131.5t92 93.5t130 35q43 0 83 -14t74 -40v46h86v-505h-85v51q-66 -59 -159 -59zM302 67q46 0 84.5 17.5t64.5 48.5v240q-26 30 -64.5 47.5t-84.5 17.5q-50 0 -91 -24t-64.5 -65.5t-23.5 -94.5t23.5 -95t64.5 -67
t91 -25zM232 601l93 119h107l-127 -119h-73z" />
    <glyph glyph-name="abreve.ss01" horiz-adv-x="598" 
d="M293 -8q-71 0 -129 35t-92 93.5t-34 132.5q0 73 34 131.5t92 93.5t130 35q43 0 83 -14t74 -40v46h86v-505h-85v51q-66 -59 -159 -59zM302 67q46 0 84.5 17.5t64.5 48.5v240q-26 30 -64.5 47.5t-84.5 17.5q-50 0 -91 -24t-64.5 -65.5t-23.5 -94.5t23.5 -95t64.5 -67
t91 -25zM299 593q-61 0 -103 33.5t-55 92.5l58 14q22 -85 100 -85q37 0 63 21.5t37 63.5l58 -14q-13 -59 -55 -92.5t-103 -33.5z" />
    <glyph glyph-name="acircumflex.ss01" horiz-adv-x="598" 
d="M293 -8q-71 0 -129 35t-92 93.5t-34 132.5q0 73 34 131.5t92 93.5t130 35q43 0 83 -14t74 -40v46h86v-505h-85v51q-66 -59 -159 -59zM302 67q46 0 84.5 17.5t64.5 48.5v240q-26 30 -64.5 47.5t-84.5 17.5q-50 0 -91 -24t-64.5 -65.5t-23.5 -94.5t23.5 -95t64.5 -67
t91 -25zM380 598l-82 79l-81 -79h-70l106 123h92l106 -123h-71z" />
    <glyph glyph-name="adieresis.ss01" horiz-adv-x="598" 
d="M293 -8q-71 0 -129 35t-92 93.5t-34 132.5q0 73 34 131.5t92 93.5t130 35q43 0 83 -14t74 -40v46h86v-505h-85v51q-66 -59 -159 -59zM302 67q46 0 84.5 17.5t64.5 48.5v240q-26 30 -64.5 47.5t-84.5 17.5q-50 0 -91 -24t-64.5 -65.5t-23.5 -94.5t23.5 -95t64.5 -67
t91 -25zM207 610q-23 0 -38.5 15t-15.5 37q0 23 15.5 38t38.5 15t38.5 -15t15.5 -38q0 -22 -15.5 -37t-38.5 -15zM391 610q-23 0 -38.5 15t-15.5 37q0 23 15.5 38t38.5 15t38.5 -15t15.5 -38q0 -22 -15.5 -37t-38.5 -15z" />
    <glyph glyph-name="agrave.ss01" horiz-adv-x="598" 
d="M293 -8q-71 0 -129 35t-92 93.5t-34 132.5q0 73 34 131.5t92 93.5t130 35q43 0 83 -14t74 -40v46h86v-505h-85v51q-66 -59 -159 -59zM302 67q46 0 84.5 17.5t64.5 48.5v240q-26 30 -64.5 47.5t-84.5 17.5q-50 0 -91 -24t-64.5 -65.5t-23.5 -94.5t23.5 -95t64.5 -67
t91 -25zM283 601l-125 119h107l92 -119h-74z" />
    <glyph glyph-name="amacron.ss01" horiz-adv-x="598" 
d="M293 -8q-71 0 -129 35t-92 93.5t-34 132.5q0 73 34 131.5t92 93.5t130 35q43 0 83 -14t74 -40v46h86v-505h-85v51q-66 -59 -159 -59zM302 67q46 0 84.5 17.5t64.5 48.5v240q-26 30 -64.5 47.5t-84.5 17.5q-50 0 -91 -24t-64.5 -65.5t-23.5 -94.5t23.5 -95t64.5 -67
t91 -25zM154 622v59h290v-59h-290z" />
    <glyph glyph-name="aogonek.ss01" horiz-adv-x="598" 
d="M477 -221q-45 0 -72.5 24t-27.5 63q0 35 23.5 67t74.5 67h-23v51q-66 -59 -159 -59q-71 0 -129 35t-92 93.5t-34 132.5q0 73 34 131.5t92 93.5t130 35q43 0 83 -14t74 -40v46h86v-505q-54 -33 -78.5 -62t-24.5 -58q0 -24 14.5 -37t41.5 -13q13 0 25 3.5t22 9.5l15 -43
q-16 -10 -35 -15.5t-40 -5.5zM123 254q0 -53 23.5 -95t64.5 -67t91 -25q46 0 84.5 17.5t64.5 48.5v240q-26 30 -65 47.5t-84 17.5q-50 0 -91 -24t-64.5 -66t-23.5 -94z" />
    <glyph glyph-name="aring.ss01" horiz-adv-x="598" 
d="M293 -8q-71 0 -129 35t-92 93.5t-34 132.5q0 73 34 131.5t92 93.5t130 35q43 0 83 -14t74 -40v46h86v-505h-85v51q-66 -59 -159 -59zM302 67q46 0 84.5 17.5t64.5 48.5v240q-26 30 -64.5 47.5t-84.5 17.5q-50 0 -91 -24t-64.5 -65.5t-23.5 -94.5t23.5 -95t64.5 -67
t91 -25zM299 583q-32 0 -57.5 15.5t-41 41.5t-15.5 56q0 32 15.5 57t41 40.5t57.5 15.5t57.5 -15.5t41 -40.5t15.5 -57q0 -30 -15.5 -56t-41 -41.5t-57.5 -15.5zM299 628q28 0 48.5 20t20.5 48q0 29 -20.5 49t-48.5 20t-48.5 -20t-20.5 -49q0 -28 20.5 -48t48.5 -20z" />
    <glyph glyph-name="atilde.ss01" horiz-adv-x="598" 
d="M293 -8q-71 0 -129 35t-92 93.5t-34 132.5q0 73 34 131.5t92 93.5t130 35q43 0 83 -14t74 -40v46h86v-505h-85v51q-66 -59 -159 -59zM302 67q46 0 84.5 17.5t64.5 48.5v240q-26 30 -64.5 47.5t-84.5 17.5q-50 0 -91 -24t-64.5 -65.5t-23.5 -94.5t23.5 -95t64.5 -67
t91 -25zM184 596l-58 11q23 104 98 104q27 0 52.5 -13t49 -27t43.5 -14q17 0 27.5 13t17.5 43l57 -11q-10 -52 -35 -78t-63 -26q-26 0 -51.5 13.5t-49 27t-44.5 13.5q-18 0 -28 -13t-16 -43z" />
    <glyph glyph-name="g.ss02" horiz-adv-x="543" 
d="M260 -214q-112 0 -173.5 31.5t-61.5 88.5q0 32 26 59.5t74 44.5q-38 25 -38 70q0 27 17.5 49.5t47.5 35.5q-43 25 -70 67t-27 93q0 54 28.5 96.5t76.5 68t107 25.5q39 0 74.5 -12t62.5 -32q19 31 48 48.5t64 17.5q8 0 14 -0.5t11 -2.5l3 -71q-7 1 -14.5 1.5t-16.5 0.5
q-47 0 -77 -25q20 -23 31.5 -52.5t11.5 -62.5q0 -52 -28.5 -95.5t-76.5 -68.5t-107 -25q-16 0 -32.5 2t-31.5 6q-38 -16 -38 -45q0 -36 60 -40l179 -8q65 -4 100.5 -32t35.5 -77q0 -47 -34.5 -82.5t-97 -54.5t-148.5 -19zM267 204q37 0 66.5 16.5t46.5 43.5t17 61
q0 35 -17 62.5t-46.5 43t-66.5 15.5t-66.5 -15.5t-46.5 -43t-17 -62.5q0 -34 17 -61t46.5 -43.5t66.5 -16.5zM256 -153q91 0 144.5 22t53.5 60q0 43 -65 45l-165 8l-18 2l-18 2q-39 -9 -61 -27t-22 -43q0 -32 39.5 -50.5t111.5 -18.5z" />
    <glyph glyph-name="gbreve.ss02" horiz-adv-x="543" 
d="M260 -214q-112 0 -173.5 31.5t-61.5 88.5q0 32 26 59.5t74 44.5q-38 25 -38 70q0 27 17.5 49.5t47.5 35.5q-43 25 -70 67t-27 93q0 54 28.5 96.5t76.5 68t107 25.5q39 0 74.5 -12t62.5 -32q19 31 48 48.5t64 17.5q8 0 14 -0.5t11 -2.5l3 -71q-7 1 -14.5 1.5t-16.5 0.5
q-47 0 -77 -25q20 -23 31.5 -52.5t11.5 -62.5q0 -52 -28.5 -95.5t-76.5 -68.5t-107 -25q-16 0 -32.5 2t-31.5 6q-38 -16 -38 -45q0 -36 60 -40l179 -8q65 -4 100.5 -32t35.5 -77q0 -47 -34.5 -82.5t-97 -54.5t-148.5 -19zM267 204q37 0 66.5 16.5t46.5 43.5t17 61
q0 35 -17 62.5t-46.5 43t-66.5 15.5t-66.5 -15.5t-46.5 -43t-17 -62.5q0 -34 17 -61t46.5 -43.5t66.5 -16.5zM256 -153q91 0 144.5 22t53.5 60q0 43 -65 45l-165 8l-18 2l-18 2q-39 -9 -61 -27t-22 -43q0 -32 39.5 -50.5t111.5 -18.5zM269 593q-61 0 -103 33.5t-55 92.5
l58 14q22 -85 100 -85q37 0 63 21.5t37 63.5l58 -14q-13 -59 -55 -92.5t-103 -33.5z" />
    <glyph glyph-name="gcircumflex.ss02" horiz-adv-x="543" 
d="M260 -214q-112 0 -173.5 31.5t-61.5 88.5q0 32 26 59.5t74 44.5q-38 25 -38 70q0 27 17.5 49.5t47.5 35.5q-43 25 -70 67t-27 93q0 54 28.5 96.5t76.5 68t107 25.5q39 0 74.5 -12t62.5 -32q19 31 48 48.5t64 17.5q8 0 14 -0.5t11 -2.5l3 -71q-7 1 -14.5 1.5t-16.5 0.5
q-47 0 -77 -25q20 -23 31.5 -52.5t11.5 -62.5q0 -52 -28.5 -95.5t-76.5 -68.5t-107 -25q-16 0 -32.5 2t-31.5 6q-38 -16 -38 -45q0 -36 60 -40l179 -8q65 -4 100.5 -32t35.5 -77q0 -47 -34.5 -82.5t-97 -54.5t-148.5 -19zM267 204q37 0 66.5 16.5t46.5 43.5t17 61
q0 35 -17 62.5t-46.5 43t-66.5 15.5t-66.5 -15.5t-46.5 -43t-17 -62.5q0 -34 17 -61t46.5 -43.5t66.5 -16.5zM256 -153q91 0 144.5 22t53.5 60q0 43 -65 45l-165 8l-18 2l-18 2q-39 -9 -61 -27t-22 -43q0 -32 39.5 -50.5t111.5 -18.5zM350 598l-82 79l-81 -79h-70l106 123
h92l106 -123h-71z" />
    <glyph glyph-name="uni0123.ss02" horiz-adv-x="543" 
d="M356 784l-43 -184h-85l64 184h64zM260 -214q-112 0 -173.5 31.5t-61.5 88.5q0 32 26 59.5t74 44.5q-38 25 -38 70q0 27 17.5 49.5t47.5 35.5q-43 25 -70 67t-27 93q0 54 28.5 96.5t76.5 68t107 25.5q39 0 74.5 -12t62.5 -32q19 31 48 48.5t64 17.5q8 0 14 -0.5t11 -2.5
l3 -71q-7 1 -14.5 1.5t-16.5 0.5q-47 0 -77 -25q20 -23 31.5 -52.5t11.5 -62.5q0 -52 -28.5 -95.5t-76.5 -68.5t-107 -25q-16 0 -32.5 2t-31.5 6q-38 -16 -38 -45q0 -36 60 -40l179 -8q65 -4 100.5 -32t35.5 -77q0 -47 -34.5 -82.5t-97 -54.5t-148.5 -19zM267 204
q37 0 66.5 16.5t46.5 43.5t17 61q0 35 -17 62.5t-46.5 43t-66.5 15.5t-66.5 -15.5t-46.5 -43t-17 -62.5q0 -34 17 -61t46.5 -43.5t66.5 -16.5zM256 -153q91 0 144.5 22t53.5 60q0 43 -65 45l-165 8l-18 2l-18 2q-39 -9 -61 -27t-22 -43q0 -32 39.5 -50.5t111.5 -18.5z" />
    <glyph glyph-name="gdotaccent.ss02" horiz-adv-x="543" 
d="M260 -214q-112 0 -173.5 31.5t-61.5 88.5q0 32 26 59.5t74 44.5q-38 25 -38 70q0 27 17.5 49.5t47.5 35.5q-43 25 -70 67t-27 93q0 54 28.5 96.5t76.5 68t107 25.5q39 0 74.5 -12t62.5 -32q19 31 48 48.5t64 17.5q8 0 14 -0.5t11 -2.5l3 -71q-7 1 -14.5 1.5t-16.5 0.5
q-47 0 -77 -25q20 -23 31.5 -52.5t11.5 -62.5q0 -52 -28.5 -95.5t-76.5 -68.5t-107 -25q-16 0 -32.5 2t-31.5 6q-38 -16 -38 -45q0 -36 60 -40l179 -8q65 -4 100.5 -32t35.5 -77q0 -47 -34.5 -82.5t-97 -54.5t-148.5 -19zM267 204q37 0 66.5 16.5t46.5 43.5t17 61
q0 35 -17 62.5t-46.5 43t-66.5 15.5t-66.5 -15.5t-46.5 -43t-17 -62.5q0 -34 17 -61t46.5 -43.5t66.5 -16.5zM256 -153q91 0 144.5 22t53.5 60q0 43 -65 45l-165 8l-18 2l-18 2q-39 -9 -61 -27t-22 -43q0 -32 39.5 -50.5t111.5 -18.5zM269 602q-22 0 -38 15.5t-16 37.5
q0 23 16 38.5t38 15.5t38 -15.5t16 -38.5q0 -22 -16 -37.5t-38 -15.5z" />
    <glyph glyph-name="exclamdown.cap" horiz-adv-x="208" 
d="M140 502l10 -508h-89l11 508h68zM105 706q24 0 40.5 -17t16.5 -40t-16.5 -40t-40.5 -17q-23 0 -39.5 17t-16.5 40t16.5 40t39.5 17z" />
    <glyph glyph-name="questiondown.cap" horiz-adv-x="510" 
d="M324 498q3 -45 -4.5 -78.5t-25.5 -59.5t-51 -50l-46 -32q-40 -29 -57.5 -54.5t-17.5 -56.5q0 -29 18.5 -52t50 -37t69.5 -14q49 0 91 23t74 66l68 -39q-28 -40 -65 -68t-80.5 -42.5t-91.5 -14.5q-62 0 -111.5 23t-78 63t-28.5 90q0 35 10.5 62t37 54t70.5 57l33 23
q36 25 50.5 57t10.5 80h74zM287 707q23 0 40 -17t17 -40t-17 -40t-40 -17t-40 17t-17 40t17 40t40 17z" />
    <glyph glyph-name="periodcentered.cap" horiz-adv-x="251" 
d="M125 291q-23 0 -40 16.5t-17 40.5q0 23 17 39.5t40 16.5t40 -16.5t17 -39.5q0 -24 -17 -40.5t-40 -16.5z" />
    <glyph glyph-name="hyphen.cap" horiz-adv-x="449" 
d="M48 309v75h354v-75h-354z" />
    <glyph glyph-name="endash.cap" horiz-adv-x="549" 
d="M48 309v75h454v-75h-454z" />
    <glyph glyph-name="emdash.cap" horiz-adv-x="699" 
d="M48 309v75h604v-75h-604z" />
    <glyph glyph-name="uni2015.cap" horiz-adv-x="949" 
d="M48 309v75h854v-75h-854z" />
    <glyph glyph-name="at.cap" horiz-adv-x="782" 
d="M404 -10q-77 0 -143 26.5t-115 74t-76 111.5t-27 139q0 79 27 146.5t75.5 117.5t114 78t142.5 28q71 0 132 -23.5t106 -65t70.5 -97.5t25.5 -120q0 -63 -23 -112t-64 -77t-93 -28q-66 0 -95 41q-24 -22 -51 -33.5t-54 -11.5q-41 0 -74 20.5t-51.5 54.5t-18.5 77
q0 50 23 90t61.5 64t86.5 24q60 0 99 -37l5 24h64l-40 -194q-7 -34 7 -52.5t46 -18.5q34 0 61.5 21.5t43 59.5t15.5 85q0 75 -38 134.5t-101.5 93.5t-144.5 34q-64 0 -119 -24.5t-97 -68t-65 -102t-23 -125.5q0 -89 40 -157.5t110.5 -108t160.5 -39.5q93 0 169 40l19 -44
q-44 -22 -92 -33.5t-99 -11.5zM370 237q44 0 77 34v20t3 23l20 102q-14 21 -36.5 32.5t-50.5 11.5q-30 0 -54.5 -16t-39.5 -43.5t-15 -59.5q0 -46 27 -75t69 -29z" />
    <glyph glyph-name="uni030C.alt" horiz-adv-x="0" 
d="M98 507l4 193l83 13l-27 -206h-60z" />
    <glyph glyph-name="uni030C.ss02" horiz-adv-x="0" 
d="M25 507l5 193l83 13l-27 -206h-61z" />
    <glyph glyph-name="zero.tf" 
d="M300 -11q-76 0 -135 44t-92 125t-33 192q0 112 33 192.5t92 124.5t135 44q77 0 135.5 -44t91.5 -124.5t33 -192.5q0 -111 -33 -192t-91.5 -125t-135.5 -44zM300 636q-53 0 -92.5 -35t-61.5 -99.5t-22 -151.5q0 -73 14.5 -127.5t39 -89.5t56.5 -52t66 -17q53 0 92.5 35
t61.5 99.5t22 151.5q0 79 -16 134t-41.5 88.5t-57 48.5t-61.5 15z" />
    <glyph glyph-name="one.tf" 
d="M80 0v72h177v539l-177 -77v75l208 91h52v-628h198v-72h-458z" />
    <glyph glyph-name="two.tf" 
d="M71 0v61l282 304q31 33 48 59t24.5 49t7.5 48q0 51 -40 83.5t-101 32.5q-49 0 -91 -19t-93 -66l-48 58q55 51 113 76t120 25q65 0 115 -24t78 -65.5t28 -95.5q0 -35 -9 -64.5t-31.5 -62.5t-63.5 -77l-234 -251l353 1v-72h-458z" />
    <glyph glyph-name="three.tf" 
d="M287 -11q-74 0 -138 25.5t-112 75.5l56 54q43 -44 88.5 -63t103.5 -19q50 0 88 17t59 47t21 69q0 37 -18.5 65.5t-50.5 44.5t-74 16h-84v71h79q55 0 89 33t34 86q0 36 -19 64.5t-52.5 45t-74.5 16.5q-54 0 -95.5 -19t-84.5 -65l-56 54q47 51 108 77.5t129 26.5
q66 0 117.5 -25t81 -69t29.5 -99q0 -56 -36 -99t-95 -60q71 -16 113.5 -61.5t42.5 -105.5q0 -58 -32 -104.5t-88.5 -72.5t-128.5 -26z" />
    <glyph glyph-name="four.tf" 
d="M401 0v183h-375v66l367 451h90v-445h94v-72h-94v-183h-82zM121 255h280v346z" />
    <glyph glyph-name="five.tf" 
d="M287 -11q-139 0 -241 95l52 57q45 -42 90 -61t101 -19q49 0 86.5 19.5t58 55.5t20.5 83q0 66 -46 107t-120 41q-39 0 -75.5 -9t-75.5 -30l-59 18l16 354h407v-72h-334l-11 -230q40 20 76 28t76 8q69 0 120.5 -26.5t80.5 -74.5t29 -111q0 -69 -32 -121.5t-88 -82
t-131 -29.5z" />
    <glyph glyph-name="six.tf" 
d="M322 -10q-83 0 -145.5 43t-98 119t-35.5 176q0 115 39.5 201t111 134t166.5 48q46 0 91.5 -13t79.5 -38l-43 -63q-31 19 -64.5 29t-69.5 10q-70 0 -121 -36t-78 -104t-29 -163q38 50 91 77.5t110 27.5q69 0 122 -28t83 -77t30 -112q0 -66 -31.5 -118.5t-86 -82.5
t-122.5 -30zM315 371q-53 0 -101.5 -26t-84.5 -71q8 -64 33.5 -111.5t66 -74t91.5 -26.5q46 0 81.5 20.5t56.5 56t21 80.5q0 44 -21 78.5t-57.5 54t-85.5 19.5z" />
    <glyph glyph-name="seven.tf" 
d="M121 0l341 627h-414v73h504v-64l-335 -636h-96z" />
    <glyph glyph-name="eight.tf" 
d="M300 -11q-73 0 -130 26t-89.5 72t-32.5 103q0 42 20.5 78t56.5 62.5t83 37.5q-59 17 -96.5 60.5t-37.5 97.5q0 53 29.5 94.5t81 66t115.5 24.5q65 0 116 -24.5t80.5 -66t29.5 -94.5q0 -54 -37 -97.5t-97 -60.5q71 -18 115.5 -66.5t44.5 -111.5q0 -57 -32 -103t-89.5 -72
t-130.5 -26zM300 401q41 0 74 16t52 43.5t19 61.5q0 35 -19 62.5t-52 43t-74 15.5t-74 -15.5t-52 -43t-19 -62.5q0 -34 19 -61.5t52 -43.5t74 -16zM300 57q49 0 87 18t60.5 49t22.5 70t-22.5 70.5t-60.5 49.5t-87 18t-87 -18t-60.5 -49.5t-22.5 -70.5t22.5 -70t60.5 -49
t87 -18z" />
    <glyph glyph-name="nine.tf" horiz-adv-x="616" 
d="M284 711q82 0 144.5 -43t98 -119t35.5 -176q0 -115 -39.5 -201.5t-110.5 -134t-167 -47.5q-45 0 -90.5 13.5t-80.5 37.5l43 63q31 -19 65.5 -29t69.5 -10q70 0 120.5 36t78 104.5t28.5 162.5q-38 -50 -91 -77.5t-110 -27.5q-68 0 -121 28t-83 77t-30 112q0 67 31 119
t85.5 82t123.5 30zM290 330q53 0 102 26t84 71q-7 64 -33 111.5t-66 74t-91 26.5q-45 0 -81.5 -20.5t-57.5 -56t-21 -80.5q0 -44 21 -78.5t58 -54t85 -19.5z" />
    <glyph glyph-name="zero.tab.slash" 
d="M300 -11q-76 0 -135 44t-92 125t-33 192q0 112 33 192.5t92 124.5t135 44q77 0 135.5 -44t91.5 -124.5t33 -192.5q0 -111 -33 -192t-91.5 -125t-135.5 -44zM163 160l228 443q-19 16 -41.5 24.5t-49.5 8.5q-53 0 -92.5 -35t-61.5 -99.5t-22 -151.5q0 -58 10.5 -106
t28.5 -84zM300 64q53 0 92.5 35t61.5 99.5t22 151.5q0 58 -10.5 106.5t-28.5 83.5l-228 -443q39 -33 91 -33z" />
    <glyph glyph-name="caronSlovak" 
d="M274 507l5 193l83 13l-27 -206h-61z" />
    </font>
</defs>
</svg>
