<?xml version="1.0" standalone="no"?>
<!DOCTYPE svg PUBLIC "-//W3C//DTD SVG 1.1//EN" "http://www.w3.org/Graphics/SVG/1.1/DTD/svg11.dtd" >
<svg xmlns="http://www.w3.org/2000/svg" xmlns:xlink="http://www.w3.org/1999/xlink" version="1.1">
<metadata>
Created by FontForge 20201107 at Fri Nov 15 15:25:12 2024
 By 
Copyright 2024 The Red Hat Project Authors (https://github.com/RedHatOfficial/RedHatFont)
</metadata>
<defs>
<font id="RedHatDisplay-SemiBoldItalic" horiz-adv-x="600" >
  <font-face 
    font-family="Red Hat Display SemiBold"
    font-weight="600"
    font-style="italic"
    font-stretch="normal"
    units-per-em="1000"
    panose-1="2 1 3 3 4 2 1 13 3 3"
    ascent="800"
    descent="-200"
    x-height="509"
    cap-height="700"
    bbox="-166 -273 1136 1004"
    underline-thickness="100"
    underline-position="-250"
    slope="-12"
    unicode-range="U+000D-FFFD"
  />
<missing-glyph horiz-adv-x="514" 
d="M60 -100v850h394v-850h-394z" />
    <glyph glyph-name="fi" unicode="fi" horiz-adv-x="605" 
d="M77 0l90 425h-114l18 84h115l18 88q16 74 63.5 113.5t121.5 39.5q23 0 45.5 -3.5t39.5 -10.5l-18 -87q-16 7 -32 10t-36 3q-37 0 -58 -17.5t-29 -56.5l-17 -79h142l-18 -84h-142l-91 -425h-98zM394 0l108 509h98l-108 -509h-98zM574 591q-23 0 -38.5 16t-15.5 39
q0 19 9.5 34.5t25 25t33.5 9.5q23 0 38.5 -15.5t15.5 -38.5q0 -19 -9.5 -34.5t-25 -25.5t-33.5 -10z" />
    <glyph glyph-name="fl" unicode="fl" horiz-adv-x="605" 
d="M77 0l90 425h-114l18 84h115l18 88q16 74 63.5 113.5t121.5 39.5q23 0 45.5 -3.5t39.5 -10.5l-18 -87q-16 7 -32 10t-36 3q-37 0 -58 -17.5t-29 -56.5l-17 -79h142l-18 -84h-142l-91 -425h-98zM394 0l149 700l102 22l-153 -722h-98z" />
    <glyph glyph-name=".notdef" horiz-adv-x="514" 
d="M60 -100v850h394v-850h-394z" />
    <glyph glyph-name=".null" horiz-adv-x="0" 
 />
    <glyph glyph-name="nonmarkingreturn" horiz-adv-x="333" 
 />
    <glyph glyph-name="CR" unicode="&#xd;" horiz-adv-x="209" 
 />
    <glyph glyph-name="space" unicode=" " horiz-adv-x="209" 
 />
    <glyph glyph-name="exclam" unicode="!" horiz-adv-x="211" 
d="M56 201l95 502h101l-119 -502h-77zM56 -8q-24 0 -40 16.5t-16 39.5q0 19 10 35.5t26 26t35 9.5q24 0 39.5 -15.5t15.5 -40.5q0 -18 -10 -34t-25.5 -26.5t-34.5 -10.5z" />
    <glyph glyph-name="quotedbl" unicode="&#x22;" horiz-adv-x="366" 
d="M113 467l38 236h98l-64 -236h-72zM265 467l38 236h98l-64 -236h-72z" />
    <glyph glyph-name="numbersign" unicode="#" horiz-adv-x="697" 
d="M7 0l103 208h-103l15 75h125l65 134h-112l16 75h133l103 208h90l-102 -208h173l103 208h90l-103 -208h103l-16 -75h-124l-65 -134h111l-15 -75h-133l-103 -208h-89l102 208h-174l-103 -208h-90zM237 283h174l66 134h-175z" />
    <glyph glyph-name="dollar" unicode="$" horiz-adv-x="569" 
d="M183 -67l19 89q-63 11 -116.5 43t-95.5 83l67 65q70 -86 162 -108l45 212l-45 12q-71 20 -107 59.5t-36 98.5q0 61 31 105.5t87 68.5t132 24h16l18 82h56l-19 -88q55 -10 106 -35t91 -63l-63 -70q-69 66 -152 84l-42 -199l26 -6q90 -25 130.5 -62.5t40.5 -99.5
q0 -64 -33 -111t-93 -73.5t-140 -26.5h-12l-17 -84h-56zM283 406l42 196h-10q-65 0 -105.5 -28t-40.5 -75q0 -32 22.5 -53t71.5 -35zM274 100q50 0 86.5 14.5t57 40t20.5 58.5q0 24 -11.5 40t-38 29t-70.5 26z" />
    <glyph glyph-name="percent" unicode="%" horiz-adv-x="778" 
d="M209 345q-60 0 -95.5 38t-35.5 101q0 61 24.5 111t65 80t88.5 30q61 0 96 -37.5t35 -101.5q0 -61 -24 -111t-64.5 -80t-89.5 -30zM215 402q30 0 55 22t39.5 59t14.5 80q0 40 -20 63t-54 23q-29 0 -54 -22t-39.5 -59t-14.5 -80q0 -40 19.5 -63t53.5 -23zM102 0l535 700h76
l-537 -700h-74zM561 -5q-60 0 -95.5 38t-35.5 101q0 61 24.5 111t65 80t88.5 30q61 0 96 -37.5t35 -101.5q0 -60 -24 -110.5t-64.5 -80.5t-89.5 -30zM567 52q30 0 55 22t39.5 59t14.5 80q0 40 -20 63t-54 23q-29 0 -54 -22t-39.5 -59t-14.5 -80q0 -40 19.5 -63t53.5 -23z
" />
    <glyph glyph-name="ampersand" unicode="&#x26;" horiz-adv-x="653" 
d="M601 56l-67 -69q-20 17 -41 37t-43 41q-47 -37 -100 -56.5t-111 -19.5q-68 0 -119 23t-79 63.5t-28 95.5q0 49 19 87.5t61 71.5t110 65q-17 34 -25 63t-8 61q0 55 25 98.5t69 68t100 24.5q46 0 82 -17t56 -47.5t20 -71.5q0 -55 -34 -98t-107 -79l-55 -28q29 -46 64 -90.5
t70 -85.5q28 35 52.5 77t44.5 91l84 -22q-26 -62 -57 -113t-67 -92q22 -21 42.5 -40.5t41.5 -37.5zM261 529q0 -23 6.5 -45.5t22.5 -51.5l55 27q43 22 63.5 47.5t20.5 56.5q0 32 -19.5 51.5t-53.5 19.5q-28 0 -49.5 -13t-33.5 -37t-12 -55zM108 186q0 -52 38.5 -84
t103.5 -32q38 0 74.5 14t70.5 40q-39 44 -77.5 95t-77.5 111q-47 -22 -76.5 -44t-42.5 -46.5t-13 -53.5z" />
    <glyph glyph-name="quotesingle" unicode="'" horiz-adv-x="212" 
d="M113 467l38 236h98l-64 -236h-72z" />
    <glyph glyph-name="parenleft" unicode="(" horiz-adv-x="391" 
d="M210 -215q-81 63 -123 153t-42 203q0 123 43.5 234t123.5 198t189 138l40 -70q-68 -31 -123.5 -82.5t-95.5 -116.5t-61.5 -139.5t-21.5 -152.5q0 -97 35 -174.5t102 -129.5z" />
    <glyph glyph-name="parenright" unicode=")" horiz-adv-x="391" 
d="M182 713q81 -62 123 -152.5t42 -202.5q0 -124 -44 -235t-124 -197.5t-189 -138.5l-40 70q68 32 123.5 83.5t95.5 116t61.5 139t21.5 153.5q0 97 -34.5 174t-101.5 130z" />
    <glyph glyph-name="asterisk" unicode="*" horiz-adv-x="449" 
d="M207 331l29 129l-122 -62l-26 61l132 63l-101 77l47 53l95 -77l24 125h68l-29 -126l122 61l27 -60l-132 -63l102 -77l-49 -53l-94 77l-25 -128h-68z" />
    <glyph glyph-name="plus" unicode="+" horiz-adv-x="599" 
d="M237 138l38 179h-166l17 79h166l38 178h80l-39 -178h167l-17 -79h-166l-38 -179h-80z" />
    <glyph glyph-name="comma" unicode="," horiz-adv-x="250" 
d="M-56 -143l110 233h105l-139 -233h-76z" />
    <glyph glyph-name="hyphen" unicode="-" horiz-adv-x="443" 
d="M59 326h354l-18 -87h-354z" />
    <glyph glyph-name="period" unicode="." horiz-adv-x="250" 
d="M76 -8q-24 0 -40 16.5t-16 39.5q0 19 10 35.5t26 26t35 9.5q24 0 39.5 -15.5t15.5 -40.5q0 -18 -10 -34t-25.5 -26.5t-34.5 -10.5z" />
    <glyph glyph-name="slash" unicode="/" horiz-adv-x="475" 
d="M-166 -206l606 906h105l-607 -906h-104z" />
    <glyph glyph-name="zero" unicode="0" horiz-adv-x="663" 
d="M304 -11q-75 0 -132 34.5t-88 96.5t-31 145q0 92 27 172.5t75 142t110.5 96.5t132.5 35q77 0 133 -34t87.5 -96t31.5 -146q0 -91 -27 -172t-75 -142.5t-110.5 -96.5t-133.5 -35zM315 77q49 0 92 28t75.5 77t51.5 113.5t19 136.5q0 89 -44 140.5t-121 51.5q-49 0 -92 -28
t-75.5 -77t-51.5 -113.5t-19 -137.5q0 -89 44 -140t121 -51z" />
    <glyph glyph-name="one" unicode="1" horiz-adv-x="309" 
d="M94 0l127 597l-135 -54l18 89l174 68h63l-149 -700h-98z" />
    <glyph glyph-name="two" unicode="2" 
d="M23 0l14 70l366 327q41 36 59.5 68.5t18.5 66.5q0 41 -33 67t-85 26q-43 0 -85 -18t-98 -59l-42 71q61 45 120 68t119 23q59 0 104 -20.5t70 -58t25 -87.5q0 -36 -11 -68t-36 -64t-67 -68l-294 -262l332 1l-17 -83h-460z" />
    <glyph glyph-name="three" unicode="3" 
d="M271 -11q-79 0 -143.5 34t-108.5 94l71 56q41 -52 86.5 -75.5t100.5 -23.5q47 0 83 17t56 46.5t20 67.5q0 47 -34.5 78t-94.5 31h-62l17 82h75q39 0 71.5 16t51 43.5t18.5 61.5q0 45 -34 76.5t-97 31.5q-48 0 -90 -16t-85 -51l-49 67q46 42 104 64t124 22
q71 0 121.5 -24.5t77.5 -65t27 -89.5q0 -63 -40 -112.5t-119 -71.5q53 -17 83 -55.5t30 -88.5q0 -61 -34 -110t-92.5 -77t-133.5 -28z" />
    <glyph glyph-name="four" unicode="4" horiz-adv-x="628" 
d="M361 0l38 177h-390l17 80l472 443h109l-93 -438h84l-18 -85h-84l-38 -177h-97zM147 262h270l67 317z" />
    <glyph glyph-name="five" unicode="5" 
d="M263 -10q-75 0 -138 29t-105 83l67 62q39 -47 83.5 -69t99.5 -22q48 0 86 21t60 57t22 81q0 59 -40 93.5t-109 34.5q-28 0 -58 -7.5t-66 -22.5l-64 27l87 343h412l-19 -83h-326l-54 -207q34 14 63 19.5t59 5.5q65 0 113 -23.5t74 -66.5t26 -101q0 -71 -36 -128.5
t-98 -91.5t-139 -34z" />
    <glyph glyph-name="six" unicode="6" 
d="M305 -11q-68 0 -124 34t-89.5 98t-33.5 154q0 98 27.5 178t76.5 137.5t113.5 89t136.5 31.5q60 0 108.5 -18.5t88.5 -52.5l-56 -73q-36 30 -71 44t-73 14q-62 0 -116 -35.5t-90 -99t-47 -150.5q40 47 90 71.5t105 24.5q63 0 111 -26t75 -70.5t27 -101.5
q0 -55 -20.5 -100.5t-56.5 -78.5t-82.5 -51.5t-99.5 -18.5zM315 74q44 0 78.5 20.5t55 56t20.5 80.5q0 39 -17.5 67.5t-49 45t-74.5 16.5q-48 0 -94 -20.5t-82 -59.5q1 -66 22 -112t57.5 -70t83.5 -24z" />
    <glyph glyph-name="seven" unicode="7" 
d="M61 0l461 615h-403l19 85h510l-16 -74l-455 -626h-116z" />
    <glyph glyph-name="eight" unicode="8" 
d="M278 -10q-72 0 -127.5 24.5t-86 68t-30.5 96.5q0 48 23 87.5t64 68t96 40.5q-45 20 -68.5 55t-23.5 78q0 60 33.5 105.5t89 71.5t121.5 26q68 0 115.5 -23.5t73.5 -63t26 -87.5q0 -42 -19 -78t-55 -62t-84 -40q52 -21 84.5 -61.5t32.5 -93.5q0 -62 -36 -110t-96 -75
t-133 -27zM348 403q39 0 71 16.5t51.5 44.5t19.5 63q0 30 -14.5 54t-43.5 37.5t-71 13.5q-39 0 -71.5 -16.5t-52 -44t-19.5 -63.5q0 -30 16.5 -54t45.5 -37.5t68 -13.5zM286 68q48 0 84 17.5t56.5 48t20.5 69.5q0 35 -19 62.5t-53 44t-81 16.5t-84 -17.5t-57.5 -47
t-20.5 -68.5q0 -35 18.5 -63t53.5 -45t82 -17z" />
    <glyph glyph-name="nine" unicode="9" horiz-adv-x="613" 
d="M343 711q69 0 125 -34t89.5 -98t33.5 -154q0 -97 -28 -177.5t-77 -138t-113 -89t-137 -31.5q-59 0 -107.5 18.5t-89.5 52.5l57 73q36 -30 71 -44t72 -14q63 0 116.5 35.5t90 99.5t47.5 150q-40 -46 -90 -71t-105 -25q-63 0 -111.5 26t-75 71t-26.5 101q0 55 20 100.5
t56 78.5t83 51.5t99 18.5zM333 626q-43 0 -78 -20.5t-55.5 -56t-20.5 -80.5q0 -38 17.5 -67t49.5 -45.5t75 -16.5q48 0 93.5 21t82.5 59q-1 66 -22 112t-57.5 70t-84.5 24z" />
    <glyph glyph-name="colon" unicode=":" horiz-adv-x="250" 
d="M77 -8q-24 0 -40 16.5t-16 39.5q0 19 10 35.5t26 26t35 9.5q24 0 39.5 -15.5t15.5 -40.5q0 -18 -10 -34t-25.5 -26.5t-34.5 -10.5zM162 392q-24 0 -40 16.5t-16 39.5q0 19 10 35.5t26 26t35 9.5q24 0 39.5 -15.5t15.5 -40.5q0 -18 -10 -34t-25.5 -26.5t-34.5 -10.5z" />
    <glyph glyph-name="semicolon" unicode=";" horiz-adv-x="250" 
d="M168 392q-24 0 -40 16.5t-16 39.5q0 19 10 35.5t26 26t35 9.5q24 0 39.5 -15.5t15.5 -40.5q0 -18 -10 -34t-25.5 -26.5t-34.5 -10.5zM-56 -143l110 233h105l-139 -233h-76z" />
    <glyph glyph-name="less" unicode="&#x3c;" horiz-adv-x="599" 
d="M403 85l-272 263l378 263l42 -65l-298 -203l211 -199z" />
    <glyph glyph-name="equal" unicode="=" 
d="M90 227l17 79h411l-17 -79h-411zM128 402l17 79h411l-17 -79h-411z" />
    <glyph glyph-name="greater" unicode="&#x3e;" 
d="M241 611l272 -263l-378 -263l-42 65l298 204l-211 199z" />
    <glyph glyph-name="question" unicode="?" horiz-adv-x="504" 
d="M169 205q7 48 20.5 82t37.5 59t60 45l63 37q38 23 60 52t22 58q0 39 -32.5 62.5t-85.5 23.5q-44 0 -86.5 -21t-75.5 -58l-67 45q47 57 111 89t132 32q59 0 105 -20.5t71.5 -56t25.5 -82.5q0 -57 -33.5 -103t-107.5 -89l-52 -29q-39 -21 -58 -50t-27 -76h-83zM174 -8
q-24 0 -40 16.5t-16 39.5q0 19 10 35.5t26 26t35 9.5q24 0 39.5 -16t15.5 -40q0 -18 -10 -34.5t-26 -26.5t-34 -10z" />
    <glyph glyph-name="at" unicode="@" horiz-adv-x="774" 
d="M399 -144q-78 0 -144.5 26.5t-115.5 74t-76 111.5t-27 139q0 80 27 147.5t75.5 117.5t115 78t143.5 28q72 0 133 -23t106.5 -64.5t71 -97.5t25.5 -120t-23.5 -114t-64.5 -78.5t-95 -28.5q-69 0 -97 41q-49 -44 -105 -44q-41 0 -74 20.5t-52 55t-19 77.5q0 51 23.5 91.5
t62.5 64.5t87 24q28 0 53.5 -9.5t44.5 -26.5l4 23h73l-41 -197q-6 -32 6.5 -49t42.5 -17q34 0 60.5 21t41 58t14.5 84q0 74 -36.5 132.5t-100 92t-143.5 33.5q-64 0 -118.5 -24t-95.5 -67t-64 -100.5t-23 -124.5q0 -88 39.5 -156t108.5 -106.5t159 -38.5q93 0 168 39l21 -49
q-45 -22 -92.5 -33t-98.5 -11zM364 110q41 0 73 31q-2 16 3 39l20 99q-13 20 -35 30.5t-48 10.5q-28 0 -51 -15t-37.5 -40.5t-14.5 -56.5q0 -43 25.5 -70.5t64.5 -27.5z" />
    <glyph glyph-name="A" unicode="A" horiz-adv-x="688" 
d="M-53 0l429 700h122l135 -700h-107l-37 205h-306l-122 -205h-114zM235 292h239l-56 306z" />
    <glyph glyph-name="B" unicode="B" horiz-adv-x="658" 
d="M16 0l149 700h277q93 0 147 -43t54 -118q0 -62 -35 -109.5t-94 -72.5q45 -20 69.5 -55t24.5 -81q0 -64 -34 -114t-93 -78.5t-135 -28.5h-330zM204 403h192q63 0 102.5 33t39.5 86q0 42 -30 65.5t-82 23.5h-177zM137 89h211q46 0 81 16.5t55 46.5t20 68q0 46 -33 72
t-91 26h-194z" />
    <glyph glyph-name="C" unicode="C" horiz-adv-x="708" 
d="M394 -11q-71 0 -132 25t-106.5 70t-70.5 105.5t-25 130.5q0 80 30 150t83 124t122.5 84t148.5 30q91 0 162 -33.5t117 -97.5l-80 -70q-33 51 -86 78t-118 27q-57 0 -106.5 -22t-87.5 -61.5t-58.5 -92t-20.5 -112.5q0 -68 31 -122t84.5 -85.5t122.5 -31.5q58 0 113 22.5
t98 64.5l56 -72q-56 -53 -129 -82t-148 -29z" />
    <glyph glyph-name="D" unicode="D" horiz-adv-x="713" 
d="M16 0l149 700h211q70 0 129 -22.5t101.5 -64t66 -98.5t23.5 -125q0 -81 -32 -151.5t-88 -124t-129.5 -84t-157.5 -30.5h-273zM139 95h161q60 0 112.5 22t92 62t62 92.5t22.5 112.5q0 66 -28 116t-78 77.5t-116 27.5h-119z" />
    <glyph glyph-name="E" unicode="E" horiz-adv-x="617" 
d="M16 0l149 700h506l-20 -92h-403l-45 -210h264l-19 -90h-264l-46 -216h407l-19 -92h-510z" />
    <glyph glyph-name="F" unicode="F" horiz-adv-x="609" 
d="M16 0l149 700h507l-20 -92h-404l-46 -215h266l-18 -90h-267l-64 -303h-103z" />
    <glyph glyph-name="G" unicode="G" horiz-adv-x="776" 
d="M387 -12q-71 0 -131 24.5t-104.5 69.5t-69.5 105t-25 129q0 81 30.5 152t84 125.5t124 85t149.5 30.5q88 0 161 -35.5t120 -100.5l-81 -68q-33 50 -88.5 78.5t-119.5 28.5q-57 0 -106.5 -22.5t-87.5 -62.5t-59.5 -92.5t-21.5 -113.5q0 -68 30.5 -121t83.5 -84t119 -31
q59 0 109 25.5t85 70.5t47 104h-228l17 92h336l-11 -59q-16 -96 -68 -170.5t-128.5 -117t-166.5 -42.5z" />
    <glyph glyph-name="H" unicode="H" horiz-adv-x="711" 
d="M16 0l149 700h103l-64 -300h364l64 300h103l-149 -700h-103l65 305h-364l-65 -305h-103z" />
    <glyph glyph-name="I" unicode="I" horiz-adv-x="244" 
d="M16 0l149 700h103l-149 -700h-103z" />
    <glyph glyph-name="J" unicode="J" horiz-adv-x="605" 
d="M255 -10q-98 0 -162 51t-81 144l95 34q25 -133 147 -133q72 0 123.5 48t69.5 134l91 432h105l-95 -446q-19 -83 -59.5 -142.5t-100 -90.5t-133.5 -31z" />
    <glyph glyph-name="K" unicode="K" horiz-adv-x="637" 
d="M16 0l149 700h103l-68 -314l395 314h138l-432 -340l288 -360h-133l-265 340l-72 -340h-103z" />
    <glyph glyph-name="L" unicode="L" horiz-adv-x="602" 
d="M16 0l149 700h103l-129 -606h394l-19 -94h-498z" />
    <glyph glyph-name="M" unicode="M" horiz-adv-x="844" 
d="M16 0l149 700h134l120 -447l309 447h141l-149 -700h-95l120 570l-365 -520l-146 523l-121 -573h-97z" />
    <glyph glyph-name="N" unicode="N" horiz-adv-x="721" 
d="M16 0l149 700h98l272 -530l112 530h98l-149 -700h-89l-279 545l-115 -545h-97z" />
    <glyph glyph-name="O" unicode="O" horiz-adv-x="795" 
d="M391 -11q-70 0 -131 25t-106 70t-70 105.5t-25 130.5q0 80 30 150.5t82.5 124.5t122.5 85t149 31q70 0 131 -25t106 -70t70 -105t25 -131q0 -80 -30 -150.5t-83 -124.5t-122.5 -85t-148.5 -31zM398 86q57 0 106 22.5t86.5 62.5t58.5 92t21 111q0 68 -30.5 122.5t-83.5 86
t-120 31.5q-56 0 -105.5 -22.5t-87 -62.5t-58.5 -92t-21 -111q0 -68 30.5 -122t83.5 -86t120 -32z" />
    <glyph glyph-name="P" unicode="P" horiz-adv-x="648" 
d="M16 0l149 700h291q64 0 110 -23t71.5 -64.5t25.5 -97.5q0 -67 -33 -119.5t-90.5 -83t-129.5 -30.5h-231l-60 -282h-103zM198 371h210q44 0 78 17.5t53.5 48.5t19.5 70q0 47 -32 74t-87 27h-192z" />
    <glyph glyph-name="Q" unicode="Q" horiz-adv-x="795" 
d="M391 -11q-71 0 -131.5 25t-105.5 70t-70 105.5t-25 130.5q0 80 30 150.5t82.5 124.5t122.5 85t149 31q71 0 131.5 -25t105.5 -70t70 -105t25 -131q0 -90 -38 -168.5t-103 -133.5l54 -91l-99 -10l-32 53q-37 -20 -79 -30.5t-87 -10.5zM398 86q30 0 57.5 7.5t52.5 20.5
l-70 116l99 10l46 -76q40 40 63.5 94t23.5 116q0 68 -30.5 122.5t-83.5 86t-120 31.5q-56 0 -105.5 -22.5t-87 -62.5t-58.5 -92t-21 -111q0 -68 30.5 -122t83.5 -86t120 -32z" />
    <glyph glyph-name="R" unicode="R" horiz-adv-x="646" 
d="M16 0l149 700h291q63 0 109 -23t71 -64t25 -96q0 -56 -23.5 -102t-66 -77.5t-97.5 -42.5l101 -295h-109l-94 287h-192l-61 -287h-103zM198 375h209q44 0 78 17t53 47.5t19 68.5q0 46 -32 73t-86 27h-191z" />
    <glyph glyph-name="S" unicode="S" horiz-adv-x="602" 
d="M298 -10q-92 0 -170 37.5t-134 109.5l73 69q49 -63 109 -95.5t129 -32.5q49 0 86 15.5t57.5 42.5t20.5 63q0 38 -28.5 62t-94.5 41l-110 28q-82 22 -122.5 65.5t-40.5 108.5q0 63 31 109t88.5 71t135.5 25q79 0 153.5 -30t132.5 -85l-66 -75q-52 50 -109.5 75.5
t-119.5 25.5q-67 0 -106.5 -28.5t-39.5 -76.5q0 -35 26 -58t83 -39l107 -26q94 -23 138.5 -66.5t44.5 -111.5q0 -67 -34 -117.5t-95.5 -78.5t-144.5 -28z" />
    <glyph glyph-name="T" unicode="T" horiz-adv-x="619" 
d="M203 0l129 606h-241l21 94h585l-21 -94h-240l-129 -606h-104z" />
    <glyph glyph-name="U" unicode="U" horiz-adv-x="698" 
d="M323 -10q-95 0 -159 41t-89.5 114t-4.5 169l82 386h104l-85 -395q-13 -64 2 -113.5t55.5 -77t100.5 -27.5q80 0 138 55t78 150l87 408h103l-89 -415q-19 -94 -64 -160t-110.5 -100.5t-148.5 -34.5z" />
    <glyph glyph-name="V" unicode="V" horiz-adv-x="688" 
d="M230 0l-135 700h108l108 -596l359 596h111l-428 -700h-123z" />
    <glyph glyph-name="W" unicode="W" horiz-adv-x="891" 
d="M126 0l-1 700h102l-5 -532l267 532h98l42 -532l220 532h106l-298 -700h-108l-41 549l-275 -549h-107z" />
    <glyph glyph-name="X" unicode="X" horiz-adv-x="651" 
d="M-55 0l344 366l-172 334h116l131 -258l240 258h126l-321 -341l185 -359h-116l-144 283l-263 -283h-126z" />
    <glyph glyph-name="Y" unicode="Y" horiz-adv-x="654" 
d="M220 0l59 279l-186 421h110l144 -328l279 328h123l-366 -425l-59 -275h-104z" />
    <glyph glyph-name="Z" unicode="Z" horiz-adv-x="597" 
d="M-32 0l16 73l517 535h-400l19 92h544l-17 -73l-518 -535h413l-21 -92h-553z" />
    <glyph glyph-name="bracketleft" unicode="[" horiz-adv-x="360" 
d="M-44 -209l194 909h267l-18 -80h-172l-159 -750h172l-17 -79h-267z" />
    <glyph glyph-name="backslash" unicode="\" horiz-adv-x="439" 
d="M423 -206h-98l-221 906h97z" />
    <glyph glyph-name="bracketright" unicode="]" horiz-adv-x="360" 
d="M399 700l-193 -909h-267l17 79h173l159 750h-172l17 80h266z" />
    <glyph glyph-name="asciicircum" unicode="^" 
d="M106 350l249 350h84l99 -350h-80l-76 269l-189 -269h-87z" />
    <glyph glyph-name="underscore" unicode="_" horiz-adv-x="477" 
d="M-88 -153l15 73h480l-16 -73h-479z" />
    <glyph glyph-name="grave" unicode="`" 
d="M344 603l-125 122h118l89 -122h-82z" />
    <glyph glyph-name="a" unicode="a" horiz-adv-x="523" 
d="M186 -6q-78 0 -125.5 38.5t-47.5 103.5q0 51 25.5 88t73 57.5t111.5 20.5q41 0 80.5 -9.5t72.5 -26.5l10 46q13 61 -15.5 92t-98.5 31q-30 0 -65.5 -9t-83.5 -28l-25 78q55 22 103 32t90 10q73 0 120.5 -24t66 -69.5t5.5 -109.5l-67 -315h-97l8 37q-33 -22 -67.5 -32.5
t-73.5 -10.5zM217 67q34 0 65.5 10.5t60.5 31.5l18 87q-55 37 -134 37q-53 0 -87 -24.5t-34 -63.5q0 -36 29.5 -57t81.5 -21z" />
    <glyph glyph-name="b" unicode="b" horiz-adv-x="595" 
d="M279 -8q-49 0 -91 17.5t-73 49.5l-13 -59h-97l149 700l102 22l-51 -243q59 37 130 37q64 0 115 -30.5t80.5 -83.5t29.5 -120q0 -60 -22 -112.5t-60.5 -92.5t-89.5 -62.5t-109 -22.5zM276 79q53 0 95.5 26.5t67.5 70.5t25 97q0 46 -19.5 81t-54.5 55.5t-79 20.5
q-36 0 -68.5 -12t-58.5 -36l-49 -231q20 -33 57.5 -52.5t83.5 -19.5z" />
    <glyph glyph-name="c" unicode="c" horiz-adv-x="509" 
d="M266 -10q-67 0 -120 30.5t-83.5 84t-30.5 120.5q0 60 22.5 113t61.5 93.5t89.5 63.5t109.5 23q60 0 113.5 -27t86.5 -72l-70 -64q-25 37 -59 55.5t-75 18.5q-37 0 -69.5 -16t-57.5 -43.5t-39.5 -63t-14.5 -76.5q0 -43 19.5 -77.5t53 -54.5t74.5 -20q35 0 68 13.5t65 39.5
l49 -68q-87 -73 -193 -73z" />
    <glyph glyph-name="d" unicode="d" horiz-adv-x="596" 
d="M260 -8q-64 0 -115 31t-80.5 84t-29.5 120q0 60 22 112.5t60.5 92t90 62t109.5 22.5q49 0 91 -16.5t73 -47.5l52 248l103 22l-154 -722h-97l6 31q-60 -39 -131 -39zM285 78q35 0 67.5 13t58.5 36l50 233q-20 31 -58 50t-83 19q-52 0 -95 -26t-68.5 -69.5t-25.5 -97.5
q0 -46 20 -81.5t55 -56t79 -20.5z" />
    <glyph glyph-name="e" unicode="e" horiz-adv-x="562" 
d="M285 -10q-73 0 -130 31t-89 85.5t-32 124.5q0 58 21 110.5t58.5 92t86.5 61.5t105 22q64 0 114 -31.5t79 -85.5t29 -125q0 -10 -0.5 -22.5t-3.5 -29.5h-391q3 -43 24.5 -76.5t56.5 -52.5t78 -19q35 0 67.5 10.5t58.5 29.5l53 -66q-44 -31 -88.5 -45t-96.5 -14zM139 298
h295q-4 39 -22.5 69t-47.5 47.5t-66 17.5t-69.5 -17.5t-55.5 -47.5t-34 -69z" />
    <glyph glyph-name="f" unicode="f" horiz-adv-x="389" 
d="M77 0l90 425h-114l18 84h115l18 88q16 74 63.5 113.5t121.5 39.5q23 0 45.5 -3.5t39.5 -10.5l-18 -87q-16 7 -32 10t-36 3q-37 0 -58 -17.5t-29 -56.5l-17 -79h142l-18 -84h-142l-91 -425h-98z" />
    <glyph glyph-name="g" unicode="g" horiz-adv-x="596" 
d="M252 -211q-59 0 -120 19t-106 53l48 75q44 -30 87.5 -45.5t86.5 -15.5q109 0 132 107l11 51q-60 -38 -131 -38q-64 0 -115 30.5t-80 83t-29 119.5q0 60 22 112.5t60 92t89.5 61.5t109.5 22q48 0 90.5 -16t72.5 -47l12 56h98l-113 -537q-18 -89 -76 -136t-149 -47zM285 80
q71 0 126 48l49 232q-20 32 -58 50.5t-82 18.5q-52 0 -95 -26t-67.5 -69.5t-24.5 -97.5q0 -45 19 -80.5t54 -55.5t79 -20z" />
    <glyph glyph-name="h" unicode="h" horiz-adv-x="557" 
d="M5 0l149 700l102 22l-54 -257q64 53 147 53q60 0 101.5 -27.5t58.5 -75.5t4 -109l-65 -306h-99l63 295q13 62 -15 99.5t-86 37.5q-37 0 -70 -15.5t-59 -45.5l-79 -371h-98z" />
    <glyph glyph-name="i" unicode="i" horiz-adv-x="216" 
d="M5 0l108 509h98l-108 -509h-98zM185 591q-23 0 -38.5 16t-15.5 39q0 19 9.5 34.5t25 25t33.5 9.5q23 0 38.5 -15.5t15.5 -38.5q0 -19 -9.5 -34.5t-25 -25.5t-33.5 -10z" />
    <glyph glyph-name="j" unicode="j" horiz-adv-x="216" 
d="M185 591q-23 0 -38.5 16t-15.5 39q0 19 9.5 34.5t25 25t33.5 9.5q23 0 38.5 -15.5t15.5 -38.5q0 -19 -9.5 -34.5t-25 -25.5t-33.5 -10zM-74 -210q-15 0 -33.5 2.5t-30.5 7.5l17 80q9 -3 20 -4.5t26 -1.5q27 0 43 14t22 44l123 577h98l-125 -588q-13 -64 -55 -97.5
t-105 -33.5z" />
    <glyph glyph-name="k" unicode="k" horiz-adv-x="515" 
d="M5 0l149 700l102 22l-92 -434l281 221h127l-321 -250l221 -259h-120l-199 237l-50 -237h-98z" />
    <glyph glyph-name="l" unicode="l" horiz-adv-x="216" 
d="M5 0l149 700l102 22l-153 -722h-98z" />
    <glyph glyph-name="m" unicode="m" horiz-adv-x="861" 
d="M5 0l108 509h98l-10 -47q63 56 141 56q52 0 89 -24t54 -66q40 45 85.5 67.5t96.5 22.5q56 0 94.5 -27t54 -73.5t1.5 -106.5l-65 -311h-98l64 303q12 56 -13 92.5t-77 36.5q-69 0 -129 -73q-1 -11 -2 -23t-4 -25l-66 -311h-98l63 298q13 60 -11.5 97t-77.5 37
q-33 0 -64 -15.5t-58 -46.5l-78 -370h-98z" />
    <glyph glyph-name="n" unicode="n" horiz-adv-x="557" 
d="M5 0l108 509h98l-10 -44q66 53 148 53q60 0 101.5 -27.5t58.5 -75.5t4 -109l-65 -306h-99l63 295q13 62 -15 99.5t-86 37.5q-37 0 -70 -15.5t-59 -45.5l-79 -371h-98z" />
    <glyph glyph-name="o" unicode="o" horiz-adv-x="592" 
d="M278 -10q-70 0 -124.5 32t-86.5 87t-32 125q0 58 22 109.5t60.5 91t89 62t106.5 22.5q70 0 124.5 -31.5t86.5 -86.5t32 -125q0 -58 -21.5 -109.5t-60.5 -91.5t-89 -62.5t-107 -22.5zM282 78q37 0 68.5 15t56 42t38.5 62t14 74q0 46 -19.5 82.5t-53.5 57t-77 20.5
q-36 0 -68 -15t-56.5 -41.5t-38.5 -61.5t-14 -74q0 -46 19.5 -82.5t53.5 -57.5t77 -21z" />
    <glyph glyph-name="p" unicode="p" horiz-adv-x="595" 
d="M-39 -204l152 713h97l-7 -32q62 39 132 39q64 0 115 -30.5t80.5 -83.5t29.5 -120q0 -60 -22 -112.5t-60.5 -92.5t-89.5 -62.5t-109 -22.5q-49 0 -91 17t-73 49l-56 -262h-98zM276 79q53 0 95.5 26.5t67.5 70.5t25 97q0 46 -19.5 81t-54.5 55.5t-79 20.5q-36 0 -68.5 -12
t-57.5 -36l-50 -231q20 -33 57.5 -52.5t83.5 -19.5z" />
    <glyph glyph-name="q" unicode="q" horiz-adv-x="596" 
d="M341 -204l50 235q-29 -19 -62 -29t-69 -10q-64 0 -115 31t-80.5 84t-29.5 120q0 60 22 112.5t60.5 92t90 62t109.5 22.5q49 0 91 -16.5t73 -48.5l12 58h97l-151 -713h-98zM285 78q36 0 68 13t59 36l49 232q-20 32 -58 51t-83 19q-52 0 -95 -26t-68.5 -69.5t-25.5 -97.5
q0 -46 20 -81.5t55 -56t79 -20.5z" />
    <glyph glyph-name="r" unicode="r" horiz-adv-x="364" 
d="M3 0l109 509h97l-12 -58q29 33 65 51t77 18q36 0 58 -11l-19 -90q-10 6 -28.5 10t-35.5 4q-83 0 -139 -85l-73 -348h-99z" />
    <glyph glyph-name="s" unicode="s" horiz-adv-x="458" 
d="M211 -10q-65 0 -126.5 24.5t-99.5 66.5l60 63q37 -37 79.5 -56.5t88.5 -19.5q49 0 81 22t32 55q0 24 -17 38.5t-54 22.5l-87 20q-65 14 -96.5 47t-31.5 86q0 48 24 83.5t67.5 55t101.5 19.5q59 0 113 -19.5t98 -59.5l-57 -63q-38 32 -79 48.5t-81 16.5q-45 0 -71.5 -19.5
t-26.5 -51.5q0 -25 16.5 -39t55.5 -22l88 -20q66 -15 98.5 -48t32.5 -84q0 -47 -27.5 -84.5t-74.5 -59.5t-107 -22z" />
    <glyph glyph-name="t" unicode="t" horiz-adv-x="382" 
d="M229 -8q-77 0 -111.5 37t-20.5 105l62 291h-106l18 84h105l28 130l104 24l-33 -154h145l-18 -84h-145l-59 -272q-8 -41 8 -58.5t63 -17.5q14 0 28 2t32 7l-18 -84q-16 -4 -38.5 -7t-43.5 -3z" />
    <glyph glyph-name="u" unicode="u" horiz-adv-x="556" 
d="M207 -9q-60 0 -101.5 28t-58 76t-4.5 109l65 305h98l-62 -295q-14 -61 14.5 -99t86.5 -38q38 0 71 16t58 46l79 370h98l-108 -509h-98l10 45q-67 -54 -148 -54z" />
    <glyph glyph-name="v" unicode="v" horiz-adv-x="530" 
d="M163 0l-106 509h104l75 -380l237 380h108l-324 -509h-94z" />
    <glyph glyph-name="w" unicode="w" horiz-adv-x="717" 
d="M98 0l-32 509h93l18 -373l192 373h85l34 -373l176 373h95l-247 -509h-95l-33 373l-192 -373h-94z" />
    <glyph glyph-name="x" unicode="x" horiz-adv-x="506" 
d="M-54 0l253 264l-131 245h111l90 -174l165 174h117l-240 -249l138 -260h-109l-98 188l-178 -188h-118z" />
    <glyph glyph-name="y" unicode="y" horiz-adv-x="528" 
d="M6 -214q-18 0 -34 2.5t-31 6.5l18 87q9 -3 20.5 -4.5t24.5 -1.5q34 0 61 17t50 53l35 55l-93 508h104l67 -394l243 394h109l-370 -587q-45 -72 -93 -104t-111 -32z" />
    <glyph glyph-name="z" unicode="z" horiz-adv-x="468" 
d="M-25 0l15 75l345 348h-268l18 86h401l-16 -73l-347 -349h277l-18 -87h-407z" />
    <glyph glyph-name="braceleft" unicode="{" horiz-adv-x="393" 
d="M180 -215q-67 0 -102.5 30t-37 78t34.5 103l59 88q22 33 23.5 61.5t-15.5 46t-52 17.5h-80l17 79h80q53 0 79.5 35.5t16.5 86.5l-20 100q-10 57 8 102t59.5 71.5t99.5 26.5q25 0 48.5 -4.5t48.5 -16.5l-33 -73q-15 8 -32 11.5t-32 3.5q-43 0 -66.5 -30t-14.5 -85l21 -115
q7 -40 -7 -72.5t-43.5 -54.5t-67.5 -29q35 -13 55 -37.5t20.5 -57t-22.5 -69.5l-66 -103q-22 -34 -22.5 -60t17 -40.5t47.5 -14.5q16 0 28.5 2t25.5 6l2 -76q-23 -5 -40 -7.5t-37 -2.5z" />
    <glyph glyph-name="bar" unicode="|" horiz-adv-x="289" 
d="M0 -208l194 908h91l-193 -908h-92z" />
    <glyph glyph-name="braceright" unicode="}" horiz-adv-x="393" 
d="M209 702q67 0 102.5 -29.5t37 -77.5t-34.5 -103l-59 -88q-21 -33 -23 -62t15 -46.5t51 -17.5h80l-16 -78h-80q-52 0 -79.5 -35t-16.5 -88l19 -99q11 -57 -7 -102.5t-59 -71.5t-100 -26q-25 0 -48.5 5t-48.5 16l33 72q15 -7 32 -11t32 -4q43 0 67 30t14 85l-21 116
q-7 39 7.5 72t43.5 55t67 29q-35 12 -55 36.5t-20.5 57t22.5 69.5l66 104q22 34 22 60t-17 40t-47 14q-17 0 -29.5 -1.5t-25.5 -5.5l-1 75q23 6 40 8t37 2z" />
    <glyph glyph-name="asciitilde" unicode="~" 
d="M143 306l-69 16q23 69 60 105t82 36q21 0 44 -7.5t53 -26.5l65 -43q22 -13 34 -18t24 -5q24 0 43 19.5t33 59.5l69 -16q-23 -69 -59.5 -106t-82.5 -37q-22 0 -44.5 8.5t-53.5 27.5l-65 42q-21 14 -33.5 18.5t-24.5 4.5q-24 0 -43 -19.5t-32 -58.5z" />
    <glyph glyph-name="uni00A0" unicode="&#xa0;" horiz-adv-x="209" 
 />
    <glyph glyph-name="exclamdown" unicode="&#xa1;" horiz-adv-x="211" 
d="M152 296l-95 -503h-101l119 503h77zM152 504q24 0 40 -16t16 -40q0 -19 -10 -35t-26 -26t-35 -10q-24 0 -39.5 16.5t-15.5 39.5q0 19 10 35t26 26t34 10z" />
    <glyph glyph-name="cent" unicode="&#xa2;" horiz-adv-x="512" 
d="M186 -116l24 112q-52 12 -92 44t-63 79.5t-23 105.5q0 61 22 114t61.5 93t92 63t114.5 23l20 96h48l-21 -102q44 -10 82.5 -34t63.5 -59l-70 -64q-19 27 -43 44.5t-52 23.5l-73 -345q36 1 68.5 14.5t64.5 38.5l49 -68q-46 -38 -95 -55.5t-106 -17.5l-23 -106h-49zM230 86
l72 342q-46 -2 -85.5 -29.5t-63 -71.5t-23.5 -97q0 -51 27.5 -90t72.5 -54z" />
    <glyph glyph-name="sterling" unicode="&#xa3;" horiz-adv-x="621" 
d="M415 -31q-17 0 -36 3.5t-41 9.5l-172 48q-12 4 -23.5 5.5t-21.5 1.5q-57 0 -98 -57l-64 55q34 43 72.5 64t83.5 22q18 10 28 29.5t11 47.5l3 103h-103l16 70h87l2 88q2 76 32.5 132t84 88t122.5 32q97 0 155 -50t68 -145l-86 -20q-11 132 -140 132q-65 0 -102.5 -44.5
t-39.5 -121.5l-2 -91h196l-15 -70h-182l-2 -81q-2 -75 -48 -113l173 -47q12 -3 23 -5t21 -2q52 0 92 50l62 -51q-33 -42 -71 -62.5t-85 -20.5z" />
    <glyph glyph-name="currency" unicode="&#xa4;" horiz-adv-x="683" 
d="M88 56l-50 51l94 95q-25 32 -39 73.5t-14 86.5q0 46 14 86.5t39 72.5l-94 96l51 52l95 -96q33 25 73 38.5t85 13.5q44 0 84.5 -14t72.5 -39l96 97l50 -51l-96 -96q25 -32 39.5 -73t14.5 -87q0 -45 -13.5 -86t-38.5 -73l95 -96l-52 -52l-95 96q-32 -25 -72 -39t-85 -14
t-86 14.5t-74 39.5zM342 185q46 0 84 23.5t60 64t22 89.5q0 50 -22 89.5t-60 63t-84 23.5q-47 0 -84.5 -23.5t-60 -63t-22.5 -89.5q0 -49 22 -89.5t60 -64t85 -23.5z" />
    <glyph glyph-name="yen" unicode="&#xa5;" horiz-adv-x="657" 
d="M220 0l28 132h-179l13 63h179l14 68h-177l12 62h150l-167 375h110l144 -328l279 328h123l-325 -375h147l-12 -62h-179l-15 -68h178l-12 -63h-179l-28 -132h-104z" />
    <glyph glyph-name="brokenbar" unicode="&#xa6;" horiz-adv-x="293" 
d="M200 286h-93l89 414h92zM3 -207l87 413h93l-88 -413h-92z" />
    <glyph glyph-name="section" unicode="&#xa7;" horiz-adv-x="559" 
d="M241 -52q-53 0 -105.5 19t-96.5 54l52 60q41 -31 80 -46.5t74 -15.5q39 0 62.5 19t23.5 51q0 39 -52 64l-99 48q-61 30 -87 59.5t-26 70.5q0 57 37 97t100 53q-31 31 -31 76t23 79.5t64 54t94 19.5t105 -19t96 -54l-51 -60q-42 31 -81 47t-74 16q-39 0 -62.5 -19.5
t-23.5 -51.5q0 -39 51 -64l100 -48q62 -30 88 -59.5t26 -69.5q0 -57 -37 -97.5t-99 -54.5q29 -31 29 -75t-23 -78.5t-63.5 -54.5t-93.5 -20zM328 223q49 2 81.5 26t32.5 60q0 23 -15.5 41t-50.5 34l-107 50q-51 -1 -84 -24.5t-33 -59.5q0 -23 16 -41.5t49 -33.5z" />
    <glyph glyph-name="dieresis" unicode="&#xa8;" 
d="M285 602q-22 0 -36.5 15t-14.5 37q0 27 19.5 46.5t45.5 19.5q21 0 36 -15.5t15 -37.5q0 -25 -19.5 -45t-45.5 -20zM474 602q-21 0 -36 15t-15 37q0 26 20 46t46 20q21 0 35.5 -15.5t14.5 -37.5q0 -25 -19.5 -45t-45.5 -20z" />
    <glyph glyph-name="copyright" unicode="&#xa9;" horiz-adv-x="784" 
d="M379 -10q-93 0 -165.5 41.5t-114.5 113.5t-42 164q0 81 30.5 153.5t84.5 127.5t124 86.5t149 31.5q93 0 165.5 -41.5t114.5 -113.5t42 -163q0 -82 -30.5 -154t-84.5 -127.5t-124 -87t-149 -31.5zM382 42q66 0 125.5 27t105 75t71.5 109.5t26 129.5q0 79 -34.5 140.5
t-95.5 96.5t-139 35q-66 0 -125 -27t-104.5 -74.5t-71.5 -108.5t-26 -131q0 -78 35 -139.5t95.5 -97t137.5 -35.5zM397 165q-46 0 -83 21t-58 58t-21 83q0 58 28.5 105.5t75.5 76t103 28.5q45 0 84 -20t62 -55l-58 -48q-17 26 -41 39.5t-52 13.5q-34 0 -62 -19t-45.5 -49
t-17.5 -66q0 -43 27.5 -71t69.5 -28q44 0 89 35l35 -55q-28 -24 -63.5 -36.5t-72.5 -12.5z" />
    <glyph glyph-name="ordfeminine" unicode="&#xaa;" horiz-adv-x="412" 
d="M202 314q-59 0 -95 29t-36 78q0 58 43.5 92t116.5 34q30 0 59 -7t53 -19l7 32q19 89 -84 89q-21 0 -47.5 -6.5t-63.5 -20.5l-20 62q80 32 148 32q84 0 122.5 -41.5t23.5 -112.5l-50 -236h-79l6 26q-48 -31 -104 -31zM228 373q49 0 91 30l13 62q-42 27 -96 27
q-40 0 -64 -17.5t-24 -46.5q0 -26 21 -40.5t59 -14.5z" />
    <glyph glyph-name="guillemotleft" unicode="&#xab;" horiz-adv-x="632" 
d="M417 509l-284 -256l173 -253h-102l-180 255l288 254h105zM642 509l-285 -256l174 -253h-103l-179 255l288 254h105z" />
    <glyph glyph-name="logicalnot" unicode="&#xac;" horiz-adv-x="552" 
d="M357 0l52 239h-366l18 87h461l-70 -326h-95z" />
    <glyph glyph-name="registered" unicode="&#xae;" horiz-adv-x="479" 
d="M275 309q-52 0 -92 23t-63 63.5t-23 91.5q0 47 17.5 88t48 72.5t70.5 50t85 18.5q52 0 92 -23.5t63 -63.5t23 -92q0 -45 -17.5 -86.5t-48.5 -73.5t-71 -50t-84 -18zM279 347q48 0 88 26t63.5 69t23.5 95q0 63 -38.5 101.5t-101.5 38.5q-49 0 -88.5 -25.5t-63.5 -68
t-24 -94.5q0 -63 39 -102.5t102 -39.5zM207 419l40 188h72q27 0 41.5 -13.5t14.5 -39.5q0 -19 -11.5 -35.5t-31.5 -24.5l26 -75h-41l-25 69h-31l-15 -69h-39zM310 576h-31l-12 -58h36q15 0 24 9t9 23q0 26 -26 26z" />
    <glyph glyph-name="macron" unicode="&#xaf;" 
d="M229 623l15 67h291l-15 -67h-291z" />
    <glyph glyph-name="degree" unicode="&#xb0;" horiz-adv-x="375" 
d="M239 421q-37 0 -65.5 16.5t-45.5 45.5t-17 66q0 43 22 79t57.5 58t77.5 22q37 0 66 -16.5t46 -45.5t17 -67q0 -42 -22 -78t-57.5 -58t-78.5 -22zM243 479q25 0 46 13t34 34t13 47q0 33 -20.5 54.5t-51.5 21.5q-25 0 -46 -12.5t-33.5 -33.5t-12.5 -47q0 -32 20 -54.5
t51 -22.5z" />
    <glyph glyph-name="plusminus" unicode="&#xb1;" horiz-adv-x="599" 
d="M42 -1l17 80h411l-17 -80h-411zM248 184l36 168h-168l18 79h167l35 167h78l-35 -167h166l-18 -79h-165l-36 -168h-78z" />
    <glyph glyph-name="uni00B2" unicode="&#xb2;" horiz-adv-x="292" 
d="M46 350l10 46l169 130q28 20 40 38t12 37q0 21 -16.5 34.5t-43.5 13.5q-21 0 -42.5 -9t-49.5 -30l-27 47q32 24 65 35.5t66 11.5q50 0 82 -25.5t32 -66.5q0 -33 -18.5 -61.5t-59.5 -59.5l-111 -86h150l-11 -55h-247z" />
    <glyph glyph-name="uni00B3" unicode="&#xb3;" horiz-adv-x="313" 
d="M187 345q-46 0 -81 16.5t-56 46.5l50 39q16 -24 38 -34.5t53 -10.5t52 14.5t21 36.5q0 20 -15.5 32t-41.5 12h-32l11 53h26q31 0 52.5 15t21.5 37q0 20 -17 32.5t-42 12.5q-46 0 -89 -35l-34 44q29 24 63 36.5t69 12.5q51 0 83.5 -26t32.5 -67q0 -30 -19.5 -54t-50.5 -37
q22 -10 34 -27t12 -39q0 -31 -18.5 -56t-50.5 -39.5t-72 -14.5z" />
    <glyph glyph-name="acute" unicode="&#xb4;" 
d="M316 603l117 122h120l-151 -122h-86z" />
    <glyph glyph-name="uni00B5" unicode="&#xb5;" horiz-adv-x="568" 
d="M-42 -207l152 716h100l-64 -302q-13 -60 14.5 -95t85.5 -35q40 0 76 18t63 49l77 365h100l-107 -509h-101l11 51q-72 -61 -165 -61q-29 0 -52.5 7t-41.5 20l-48 -224h-100z" />
    <glyph glyph-name="paragraph" unicode="&#xb6;" horiz-adv-x="680" 
d="M266 0l58 274h-25q-62 0 -108.5 23t-72.5 65t-26 97q0 70 32.5 124.5t89 85.5t129.5 31h350l-149 -700h-85l59 274h-108l-58 -274h-86zM427 356h108l56 261h-109zM306 356h36l55 261h-64q-44 0 -78 -19t-53.5 -52t-19.5 -76q0 -53 33 -83.5t91 -30.5z" />
    <glyph glyph-name="periodcentered" unicode="&#xb7;" horiz-adv-x="250" 
d="M124 220q-24 0 -40 16t-16 40q0 19 10 35t26 26t35 10q24 0 39.5 -16t15.5 -41q0 -18 -10 -34t-25.5 -26t-34.5 -10z" />
    <glyph glyph-name="cedilla" unicode="&#xb8;" 
d="M200 -231q-36 0 -65.5 12.5t-49.5 36.5l40 36q31 -34 77 -34q29 0 46.5 13t17.5 34q0 19 -14.5 29.5t-41.5 10.5h-33l46 93h53l-26 -52q37 -5 57 -24.5t20 -51.5q0 -29 -16.5 -52.5t-45.5 -37t-65 -13.5z" />
    <glyph glyph-name="uni00B9" unicode="&#xb9;" horiz-adv-x="174" 
d="M105 350l60 283l-73 -27l13 56l98 38h40l-75 -350h-63z" />
    <glyph glyph-name="ordmasculine" unicode="&#xba;" horiz-adv-x="463" 
d="M273 311q-53 0 -95 24t-66 66t-24 94q0 59 29 107.5t77 78t106 29.5q53 0 94.5 -24t65.5 -65.5t24 -94.5q0 -58 -29 -107t-77 -78.5t-105 -29.5zM277 382q35 0 64 19t46.5 51.5t17.5 69.5q0 34 -14.5 60t-39 41.5t-56.5 15.5q-35 0 -64 -19t-46.5 -51t-17.5 -70
q0 -33 14.5 -59.5t39.5 -42t56 -15.5z" />
    <glyph glyph-name="guillemotright" unicode="&#xbb;" horiz-adv-x="632" 
d="M215 0l284 257l-173 252h102l180 -254l-288 -255h-105zM-11 0l285 257l-173 252h102l179 -254l-288 -255h-105z" />
    <glyph glyph-name="onequarter" unicode="&#xbc;" horiz-adv-x="629" 
d="M448 0l18 83h-194l12 53l229 214h74l-45 -212h43l-13 -55h-41l-18 -83h-65zM358 138h120l30 139zM105 350l60 283l-73 -27l13 56l98 38h40l-75 -350h-63zM-2 0l535 700h76l-537 -700h-74z" />
    <glyph glyph-name="onehalf" unicode="&#xbd;" horiz-adv-x="660" 
d="M105 350l60 283l-73 -27l13 56l98 38h40l-75 -350h-63zM-6 0l535 700h76l-537 -700h-74zM335 0l10 46l169 130q28 20 40 38t12 37q0 21 -16.5 34.5t-43.5 13.5q-21 0 -42.5 -9t-49.5 -30l-27 47q32 24 65 35.5t66 11.5q50 0 82 -25.5t32 -66.5q0 -33 -18.5 -61.5
t-59.5 -59.5l-111 -86h150l-11 -55h-247z" />
    <glyph glyph-name="threequarters" unicode="&#xbe;" horiz-adv-x="723" 
d="M187 345q-46 0 -81 16.5t-56 46.5l50 39q16 -24 38 -34.5t53 -10.5t52 14.5t21 36.5q0 20 -15.5 32t-41.5 12h-32l11 53h26q31 0 52.5 15t21.5 37q0 20 -17 32.5t-42 12.5q-46 0 -89 -35l-34 44q29 24 63 36.5t69 12.5q51 0 83.5 -26t32.5 -67q0 -30 -19.5 -54t-50.5 -37
q22 -10 34 -27t12 -39q0 -31 -18.5 -56t-50.5 -39.5t-72 -14.5zM542 0l18 83h-194l12 53l229 214h74l-45 -212h43l-13 -55h-41l-18 -83h-65zM452 138h120l30 139zM91 0l535 700h76l-537 -700h-74z" />
    <glyph glyph-name="questiondown" unicode="&#xbf;" horiz-adv-x="503" 
d="M339 292q-7 -48 -21 -82t-37.5 -59t-59.5 -46l-63 -36q-39 -23 -60.5 -51.5t-21.5 -58.5q0 -39 32.5 -62.5t84.5 -23.5q45 0 87.5 21t74.5 58l68 -46q-48 -56 -111.5 -88t-131.5 -32q-59 0 -105 20t-72 56t-26 83q0 58 34 103t108 88l51 30q39 21 58.5 50t26.5 76h84z
M334 504q24 0 39.5 -16t15.5 -40q0 -19 -9 -35t-25.5 -26t-35.5 -10q-24 0 -40 16.5t-16 40.5q0 19 10 34.5t26 25.5t35 10z" />
    <glyph glyph-name="Agrave" unicode="&#xc0;" horiz-adv-x="688" 
d="M-53 0l429 700h122l135 -700h-107l-37 205h-306l-122 -205h-114zM235 292h239l-56 306zM419 794l-125 122h118l89 -122h-82z" />
    <glyph glyph-name="Aacute" unicode="&#xc1;" horiz-adv-x="688" 
d="M-53 0l429 700h122l135 -700h-107l-37 205h-306l-122 -205h-114zM235 292h239l-56 306zM391 794l117 122h120l-151 -122h-86z" />
    <glyph glyph-name="Acircumflex" unicode="&#xc2;" horiz-adv-x="688" 
d="M-53 0l429 700h122l135 -700h-107l-37 205h-306l-122 -205h-114zM235 292h239l-56 306zM291 791l134 127h104l79 -127h-78l-61 77l-94 -77h-84z" />
    <glyph glyph-name="Atilde" unicode="&#xc3;" horiz-adv-x="688" 
d="M-53 0l429 700h122l135 -700h-107l-37 205h-306l-122 -205h-114zM235 292h239l-56 306zM339 791l-61 20q44 100 110 100q29 0 54 -14.5t47.5 -29t41.5 -14.5q16 0 27 11.5t24 41.5l62 -19q-22 -52 -49.5 -77t-62.5 -25q-29 0 -54 14.5t-46.5 29t-43.5 14.5
q-14 0 -25.5 -12t-23.5 -40z" />
    <glyph glyph-name="Adieresis" unicode="&#xc4;" horiz-adv-x="688" 
d="M-53 0l429 700h122l135 -700h-107l-37 205h-306l-122 -205h-114zM235 292h239l-56 306zM360 793q-22 0 -36.5 15t-14.5 37q0 27 19.5 46.5t45.5 19.5q21 0 36 -15.5t15 -37.5q0 -25 -19.5 -45t-45.5 -20zM549 793q-21 0 -36 15t-15 37q0 26 20 46t46 20q21 0 35.5 -15.5
t14.5 -37.5q0 -25 -19.5 -45t-45.5 -20z" />
    <glyph glyph-name="Aring" unicode="&#xc5;" horiz-adv-x="688" 
d="M-53 0l429 700h122l135 -700h-107l-37 205h-306l-122 -205h-114zM235 292h239l-56 306zM460 775q-46 0 -75.5 28.5t-29.5 72.5q0 34 17.5 63t45.5 47t61 18q46 0 75.5 -28.5t29.5 -73.5q0 -34 -17 -62.5t-45.5 -46.5t-61.5 -18zM461 822q30 0 51.5 22.5t21.5 53.5
q0 24 -16 41t-41 17q-29 0 -50.5 -22t-21.5 -54q0 -25 16 -41.5t40 -16.5z" />
    <glyph glyph-name="AE" unicode="&#xc6;" horiz-adv-x="947" 
d="M-53 0l430 700h627l-19 -92h-464l36 -210h250l-19 -90h-216l37 -216h266l-19 -92h-335l-34 205h-307l-125 -205h-108zM234 292h240l-52 307z" />
    <glyph glyph-name="Ccedilla" unicode="&#xc7;" horiz-adv-x="708" 
d="M334 -231q-36 0 -65.5 12.5t-50.5 36.5l41 36q31 -34 77 -34q29 0 46.5 13t17.5 34q0 19 -15 29.5t-41 10.5h-33l41 85q-84 9 -150 54t-104 116t-38 158q0 80 30 150t83 124t122.5 84t148.5 30q91 0 162 -33.5t117 -97.5l-80 -70q-33 51 -86 78t-118 27q-57 0 -106.5 -22
t-87.5 -61.5t-58.5 -92t-20.5 -112.5q0 -68 31 -122t84.5 -85.5t122.5 -31.5q58 0 113 22.5t98 64.5l56 -72q-54 -51 -124 -80t-142 -31l-21 -41q36 -5 56.5 -24.5t20.5 -51.5q0 -29 -17 -52.5t-45.5 -37t-64.5 -13.5z" />
    <glyph glyph-name="Egrave" unicode="&#xc8;" horiz-adv-x="617" 
d="M16 0l149 700h506l-20 -92h-403l-45 -210h264l-19 -90h-264l-46 -216h407l-19 -92h-510zM399 794l-125 122h118l89 -122h-82z" />
    <glyph glyph-name="Eacute" unicode="&#xc9;" horiz-adv-x="617" 
d="M16 0l149 700h506l-20 -92h-403l-45 -210h264l-19 -90h-264l-46 -216h407l-19 -92h-510zM371 794l117 122h120l-151 -122h-86z" />
    <glyph glyph-name="Ecircumflex" unicode="&#xca;" horiz-adv-x="617" 
d="M16 0l149 700h506l-20 -92h-403l-45 -210h264l-19 -90h-264l-46 -216h407l-19 -92h-510zM271 791l134 127h104l79 -127h-78l-61 77l-94 -77h-84z" />
    <glyph glyph-name="Edieresis" unicode="&#xcb;" horiz-adv-x="617" 
d="M16 0l149 700h506l-20 -92h-403l-45 -210h264l-19 -90h-264l-46 -216h407l-19 -92h-510zM340 793q-22 0 -36.5 15t-14.5 37q0 27 19.5 46.5t45.5 19.5q21 0 36 -15.5t15 -37.5q0 -25 -19.5 -45t-45.5 -20zM529 793q-21 0 -36 15t-15 37q0 26 20 46t46 20q21 0 35.5 -15.5
t14.5 -37.5q0 -25 -19.5 -45t-45.5 -20z" />
    <glyph glyph-name="Igrave" unicode="&#xcc;" horiz-adv-x="244" 
d="M16 0l149 700h103l-149 -700h-103zM204 794l-125 122h118l89 -122h-82z" />
    <glyph glyph-name="Iacute" unicode="&#xcd;" horiz-adv-x="244" 
d="M16 0l149 700h103l-149 -700h-103zM176 794l117 122h120l-151 -122h-86z" />
    <glyph glyph-name="Icircumflex" unicode="&#xce;" horiz-adv-x="244" 
d="M16 0l149 700h103l-149 -700h-103zM75 791l134 127h104l79 -127h-78l-61 77l-94 -77h-84z" />
    <glyph glyph-name="Idieresis" unicode="&#xcf;" horiz-adv-x="244" 
d="M16 0l149 700h103l-149 -700h-103zM145 793q-22 0 -36.5 15t-14.5 37q0 27 19.5 46.5t45.5 19.5q21 0 36 -15.5t15 -37.5q0 -25 -19.5 -45t-45.5 -20zM334 793q-21 0 -36 15t-15 37q0 26 20 46t46 20q21 0 35.5 -15.5t14.5 -37.5q0 -25 -19.5 -45t-45.5 -20z" />
    <glyph glyph-name="Eth" unicode="&#xd0;" horiz-adv-x="735" 
d="M38 0l65 307h-82l19 87h82l65 306h211q71 0 129.5 -22.5t101.5 -64t66 -98.5t23 -125q0 -81 -31.5 -151.5t-88 -124t-130 -84t-156.5 -30.5h-274zM161 95h161q61 0 113 22t91.5 62t62 92.5t22.5 112.5q0 66 -28 116t-78 77.5t-116 27.5h-119l-45 -211h178l-18 -87h-179z
" />
    <glyph glyph-name="Ntilde" unicode="&#xd1;" horiz-adv-x="721" 
d="M16 0l149 700h98l272 -530l112 530h98l-149 -700h-89l-279 545l-115 -545h-97zM362 791l-61 20q44 100 110 100q29 0 54 -14.5t47.5 -29t41.5 -14.5q16 0 27 11.5t24 41.5l62 -19q-22 -52 -49.5 -77t-62.5 -25q-29 0 -54 14.5t-46.5 29t-43.5 14.5q-14 0 -25.5 -12
t-23.5 -40z" />
    <glyph glyph-name="Ograve" unicode="&#xd2;" horiz-adv-x="795" 
d="M391 -11q-70 0 -131 25t-106 70t-70 105.5t-25 130.5q0 80 30 150.5t82.5 124.5t122.5 85t149 31q70 0 131 -25t106 -70t70 -105t25 -131q0 -80 -30 -150.5t-83 -124.5t-122.5 -85t-148.5 -31zM398 86q57 0 106 22.5t86.5 62.5t58.5 92t21 111q0 68 -30.5 122.5t-83.5 86
t-120 31.5q-56 0 -105.5 -22.5t-87 -62.5t-58.5 -92t-21 -111q0 -68 30.5 -122t83.5 -86t120 -32zM435 794l-125 122h118l89 -122h-82z" />
    <glyph glyph-name="Oacute" unicode="&#xd3;" horiz-adv-x="795" 
d="M391 -11q-70 0 -131 25t-106 70t-70 105.5t-25 130.5q0 80 30 150.5t82.5 124.5t122.5 85t149 31q70 0 131 -25t106 -70t70 -105t25 -131q0 -80 -30 -150.5t-83 -124.5t-122.5 -85t-148.5 -31zM398 86q57 0 106 22.5t86.5 62.5t58.5 92t21 111q0 68 -30.5 122.5t-83.5 86
t-120 31.5q-56 0 -105.5 -22.5t-87 -62.5t-58.5 -92t-21 -111q0 -68 30.5 -122t83.5 -86t120 -32zM407 794l117 122h120l-151 -122h-86z" />
    <glyph glyph-name="Ocircumflex" unicode="&#xd4;" horiz-adv-x="795" 
d="M391 -11q-70 0 -131 25t-106 70t-70 105.5t-25 130.5q0 80 30 150.5t82.5 124.5t122.5 85t149 31q70 0 131 -25t106 -70t70 -105t25 -131q0 -80 -30 -150.5t-83 -124.5t-122.5 -85t-148.5 -31zM398 86q57 0 106 22.5t86.5 62.5t58.5 92t21 111q0 68 -30.5 122.5t-83.5 86
t-120 31.5q-56 0 -105.5 -22.5t-87 -62.5t-58.5 -92t-21 -111q0 -68 30.5 -122t83.5 -86t120 -32zM307 791l134 127h104l79 -127h-78l-61 77l-94 -77h-84z" />
    <glyph glyph-name="Otilde" unicode="&#xd5;" horiz-adv-x="795" 
d="M391 -11q-70 0 -131 25t-106 70t-70 105.5t-25 130.5q0 80 30 150.5t82.5 124.5t122.5 85t149 31q70 0 131 -25t106 -70t70 -105t25 -131q0 -80 -30 -150.5t-83 -124.5t-122.5 -85t-148.5 -31zM398 86q57 0 106 22.5t86.5 62.5t58.5 92t21 111q0 68 -30.5 122.5t-83.5 86
t-120 31.5q-56 0 -105.5 -22.5t-87 -62.5t-58.5 -92t-21 -111q0 -68 30.5 -122t83.5 -86t120 -32zM355 791l-61 20q44 100 110 100q29 0 54 -14.5t47.5 -29t41.5 -14.5q16 0 27 11.5t24 41.5l62 -19q-22 -52 -49.5 -77t-62.5 -25q-29 0 -54 14.5t-46.5 29t-43.5 14.5
q-14 0 -25.5 -12t-23.5 -40z" />
    <glyph glyph-name="Odieresis" unicode="&#xd6;" horiz-adv-x="795" 
d="M391 -11q-70 0 -131 25t-106 70t-70 105.5t-25 130.5q0 80 30 150.5t82.5 124.5t122.5 85t149 31q70 0 131 -25t106 -70t70 -105t25 -131q0 -80 -30 -150.5t-83 -124.5t-122.5 -85t-148.5 -31zM398 86q57 0 106 22.5t86.5 62.5t58.5 92t21 111q0 68 -30.5 122.5t-83.5 86
t-120 31.5q-56 0 -105.5 -22.5t-87 -62.5t-58.5 -92t-21 -111q0 -68 30.5 -122t83.5 -86t120 -32zM376 793q-22 0 -36.5 15t-14.5 37q0 27 19.5 46.5t45.5 19.5q21 0 36 -15.5t15 -37.5q0 -25 -19.5 -45t-45.5 -20zM565 793q-21 0 -36 15t-15 37q0 26 20 46t46 20
q21 0 35.5 -15.5t14.5 -37.5q0 -25 -19.5 -45t-45.5 -20z" />
    <glyph glyph-name="multiply" unicode="&#xd7;" horiz-adv-x="599" 
d="M134 153l-38 51l178 155l-111 155l58 50l112 -154l179 155l39 -51l-180 -156l113 -155l-60 -51l-112 155z" />
    <glyph glyph-name="Oslash" unicode="&#xd8;" horiz-adv-x="796" 
d="M391 -11q-62 0 -117 20t-98 56l-66 -65h-102l118 116q-32 42 -49.5 94t-17.5 110q0 80 30 150.5t82.5 124.5t122.5 85t149 31q62 0 116.5 -19.5t96.5 -54.5l65 63h104l-117 -115q31 -41 49 -93.5t18 -111.5q0 -80 -30 -150.5t-83 -124.5t-122.5 -85t-148.5 -31zM202 192
l380 372q-29 23 -66 36.5t-80 13.5q-56 0 -105.5 -22.5t-87 -62.5t-58.5 -92t-21 -111q0 -38 10.5 -72.5t27.5 -61.5zM398 86q57 0 106 22.5t86.5 62.5t58.5 92t21 111q0 39 -10.5 73.5t-28.5 61.5l-381 -371q30 -24 68 -38t80 -14z" />
    <glyph glyph-name="Ugrave" unicode="&#xd9;" horiz-adv-x="698" 
d="M323 -10q-95 0 -159 41t-89.5 114t-4.5 169l82 386h104l-85 -395q-13 -64 2 -113.5t55.5 -77t100.5 -27.5q80 0 138 55t78 150l87 408h103l-89 -415q-19 -94 -64 -160t-110.5 -100.5t-148.5 -34.5zM427 794l-125 122h118l89 -122h-82z" />
    <glyph glyph-name="Uacute" unicode="&#xda;" horiz-adv-x="698" 
d="M323 -10q-95 0 -159 41t-89.5 114t-4.5 169l82 386h104l-85 -395q-13 -64 2 -113.5t55.5 -77t100.5 -27.5q80 0 138 55t78 150l87 408h103l-89 -415q-19 -94 -64 -160t-110.5 -100.5t-148.5 -34.5zM399 794l117 122h120l-151 -122h-86z" />
    <glyph glyph-name="Ucircumflex" unicode="&#xdb;" horiz-adv-x="698" 
d="M323 -10q-95 0 -159 41t-89.5 114t-4.5 169l82 386h104l-85 -395q-13 -64 2 -113.5t55.5 -77t100.5 -27.5q80 0 138 55t78 150l87 408h103l-89 -415q-19 -94 -64 -160t-110.5 -100.5t-148.5 -34.5zM299 791l134 127h104l79 -127h-78l-61 77l-94 -77h-84z" />
    <glyph glyph-name="Udieresis" unicode="&#xdc;" horiz-adv-x="698" 
d="M323 -10q-95 0 -159 41t-89.5 114t-4.5 169l82 386h104l-85 -395q-13 -64 2 -113.5t55.5 -77t100.5 -27.5q80 0 138 55t78 150l87 408h103l-89 -415q-19 -94 -64 -160t-110.5 -100.5t-148.5 -34.5zM368 793q-22 0 -36.5 15t-14.5 37q0 27 19.5 46.5t45.5 19.5
q21 0 36 -15.5t15 -37.5q0 -25 -19.5 -45t-45.5 -20zM557 793q-21 0 -36 15t-15 37q0 26 20 46t46 20q21 0 35.5 -15.5t14.5 -37.5q0 -25 -19.5 -45t-45.5 -20z" />
    <glyph glyph-name="Yacute" unicode="&#xdd;" horiz-adv-x="654" 
d="M220 0l59 279l-186 421h110l144 -328l279 328h123l-366 -425l-59 -275h-104zM375 794l117 122h120l-151 -122h-86z" />
    <glyph glyph-name="Thorn" unicode="&#xde;" horiz-adv-x="648" 
d="M16 0l149 700h103l-29 -137h178q62 0 107 -23t70.5 -64.5t25.5 -97.5q0 -69 -32.5 -123.5t-89 -86t-128.5 -31.5h-222l-29 -137h-103zM167 227h201q43 0 76.5 18t52 50.5t18.5 74.5q0 47 -31 74t-85 27h-180z" />
    <glyph glyph-name="germandbls" unicode="&#xdf;" horiz-adv-x="635" 
d="M417 -12q-64 0 -118 24t-89 72l63 50q28 -37 64.5 -55t78.5 -18q43 0 68 19t25 51q0 21 -15 35.5t-49 30.5l-73 34q-42 19 -61 43t-19 57t16.5 55.5t42 38t54.5 28t54.5 25t42 29.5t16.5 41q0 25 -17.5 45t-47 32t-65.5 12q-73 0 -119.5 -38.5t-62.5 -115.5l-104 -483
h-97l105 493q24 110 96.5 168t182.5 58q66 0 117 -20t80 -55.5t29 -82.5q0 -40 -16.5 -67t-42.5 -44t-55.5 -29t-55.5 -23t-42.5 -23.5t-16.5 -31.5q0 -15 10.5 -26.5t34.5 -22.5l71 -33q52 -25 74.5 -53t22.5 -68q0 -44 -24 -78t-65 -54t-93 -20z" />
    <glyph glyph-name="agrave" unicode="&#xe0;" horiz-adv-x="523" 
d="M186 -6q-78 0 -125.5 38.5t-47.5 103.5q0 51 25.5 88t73 57.5t111.5 20.5q41 0 80.5 -9.5t72.5 -26.5l10 46q13 61 -15.5 92t-98.5 31q-30 0 -65.5 -9t-83.5 -28l-25 78q55 22 103 32t90 10q73 0 120.5 -24t66 -69.5t5.5 -109.5l-67 -315h-97l8 37q-33 -22 -67.5 -32.5
t-73.5 -10.5zM217 67q34 0 65.5 10.5t60.5 31.5l18 87q-55 37 -134 37q-53 0 -87 -24.5t-34 -63.5q0 -36 29.5 -57t81.5 -21zM279 603l-125 122h118l89 -122h-82z" />
    <glyph glyph-name="aacute" unicode="&#xe1;" horiz-adv-x="523" 
d="M186 -6q-78 0 -125.5 38.5t-47.5 103.5q0 51 25.5 88t73 57.5t111.5 20.5q41 0 80.5 -9.5t72.5 -26.5l10 46q13 61 -15.5 92t-98.5 31q-30 0 -65.5 -9t-83.5 -28l-25 78q55 22 103 32t90 10q73 0 120.5 -24t66 -69.5t5.5 -109.5l-67 -315h-97l8 37q-33 -22 -67.5 -32.5
t-73.5 -10.5zM217 67q34 0 65.5 10.5t60.5 31.5l18 87q-55 37 -134 37q-53 0 -87 -24.5t-34 -63.5q0 -36 29.5 -57t81.5 -21zM251 603l117 122h120l-151 -122h-86z" />
    <glyph glyph-name="acircumflex" unicode="&#xe2;" horiz-adv-x="523" 
d="M186 -6q-78 0 -125.5 38.5t-47.5 103.5q0 51 25.5 88t73 57.5t111.5 20.5q41 0 80.5 -9.5t72.5 -26.5l10 46q13 61 -15.5 92t-98.5 31q-30 0 -65.5 -9t-83.5 -28l-25 78q55 22 103 32t90 10q73 0 120.5 -24t66 -69.5t5.5 -109.5l-67 -315h-97l8 37q-33 -22 -67.5 -32.5
t-73.5 -10.5zM217 67q34 0 65.5 10.5t60.5 31.5l18 87q-55 37 -134 37q-53 0 -87 -24.5t-34 -63.5q0 -36 29.5 -57t81.5 -21zM151 600l134 127h104l79 -127h-78l-61 77l-94 -77h-84z" />
    <glyph glyph-name="atilde" unicode="&#xe3;" horiz-adv-x="523" 
d="M186 -6q-78 0 -125.5 38.5t-47.5 103.5q0 51 25.5 88t73 57.5t111.5 20.5q41 0 80.5 -9.5t72.5 -26.5l10 46q13 61 -15.5 92t-98.5 31q-30 0 -65.5 -9t-83.5 -28l-25 78q55 22 103 32t90 10q73 0 120.5 -24t66 -69.5t5.5 -109.5l-67 -315h-97l8 37q-33 -22 -67.5 -32.5
t-73.5 -10.5zM217 67q34 0 65.5 10.5t60.5 31.5l18 87q-55 37 -134 37q-53 0 -87 -24.5t-34 -63.5q0 -36 29.5 -57t81.5 -21zM199 600l-61 20q44 100 110 100q29 0 54 -14.5t47.5 -29t41.5 -14.5q16 0 27 11.5t24 41.5l62 -19q-22 -52 -49.5 -77t-62.5 -25q-29 0 -54 14.5
t-46.5 29t-43.5 14.5q-14 0 -25.5 -12t-23.5 -40z" />
    <glyph glyph-name="adieresis" unicode="&#xe4;" horiz-adv-x="523" 
d="M186 -6q-78 0 -125.5 38.5t-47.5 103.5q0 51 25.5 88t73 57.5t111.5 20.5q41 0 80.5 -9.5t72.5 -26.5l10 46q13 61 -15.5 92t-98.5 31q-30 0 -65.5 -9t-83.5 -28l-25 78q55 22 103 32t90 10q73 0 120.5 -24t66 -69.5t5.5 -109.5l-67 -315h-97l8 37q-33 -22 -67.5 -32.5
t-73.5 -10.5zM217 67q34 0 65.5 10.5t60.5 31.5l18 87q-55 37 -134 37q-53 0 -87 -24.5t-34 -63.5q0 -36 29.5 -57t81.5 -21zM220 602q-22 0 -36.5 15t-14.5 37q0 27 19.5 46.5t45.5 19.5q21 0 36 -15.5t15 -37.5q0 -25 -19.5 -45t-45.5 -20zM409 602q-21 0 -36 15t-15 37
q0 26 20 46t46 20q21 0 35.5 -15.5t14.5 -37.5q0 -25 -19.5 -45t-45.5 -20z" />
    <glyph glyph-name="aring" unicode="&#xe5;" horiz-adv-x="523" 
d="M186 -6q-78 0 -125.5 38.5t-47.5 103.5q0 51 25.5 88t73 57.5t111.5 20.5q41 0 80.5 -9.5t72.5 -26.5l10 46q13 61 -15.5 92t-98.5 31q-30 0 -65.5 -9t-83.5 -28l-25 78q55 22 103 32t90 10q73 0 120.5 -24t66 -69.5t5.5 -109.5l-67 -315h-97l8 37q-33 -22 -67.5 -32.5
t-73.5 -10.5zM217 67q34 0 65.5 10.5t60.5 31.5l18 87q-55 37 -134 37q-53 0 -87 -24.5t-34 -63.5q0 -36 29.5 -57t81.5 -21zM320 584q-46 0 -75.5 28.5t-29.5 72.5q0 34 17.5 63t45.5 47t61 18q46 0 75.5 -28.5t29.5 -73.5q0 -34 -17 -62.5t-45.5 -46.5t-61.5 -18zM321 631
q30 0 51.5 22.5t21.5 53.5q0 24 -16 41t-41 17q-29 0 -50.5 -22t-21.5 -54q0 -25 16 -41.5t40 -16.5z" />
    <glyph glyph-name="ae" unicode="&#xe6;" horiz-adv-x="886" 
d="M203 -6q-83 0 -133 39.5t-50 105.5q0 50 25 86.5t71 56.5t109 20q73 0 136 -26l9 39q11 59 -18 89.5t-96 30.5q-29 0 -63.5 -9t-82.5 -28l-26 78q56 22 103.5 32t90.5 10q64 0 107 -21t62 -61q37 39 84 60t97 21q65 0 115 -31.5t79 -85.5t29 -125q0 -10 -1 -22.5
t-3 -29.5h-392q3 -43 24.5 -76.5t56.5 -52.5t78 -19q36 0 68.5 10.5t57.5 29.5l54 -66q-44 -31 -89 -45t-97 -14q-63 0 -114.5 24t-84.5 65q-49 -43 -99.5 -64t-106.5 -21zM463 298h295q-5 39 -23 69t-47.5 47.5t-66.5 17.5t-69 -17.5t-55 -47.5t-34 -69zM221 67q42 0 81 16
t76 47q-7 17 -11.5 35t-6.5 37q-26 15 -59.5 23t-69.5 8q-52 0 -85 -24.5t-33 -62.5q0 -37 29 -58t79 -21z" />
    <glyph glyph-name="ccedilla" unicode="&#xe7;" horiz-adv-x="509" 
d="M214 -230q-36 0 -65.5 12.5t-49.5 35.5l40 37q31 -34 77 -34q29 0 46.5 13t17.5 34q0 18 -14.5 29t-41.5 11h-33l42 85q-58 7 -103.5 38.5t-71.5 81.5t-26 112q0 60 22.5 113t61.5 93.5t89.5 63.5t109.5 23q60 0 113.5 -27t86.5 -72l-70 -64q-25 37 -59 55.5t-75 18.5
q-37 0 -69.5 -16t-57.5 -43.5t-39.5 -63t-14.5 -76.5q0 -43 19.5 -77.5t53 -54.5t74.5 -20q35 0 68 13.5t65 39.5l49 -68q-79 -65 -173 -72l-22 -43q37 -5 57 -24.5t20 -50.5q0 -29 -16.5 -52.5t-45.5 -37t-65 -13.5z" />
    <glyph glyph-name="egrave" unicode="&#xe8;" horiz-adv-x="562" 
d="M285 -10q-73 0 -130 31t-89 85.5t-32 124.5q0 58 21 110.5t58.5 92t86.5 61.5t105 22q64 0 114 -31.5t79 -85.5t29 -125q0 -10 -0.5 -22.5t-3.5 -29.5h-391q3 -43 24.5 -76.5t56.5 -52.5t78 -19q35 0 67.5 10.5t58.5 29.5l53 -66q-44 -31 -88.5 -45t-96.5 -14zM139 298
h295q-4 39 -22.5 69t-47.5 47.5t-66 17.5t-69.5 -17.5t-55.5 -47.5t-34 -69zM295 603l-125 122h118l89 -122h-82z" />
    <glyph glyph-name="eacute" unicode="&#xe9;" horiz-adv-x="562" 
d="M285 -10q-73 0 -130 31t-89 85.5t-32 124.5q0 58 21 110.5t58.5 92t86.5 61.5t105 22q64 0 114 -31.5t79 -85.5t29 -125q0 -10 -0.5 -22.5t-3.5 -29.5h-391q3 -43 24.5 -76.5t56.5 -52.5t78 -19q35 0 67.5 10.5t58.5 29.5l53 -66q-44 -31 -88.5 -45t-96.5 -14zM139 298
h295q-4 39 -22.5 69t-47.5 47.5t-66 17.5t-69.5 -17.5t-55.5 -47.5t-34 -69zM267 603l117 122h120l-151 -122h-86z" />
    <glyph glyph-name="ecircumflex" unicode="&#xea;" horiz-adv-x="562" 
d="M285 -10q-73 0 -130 31t-89 85.5t-32 124.5q0 58 21 110.5t58.5 92t86.5 61.5t105 22q64 0 114 -31.5t79 -85.5t29 -125q0 -10 -0.5 -22.5t-3.5 -29.5h-391q3 -43 24.5 -76.5t56.5 -52.5t78 -19q35 0 67.5 10.5t58.5 29.5l53 -66q-44 -31 -88.5 -45t-96.5 -14zM139 298
h295q-4 39 -22.5 69t-47.5 47.5t-66 17.5t-69.5 -17.5t-55.5 -47.5t-34 -69zM167 600l134 127h104l79 -127h-78l-61 77l-94 -77h-84z" />
    <glyph glyph-name="edieresis" unicode="&#xeb;" horiz-adv-x="562" 
d="M285 -10q-73 0 -130 31t-89 85.5t-32 124.5q0 58 21 110.5t58.5 92t86.5 61.5t105 22q64 0 114 -31.5t79 -85.5t29 -125q0 -10 -0.5 -22.5t-3.5 -29.5h-391q3 -43 24.5 -76.5t56.5 -52.5t78 -19q35 0 67.5 10.5t58.5 29.5l53 -66q-44 -31 -88.5 -45t-96.5 -14zM139 298
h295q-4 39 -22.5 69t-47.5 47.5t-66 17.5t-69.5 -17.5t-55.5 -47.5t-34 -69zM236 602q-22 0 -36.5 15t-14.5 37q0 27 19.5 46.5t45.5 19.5q21 0 36 -15.5t15 -37.5q0 -25 -19.5 -45t-45.5 -20zM425 602q-21 0 -36 15t-15 37q0 26 20 46t46 20q21 0 35.5 -15.5t14.5 -37.5
q0 -25 -19.5 -45t-45.5 -20z" />
    <glyph glyph-name="igrave" unicode="&#xec;" horiz-adv-x="216" 
d="M5 0l108 509h98l-108 -509h-98zM149 603l-125 122h118l89 -122h-82z" />
    <glyph glyph-name="iacute" unicode="&#xed;" horiz-adv-x="216" 
d="M5 0l108 509h98l-108 -509h-98zM121 603l117 122h120l-151 -122h-86z" />
    <glyph glyph-name="icircumflex" unicode="&#xee;" horiz-adv-x="216" 
d="M5 0l108 509h98l-108 -509h-98zM21 600l134 127h104l79 -127h-78l-61 77l-94 -77h-84z" />
    <glyph glyph-name="idieresis" unicode="&#xef;" horiz-adv-x="216" 
d="M5 0l108 509h98l-108 -509h-98zM90 602q-22 0 -36.5 15t-14.5 37q0 27 19.5 46.5t45.5 19.5q21 0 36 -15.5t15 -37.5q0 -25 -19.5 -45t-45.5 -20zM279 602q-21 0 -36 15t-15 37q0 26 20 46t46 20q21 0 35.5 -15.5t14.5 -37.5q0 -25 -19.5 -45t-45.5 -20z" />
    <glyph glyph-name="eth" unicode="&#xf0;" horiz-adv-x="586" 
d="M263 -9q-66 0 -117.5 29.5t-81 80.5t-29.5 118q0 56 21 104.5t57.5 86t84.5 58.5t103 21q58 0 101 -25.5t66 -69.5q0 51 -14 96.5t-41 84.5l-105 -50l-26 60l86 41q-17 17 -38 30.5t-45 24.5l59 65q63 -32 110 -79l114 55l28 -60l-100 -48q65 -97 65 -233
q0 -85 -22 -156.5t-62 -124t-94.5 -81t-119.5 -28.5zM268 81q46 0 85.5 25t63.5 66.5t24 90.5q0 40 -18 72t-49.5 51t-70.5 19q-47 0 -87 -25.5t-63.5 -67t-23.5 -90.5q0 -41 18 -73t49 -50t72 -18z" />
    <glyph glyph-name="ntilde" unicode="&#xf1;" horiz-adv-x="557" 
d="M5 0l108 509h98l-10 -44q66 53 148 53q60 0 101.5 -27.5t58.5 -75.5t4 -109l-65 -306h-99l63 295q13 62 -15 99.5t-86 37.5q-37 0 -70 -15.5t-59 -45.5l-79 -371h-98zM239 600l-61 20q44 100 110 100q29 0 54 -14.5t47.5 -29t41.5 -14.5q16 0 27 11.5t24 41.5l62 -19
q-22 -52 -49.5 -77t-62.5 -25q-29 0 -54 14.5t-46.5 29t-43.5 14.5q-14 0 -25.5 -12t-23.5 -40z" />
    <glyph glyph-name="ograve" unicode="&#xf2;" horiz-adv-x="592" 
d="M278 -10q-70 0 -124.5 32t-86.5 87t-32 125q0 58 22 109.5t60.5 91t89 62t106.5 22.5q70 0 124.5 -31.5t86.5 -86.5t32 -125q0 -58 -21.5 -109.5t-60.5 -91.5t-89 -62.5t-107 -22.5zM282 78q37 0 68.5 15t56 42t38.5 62t14 74q0 46 -19.5 82.5t-53.5 57t-77 20.5
q-36 0 -68 -15t-56.5 -41.5t-38.5 -61.5t-14 -74q0 -46 19.5 -82.5t53.5 -57.5t77 -21zM308 603l-125 122h118l89 -122h-82z" />
    <glyph glyph-name="oacute" unicode="&#xf3;" horiz-adv-x="592" 
d="M278 -10q-70 0 -124.5 32t-86.5 87t-32 125q0 58 22 109.5t60.5 91t89 62t106.5 22.5q70 0 124.5 -31.5t86.5 -86.5t32 -125q0 -58 -21.5 -109.5t-60.5 -91.5t-89 -62.5t-107 -22.5zM282 78q37 0 68.5 15t56 42t38.5 62t14 74q0 46 -19.5 82.5t-53.5 57t-77 20.5
q-36 0 -68 -15t-56.5 -41.5t-38.5 -61.5t-14 -74q0 -46 19.5 -82.5t53.5 -57.5t77 -21zM280 603l117 122h120l-151 -122h-86z" />
    <glyph glyph-name="ocircumflex" unicode="&#xf4;" horiz-adv-x="592" 
d="M278 -10q-70 0 -124.5 32t-86.5 87t-32 125q0 58 22 109.5t60.5 91t89 62t106.5 22.5q70 0 124.5 -31.5t86.5 -86.5t32 -125q0 -58 -21.5 -109.5t-60.5 -91.5t-89 -62.5t-107 -22.5zM282 78q37 0 68.5 15t56 42t38.5 62t14 74q0 46 -19.5 82.5t-53.5 57t-77 20.5
q-36 0 -68 -15t-56.5 -41.5t-38.5 -61.5t-14 -74q0 -46 19.5 -82.5t53.5 -57.5t77 -21zM179 600l134 127h104l79 -127h-78l-61 77l-94 -77h-84z" />
    <glyph glyph-name="otilde" unicode="&#xf5;" horiz-adv-x="592" 
d="M278 -10q-70 0 -124.5 32t-86.5 87t-32 125q0 58 22 109.5t60.5 91t89 62t106.5 22.5q70 0 124.5 -31.5t86.5 -86.5t32 -125q0 -58 -21.5 -109.5t-60.5 -91.5t-89 -62.5t-107 -22.5zM282 78q37 0 68.5 15t56 42t38.5 62t14 74q0 46 -19.5 82.5t-53.5 57t-77 20.5
q-36 0 -68 -15t-56.5 -41.5t-38.5 -61.5t-14 -74q0 -46 19.5 -82.5t53.5 -57.5t77 -21zM228 600l-61 20q44 100 110 100q29 0 54 -14.5t47.5 -29t41.5 -14.5q16 0 27 11.5t24 41.5l62 -19q-22 -52 -49.5 -77t-62.5 -25q-29 0 -54 14.5t-46.5 29t-43.5 14.5q-14 0 -25.5 -12
t-23.5 -40z" />
    <glyph glyph-name="odieresis" unicode="&#xf6;" horiz-adv-x="592" 
d="M278 -10q-70 0 -124.5 32t-86.5 87t-32 125q0 58 22 109.5t60.5 91t89 62t106.5 22.5q70 0 124.5 -31.5t86.5 -86.5t32 -125q0 -58 -21.5 -109.5t-60.5 -91.5t-89 -62.5t-107 -22.5zM282 78q37 0 68.5 15t56 42t38.5 62t14 74q0 46 -19.5 82.5t-53.5 57t-77 20.5
q-36 0 -68 -15t-56.5 -41.5t-38.5 -61.5t-14 -74q0 -46 19.5 -82.5t53.5 -57.5t77 -21zM249 602q-22 0 -36.5 15t-14.5 37q0 27 19.5 46.5t45.5 19.5q21 0 36 -15.5t15 -37.5q0 -25 -19.5 -45t-45.5 -20zM438 602q-21 0 -36 15t-15 37q0 26 20 46t46 20q21 0 35.5 -15.5
t14.5 -37.5q0 -25 -19.5 -45t-45.5 -20z" />
    <glyph glyph-name="divide" unicode="&#xf7;" horiz-adv-x="599" 
d="M110 318l17 79h411l-17 -79h-411zM277 96q-25 0 -42.5 18t-17.5 43q0 28 21.5 49t50.5 21q24 0 41.5 -17.5t17.5 -43.5q0 -28 -20.5 -49t-50.5 -21zM361 492q-25 0 -42.5 17.5t-17.5 42.5q0 29 21.5 49.5t50.5 20.5q24 0 41.5 -17.5t17.5 -43.5q0 -27 -20.5 -48
t-50.5 -21z" />
    <glyph glyph-name="oslash" unicode="&#xf8;" horiz-adv-x="591" 
d="M278 -10q-45 0 -85 14t-70 40l-45 -44h-82l86 85q-23 31 -35 68.5t-12 80.5q0 58 22 109.5t60.5 91t89 62t106.5 22.5q45 0 84.5 -14t70.5 -39l44 43h83l-86 -85q22 -30 34.5 -68t12.5 -80q0 -58 -21.5 -109.5t-60.5 -91.5t-89 -62.5t-107 -22.5zM153 155l247 244
q-18 15 -41 23.5t-50 8.5q-36 0 -68 -15t-56.5 -41.5t-38.5 -61.5t-14 -74q0 -24 5 -45t16 -39zM282 78q37 0 68.5 15t56 42t38.5 62t14 74q0 23 -5.5 44.5t-14.5 39.5l-249 -245q19 -15 42.5 -23.5t49.5 -8.5z" />
    <glyph glyph-name="ugrave" unicode="&#xf9;" horiz-adv-x="556" 
d="M207 -9q-60 0 -101.5 28t-58 76t-4.5 109l65 305h98l-62 -295q-14 -61 14.5 -99t86.5 -38q38 0 71 16t58 46l79 370h98l-108 -509h-98l10 45q-67 -54 -148 -54zM309 603l-125 122h118l89 -122h-82z" />
    <glyph glyph-name="uacute" unicode="&#xfa;" horiz-adv-x="556" 
d="M207 -9q-60 0 -101.5 28t-58 76t-4.5 109l65 305h98l-62 -295q-14 -61 14.5 -99t86.5 -38q38 0 71 16t58 46l79 370h98l-108 -509h-98l10 45q-67 -54 -148 -54zM281 603l117 122h120l-151 -122h-86z" />
    <glyph glyph-name="ucircumflex" unicode="&#xfb;" horiz-adv-x="556" 
d="M207 -9q-60 0 -101.5 28t-58 76t-4.5 109l65 305h98l-62 -295q-14 -61 14.5 -99t86.5 -38q38 0 71 16t58 46l79 370h98l-108 -509h-98l10 45q-67 -54 -148 -54zM181 600l134 127h104l79 -127h-78l-61 77l-94 -77h-84z" />
    <glyph glyph-name="udieresis" unicode="&#xfc;" horiz-adv-x="556" 
d="M207 -9q-60 0 -101.5 28t-58 76t-4.5 109l65 305h98l-62 -295q-14 -61 14.5 -99t86.5 -38q38 0 71 16t58 46l79 370h98l-108 -509h-98l10 45q-67 -54 -148 -54zM250 602q-22 0 -36.5 15t-14.5 37q0 27 19.5 46.5t45.5 19.5q21 0 36 -15.5t15 -37.5q0 -25 -19.5 -45
t-45.5 -20zM439 602q-21 0 -36 15t-15 37q0 26 20 46t46 20q21 0 35.5 -15.5t14.5 -37.5q0 -25 -19.5 -45t-45.5 -20z" />
    <glyph glyph-name="yacute" unicode="&#xfd;" horiz-adv-x="528" 
d="M6 -214q-18 0 -34 2.5t-31 6.5l18 87q9 -3 20.5 -4.5t24.5 -1.5q34 0 61 17t50 53l35 55l-93 508h104l67 -394l243 394h109l-370 -587q-45 -72 -93 -104t-111 -32zM268 603l117 122h120l-151 -122h-86z" />
    <glyph glyph-name="thorn" unicode="&#xfe;" horiz-adv-x="594" 
d="M-39 -207l193 907l102 22l-51 -243q59 37 130 37q64 0 115 -30.5t80.5 -83.5t29.5 -120q0 -60 -22 -112.5t-60.5 -92.5t-89.5 -62.5t-109 -22.5q-49 0 -91 17t-73 49l-56 -265h-98zM311 430q-36 0 -68.5 -12t-58.5 -36l-49 -231q20 -33 57.5 -52.5t83.5 -19.5
q53 0 95.5 26.5t67.5 70.5t25 97q0 46 -19.5 81t-54.5 55.5t-79 20.5z" />
    <glyph glyph-name="ydieresis" unicode="&#xff;" horiz-adv-x="528" 
d="M6 -214q-18 0 -34 2.5t-31 6.5l18 87q9 -3 20.5 -4.5t24.5 -1.5q34 0 61 17t50 53l35 55l-93 508h104l67 -394l243 394h109l-370 -587q-45 -72 -93 -104t-111 -32zM237 602q-22 0 -36.5 15t-14.5 37q0 27 19.5 46.5t45.5 19.5q21 0 36 -15.5t15 -37.5q0 -25 -19.5 -45
t-45.5 -20zM426 602q-21 0 -36 15t-15 37q0 26 20 46t46 20q21 0 35.5 -15.5t14.5 -37.5q0 -25 -19.5 -45t-45.5 -20z" />
    <glyph glyph-name="Amacron" unicode="&#x100;" horiz-adv-x="688" 
d="M-53 0l429 700h122l135 -700h-107l-37 205h-306l-122 -205h-114zM235 292h239l-56 306zM304 814l15 67h291l-15 -67h-291z" />
    <glyph glyph-name="amacron" unicode="&#x101;" horiz-adv-x="523" 
d="M186 -6q-78 0 -125.5 38.5t-47.5 103.5q0 51 25.5 88t73 57.5t111.5 20.5q41 0 80.5 -9.5t72.5 -26.5l10 46q13 61 -15.5 92t-98.5 31q-30 0 -65.5 -9t-83.5 -28l-25 78q55 22 103 32t90 10q73 0 120.5 -24t66 -69.5t5.5 -109.5l-67 -315h-97l8 37q-33 -22 -67.5 -32.5
t-73.5 -10.5zM217 67q34 0 65.5 10.5t60.5 31.5l18 87q-55 37 -134 37q-53 0 -87 -24.5t-34 -63.5q0 -36 29.5 -57t81.5 -21zM164 623l15 67h291l-15 -67h-291z" />
    <glyph glyph-name="Abreve" unicode="&#x102;" horiz-adv-x="688" 
d="M-53 0l429 700h122l135 -700h-107l-37 205h-306l-122 -205h-114zM235 292h239l-56 306zM460 786q-65 0 -104 36.5t-39 98.5l63 12q2 -42 23 -64t59 -22q68 0 108 81l64 -20q-26 -59 -71.5 -90.5t-102.5 -31.5z" />
    <glyph glyph-name="abreve" unicode="&#x103;" horiz-adv-x="523" 
d="M186 -6q-78 0 -125.5 38.5t-47.5 103.5q0 51 25.5 88t73 57.5t111.5 20.5q41 0 80.5 -9.5t72.5 -26.5l10 46q13 61 -15.5 92t-98.5 31q-30 0 -65.5 -9t-83.5 -28l-25 78q55 22 103 32t90 10q73 0 120.5 -24t66 -69.5t5.5 -109.5l-67 -315h-97l8 37q-33 -22 -67.5 -32.5
t-73.5 -10.5zM217 67q34 0 65.5 10.5t60.5 31.5l18 87q-55 37 -134 37q-53 0 -87 -24.5t-34 -63.5q0 -36 29.5 -57t81.5 -21zM320 595q-65 0 -104 36.5t-39 98.5l63 12q2 -42 23 -64t59 -22q68 0 108 81l64 -20q-26 -59 -71.5 -90.5t-102.5 -31.5z" />
    <glyph glyph-name="Aogonek" unicode="&#x104;" horiz-adv-x="688" 
d="M-53 0l429 700h122l135 -700q-62 -33 -92.5 -63.5t-30.5 -62.5q0 -18 13 -29t34 -11q23 0 43 11l5 -49q-16 -8 -35 -13t-38 -5q-40 0 -64 20t-24 53q0 41 30 78t90 71h-38l-37 205h-306l-122 -205h-114zM235 292h239l-56 306z" />
    <glyph glyph-name="aogonek" unicode="&#x105;" horiz-adv-x="523" 
d="M315 -222q-40 0 -64 20t-24 53q0 41 30 78t90 71h-28l8 37q-33 -22 -67.5 -32.5t-73.5 -10.5q-78 0 -125.5 38.5t-47.5 103.5q0 51 25.5 88t73 57.5t111.5 20.5q41 0 80.5 -9.5t72.5 -26.5l10 46q13 61 -15.5 92t-98.5 31q-30 0 -65.5 -9t-83.5 -28l-25 78q55 22 103 32
t90 10q73 0 120.5 -24t66 -69.5t5.5 -109.5l-67 -315q-63 -33 -93 -63.5t-30 -62.5q0 -18 13 -29t33 -11q24 0 44 11l5 -49q-17 -8 -35.5 -13t-37.5 -5zM217 67q34 0 65.5 10.5t60.5 31.5l18 87q-55 37 -134 37q-53 0 -87 -24.5t-34 -63.5q0 -36 29.5 -57t81.5 -21z" />
    <glyph glyph-name="Cacute" unicode="&#x106;" horiz-adv-x="708" 
d="M394 -11q-71 0 -132 25t-106.5 70t-70.5 105.5t-25 130.5q0 80 30 150t83 124t122.5 84t148.5 30q91 0 162 -33.5t117 -97.5l-80 -70q-33 51 -86 78t-118 27q-57 0 -106.5 -22t-87.5 -61.5t-58.5 -92t-20.5 -112.5q0 -68 31 -122t84.5 -85.5t122.5 -31.5q58 0 113 22.5
t98 64.5l56 -72q-56 -53 -129 -82t-148 -29zM412 794l117 122h120l-151 -122h-86z" />
    <glyph glyph-name="cacute" unicode="&#x107;" horiz-adv-x="509" 
d="M266 -10q-67 0 -120 30.5t-83.5 84t-30.5 120.5q0 60 22.5 113t61.5 93.5t89.5 63.5t109.5 23q60 0 113.5 -27t86.5 -72l-70 -64q-25 37 -59 55.5t-75 18.5q-37 0 -69.5 -16t-57.5 -43.5t-39.5 -63t-14.5 -76.5q0 -43 19.5 -77.5t53 -54.5t74.5 -20q35 0 68 13.5t65 39.5
l49 -68q-87 -73 -193 -73zM280 603l117 122h120l-151 -122h-86z" />
    <glyph glyph-name="Ccircumflex" unicode="&#x108;" horiz-adv-x="708" 
d="M394 -11q-71 0 -132 25t-106.5 70t-70.5 105.5t-25 130.5q0 80 30 150t83 124t122.5 84t148.5 30q91 0 162 -33.5t117 -97.5l-80 -70q-33 51 -86 78t-118 27q-57 0 -106.5 -22t-87.5 -61.5t-58.5 -92t-20.5 -112.5q0 -68 31 -122t84.5 -85.5t122.5 -31.5q58 0 113 22.5
t98 64.5l56 -72q-56 -53 -129 -82t-148 -29zM311 791l134 127h104l79 -127h-78l-61 77l-94 -77h-84z" />
    <glyph glyph-name="ccircumflex" unicode="&#x109;" horiz-adv-x="509" 
d="M266 -10q-67 0 -120 30.5t-83.5 84t-30.5 120.5q0 60 22.5 113t61.5 93.5t89.5 63.5t109.5 23q60 0 113.5 -27t86.5 -72l-70 -64q-25 37 -59 55.5t-75 18.5q-37 0 -69.5 -16t-57.5 -43.5t-39.5 -63t-14.5 -76.5q0 -43 19.5 -77.5t53 -54.5t74.5 -20q35 0 68 13.5t65 39.5
l49 -68q-87 -73 -193 -73zM180 600l134 127h104l79 -127h-78l-61 77l-94 -77h-84z" />
    <glyph glyph-name="Cdotaccent" unicode="&#x10a;" horiz-adv-x="708" 
d="M394 -11q-71 0 -132 25t-106.5 70t-70.5 105.5t-25 130.5q0 80 30 150t83 124t122.5 84t148.5 30q91 0 162 -33.5t117 -97.5l-80 -70q-33 51 -86 78t-118 27q-57 0 -106.5 -22t-87.5 -61.5t-58.5 -92t-20.5 -112.5q0 -68 31 -122t84.5 -85.5t122.5 -31.5q58 0 113 22.5
t98 64.5l56 -72q-56 -53 -129 -82t-148 -29zM475 793q-23 0 -37.5 15t-14.5 37q0 27 19.5 46.5t46.5 19.5q21 0 35.5 -15.5t14.5 -37.5q0 -25 -19.5 -45t-44.5 -20z" />
    <glyph glyph-name="cdotaccent" unicode="&#x10b;" horiz-adv-x="509" 
d="M266 -10q-67 0 -120 30.5t-83.5 84t-30.5 120.5q0 60 22.5 113t61.5 93.5t89.5 63.5t109.5 23q60 0 113.5 -27t86.5 -72l-70 -64q-25 37 -59 55.5t-75 18.5q-37 0 -69.5 -16t-57.5 -43.5t-39.5 -63t-14.5 -76.5q0 -43 19.5 -77.5t53 -54.5t74.5 -20q35 0 68 13.5t65 39.5
l49 -68q-87 -73 -193 -73zM343 602q-23 0 -37.5 15t-14.5 37q0 27 19.5 46.5t46.5 19.5q21 0 35.5 -15.5t14.5 -37.5q0 -25 -19.5 -45t-44.5 -20z" />
    <glyph glyph-name="Ccaron" unicode="&#x10c;" horiz-adv-x="708" 
d="M394 -11q-71 0 -132 25t-106.5 70t-70.5 105.5t-25 130.5q0 80 30 150t83 124t122.5 84t148.5 30q91 0 162 -33.5t117 -97.5l-80 -70q-33 51 -86 78t-118 27q-57 0 -106.5 -22t-87.5 -61.5t-58.5 -92t-20.5 -112.5q0 -68 31 -122t84.5 -85.5t122.5 -31.5q58 0 113 22.5
t98 64.5l56 -72q-56 -53 -129 -82t-148 -29zM421 792l-79 127h78l60 -77l93 77h84l-132 -127h-104z" />
    <glyph glyph-name="ccaron" unicode="&#x10d;" horiz-adv-x="509" 
d="M266 -10q-67 0 -120 30.5t-83.5 84t-30.5 120.5q0 60 22.5 113t61.5 93.5t89.5 63.5t109.5 23q60 0 113.5 -27t86.5 -72l-70 -64q-25 37 -59 55.5t-75 18.5q-37 0 -69.5 -16t-57.5 -43.5t-39.5 -63t-14.5 -76.5q0 -43 19.5 -77.5t53 -54.5t74.5 -20q35 0 68 13.5t65 39.5
l49 -68q-87 -73 -193 -73zM289 601l-79 127h78l60 -77l93 77h84l-132 -127h-104z" />
    <glyph glyph-name="Dcaron" unicode="&#x10e;" horiz-adv-x="713" 
d="M16 0l149 700h211q70 0 129 -22.5t101.5 -64t66 -98.5t23.5 -125q0 -81 -32 -151.5t-88 -124t-129.5 -84t-157.5 -30.5h-273zM139 95h161q60 0 112.5 22t92 62t62 92.5t22.5 112.5q0 66 -28 116t-78 77.5t-116 27.5h-119zM415 792l-79 127h78l60 -77l93 77h84l-132 -127
h-104z" />
    <glyph glyph-name="dcaron" unicode="&#x10f;" horiz-adv-x="596" 
d="M260 -8q-64 0 -115 31t-80.5 84t-29.5 120q0 60 22 112.5t60.5 92t90 62t109.5 22.5q49 0 91 -16.5t73 -47.5l52 248l103 22l-154 -722h-97l6 31q-60 -39 -131 -39zM285 78q35 0 67.5 13t58.5 36l50 233q-20 31 -58 50t-83 19q-52 0 -95 -26t-68.5 -69.5t-25.5 -97.5
q0 -46 20 -81.5t55 -56t79 -20.5zM677 512l50 198l93 18l-76 -216h-67z" />
    <glyph glyph-name="Dcroat" unicode="&#x110;" horiz-adv-x="735" 
d="M38 0l65 307h-82l19 87h82l65 306h211q71 0 129.5 -22.5t101.5 -64t66 -98.5t23 -125q0 -81 -31.5 -151.5t-88 -124t-130 -84t-156.5 -30.5h-274zM161 95h161q61 0 113 22t91.5 62t62 92.5t22.5 112.5q0 66 -28 116t-78 77.5t-116 27.5h-119l-45 -211h178l-18 -87h-179z
" />
    <glyph glyph-name="dcroat" unicode="&#x111;" horiz-adv-x="595" 
d="M260 -8q-64 0 -115 31t-80.5 84t-29.5 120q0 60 22 112.5t60.5 92t90 62t109.5 22.5q49 0 91 -16.5t73 -47.5l28 131h-150l15 69h149l10 48l103 22l-15 -70h58l-14 -69h-59l-124 -583h-97l6 31q-60 -39 -131 -39zM285 78q35 0 67.5 13t58.5 36l50 233q-20 31 -58 50
t-83 19q-52 0 -95 -26t-68.5 -69.5t-25.5 -97.5q0 -46 20 -81.5t55 -56t79 -20.5z" />
    <glyph glyph-name="Emacron" unicode="&#x112;" horiz-adv-x="617" 
d="M16 0l149 700h506l-20 -92h-403l-45 -210h264l-19 -90h-264l-46 -216h407l-19 -92h-510zM284 814l15 67h291l-15 -67h-291z" />
    <glyph glyph-name="emacron" unicode="&#x113;" horiz-adv-x="562" 
d="M285 -10q-73 0 -130 31t-89 85.5t-32 124.5q0 58 21 110.5t58.5 92t86.5 61.5t105 22q64 0 114 -31.5t79 -85.5t29 -125q0 -10 -0.5 -22.5t-3.5 -29.5h-391q3 -43 24.5 -76.5t56.5 -52.5t78 -19q35 0 67.5 10.5t58.5 29.5l53 -66q-44 -31 -88.5 -45t-96.5 -14zM139 298
h295q-4 39 -22.5 69t-47.5 47.5t-66 17.5t-69.5 -17.5t-55.5 -47.5t-34 -69zM180 623l15 67h291l-15 -67h-291z" />
    <glyph glyph-name="Ebreve" unicode="&#x114;" horiz-adv-x="617" 
d="M16 0l149 700h506l-20 -92h-403l-45 -210h264l-19 -90h-264l-46 -216h407l-19 -92h-510zM440 786q-65 0 -104 36.5t-39 98.5l63 12q2 -42 23 -64t59 -22q68 0 108 81l64 -20q-26 -59 -71.5 -90.5t-102.5 -31.5z" />
    <glyph glyph-name="ebreve" unicode="&#x115;" horiz-adv-x="562" 
d="M285 -10q-73 0 -130 31t-89 85.5t-32 124.5q0 58 21 110.5t58.5 92t86.5 61.5t105 22q64 0 114 -31.5t79 -85.5t29 -125q0 -10 -0.5 -22.5t-3.5 -29.5h-391q3 -43 24.5 -76.5t56.5 -52.5t78 -19q35 0 67.5 10.5t58.5 29.5l53 -66q-44 -31 -88.5 -45t-96.5 -14zM139 298
h295q-4 39 -22.5 69t-47.5 47.5t-66 17.5t-69.5 -17.5t-55.5 -47.5t-34 -69zM336 595q-65 0 -104 36.5t-39 98.5l63 12q2 -42 23 -64t59 -22q68 0 108 81l64 -20q-26 -59 -71.5 -90.5t-102.5 -31.5z" />
    <glyph glyph-name="Edotaccent" unicode="&#x116;" horiz-adv-x="617" 
d="M16 0l149 700h506l-20 -92h-403l-45 -210h264l-19 -90h-264l-46 -216h407l-19 -92h-510zM434 793q-23 0 -37.5 15t-14.5 37q0 27 19.5 46.5t46.5 19.5q21 0 35.5 -15.5t14.5 -37.5q0 -25 -19.5 -45t-44.5 -20z" />
    <glyph glyph-name="edotaccent" unicode="&#x117;" horiz-adv-x="562" 
d="M285 -10q-73 0 -130 31t-89 85.5t-32 124.5q0 58 21 110.5t58.5 92t86.5 61.5t105 22q64 0 114 -31.5t79 -85.5t29 -125q0 -10 -0.5 -22.5t-3.5 -29.5h-391q3 -43 24.5 -76.5t56.5 -52.5t78 -19q35 0 67.5 10.5t58.5 29.5l53 -66q-44 -31 -88.5 -45t-96.5 -14zM139 298
h295q-4 39 -22.5 69t-47.5 47.5t-66 17.5t-69.5 -17.5t-55.5 -47.5t-34 -69zM330 602q-23 0 -37.5 15t-14.5 37q0 27 19.5 46.5t46.5 19.5q21 0 35.5 -15.5t14.5 -37.5q0 -25 -19.5 -45t-44.5 -20z" />
    <glyph glyph-name="Eogonek" unicode="&#x118;" horiz-adv-x="617" 
d="M425 -222q-40 0 -64 20t-24 53q0 41 30 78t90 71h-441l149 700h506l-20 -92h-403l-45 -210h264l-19 -90h-264l-46 -216h407l-19 -92q-63 -33 -93 -63.5t-30 -62.5q0 -18 12.5 -29t33.5 -11q23 0 44 11l5 -49q-17 -8 -35.5 -13t-37.5 -5z" />
    <glyph glyph-name="eogonek" unicode="&#x119;" horiz-adv-x="562" 
d="M266 -222q-40 0 -64 20t-24 53q0 38 26 72.5t77 66.5q-72 1 -128 32t-87.5 85.5t-31.5 123.5q0 58 21 110.5t58.5 92t86.5 61.5t105 22q64 0 114 -31.5t79 -85.5t29 -125q0 -10 -0.5 -22.5t-3.5 -29.5h-391q3 -43 24.5 -76.5t56.5 -52.5t78 -19q35 0 67.5 10.5t58.5 29.5
l53 -66q-26 -18 -51 -30.5t-53 -18.5q-62 -33 -92 -63.5t-30 -62.5q0 -18 12.5 -29t33.5 -11q23 0 44 11l5 -49q-17 -8 -36 -13t-37 -5zM139 298h295q-4 39 -22.5 69t-47.5 47.5t-66 17.5t-69.5 -17.5t-55.5 -47.5t-34 -69z" />
    <glyph glyph-name="Ecaron" unicode="&#x11a;" horiz-adv-x="617" 
d="M16 0l149 700h506l-20 -92h-403l-45 -210h264l-19 -90h-264l-46 -216h407l-19 -92h-510zM380 792l-79 127h78l60 -77l93 77h84l-132 -127h-104z" />
    <glyph glyph-name="ecaron" unicode="&#x11b;" horiz-adv-x="562" 
d="M285 -10q-73 0 -130 31t-89 85.5t-32 124.5q0 58 21 110.5t58.5 92t86.5 61.5t105 22q64 0 114 -31.5t79 -85.5t29 -125q0 -10 -0.5 -22.5t-3.5 -29.5h-391q3 -43 24.5 -76.5t56.5 -52.5t78 -19q35 0 67.5 10.5t58.5 29.5l53 -66q-44 -31 -88.5 -45t-96.5 -14zM139 298
h295q-4 39 -22.5 69t-47.5 47.5t-66 17.5t-69.5 -17.5t-55.5 -47.5t-34 -69zM276 601l-79 127h78l60 -77l93 77h84l-132 -127h-104z" />
    <glyph glyph-name="Gcircumflex" unicode="&#x11c;" horiz-adv-x="776" 
d="M387 -12q-71 0 -131 24.5t-104.5 69.5t-69.5 105t-25 129q0 81 30.5 152t84 125.5t124 85t149.5 30.5q88 0 161 -35.5t120 -100.5l-81 -68q-33 50 -88.5 78.5t-119.5 28.5q-57 0 -106.5 -22.5t-87.5 -62.5t-59.5 -92.5t-21.5 -113.5q0 -68 30.5 -121t83.5 -84t119 -31
q59 0 109 25.5t85 70.5t47 104h-228l17 92h336l-11 -59q-16 -96 -68 -170.5t-128.5 -117t-166.5 -42.5zM311 791l134 127h104l79 -127h-78l-61 77l-94 -77h-84z" />
    <glyph glyph-name="gcircumflex" unicode="&#x11d;" horiz-adv-x="596" 
d="M252 -211q-59 0 -120 19t-106 53l48 75q44 -30 87.5 -45.5t86.5 -15.5q109 0 132 107l11 51q-60 -38 -131 -38q-64 0 -115 30.5t-80 83t-29 119.5q0 60 22 112.5t60 92t89.5 61.5t109.5 22q48 0 90.5 -16t72.5 -47l12 56h98l-113 -537q-18 -89 -76 -136t-149 -47zM285 80
q71 0 126 48l49 232q-20 32 -58 50.5t-82 18.5q-52 0 -95 -26t-67.5 -69.5t-24.5 -97.5q0 -45 19 -80.5t54 -55.5t79 -20zM188 600l134 127h104l79 -127h-78l-61 77l-94 -77h-84z" />
    <glyph glyph-name="Gbreve" unicode="&#x11e;" horiz-adv-x="776" 
d="M387 -12q-71 0 -131 24.5t-104.5 69.5t-69.5 105t-25 129q0 81 30.5 152t84 125.5t124 85t149.5 30.5q88 0 161 -35.5t120 -100.5l-81 -68q-33 50 -88.5 78.5t-119.5 28.5q-57 0 -106.5 -22.5t-87.5 -62.5t-59.5 -92.5t-21.5 -113.5q0 -68 30.5 -121t83.5 -84t119 -31
q59 0 109 25.5t85 70.5t47 104h-228l17 92h336l-11 -59q-16 -96 -68 -170.5t-128.5 -117t-166.5 -42.5zM480 786q-65 0 -104 36.5t-39 98.5l63 12q2 -42 23 -64t59 -22q68 0 108 81l64 -20q-26 -59 -71.5 -90.5t-102.5 -31.5z" />
    <glyph glyph-name="gbreve" unicode="&#x11f;" horiz-adv-x="596" 
d="M252 -211q-59 0 -120 19t-106 53l48 75q44 -30 87.5 -45.5t86.5 -15.5q109 0 132 107l11 51q-60 -38 -131 -38q-64 0 -115 30.5t-80 83t-29 119.5q0 60 22 112.5t60 92t89.5 61.5t109.5 22q48 0 90.5 -16t72.5 -47l12 56h98l-113 -537q-18 -89 -76 -136t-149 -47zM285 80
q71 0 126 48l49 232q-20 32 -58 50.5t-82 18.5q-52 0 -95 -26t-67.5 -69.5t-24.5 -97.5q0 -45 19 -80.5t54 -55.5t79 -20zM357 595q-65 0 -104 36.5t-39 98.5l63 12q2 -42 23 -64t59 -22q68 0 108 81l64 -20q-26 -59 -71.5 -90.5t-102.5 -31.5z" />
    <glyph glyph-name="Gdotaccent" unicode="&#x120;" horiz-adv-x="776" 
d="M387 -12q-71 0 -131 24.5t-104.5 69.5t-69.5 105t-25 129q0 81 30.5 152t84 125.5t124 85t149.5 30.5q88 0 161 -35.5t120 -100.5l-81 -68q-33 50 -88.5 78.5t-119.5 28.5q-57 0 -106.5 -22.5t-87.5 -62.5t-59.5 -92.5t-21.5 -113.5q0 -68 30.5 -121t83.5 -84t119 -31
q59 0 109 25.5t85 70.5t47 104h-228l17 92h336l-11 -59q-16 -96 -68 -170.5t-128.5 -117t-166.5 -42.5zM474 793q-23 0 -37.5 15t-14.5 37q0 27 19.5 46.5t46.5 19.5q21 0 35.5 -15.5t14.5 -37.5q0 -25 -19.5 -45t-44.5 -20z" />
    <glyph glyph-name="gdotaccent" unicode="&#x121;" horiz-adv-x="596" 
d="M252 -211q-59 0 -120 19t-106 53l48 75q44 -30 87.5 -45.5t86.5 -15.5q109 0 132 107l11 51q-60 -38 -131 -38q-64 0 -115 30.5t-80 83t-29 119.5q0 60 22 112.5t60 92t89.5 61.5t109.5 22q48 0 90.5 -16t72.5 -47l12 56h98l-113 -537q-18 -89 -76 -136t-149 -47zM285 80
q71 0 126 48l49 232q-20 32 -58 50.5t-82 18.5q-52 0 -95 -26t-67.5 -69.5t-24.5 -97.5q0 -45 19 -80.5t54 -55.5t79 -20zM351 602q-23 0 -37.5 15t-14.5 37q0 27 19.5 46.5t46.5 19.5q21 0 35.5 -15.5t14.5 -37.5q0 -25 -19.5 -45t-44.5 -20z" />
    <glyph glyph-name="uni0122" unicode="&#x122;" horiz-adv-x="776" 
d="M387 -12q-71 0 -131 24.5t-104.5 69.5t-69.5 105t-25 129q0 81 30.5 152t84 125.5t124 85t149.5 30.5q88 0 161 -35.5t120 -100.5l-81 -68q-33 50 -88.5 78.5t-119.5 28.5q-57 0 -106.5 -22.5t-87.5 -62.5t-59.5 -92.5t-21.5 -113.5q0 -68 30.5 -121t83.5 -84t119 -31
q59 0 109 25.5t85 70.5t47 104h-228l17 92h336l-11 -59q-16 -96 -68 -170.5t-128.5 -117t-166.5 -42.5zM247 -273l85 190h97l-109 -190h-73z" />
    <glyph glyph-name="uni0123" unicode="&#x123;" horiz-adv-x="597" 
d="M477 801l-85 -190h-97l109 190h73zM252 -211q-59 0 -120 19t-106 53l48 75q44 -30 87.5 -45.5t86.5 -15.5q109 0 132 107l11 51q-60 -38 -131 -38q-64 0 -115 30.5t-80 83t-29 119.5q0 60 22 112.5t60 92t89.5 61.5t109.5 22q48 0 90.5 -16t72.5 -47l12 56h98l-113 -537
q-18 -89 -76 -136t-149 -47zM285 80q71 0 126 48l49 232q-20 32 -58 50.5t-82 18.5q-52 0 -95 -26t-67.5 -69.5t-24.5 -97.5q0 -45 19 -80.5t54 -55.5t79 -20z" />
    <glyph glyph-name="Hcircumflex" unicode="&#x124;" horiz-adv-x="711" 
d="M16 0l149 700h103l-64 -300h364l64 300h103l-149 -700h-103l65 305h-364l-65 -305h-103zM309 791l134 127h104l79 -127h-78l-61 77l-94 -77h-84z" />
    <glyph glyph-name="hcircumflex" unicode="&#x125;" horiz-adv-x="557" 
d="M5 0l149 700l102 22l-54 -257q64 53 147 53q60 0 101.5 -27.5t58.5 -75.5t4 -109l-65 -306h-99l63 295q13 62 -15 99.5t-86 37.5q-37 0 -70 -15.5t-59 -45.5l-79 -371h-98zM59 791l134 127h104l79 -127h-78l-61 77l-94 -77h-84z" />
    <glyph glyph-name="Hbar" unicode="&#x126;" horiz-adv-x="732" 
d="M26 0l108 510h-67l18 86h67l23 104h103l-23 -104h365l22 104h103l-22 -104h68l-19 -86h-67l-109 -510h-103l65 305h-364l-65 -305h-103zM214 400h364l24 110h-365z" />
    <glyph glyph-name="hbar" unicode="&#x127;" horiz-adv-x="556" 
d="M5 0l124 583h-61l14 69h62l10 48l102 22l-14 -70h147l-14 -69h-149l-24 -118q64 53 147 53q60 0 101.5 -27.5t58.5 -75.5t4 -109l-65 -306h-99l63 295q13 62 -15 99.5t-86 37.5q-37 0 -70 -15.5t-59 -45.5l-79 -371h-98z" />
    <glyph glyph-name="Itilde" unicode="&#x128;" horiz-adv-x="244" 
d="M16 0l149 700h103l-149 -700h-103zM124 791l-61 20q44 100 110 100q29 0 54 -14.5t47.5 -29t41.5 -14.5q16 0 27 11.5t24 41.5l62 -19q-22 -52 -49.5 -77t-62.5 -25q-29 0 -54 14.5t-46.5 29t-43.5 14.5q-14 0 -25.5 -12t-23.5 -40z" />
    <glyph glyph-name="itilde" unicode="&#x129;" horiz-adv-x="216" 
d="M5 0l108 509h98l-108 -509h-98zM69 600l-61 20q44 100 110 100q29 0 54 -14.5t47.5 -29t41.5 -14.5q16 0 27 11.5t24 41.5l62 -19q-22 -52 -49.5 -77t-62.5 -25q-29 0 -54 14.5t-46.5 29t-43.5 14.5q-14 0 -25.5 -12t-23.5 -40z" />
    <glyph glyph-name="Imacron" unicode="&#x12a;" horiz-adv-x="244" 
d="M16 0l149 700h103l-149 -700h-103zM89 814l15 67h291l-15 -67h-291z" />
    <glyph glyph-name="imacron" unicode="&#x12b;" horiz-adv-x="216" 
d="M5 0l108 509h98l-108 -509h-98zM34 623l15 67h291l-15 -67h-291z" />
    <glyph glyph-name="Ibreve" unicode="&#x12c;" horiz-adv-x="244" 
d="M16 0l149 700h103l-149 -700h-103zM245 786q-65 0 -104 36.5t-39 98.5l63 12q2 -42 23 -64t59 -22q68 0 108 81l64 -20q-26 -59 -71.5 -90.5t-102.5 -31.5z" />
    <glyph glyph-name="ibreve" unicode="&#x12d;" horiz-adv-x="216" 
d="M5 0l108 509h98l-108 -509h-98zM190 595q-65 0 -104 36.5t-39 98.5l63 12q2 -42 23 -64t59 -22q68 0 108 81l64 -20q-26 -59 -71.5 -90.5t-102.5 -31.5z" />
    <glyph glyph-name="Iogonek" unicode="&#x12e;" horiz-adv-x="244" 
d="M18 -222q-40 0 -64 20t-24 53q0 41 30 78t90 71h-34l149 700h103l-149 -700q-63 -33 -93 -63.5t-30 -62.5q0 -18 12.5 -29t33.5 -11q23 0 44 11l5 -49q-17 -8 -35.5 -13t-37.5 -5z" />
    <glyph glyph-name="iogonek" unicode="&#x12f;" horiz-adv-x="216" 
d="M185 591q-23 0 -38.5 16t-15.5 39q0 19 9.5 34.5t25 25t33.5 9.5q23 0 38.5 -15.5t15.5 -38.5q0 -19 -9.5 -34.5t-25 -25.5t-33.5 -10zM2 -222q-40 0 -64 20t-24 53q0 41 30 78t90 71h-29l108 509h98l-108 -509q-62 -33 -92.5 -63.5t-30.5 -62.5q0 -18 13 -29t34 -11
q23 0 43 11l5 -49q-16 -8 -35 -13t-38 -5z" />
    <glyph glyph-name="Idotaccent" unicode="&#x130;" horiz-adv-x="244" 
d="M16 0l149 700h103l-149 -700h-103zM239 793q-23 0 -37.5 15t-14.5 37q0 27 19.5 46.5t46.5 19.5q21 0 35.5 -15.5t14.5 -37.5q0 -25 -19.5 -45t-44.5 -20z" />
    <glyph glyph-name="dotlessi" unicode="&#x131;" horiz-adv-x="216" 
d="M5 0l108 509h98l-108 -509h-98z" />
    <glyph glyph-name="IJ" unicode="&#x132;" horiz-adv-x="849" 
d="M16 0l149 700h103l-149 -700h-103zM499 -10q-98 0 -162 51t-81 144l95 34q25 -133 147 -133q72 0 123.5 48t69.5 134l91 432h105l-95 -446q-19 -83 -59.5 -142.5t-100 -90.5t-133.5 -31z" />
    <glyph glyph-name="ij" unicode="&#x133;" horiz-adv-x="432" 
d="M5 0l108 509h98l-108 -509h-98zM185 591q-23 0 -38.5 16t-15.5 39q0 19 9.5 34.5t25 25t33.5 9.5q23 0 38.5 -15.5t15.5 -38.5q0 -19 -9.5 -34.5t-25 -25.5t-33.5 -10zM401 591q-23 0 -38.5 16t-15.5 39q0 19 9.5 34.5t25 25t33.5 9.5q23 0 38.5 -15.5t15.5 -38.5
q0 -19 -9.5 -34.5t-25 -25.5t-33.5 -10zM142 -210q-15 0 -33.5 2.5t-30.5 7.5l17 80q9 -3 20 -4.5t26 -1.5q27 0 43 14t22 44l123 577h98l-125 -588q-13 -64 -55 -97.5t-105 -33.5z" />
    <glyph glyph-name="Jcircumflex" unicode="&#x134;" horiz-adv-x="605" 
d="M255 -10q-98 0 -162 51t-81 144l95 34q25 -133 147 -133q72 0 123.5 48t69.5 134l91 432h105l-95 -446q-19 -83 -59.5 -142.5t-100 -90.5t-133.5 -31zM450 791l134 127h104l79 -127h-78l-61 77l-94 -77h-84z" />
    <glyph glyph-name="jcircumflex" unicode="&#x135;" horiz-adv-x="216" 
d="M-74 -210q-15 0 -33.5 2.5t-30.5 7.5l17 80q9 -3 20 -4.5t26 -1.5q27 0 43 14t22 44l123 577h98l-125 -588q-13 -64 -55 -97.5t-105 -33.5zM21 600l134 127h104l79 -127h-78l-61 77l-94 -77h-84z" />
    <glyph glyph-name="uni0136" unicode="&#x136;" horiz-adv-x="637" 
d="M16 0l149 700h103l-68 -314l395 314h138l-432 -340l288 -360h-133l-265 340l-72 -340h-103zM131 -273l85 190h97l-109 -190h-73z" />
    <glyph glyph-name="uni0137" unicode="&#x137;" horiz-adv-x="515" 
d="M5 0l149 700l102 22l-92 -434l281 221h127l-321 -250l221 -259h-120l-199 237l-50 -237h-98zM63 -273l85 190h97l-109 -190h-73z" />
    <glyph glyph-name="kgreenlandic" unicode="&#x138;" horiz-adv-x="515" 
d="M5 0l108 509h98l-47 -224l284 224h127l-324 -252l216 -257h-121l-194 234l-49 -234h-98z" />
    <glyph glyph-name="Lacute" unicode="&#x139;" horiz-adv-x="602" 
d="M16 0l149 700h103l-129 -606h394l-19 -94h-498zM175 794l117 122h120l-151 -122h-86z" />
    <glyph glyph-name="lacute" unicode="&#x13a;" horiz-adv-x="216" 
d="M5 0l149 700l102 22l-153 -722h-98zM161 794l117 122h120l-151 -122h-86z" />
    <glyph glyph-name="uni013B" unicode="&#x13b;" horiz-adv-x="602" 
d="M16 0l149 700h103l-129 -606h394l-19 -94h-498zM136 -273l85 190h97l-109 -190h-73z" />
    <glyph glyph-name="uni013C" unicode="&#x13c;" horiz-adv-x="216" 
d="M5 0l149 700l102 22l-153 -722h-98zM-95 -273l85 190h97l-109 -190h-73z" />
    <glyph glyph-name="Lcaron" unicode="&#x13d;" horiz-adv-x="602" 
d="M16 0l149 700h103l-129 -606h394l-19 -94h-498zM425 505l50 198l93 18l-76 -216h-67z" />
    <glyph glyph-name="lcaron" unicode="&#x13e;" horiz-adv-x="216" 
d="M5 0l149 700l102 22l-153 -722h-98zM302 518l50 198l93 18l-76 -216h-67z" />
    <glyph glyph-name="Lslash" unicode="&#x141;" horiz-adv-x="621" 
d="M34 0l47 221l-89 -56l20 96l90 56l81 383h103l-66 -313l219 136l-20 -95l-220 -137l-41 -197h394l-20 -94h-498z" />
    <glyph glyph-name="lslash" unicode="&#x142;" horiz-adv-x="256" 
d="M27 0l62 290l-82 -55l20 95l82 55l67 315l102 22l-55 -261l86 57l-20 -96l-86 -58l-78 -364h-98z" />
    <glyph glyph-name="Nacute" unicode="&#x143;" horiz-adv-x="721" 
d="M16 0l149 700h98l272 -530l112 530h98l-149 -700h-89l-279 545l-115 -545h-97zM414 794l117 122h120l-151 -122h-86z" />
    <glyph glyph-name="nacute" unicode="&#x144;" horiz-adv-x="557" 
d="M5 0l108 509h98l-10 -44q66 53 148 53q60 0 101.5 -27.5t58.5 -75.5t4 -109l-65 -306h-99l63 295q13 62 -15 99.5t-86 37.5q-37 0 -70 -15.5t-59 -45.5l-79 -371h-98zM291 603l117 122h120l-151 -122h-86z" />
    <glyph glyph-name="uni0145" unicode="&#x145;" horiz-adv-x="721" 
d="M16 0l149 700h98l272 -530l112 530h98l-149 -700h-89l-279 545l-115 -545h-97zM158 -273l85 190h97l-109 -190h-73z" />
    <glyph glyph-name="uni0146" unicode="&#x146;" horiz-adv-x="557" 
d="M5 0l108 509h98l-10 -44q66 53 148 53q60 0 101.5 -27.5t58.5 -75.5t4 -109l-65 -306h-99l63 295q13 62 -15 99.5t-86 37.5q-37 0 -70 -15.5t-59 -45.5l-79 -371h-98zM77 -273l85 190h97l-109 -190h-73z" />
    <glyph glyph-name="Ncaron" unicode="&#x147;" horiz-adv-x="721" 
d="M16 0l149 700h98l272 -530l112 530h98l-149 -700h-89l-279 545l-115 -545h-97zM423 792l-79 127h78l60 -77l93 77h84l-132 -127h-104z" />
    <glyph glyph-name="ncaron" unicode="&#x148;" horiz-adv-x="557" 
d="M5 0l108 509h98l-10 -44q66 53 148 53q60 0 101.5 -27.5t58.5 -75.5t4 -109l-65 -306h-99l63 295q13 62 -15 99.5t-86 37.5q-37 0 -70 -15.5t-59 -45.5l-79 -371h-98zM300 601l-79 127h78l60 -77l93 77h84l-132 -127h-104z" />
    <glyph glyph-name="Eng" unicode="&#x14a;" horiz-adv-x="721" 
d="M420 -209q-17 0 -35 3t-30 7l18 80q8 -3 19 -4.5t26 -1.5q28 0 44 14t22 44l17 79l-273 528l-115 -540h-97l149 700h99l271 -525l112 525h98l-166 -778q-13 -63 -54.5 -97t-104.5 -34z" />
    <glyph glyph-name="eng" unicode="&#x14b;" horiz-adv-x="556" 
d="M272 -210q-16 0 -34.5 2.5t-30.5 7.5l17 80q9 -3 20 -4.5t26 -1.5q27 0 43 14t22 44l77 364q13 61 -15 98.5t-86 37.5q-37 0 -70 -15.5t-59 -45.5l-79 -371h-98l108 509h98l-10 -44q66 53 148 53q61 0 102 -27t58.5 -74.5t3.5 -108.5l-83 -387q-13 -63 -54 -97t-104 -34z
" />
    <glyph glyph-name="Omacron" unicode="&#x14c;" horiz-adv-x="795" 
d="M391 -11q-70 0 -131 25t-106 70t-70 105.5t-25 130.5q0 80 30 150.5t82.5 124.5t122.5 85t149 31q70 0 131 -25t106 -70t70 -105t25 -131q0 -80 -30 -150.5t-83 -124.5t-122.5 -85t-148.5 -31zM398 86q57 0 106 22.5t86.5 62.5t58.5 92t21 111q0 68 -30.5 122.5t-83.5 86
t-120 31.5q-56 0 -105.5 -22.5t-87 -62.5t-58.5 -92t-21 -111q0 -68 30.5 -122t83.5 -86t120 -32zM320 814l15 67h291l-15 -67h-291z" />
    <glyph glyph-name="omacron" unicode="&#x14d;" horiz-adv-x="592" 
d="M278 -10q-70 0 -124.5 32t-86.5 87t-32 125q0 58 22 109.5t60.5 91t89 62t106.5 22.5q70 0 124.5 -31.5t86.5 -86.5t32 -125q0 -58 -21.5 -109.5t-60.5 -91.5t-89 -62.5t-107 -22.5zM282 78q37 0 68.5 15t56 42t38.5 62t14 74q0 46 -19.5 82.5t-53.5 57t-77 20.5
q-36 0 -68 -15t-56.5 -41.5t-38.5 -61.5t-14 -74q0 -46 19.5 -82.5t53.5 -57.5t77 -21zM193 623l15 67h291l-15 -67h-291z" />
    <glyph glyph-name="Obreve" unicode="&#x14e;" horiz-adv-x="795" 
d="M391 -11q-70 0 -131 25t-106 70t-70 105.5t-25 130.5q0 80 30 150.5t82.5 124.5t122.5 85t149 31q70 0 131 -25t106 -70t70 -105t25 -131q0 -80 -30 -150.5t-83 -124.5t-122.5 -85t-148.5 -31zM398 86q57 0 106 22.5t86.5 62.5t58.5 92t21 111q0 68 -30.5 122.5t-83.5 86
t-120 31.5q-56 0 -105.5 -22.5t-87 -62.5t-58.5 -92t-21 -111q0 -68 30.5 -122t83.5 -86t120 -32zM476 786q-65 0 -104 36.5t-39 98.5l63 12q2 -42 23 -64t59 -22q68 0 108 81l64 -20q-26 -59 -71.5 -90.5t-102.5 -31.5z" />
    <glyph glyph-name="obreve" unicode="&#x14f;" horiz-adv-x="592" 
d="M278 -10q-70 0 -124.5 32t-86.5 87t-32 125q0 58 22 109.5t60.5 91t89 62t106.5 22.5q70 0 124.5 -31.5t86.5 -86.5t32 -125q0 -58 -21.5 -109.5t-60.5 -91.5t-89 -62.5t-107 -22.5zM282 78q37 0 68.5 15t56 42t38.5 62t14 74q0 46 -19.5 82.5t-53.5 57t-77 20.5
q-36 0 -68 -15t-56.5 -41.5t-38.5 -61.5t-14 -74q0 -46 19.5 -82.5t53.5 -57.5t77 -21zM349 595q-65 0 -104 36.5t-39 98.5l63 12q2 -42 23 -64t59 -22q68 0 108 81l64 -20q-26 -59 -71.5 -90.5t-102.5 -31.5z" />
    <glyph glyph-name="Ohungarumlaut" unicode="&#x150;" horiz-adv-x="795" 
d="M391 -11q-70 0 -131 25t-106 70t-70 105.5t-25 130.5q0 80 30 150.5t82.5 124.5t122.5 85t149 31q70 0 131 -25t106 -70t70 -105t25 -131q0 -80 -30 -150.5t-83 -124.5t-122.5 -85t-148.5 -31zM398 86q57 0 106 22.5t86.5 62.5t58.5 92t21 111q0 68 -30.5 122.5t-83.5 86
t-120 31.5q-56 0 -105.5 -22.5t-87 -62.5t-58.5 -92t-21 -111q0 -68 30.5 -122t83.5 -86t120 -32zM445 916h106l-151 -119h-81zM624 916h107l-157 -119h-76z" />
    <glyph glyph-name="ohungarumlaut" unicode="&#x151;" horiz-adv-x="592" 
d="M278 -10q-70 0 -124.5 32t-86.5 87t-32 125q0 58 22 109.5t60.5 91t89 62t106.5 22.5q70 0 124.5 -31.5t86.5 -86.5t32 -125q0 -58 -21.5 -109.5t-60.5 -91.5t-89 -62.5t-107 -22.5zM282 78q37 0 68.5 15t56 42t38.5 62t14 74q0 46 -19.5 82.5t-53.5 57t-77 20.5
q-36 0 -68 -15t-56.5 -41.5t-38.5 -61.5t-14 -74q0 -46 19.5 -82.5t53.5 -57.5t77 -21zM317 725h106l-151 -119h-81zM496 725h107l-157 -119h-76z" />
    <glyph glyph-name="OE" unicode="&#x152;" horiz-adv-x="1078" 
d="M379 0q-69 0 -127 24t-101.5 66.5t-67.5 100.5t-24 126q0 77 30 147t83 123t122 83t147 30h695l-20 -92h-454q44 -37 69.5 -91.5t27.5 -118.5h187l-19 -90h-175q-13 -64 -48.5 -120.5t-87.5 -95.5h391l-20 -92h-608zM387 97q55 0 103 22t85 61t58 90t21 108
q0 66 -29 116.5t-78.5 79.5t-112.5 29q-55 0 -104 -22t-86 -61.5t-58 -90t-21 -106.5q0 -66 29 -117t79 -80t114 -29z" />
    <glyph glyph-name="oe" unicode="&#x153;" horiz-adv-x="987" 
d="M278 -10q-70 0 -124.5 32t-86.5 87.5t-32 124.5q0 58 22 109.5t60.5 91t89 62t106.5 22.5q68 0 122 -31.5t83 -84.5q36 51 92 82.5t120 31.5q65 0 115 -31.5t79 -85.5t29 -125q0 -10 -0.5 -22.5t-3.5 -29.5h-392q3 -43 24.5 -76.5t56.5 -52.5t78 -19q36 0 68.5 10.5
t57.5 29.5l54 -66q-44 -31 -89 -45t-97 -14q-47 0 -88 14.5t-72.5 40.5t-52.5 62q-38 -53 -95 -85t-124 -32zM564 298h295q-4 39 -22.5 69t-47.5 47.5t-66 17.5t-69 -17.5t-55.5 -47.5t-34.5 -69zM282 78q37 0 68.5 15t56 42t38.5 62t14 74q0 46 -19.5 82.5t-53.5 57
t-77 20.5q-36 0 -68 -15t-56.5 -41.5t-38.5 -61.5t-14 -74q0 -46 19.5 -82.5t53.5 -57.5t77 -21z" />
    <glyph glyph-name="Racute" unicode="&#x154;" horiz-adv-x="646" 
d="M16 0l149 700h291q63 0 109 -23t71 -64t25 -96q0 -56 -23.5 -102t-66 -77.5t-97.5 -42.5l101 -295h-109l-94 287h-192l-61 -287h-103zM198 375h209q44 0 78 17t53 47.5t19 68.5q0 46 -32 73t-86 27h-191zM370 794l117 122h120l-151 -122h-86z" />
    <glyph glyph-name="racute" unicode="&#x155;" horiz-adv-x="364" 
d="M3 0l109 509h97l-12 -58q29 33 65 51t77 18q36 0 58 -11l-19 -90q-10 6 -28.5 10t-35.5 4q-83 0 -139 -85l-73 -348h-99zM210 603l117 122h120l-151 -122h-86z" />
    <glyph glyph-name="uni0156" unicode="&#x156;" horiz-adv-x="646" 
d="M16 0l149 700h291q63 0 109 -23t71 -64t25 -96q0 -56 -23.5 -102t-66 -77.5t-97.5 -42.5l101 -295h-109l-94 287h-192l-61 -287h-103zM198 375h209q44 0 78 17t53 47.5t19 68.5q0 46 -32 73t-86 27h-191zM122 -273l85 190h97l-109 -190h-73z" />
    <glyph glyph-name="uni0157" unicode="&#x157;" horiz-adv-x="364" 
d="M3 0l109 509h97l-12 -58q29 33 65 51t77 18q36 0 58 -11l-19 -90q-10 6 -28.5 10t-35.5 4q-83 0 -139 -85l-73 -348h-99zM-96 -273l85 190h97l-109 -190h-73z" />
    <glyph glyph-name="Rcaron" unicode="&#x158;" horiz-adv-x="646" 
d="M16 0l149 700h291q63 0 109 -23t71 -64t25 -96q0 -56 -23.5 -102t-66 -77.5t-97.5 -42.5l101 -295h-109l-94 287h-192l-61 -287h-103zM198 375h209q44 0 78 17t53 47.5t19 68.5q0 46 -32 73t-86 27h-191zM379 792l-79 127h78l60 -77l93 77h84l-132 -127h-104z" />
    <glyph glyph-name="rcaron" unicode="&#x159;" horiz-adv-x="364" 
d="M3 0l109 509h97l-12 -58q29 33 65 51t77 18q36 0 58 -11l-19 -90q-10 6 -28.5 10t-35.5 4q-83 0 -139 -85l-73 -348h-99zM219 601l-79 127h78l60 -77l93 77h84l-132 -127h-104z" />
    <glyph glyph-name="Sacute" unicode="&#x15a;" horiz-adv-x="602" 
d="M298 -10q-92 0 -170 37.5t-134 109.5l73 69q49 -63 109 -95.5t129 -32.5q49 0 86 15.5t57.5 42.5t20.5 63q0 38 -28.5 62t-94.5 41l-110 28q-82 22 -122.5 65.5t-40.5 108.5q0 63 31 109t88.5 71t135.5 25q79 0 153.5 -30t132.5 -85l-66 -75q-52 50 -109.5 75.5
t-119.5 25.5q-67 0 -106.5 -28.5t-39.5 -76.5q0 -35 26 -58t83 -39l107 -26q94 -23 138.5 -66.5t44.5 -111.5q0 -67 -34 -117.5t-95.5 -78.5t-144.5 -28zM303 794l117 122h120l-151 -122h-86z" />
    <glyph glyph-name="sacute" unicode="&#x15b;" horiz-adv-x="458" 
d="M211 -10q-65 0 -126.5 24.5t-99.5 66.5l60 63q37 -37 79.5 -56.5t88.5 -19.5q49 0 81 22t32 55q0 24 -17 38.5t-54 22.5l-87 20q-65 14 -96.5 47t-31.5 86q0 48 24 83.5t67.5 55t101.5 19.5q59 0 113 -19.5t98 -59.5l-57 -63q-38 32 -79 48.5t-81 16.5q-45 0 -71.5 -19.5
t-26.5 -51.5q0 -25 16.5 -39t55.5 -22l88 -20q66 -15 98.5 -48t32.5 -84q0 -47 -27.5 -84.5t-74.5 -59.5t-107 -22zM202 603l117 122h120l-151 -122h-86z" />
    <glyph glyph-name="Scircumflex" unicode="&#x15c;" horiz-adv-x="602" 
d="M298 -10q-92 0 -170 37.5t-134 109.5l73 69q49 -63 109 -95.5t129 -32.5q49 0 86 15.5t57.5 42.5t20.5 63q0 38 -28.5 62t-94.5 41l-110 28q-82 22 -122.5 65.5t-40.5 108.5q0 63 31 109t88.5 71t135.5 25q79 0 153.5 -30t132.5 -85l-66 -75q-52 50 -109.5 75.5
t-119.5 25.5q-67 0 -106.5 -28.5t-39.5 -76.5q0 -35 26 -58t83 -39l107 -26q94 -23 138.5 -66.5t44.5 -111.5q0 -67 -34 -117.5t-95.5 -78.5t-144.5 -28zM203 791l134 127h104l79 -127h-78l-61 77l-94 -77h-84z" />
    <glyph glyph-name="scircumflex" unicode="&#x15d;" horiz-adv-x="458" 
d="M211 -10q-65 0 -126.5 24.5t-99.5 66.5l60 63q37 -37 79.5 -56.5t88.5 -19.5q49 0 81 22t32 55q0 24 -17 38.5t-54 22.5l-87 20q-65 14 -96.5 47t-31.5 86q0 48 24 83.5t67.5 55t101.5 19.5q59 0 113 -19.5t98 -59.5l-57 -63q-38 32 -79 48.5t-81 16.5q-45 0 -71.5 -19.5
t-26.5 -51.5q0 -25 16.5 -39t55.5 -22l88 -20q66 -15 98.5 -48t32.5 -84q0 -47 -27.5 -84.5t-74.5 -59.5t-107 -22zM102 600l134 127h104l79 -127h-78l-61 77l-94 -77h-84z" />
    <glyph glyph-name="Scedilla" unicode="&#x15e;" horiz-adv-x="602" 
d="M239 -231q-36 0 -65.5 12.5t-49.5 36.5l40 36q31 -34 77 -34q29 0 46.5 13t17.5 34q0 19 -14.5 29.5t-41.5 10.5h-33l43 85q-80 7 -147.5 44t-117.5 101l73 69q49 -63 109 -95.5t129 -32.5q49 0 86 15.5t57.5 42.5t20.5 63q0 38 -28.5 62t-94.5 41l-110 28
q-82 22 -122.5 65.5t-40.5 108.5q0 63 31 109t88.5 71t135.5 25q79 0 153.5 -30t132.5 -85l-66 -75q-52 50 -109.5 75.5t-119.5 25.5q-67 0 -106.5 -28.5t-39.5 -76.5q0 -35 26 -58t83 -39l107 -26q94 -23 138.5 -66.5t44.5 -111.5q0 -66 -32 -115.5t-91 -78t-139 -30.5
l-21 -42q37 -5 57 -24.5t20 -51.5q0 -29 -16.5 -52.5t-45.5 -37t-65 -13.5z" />
    <glyph glyph-name="scedilla" unicode="&#x15f;" horiz-adv-x="458" 
d="M154 -231q-36 0 -66 12.5t-50 36.5l40 36q32 -34 78 -34q28 0 46 13t18 34q0 19 -15 29.5t-41 10.5h-33l42 85q-56 6 -106 29.5t-82 59.5l60 63q37 -37 79.5 -56.5t88.5 -19.5q49 0 81 22t32 55q0 24 -17 38.5t-54 22.5l-87 20q-65 14 -96.5 47t-31.5 86q0 48 24 83.5
t67.5 55t101.5 19.5q59 0 113 -19.5t98 -59.5l-57 -63q-38 32 -79 48.5t-81 16.5q-45 0 -71.5 -19.5t-26.5 -51.5q0 -25 16.5 -39t55.5 -22l88 -20q66 -15 98.5 -48t32.5 -84q0 -45 -25 -82t-69.5 -59.5t-101.5 -24.5l-21 -42q37 -5 57.5 -24.5t20.5 -51.5q0 -29 -17 -52.5
t-45.5 -37t-64.5 -13.5z" />
    <glyph glyph-name="Scaron" unicode="&#x160;" horiz-adv-x="602" 
d="M298 -10q-92 0 -170 37.5t-134 109.5l73 69q49 -63 109 -95.5t129 -32.5q49 0 86 15.5t57.5 42.5t20.5 63q0 38 -28.5 62t-94.5 41l-110 28q-82 22 -122.5 65.5t-40.5 108.5q0 63 31 109t88.5 71t135.5 25q79 0 153.5 -30t132.5 -85l-66 -75q-52 50 -109.5 75.5
t-119.5 25.5q-67 0 -106.5 -28.5t-39.5 -76.5q0 -35 26 -58t83 -39l107 -26q94 -23 138.5 -66.5t44.5 -111.5q0 -67 -34 -117.5t-95.5 -78.5t-144.5 -28zM312 792l-79 127h78l60 -77l93 77h84l-132 -127h-104z" />
    <glyph glyph-name="scaron" unicode="&#x161;" horiz-adv-x="458" 
d="M211 -10q-65 0 -126.5 24.5t-99.5 66.5l60 63q37 -37 79.5 -56.5t88.5 -19.5q49 0 81 22t32 55q0 24 -17 38.5t-54 22.5l-87 20q-65 14 -96.5 47t-31.5 86q0 48 24 83.5t67.5 55t101.5 19.5q59 0 113 -19.5t98 -59.5l-57 -63q-38 32 -79 48.5t-81 16.5q-45 0 -71.5 -19.5
t-26.5 -51.5q0 -25 16.5 -39t55.5 -22l88 -20q66 -15 98.5 -48t32.5 -84q0 -47 -27.5 -84.5t-74.5 -59.5t-107 -22zM211 601l-79 127h78l60 -77l93 77h84l-132 -127h-104z" />
    <glyph glyph-name="uni0162" unicode="&#x162;" horiz-adv-x="619" 
d="M206 -231q-36 0 -66 12.5t-50 36.5l40 36q32 -34 78 -34q28 0 45.5 13t17.5 34q0 19 -14.5 29.5t-40.5 10.5h-34l47 93h-26l129 606h-241l21 94h585l-21 -94h-240l-129 -606h-25l-27 -52q37 -5 57 -24.5t20 -51.5q0 -29 -16.5 -52.5t-45.5 -37t-64 -13.5z" />
    <glyph glyph-name="uni0163" unicode="&#x163;" horiz-adv-x="382" 
d="M159 -231q-36 0 -65.5 12.5t-50.5 36.5l41 36q31 -34 77 -34q29 0 46.5 13t17.5 34q0 19 -15 29.5t-41 10.5h-33l44 90q-51 11 -73 46t-10 91l62 291h-106l18 84h105l28 130l104 24l-33 -154h145l-18 -84h-145l-59 -272q-8 -41 8 -58.5t63 -17.5q14 0 28 2t32 7l-18 -84
q-16 -4 -37.5 -7t-42.5 -3l-22 -44q36 -5 56.5 -24.5t20.5 -51.5q0 -29 -16.5 -52.5t-45.5 -37t-65 -13.5z" />
    <glyph glyph-name="Tcaron" unicode="&#x164;" horiz-adv-x="619" 
d="M203 0l129 606h-241l21 94h585l-21 -94h-240l-129 -606h-104zM373 792l-79 127h78l60 -77l93 77h84l-132 -127h-104z" />
    <glyph glyph-name="tcaron" unicode="&#x165;" horiz-adv-x="382" 
d="M229 -8q-77 0 -111.5 37t-20.5 105l62 291h-106l18 84h105l28 130l104 24l-33 -154h145l-18 -84h-145l-59 -272q-8 -41 8 -58.5t63 -17.5q14 0 28 2t32 7l-18 -84q-16 -4 -38.5 -7t-43.5 -3zM362 586l50 198l93 18l-76 -216h-67z" />
    <glyph glyph-name="Tbar" unicode="&#x166;" horiz-adv-x="619" 
d="M203 0l63 295h-143l18 87h144l47 224h-241l21 94h585l-21 -94h-240l-48 -224h143l-18 -87h-144l-62 -295h-104z" />
    <glyph glyph-name="tbar" unicode="&#x167;" horiz-adv-x="390" 
d="M229 -8q-77 0 -111.5 37t-20.5 105l24 115h-105l16 75h106l21 101h-106l18 84h105l28 130l104 24l-33 -154h145l-18 -84h-145l-22 -101h146l-16 -75h-146l-21 -96q-8 -41 8 -58.5t63 -17.5q14 0 28 2t32 7l-18 -84q-16 -4 -38.5 -7t-43.5 -3z" />
    <glyph glyph-name="Utilde" unicode="&#x168;" horiz-adv-x="698" 
d="M323 -10q-95 0 -159 41t-89.5 114t-4.5 169l82 386h104l-85 -395q-13 -64 2 -113.5t55.5 -77t100.5 -27.5q80 0 138 55t78 150l87 408h103l-89 -415q-19 -94 -64 -160t-110.5 -100.5t-148.5 -34.5zM347 791l-61 20q44 100 110 100q29 0 54 -14.5t47.5 -29t41.5 -14.5
q16 0 27 11.5t24 41.5l62 -19q-22 -52 -49.5 -77t-62.5 -25q-29 0 -54 14.5t-46.5 29t-43.5 14.5q-14 0 -25.5 -12t-23.5 -40z" />
    <glyph glyph-name="utilde" unicode="&#x169;" horiz-adv-x="556" 
d="M207 -9q-60 0 -101.5 28t-58 76t-4.5 109l65 305h98l-62 -295q-14 -61 14.5 -99t86.5 -38q38 0 71 16t58 46l79 370h98l-108 -509h-98l10 45q-67 -54 -148 -54zM229 600l-61 20q44 100 110 100q29 0 54 -14.5t47.5 -29t41.5 -14.5q16 0 27 11.5t24 41.5l62 -19
q-22 -52 -49.5 -77t-62.5 -25q-29 0 -54 14.5t-46.5 29t-43.5 14.5q-14 0 -25.5 -12t-23.5 -40z" />
    <glyph glyph-name="Umacron" unicode="&#x16a;" horiz-adv-x="698" 
d="M323 -10q-95 0 -159 41t-89.5 114t-4.5 169l82 386h104l-85 -395q-13 -64 2 -113.5t55.5 -77t100.5 -27.5q80 0 138 55t78 150l87 408h103l-89 -415q-19 -94 -64 -160t-110.5 -100.5t-148.5 -34.5zM312 814l15 67h291l-15 -67h-291z" />
    <glyph glyph-name="umacron" unicode="&#x16b;" horiz-adv-x="556" 
d="M207 -9q-60 0 -101.5 28t-58 76t-4.5 109l65 305h98l-62 -295q-14 -61 14.5 -99t86.5 -38q38 0 71 16t58 46l79 370h98l-108 -509h-98l10 45q-67 -54 -148 -54zM194 623l15 67h291l-15 -67h-291z" />
    <glyph glyph-name="Ubreve" unicode="&#x16c;" horiz-adv-x="698" 
d="M323 -10q-95 0 -159 41t-89.5 114t-4.5 169l82 386h104l-85 -395q-13 -64 2 -113.5t55.5 -77t100.5 -27.5q80 0 138 55t78 150l87 408h103l-89 -415q-19 -94 -64 -160t-110.5 -100.5t-148.5 -34.5zM468 786q-65 0 -104 36.5t-39 98.5l63 12q2 -42 23 -64t59 -22
q68 0 108 81l64 -20q-26 -59 -71.5 -90.5t-102.5 -31.5z" />
    <glyph glyph-name="ubreve" unicode="&#x16d;" horiz-adv-x="556" 
d="M207 -9q-60 0 -101.5 28t-58 76t-4.5 109l65 305h98l-62 -295q-14 -61 14.5 -99t86.5 -38q38 0 71 16t58 46l79 370h98l-108 -509h-98l10 45q-67 -54 -148 -54zM350 595q-65 0 -104 36.5t-39 98.5l63 12q2 -42 23 -64t59 -22q68 0 108 81l64 -20q-26 -59 -71.5 -90.5
t-102.5 -31.5z" />
    <glyph glyph-name="Uring" unicode="&#x16e;" horiz-adv-x="698" 
d="M323 -10q-95 0 -159 41t-89.5 114t-4.5 169l82 386h104l-85 -395q-13 -64 2 -113.5t55.5 -77t100.5 -27.5q80 0 138 55t78 150l87 408h103l-89 -415q-19 -94 -64 -160t-110.5 -100.5t-148.5 -34.5zM468 775q-46 0 -75.5 28.5t-29.5 72.5q0 34 17.5 63t45.5 47t61 18
q46 0 75.5 -28.5t29.5 -73.5q0 -34 -17 -62.5t-45.5 -46.5t-61.5 -18zM469 822q30 0 51.5 22.5t21.5 53.5q0 24 -16 41t-41 17q-29 0 -50.5 -22t-21.5 -54q0 -25 16 -41.5t40 -16.5z" />
    <glyph glyph-name="uring" unicode="&#x16f;" horiz-adv-x="556" 
d="M207 -9q-60 0 -101.5 28t-58 76t-4.5 109l65 305h98l-62 -295q-14 -61 14.5 -99t86.5 -38q38 0 71 16t58 46l79 370h98l-108 -509h-98l10 45q-67 -54 -148 -54zM350 584q-46 0 -75.5 28.5t-29.5 72.5q0 34 17.5 63t45.5 47t61 18q46 0 75.5 -28.5t29.5 -73.5
q0 -34 -17 -62.5t-45.5 -46.5t-61.5 -18zM351 631q30 0 51.5 22.5t21.5 53.5q0 24 -16 41t-41 17q-29 0 -50.5 -22t-21.5 -54q0 -25 16 -41.5t40 -16.5z" />
    <glyph glyph-name="Uhungarumlaut" unicode="&#x170;" horiz-adv-x="698" 
d="M323 -10q-95 0 -159 41t-89.5 114t-4.5 169l82 386h104l-85 -395q-13 -64 2 -113.5t55.5 -77t100.5 -27.5q80 0 138 55t78 150l87 408h103l-89 -415q-19 -94 -64 -160t-110.5 -100.5t-148.5 -34.5zM437 916h106l-151 -119h-81zM616 916h107l-157 -119h-76z" />
    <glyph glyph-name="uhungarumlaut" unicode="&#x171;" horiz-adv-x="556" 
d="M207 -9q-60 0 -101.5 28t-58 76t-4.5 109l65 305h98l-62 -295q-14 -61 14.5 -99t86.5 -38q38 0 71 16t58 46l79 370h98l-108 -509h-98l10 45q-67 -54 -148 -54zM319 725h106l-151 -119h-81zM498 725h107l-157 -119h-76z" />
    <glyph glyph-name="Uogonek" unicode="&#x172;" horiz-adv-x="698" 
d="M306 -222q-40 0 -64 20t-24 53q0 38 25.5 72t77.5 67q-96 1 -159 42t-87.5 114t-4.5 168l82 386h104l-85 -395q-13 -64 2 -113.5t55.5 -77t100.5 -27.5q80 0 138 55t78 150l87 408h103l-89 -415q-24 -116 -86 -189.5t-154 -96.5q-58 -30 -90 -60.5t-32 -64.5
q0 -18 13 -29t34 -11q23 0 43 11l6 -49q-17 -8 -36 -13t-38 -5z" />
    <glyph glyph-name="uogonek" unicode="&#x173;" horiz-adv-x="556" 
d="M342 -222q-40 0 -64 20t-24 53q0 41 30 78t90 71h-29l10 45q-67 -54 -148 -54q-60 0 -101.5 28t-58 76t-4.5 109l65 305h98l-62 -295q-14 -61 14.5 -99t86.5 -38q38 0 71 16t58 46l79 370h98l-108 -509q-63 -33 -93 -63.5t-30 -62.5q0 -18 13 -29t33 -11q24 0 44 11
l5 -49q-17 -8 -35.5 -13t-37.5 -5z" />
    <glyph glyph-name="Wcircumflex" unicode="&#x174;" horiz-adv-x="891" 
d="M126 0l-1 700h102l-5 -532l267 532h98l42 -532l220 532h106l-298 -700h-108l-41 549l-275 -549h-107zM396 791l134 127h104l79 -127h-78l-61 77l-94 -77h-84z" />
    <glyph glyph-name="wcircumflex" unicode="&#x175;" horiz-adv-x="717" 
d="M98 0l-32 509h93l18 -373l192 373h85l34 -373l176 373h95l-247 -509h-95l-33 373l-192 -373h-94zM270 600l134 127h104l79 -127h-78l-61 77l-94 -77h-84z" />
    <glyph glyph-name="Ycircumflex" unicode="&#x176;" horiz-adv-x="654" 
d="M220 0l59 279l-186 421h110l144 -328l279 328h123l-366 -425l-59 -275h-104zM274 791l134 127h104l79 -127h-78l-61 77l-94 -77h-84z" />
    <glyph glyph-name="ycircumflex" unicode="&#x177;" horiz-adv-x="528" 
d="M6 -214q-18 0 -34 2.5t-31 6.5l18 87q9 -3 20.5 -4.5t24.5 -1.5q34 0 61 17t50 53l35 55l-93 508h104l67 -394l243 394h109l-370 -587q-45 -72 -93 -104t-111 -32zM168 600l134 127h104l79 -127h-78l-61 77l-94 -77h-84z" />
    <glyph glyph-name="Ydieresis" unicode="&#x178;" horiz-adv-x="654" 
d="M220 0l59 279l-186 421h110l144 -328l279 328h123l-366 -425l-59 -275h-104zM344 793q-22 0 -36.5 15t-14.5 37q0 27 19.5 46.5t45.5 19.5q21 0 36 -15.5t15 -37.5q0 -25 -19.5 -45t-45.5 -20zM533 793q-21 0 -36 15t-15 37q0 26 20 46t46 20q21 0 35.5 -15.5t14.5 -37.5
q0 -25 -19.5 -45t-45.5 -20z" />
    <glyph glyph-name="Zacute" unicode="&#x179;" horiz-adv-x="597" 
d="M-32 0l16 73l517 535h-400l19 92h544l-17 -73l-518 -535h413l-21 -92h-553zM331 794l117 122h120l-151 -122h-86z" />
    <glyph glyph-name="zacute" unicode="&#x17a;" horiz-adv-x="468" 
d="M-25 0l15 75l345 348h-268l18 86h401l-16 -73l-347 -349h277l-18 -87h-407zM235 603l117 122h120l-151 -122h-86z" />
    <glyph glyph-name="Zdotaccent" unicode="&#x17b;" horiz-adv-x="597" 
d="M-32 0l16 73l517 535h-400l19 92h544l-17 -73l-518 -535h413l-21 -92h-553zM394 793q-23 0 -37.5 15t-14.5 37q0 27 19.5 46.5t46.5 19.5q21 0 35.5 -15.5t14.5 -37.5q0 -25 -19.5 -45t-44.5 -20z" />
    <glyph glyph-name="zdotaccent" unicode="&#x17c;" horiz-adv-x="468" 
d="M-25 0l15 75l345 348h-268l18 86h401l-16 -73l-347 -349h277l-18 -87h-407zM298 602q-23 0 -37.5 15t-14.5 37q0 27 19.5 46.5t46.5 19.5q21 0 35.5 -15.5t14.5 -37.5q0 -25 -19.5 -45t-44.5 -20z" />
    <glyph glyph-name="Zcaron" unicode="&#x17d;" horiz-adv-x="597" 
d="M-32 0l16 73l517 535h-400l19 92h544l-17 -73l-518 -535h413l-21 -92h-553zM340 792l-79 127h78l60 -77l93 77h84l-132 -127h-104z" />
    <glyph glyph-name="zcaron" unicode="&#x17e;" horiz-adv-x="468" 
d="M-25 0l15 75l345 348h-268l18 86h401l-16 -73l-347 -349h277l-18 -87h-407zM244 601l-79 127h78l60 -77l93 77h84l-132 -127h-104z" />
    <glyph glyph-name="uni0218" unicode="&#x218;" horiz-adv-x="602" 
d="M298 -10q-92 0 -170 37.5t-134 109.5l73 69q49 -63 109 -95.5t129 -32.5q49 0 86 15.5t57.5 42.5t20.5 63q0 38 -28.5 62t-94.5 41l-110 28q-82 22 -122.5 65.5t-40.5 108.5q0 63 31 109t88.5 71t135.5 25q79 0 153.5 -30t132.5 -85l-66 -75q-52 50 -109.5 75.5
t-119.5 25.5q-67 0 -106.5 -28.5t-39.5 -76.5q0 -35 26 -58t83 -39l107 -26q94 -23 138.5 -66.5t44.5 -111.5q0 -67 -34 -117.5t-95.5 -78.5t-144.5 -28zM141 -273l85 190h97l-109 -190h-73z" />
    <glyph glyph-name="uni0219" unicode="&#x219;" horiz-adv-x="458" 
d="M211 -10q-65 0 -126.5 24.5t-99.5 66.5l60 63q37 -37 79.5 -56.5t88.5 -19.5q49 0 81 22t32 55q0 24 -17 38.5t-54 22.5l-87 20q-65 14 -96.5 47t-31.5 86q0 48 24 83.5t67.5 55t101.5 19.5q59 0 113 -19.5t98 -59.5l-57 -63q-38 32 -79 48.5t-81 16.5q-45 0 -71.5 -19.5
t-26.5 -51.5q0 -25 16.5 -39t55.5 -22l88 -20q66 -15 98.5 -48t32.5 -84q0 -47 -27.5 -84.5t-74.5 -59.5t-107 -22zM55 -273l85 190h97l-109 -190h-73z" />
    <glyph glyph-name="uni021A" unicode="&#x21a;" horiz-adv-x="619" 
d="M203 0l129 606h-241l21 94h585l-21 -94h-240l-129 -606h-104zM107 -273l85 190h97l-109 -190h-73z" />
    <glyph glyph-name="uni021B" unicode="&#x21b;" horiz-adv-x="382" 
d="M229 -8q-77 0 -111.5 37t-20.5 105l62 291h-106l18 84h105l28 130l104 24l-33 -154h145l-18 -84h-145l-59 -272q-8 -41 8 -58.5t63 -17.5q14 0 28 2t32 7l-18 -84q-16 -4 -38.5 -7t-43.5 -3zM47 -273l85 190h97l-109 -190h-73z" />
    <glyph glyph-name="uni0237" unicode="&#x237;" horiz-adv-x="216" 
d="M-74 -210q-15 0 -33.5 2.5t-30.5 7.5l17 80q9 -3 20 -4.5t26 -1.5q27 0 43 14t22 44l123 577h98l-125 -588q-13 -64 -55 -97.5t-105 -33.5z" />
    <glyph glyph-name="uni02BB" unicode="&#x2bb;" horiz-adv-x="250" 
d="M309 728l-111 -233h-105l139 233h77z" />
    <glyph glyph-name="uni02BC" unicode="&#x2bc;" horiz-adv-x="250" 
d="M105 495l110 233h105l-139 -233h-76z" />
    <glyph glyph-name="circumflex" unicode="&#x2c6;" 
d="M216 600l134 127h104l79 -127h-78l-61 77l-94 -77h-84z" />
    <glyph glyph-name="caron" unicode="&#x2c7;" 
d="M325 601l-79 127h78l60 -77l93 77h84l-132 -127h-104z" />
    <glyph glyph-name="breve" unicode="&#x2d8;" 
d="M385 595q-65 0 -104 36.5t-39 98.5l63 12q2 -42 23 -64t59 -22q68 0 108 81l64 -20q-26 -59 -71.5 -90.5t-102.5 -31.5z" />
    <glyph glyph-name="dotaccent" unicode="&#x2d9;" 
d="M379 602q-23 0 -37.5 15t-14.5 37q0 27 19.5 46.5t46.5 19.5q21 0 35.5 -15.5t14.5 -37.5q0 -25 -19.5 -45t-44.5 -20z" />
    <glyph glyph-name="ring" unicode="&#x2da;" 
d="M384 584q-46 0 -75.5 28.5t-29.5 72.5q0 34 17.5 63t45.5 47t61 18q46 0 75.5 -28.5t29.5 -73.5q0 -34 -17 -62.5t-45.5 -46.5t-61.5 -18zM385 631q30 0 51.5 22.5t21.5 53.5q0 24 -16 41t-41 17q-29 0 -50.5 -22t-21.5 -54q0 -25 16 -41.5t40 -16.5z" />
    <glyph glyph-name="ogonek" unicode="&#x2db;" 
d="M198 -222q-40 0 -64 20t-24 53q0 46 39 88t116 80l33 -19q-62 -33 -92 -63.5t-30 -62.5q0 -18 12.5 -29t33.5 -11q23 0 44 11l5 -49q-17 -8 -36 -13t-37 -5z" />
    <glyph glyph-name="tilde" unicode="&#x2dc;" 
d="M264 600l-61 20q44 100 110 100q29 0 54 -14.5t47.5 -29t41.5 -14.5q16 0 27 11.5t24 41.5l62 -19q-22 -52 -49.5 -77t-62.5 -25q-29 0 -54 14.5t-46.5 29t-43.5 14.5q-14 0 -25.5 -12t-23.5 -40z" />
    <glyph glyph-name="hungarumlaut" unicode="&#x2dd;" 
d="M353 725h106l-151 -119h-81zM532 725h107l-157 -119h-76z" />
    <glyph glyph-name="gravecomb" unicode="&#x300;" horiz-adv-x="0" 
d="M344 603l-125 122h118l89 -122h-82z" />
    <glyph glyph-name="acutecomb" unicode="&#x301;" horiz-adv-x="0" 
d="M316 603l117 122h120l-151 -122h-86z" />
    <glyph glyph-name="uni0302" unicode="&#x302;" horiz-adv-x="0" 
d="M216 600l134 127h104l79 -127h-78l-61 77l-94 -77h-84z" />
    <glyph glyph-name="tildecomb" unicode="&#x303;" horiz-adv-x="0" 
d="M264 600l-61 20q44 100 110 100q29 0 54 -14.5t47.5 -29t41.5 -14.5q16 0 27 11.5t24 41.5l62 -19q-22 -52 -49.5 -77t-62.5 -25q-29 0 -54 14.5t-46.5 29t-43.5 14.5q-14 0 -25.5 -12t-23.5 -40z" />
    <glyph glyph-name="uni0304" unicode="&#x304;" horiz-adv-x="0" 
d="M229 623l15 67h291l-15 -67h-291z" />
    <glyph glyph-name="uni0306" unicode="&#x306;" horiz-adv-x="0" 
d="M385 595q-65 0 -104 36.5t-39 98.5l63 12q2 -42 23 -64t59 -22q68 0 108 81l64 -20q-26 -59 -71.5 -90.5t-102.5 -31.5z" />
    <glyph glyph-name="uni0307" unicode="&#x307;" horiz-adv-x="0" 
d="M379 602q-23 0 -37.5 15t-14.5 37q0 27 19.5 46.5t46.5 19.5q21 0 35.5 -15.5t14.5 -37.5q0 -25 -19.5 -45t-44.5 -20z" />
    <glyph glyph-name="uni0308" unicode="&#x308;" horiz-adv-x="0" 
d="M285 602q-22 0 -36.5 15t-14.5 37q0 27 19.5 46.5t45.5 19.5q21 0 36 -15.5t15 -37.5q0 -25 -19.5 -45t-45.5 -20zM474 602q-21 0 -36 15t-15 37q0 26 20 46t46 20q21 0 35.5 -15.5t14.5 -37.5q0 -25 -19.5 -45t-45.5 -20z" />
    <glyph glyph-name="uni030A" unicode="&#x30a;" horiz-adv-x="0" 
d="M384 584q-46 0 -75.5 28.5t-29.5 72.5q0 34 17.5 63t45.5 47t61 18q46 0 75.5 -28.5t29.5 -73.5q0 -34 -17 -62.5t-45.5 -46.5t-61.5 -18zM385 631q30 0 51.5 22.5t21.5 53.5q0 24 -16 41t-41 17q-29 0 -50.5 -22t-21.5 -54q0 -25 16 -41.5t40 -16.5z" />
    <glyph glyph-name="uni030B" unicode="&#x30b;" horiz-adv-x="0" 
d="M353 725h106l-151 -119h-81zM532 725h107l-157 -119h-76z" />
    <glyph glyph-name="uni030C" unicode="&#x30c;" horiz-adv-x="0" 
d="M325 601l-79 127h78l60 -77l93 77h84l-132 -127h-104z" />
    <glyph glyph-name="uni0326" unicode="&#x326;" horiz-adv-x="0" 
d="M102 -273l85 190h97l-109 -190h-73z" />
    <glyph glyph-name="uni0327" unicode="&#x327;" horiz-adv-x="0" 
d="M200 -231q-36 0 -65.5 12.5t-49.5 36.5l40 36q31 -34 77 -34q29 0 46.5 13t17.5 34q0 19 -14.5 29.5t-41.5 10.5h-33l46 93h53l-26 -52q37 -5 57 -24.5t20 -51.5q0 -29 -16.5 -52.5t-45.5 -37t-65 -13.5z" />
    <glyph glyph-name="uni0328" unicode="&#x328;" horiz-adv-x="0" 
d="M198 -222q-40 0 -64 20t-24 53q0 46 39 88t116 80l33 -19q-62 -33 -92 -63.5t-30 -62.5q0 -18 12.5 -29t33.5 -11q23 0 44 11l5 -49q-17 -8 -36 -13t-37 -5z" />
    <glyph glyph-name="Wgrave" unicode="&#x1e80;" horiz-adv-x="891" 
d="M126 0l-1 700h102l-5 -532l267 532h98l42 -532l220 532h106l-298 -700h-108l-41 549l-275 -549h-107zM525 794l-125 122h118l89 -122h-82z" />
    <glyph glyph-name="wgrave" unicode="&#x1e81;" horiz-adv-x="717" 
d="M98 0l-32 509h93l18 -373l192 373h85l34 -373l176 373h95l-247 -509h-95l-33 373l-192 -373h-94zM399 603l-125 122h118l89 -122h-82z" />
    <glyph glyph-name="Wacute" unicode="&#x1e82;" horiz-adv-x="891" 
d="M126 0l-1 700h102l-5 -532l267 532h98l42 -532l220 532h106l-298 -700h-108l-41 549l-275 -549h-107zM497 794l117 122h120l-151 -122h-86z" />
    <glyph glyph-name="wacute" unicode="&#x1e83;" horiz-adv-x="717" 
d="M98 0l-32 509h93l18 -373l192 373h85l34 -373l176 373h95l-247 -509h-95l-33 373l-192 -373h-94zM371 603l117 122h120l-151 -122h-86z" />
    <glyph glyph-name="Wdieresis" unicode="&#x1e84;" horiz-adv-x="891" 
d="M126 0l-1 700h102l-5 -532l267 532h98l42 -532l220 532h106l-298 -700h-108l-41 549l-275 -549h-107zM466 793q-22 0 -36.5 15t-14.5 37q0 27 19.5 46.5t45.5 19.5q21 0 36 -15.5t15 -37.5q0 -25 -19.5 -45t-45.5 -20zM655 793q-21 0 -36 15t-15 37q0 26 20 46t46 20
q21 0 35.5 -15.5t14.5 -37.5q0 -25 -19.5 -45t-45.5 -20z" />
    <glyph glyph-name="wdieresis" unicode="&#x1e85;" horiz-adv-x="717" 
d="M98 0l-32 509h93l18 -373l192 373h85l34 -373l176 373h95l-247 -509h-95l-33 373l-192 -373h-94zM340 602q-22 0 -36.5 15t-14.5 37q0 27 19.5 46.5t45.5 19.5q21 0 36 -15.5t15 -37.5q0 -25 -19.5 -45t-45.5 -20zM529 602q-21 0 -36 15t-15 37q0 26 20 46t46 20
q21 0 35.5 -15.5t14.5 -37.5q0 -25 -19.5 -45t-45.5 -20z" />
    <glyph glyph-name="uni1E9E" unicode="&#x1e9e;" horiz-adv-x="644" 
d="M356 -11q-48 0 -92 16t-75 43l66 90q27 -26 54.5 -39t56.5 -13q27 0 53 11t44 34.5t18 59.5q0 23 -15 40.5t-51 38.5q-46 28 -64.5 50.5t-18.5 46.5q0 32 20 60t46 55l117 123h-265l-129 -605h-105l149 700h496l-20 -92l-152 -153q-15 -16 -25.5 -28t-15.5 -21t-5 -17
q0 -7 5.5 -14t21 -17t44.5 -27q40 -22 59 -52.5t19 -68.5q0 -50 -21 -91t-55 -69.5t-76 -44.5t-84 -16z" />
    <glyph glyph-name="Ygrave" unicode="&#x1ef2;" horiz-adv-x="654" 
d="M220 0l59 279l-186 421h110l144 -328l279 328h123l-366 -425l-59 -275h-104zM403 794l-125 122h118l89 -122h-82z" />
    <glyph glyph-name="ygrave" unicode="&#x1ef3;" horiz-adv-x="528" 
d="M6 -214q-18 0 -34 2.5t-31 6.5l18 87q9 -3 20.5 -4.5t24.5 -1.5q34 0 61 17t50 53l35 55l-93 508h104l67 -394l243 394h109l-370 -587q-45 -72 -93 -104t-111 -32zM296 603l-125 122h118l89 -122h-82z" />
    <glyph glyph-name="uni2002" unicode="&#x2002;" horiz-adv-x="500" 
 />
    <glyph glyph-name="uni2003" unicode="&#x2003;" horiz-adv-x="1000" 
 />
    <glyph glyph-name="uni2009" unicode="&#x2009;" horiz-adv-x="175" 
 />
    <glyph glyph-name="uni200A" unicode="&#x200a;" horiz-adv-x="100" 
 />
    <glyph glyph-name="uni200B" unicode="&#x200b;" horiz-adv-x="0" 
 />
    <glyph glyph-name="endash" unicode="&#x2013;" horiz-adv-x="541" 
d="M59 326h452l-18 -87h-452z" />
    <glyph glyph-name="emdash" unicode="&#x2014;" horiz-adv-x="688" 
d="M59 326h599l-18 -87h-599z" />
    <glyph glyph-name="uni2015" unicode="&#x2015;" horiz-adv-x="933" 
d="M59 326h844l-18 -87h-844z" />
    <glyph glyph-name="quoteleft" unicode="&#x2018;" horiz-adv-x="250" 
d="M309 728l-111 -233h-105l139 233h77z" />
    <glyph glyph-name="quoteright" unicode="&#x2019;" horiz-adv-x="250" 
d="M105 495l110 233h105l-139 -233h-76z" />
    <glyph glyph-name="quotesinglbase" unicode="&#x201a;" horiz-adv-x="250" 
d="M-56 -143l110 233h105l-139 -233h-76z" />
    <glyph glyph-name="quotedblleft" unicode="&#x201c;" horiz-adv-x="409" 
d="M308 728l-110 -233h-105l139 233h76zM468 728l-111 -233h-105l139 233h77z" />
    <glyph glyph-name="quotedblright" unicode="&#x201d;" horiz-adv-x="409" 
d="M265 495l110 233h105l-139 -233h-76zM105 495l110 233h105l-139 -233h-76z" />
    <glyph glyph-name="quotedblbase" unicode="&#x201e;" horiz-adv-x="409" 
d="M103 -143l110 233h105l-139 -233h-76zM-56 -143l110 233h105l-139 -233h-76z" />
    <glyph glyph-name="dagger" unicode="&#x2020;" horiz-adv-x="427" 
d="M118 0l92 430h-122l17 79h122l40 191h83l-41 -191h122l-17 -79h-122l-91 -430h-83z" />
    <glyph glyph-name="daggerdbl" unicode="&#x2021;" horiz-adv-x="427" 
d="M118 0l41 191h-122l17 79h122l34 160h-122l17 79h122l40 191h83l-41 -191h122l-17 -79h-122l-34 -160h122l-17 -79h-122l-40 -191h-83z" />
    <glyph glyph-name="bullet" unicode="&#x2022;" horiz-adv-x="333" 
d="M174 238q-40 0 -67.5 27t-27.5 66q0 32 16.5 59.5t43.5 44t59 16.5q40 0 67 -26.5t27 -66.5q0 -32 -16.5 -59.5t-43.5 -44t-58 -16.5z" />
    <glyph glyph-name="ellipsis" unicode="&#x2026;" horiz-adv-x="672" 
d="M76 -8q-24 0 -40 16.5t-16 39.5q0 19 10 35.5t26 26t35 9.5q24 0 39.5 -15.5t15.5 -40.5q0 -18 -10 -34t-25.5 -26.5t-34.5 -10.5zM287 -8q-24 0 -40 16.5t-16 39.5q0 19 10 35.5t26 26t35 9.5q24 0 39.5 -15.5t15.5 -40.5q0 -18 -10 -34t-25.5 -26.5t-34.5 -10.5z
M498 -8q-24 0 -40 16.5t-16 39.5q0 19 10 35.5t26 26t35 9.5q24 0 39.5 -15.5t15.5 -40.5q0 -18 -10 -34t-25.5 -26.5t-34.5 -10.5z" />
    <glyph glyph-name="perthousand" unicode="&#x2030;" horiz-adv-x="1124" 
d="M209 345q-60 0 -95.5 38t-35.5 101q0 61 24.5 111t65 80t88.5 30q61 0 96 -37.5t35 -101.5q0 -61 -24 -111t-64.5 -80t-89.5 -30zM215 402q30 0 55 22t39.5 59t14.5 80q0 40 -20 63t-54 23q-29 0 -54 -22t-39.5 -59t-14.5 -80q0 -40 19.5 -63t53.5 -23zM102 0l535 700h76
l-537 -700h-74zM561 -5q-60 0 -95.5 38t-35.5 101q0 61 24.5 111t65 80t88.5 30q61 0 96 -37.5t35 -101.5q0 -60 -24 -110.5t-64.5 -80.5t-89.5 -30zM567 52q30 0 55 22t39.5 59t14.5 80q0 40 -20 63t-54 23q-29 0 -54 -22t-39.5 -59t-14.5 -80q0 -40 19.5 -63t53.5 -23z
M907 -5q-60 0 -95.5 38t-35.5 101q0 61 24.5 111t65 80t88.5 30q61 0 96 -37.5t35 -101.5q0 -60 -24 -110.5t-64.5 -80.5t-89.5 -30zM913 52q30 0 55 22t39.5 59t14.5 80q0 40 -20 63t-54 23q-29 0 -54 -22t-39.5 -59t-14.5 -80q0 -40 19.5 -63t53.5 -23z" />
    <glyph glyph-name="minute" unicode="&#x2032;" horiz-adv-x="250" 
d="M105 495l110 233h105l-139 -233h-76z" />
    <glyph glyph-name="second" unicode="&#x2033;" horiz-adv-x="409" 
d="M265 495l110 233h105l-139 -233h-76zM105 495l110 233h105l-139 -233h-76z" />
    <glyph glyph-name="guilsinglleft" unicode="&#x2039;" horiz-adv-x="398" 
d="M417 509l-284 -256l173 -253h-102l-180 255l288 254h105z" />
    <glyph glyph-name="guilsinglright" unicode="&#x203a;" horiz-adv-x="407" 
d="M-11 0l285 257l-173 252h102l179 -254l-288 -255h-105z" />
    <glyph glyph-name="fraction" unicode="&#x2044;" horiz-adv-x="566" 
d="M-10 0l535 700h76l-537 -700h-74z" />
    <glyph glyph-name="uni2070" unicode="&#x2070;" horiz-adv-x="351" 
d="M209 345q-60 0 -95.5 38t-35.5 101q0 61 24.5 111t65 80t88.5 30q61 0 96 -37.5t35 -101.5q0 -61 -24 -111t-64.5 -80t-89.5 -30zM215 402q30 0 55 22t39.5 59t14.5 80q0 40 -20 63t-54 23q-29 0 -54 -22t-39.5 -59t-14.5 -80q0 -40 19.5 -63t53.5 -23z" />
    <glyph glyph-name="uni2074" unicode="&#x2074;" horiz-adv-x="335" 
d="M234 350l18 83h-194l12 53l229 214h74l-45 -212h43l-13 -55h-41l-18 -83h-65zM144 488h120l30 139z" />
    <glyph glyph-name="uni2075" unicode="&#x2075;" horiz-adv-x="306" 
d="M185 346q-41 0 -75.5 14.5t-56.5 42.5l45 41q20 -23 41.5 -33t48.5 -10q32 0 54 18.5t22 45.5q0 25 -19.5 39.5t-53.5 14.5q-14 0 -28.5 -2.5t-27.5 -6.5l-39 16l43 174h222l-12 -56h-167l-21 -80q13 4 26 5t25 1q53 0 85.5 -26.5t32.5 -70.5q0 -35 -19 -64t-52 -46
t-74 -17z" />
    <glyph glyph-name="uni2076" unicode="&#x2076;" horiz-adv-x="327" 
d="M208 345q-59 0 -94.5 38t-35.5 101q0 61 27 110.5t72 79.5t99 30q30 0 57 -10t47 -30l-44 -43q-29 26 -69 26q-43 0 -75.5 -33t-44.5 -83q20 17 45 26t50 9q46 0 75.5 -26.5t29.5 -67.5q0 -35 -18.5 -63.5t-50.5 -46t-70 -17.5zM213 401q29 0 50 18.5t21 43.5
q0 24 -16.5 38.5t-43.5 14.5q-43 0 -81 -33q0 -40 19 -61t51 -21z" />
    <glyph glyph-name="uni2077" unicode="&#x2077;" horiz-adv-x="302" 
d="M75 350l222 293h-197l11 57h274l-10 -49l-220 -301h-80z" />
    <glyph glyph-name="uni2078" unicode="&#x2078;" horiz-adv-x="325" 
d="M195 345q-57 0 -93 26t-36 67q0 33 22.5 60t57.5 37q-35 23 -35 63q0 30 18 54t49.5 38.5t67.5 14.5q51 0 83.5 -25t32.5 -64q0 -30 -18.5 -54t-48.5 -37q21 -10 33 -28.5t12 -40.5q0 -31 -19.5 -56.5t-52 -40t-73.5 -14.5zM232 554q26 0 46 16t20 38q0 19 -16.5 31.5
t-40.5 12.5q-28 0 -47.5 -15.5t-19.5 -38.5q0 -19 16.5 -31.5t41.5 -12.5zM200 399q32 0 54 16.5t22 39.5t-19 36.5t-49 13.5q-32 0 -54.5 -16.5t-22.5 -40.5q0 -22 19.5 -35.5t49.5 -13.5z" />
    <glyph glyph-name="uni2079" unicode="&#x2079;" horiz-adv-x="327" 
d="M232 704q59 0 94.5 -38t35.5 -101q0 -61 -27 -110.5t-72 -79.5t-99 -30q-30 0 -56.5 10.5t-46.5 29.5l44 43q28 -26 69 -26q42 0 75 33t44 83q-20 -17 -45 -26t-50 -9q-46 0 -75.5 26.5t-29.5 67.5q0 35 19 63.5t50.5 46t69.5 17.5zM227 648q-29 0 -50 -18.5t-21 -43.5
q0 -24 17 -38.5t44 -14.5q42 0 81 33q0 40 -19.5 61t-51.5 21z" />
    <glyph glyph-name="uni2080" unicode="&#x2080;" horiz-adv-x="351" 
d="M135 -5q-60 0 -95.5 38t-35.5 101q0 61 24.5 111t65 80t88.5 30q61 0 96 -37.5t35 -101.5q0 -60 -24 -110.5t-64.5 -80.5t-89.5 -30zM141 52q30 0 55 22t39.5 59t14.5 80q0 40 -20 63t-54 23q-29 0 -54 -22t-39.5 -59t-14.5 -80q0 -40 19.5 -63t53.5 -23z" />
    <glyph glyph-name="uni2081" unicode="&#x2081;" horiz-adv-x="174" 
d="M31 0l60 283l-73 -27l13 56l98 38h40l-75 -350h-63z" />
    <glyph glyph-name="uni2082" unicode="&#x2082;" horiz-adv-x="292" 
d="M-28 0l10 46l169 130q28 20 40 38t12 37q0 21 -16.5 34.5t-43.5 13.5q-21 0 -42.5 -9t-49.5 -30l-27 47q32 24 65 35.5t66 11.5q50 0 82 -25.5t32 -66.5q0 -33 -18.5 -61.5t-59.5 -59.5l-111 -86h150l-11 -55h-247z" />
    <glyph glyph-name="uni2083" unicode="&#x2083;" horiz-adv-x="313" 
d="M113 -5q-46 0 -81 16.5t-56 46.5l50 39q16 -24 38 -34.5t53 -10.5t52 14.5t21 36.5q0 20 -15.5 32t-41.5 12h-32l11 53h26q31 0 52.5 15t21.5 37q0 20 -17 32.5t-42 12.5q-46 0 -89 -35l-34 44q29 24 63 36.5t69 12.5q51 0 83.5 -26t32.5 -67q0 -30 -19.5 -54t-50.5 -37
q22 -10 34 -27t12 -39q0 -31 -18.5 -56t-50.5 -39.5t-72 -14.5z" />
    <glyph glyph-name="uni2084" unicode="&#x2084;" horiz-adv-x="335" 
d="M160 0l18 83h-194l12 53l229 214h74l-45 -212h43l-13 -55h-41l-18 -83h-65zM70 138h120l30 139z" />
    <glyph glyph-name="uni2085" unicode="&#x2085;" horiz-adv-x="306" 
d="M111 -4q-41 0 -75.5 14.5t-56.5 42.5l45 41q20 -23 41.5 -33t48.5 -10q32 0 54 18.5t22 45.5q0 25 -19.5 39.5t-53.5 14.5q-14 0 -28.5 -2.5t-27.5 -6.5l-39 16l43 174h222l-12 -56h-167l-21 -80q13 4 26 5t25 1q53 0 85.5 -26.5t32.5 -70.5q0 -35 -19 -64t-52 -46
t-74 -17z" />
    <glyph glyph-name="uni2086" unicode="&#x2086;" horiz-adv-x="327" 
d="M134 -5q-59 0 -94.5 38t-35.5 101q0 61 27 110.5t72 79.5t99 30q30 0 57 -10t47 -30l-44 -43q-29 26 -69 26q-43 0 -75.5 -33t-44.5 -83q20 17 45 26t50 9q46 0 75.5 -26.5t29.5 -67.5q0 -35 -18.5 -63.5t-50.5 -46t-70 -17.5zM139 51q29 0 50 18.5t21 43.5
q0 24 -16.5 38.5t-43.5 14.5q-43 0 -81 -33q0 -40 19 -61t51 -21z" />
    <glyph glyph-name="uni2087" unicode="&#x2087;" horiz-adv-x="302" 
d="M1 0l222 293h-197l11 57h274l-10 -49l-220 -301h-80z" />
    <glyph glyph-name="uni2088" unicode="&#x2088;" horiz-adv-x="325" 
d="M121 -5q-57 0 -93 26t-36 67q0 33 22.5 60t57.5 37q-35 23 -35 63q0 30 18 54t49.5 38.5t67.5 14.5q51 0 83.5 -25t32.5 -64q0 -30 -18.5 -54t-48.5 -37q21 -10 33 -28.5t12 -40.5q0 -31 -19.5 -56.5t-52 -40t-73.5 -14.5zM158 204q26 0 46 16t20 38q0 19 -16.5 31.5
t-40.5 12.5q-28 0 -47.5 -15.5t-19.5 -38.5q0 -19 16.5 -31.5t41.5 -12.5zM126 49q32 0 54 16.5t22 39.5t-19 36.5t-49 13.5q-32 0 -54.5 -16.5t-22.5 -40.5q0 -22 19.5 -35.5t49.5 -13.5z" />
    <glyph glyph-name="uni2089" unicode="&#x2089;" horiz-adv-x="327" 
d="M158 354q59 0 94.5 -38t35.5 -101q0 -60 -27 -110t-72 -80t-99 -30q-30 0 -56.5 10.5t-46.5 29.5l44 43q28 -26 69 -26q42 0 75 33t44 83q-20 -17 -45 -26t-50 -9q-46 0 -75.5 26.5t-29.5 67.5q0 35 19 63.5t50.5 46t69.5 17.5zM153 298q-29 0 -50 -18.5t-21 -43.5
q0 -24 17 -38.5t44 -14.5q42 0 81 33q0 40 -19.5 61t-51.5 21z" />
    <glyph glyph-name="Euro" unicode="&#x20ac;" horiz-adv-x="765" 
d="M430 -10q-85 0 -149.5 33t-103.5 92.5t-45 139.5h-100l13 59h86q1 20 4 38t7 36h-82l14 59h86q30 77 84.5 136.5t127 93t156.5 33.5q92 0 160.5 -38t102.5 -108l-77 -47q-26 52 -79 81t-118 29q-56 0 -106.5 -23t-89.5 -63.5t-63 -93.5h274l-34 -59h-262q-4 -17 -7 -35.5
t-4 -38.5h232l-34 -59h-197q7 -56 35 -96.5t73.5 -62.5t104.5 -22q56 0 107.5 21t90.5 59l58 -55q-53 -53 -121 -81t-144 -28z" />
    <glyph glyph-name="trademark" unicode="&#x2122;" horiz-adv-x="667" 
d="M354 421l60 279h64l46 -167l116 167h67l-60 -279h-51l46 209l-136 -191l-56 197l-44 -215h-52zM159 421l49 232h-94l10 47h244l-11 -47h-94l-50 -232h-54z" />
    <glyph glyph-name="arrowup" unicode="&#x2191;" horiz-adv-x="551" 
d="M227 0v569l-154 -200l-62 51l264 330l263 -329l-62 -52l-156 202v-571h-93z" />
    <glyph glyph-name="arrowdown" unicode="&#x2193;" horiz-adv-x="551" 
d="M321 700v-569l155 200l62 -51l-264 -330l-263 329l61 52l156 -202v571h93z" />
    <glyph glyph-name="minus" unicode="&#x2212;" horiz-adv-x="599" 
d="M110 318l17 79h411l-17 -79h-411z" />
    <glyph glyph-name="uni2215" unicode="&#x2215;" horiz-adv-x="566" 
d="M-10 0l535 700h76l-537 -700h-74z" />
    <glyph glyph-name="notequal" unicode="&#x2260;" horiz-adv-x="599" 
d="M72 110l102 118h-84l17 79h135l84 95h-198l17 80h248l103 117h76l-102 -117h85l-16 -80h-136l-84 -95h199l-17 -79h-250l-102 -118h-77z" />
    <glyph glyph-name="uniFEFF" unicode="&#xfeff;" horiz-adv-x="0" 
 />
    <glyph glyph-name="uniFFFD" unicode="&#xfffd;" horiz-adv-x="514" 
d="M61 -100v850h394v-850h-394z" />
    <glyph glyph-name="i.loclTRK" horiz-adv-x="216" 
d="M5 0l108 509h98l-108 -509h-98zM185 591q-23 0 -38.5 16t-15.5 39q0 19 9.5 34.5t25 25t33.5 9.5q23 0 38.5 -15.5t15.5 -38.5q0 -19 -9.5 -34.5t-25 -25.5t-33.5 -10z" />
    <glyph glyph-name="a.ss01" horiz-adv-x="596" 
d="M260 -8q-64 0 -115 31t-80.5 84t-29.5 120q0 60 22 112.5t60.5 92t90 62t109.5 22.5q49 0 91.5 -16.5t72.5 -48.5l12 58h97l-108 -509h-97l6 31q-60 -39 -131 -39zM285 78q35 0 67.5 13t58.5 36l50 232q-20 32 -58 51t-83 19q-52 0 -95 -26t-68.5 -69.5t-25.5 -97.5
q0 -46 20 -81.5t55 -56t79 -20.5z" />
    <glyph glyph-name="aacute.ss01" horiz-adv-x="596" 
d="M260 -8q-64 0 -115 31t-80.5 84t-29.5 120q0 60 22 112.5t60.5 92t90 62t109.5 22.5q49 0 91.5 -16.5t72.5 -48.5l12 58h97l-108 -509h-97l6 31q-60 -39 -131 -39zM285 78q35 0 67.5 13t58.5 36l50 232q-20 32 -58 51t-83 19q-52 0 -95 -26t-68.5 -69.5t-25.5 -97.5
q0 -46 20 -81.5t55 -56t79 -20.5zM288 603l117 122h120l-151 -122h-86z" />
    <glyph glyph-name="abreve.ss01" horiz-adv-x="596" 
d="M260 -8q-64 0 -115 31t-80.5 84t-29.5 120q0 60 22 112.5t60.5 92t90 62t109.5 22.5q49 0 91.5 -16.5t72.5 -48.5l12 58h97l-108 -509h-97l6 31q-60 -39 -131 -39zM285 78q35 0 67.5 13t58.5 36l50 232q-20 32 -58 51t-83 19q-52 0 -95 -26t-68.5 -69.5t-25.5 -97.5
q0 -46 20 -81.5t55 -56t79 -20.5zM357 595q-65 0 -104 36.5t-39 98.5l63 12q2 -42 23 -64t59 -22q68 0 108 81l64 -20q-26 -59 -71.5 -90.5t-102.5 -31.5z" />
    <glyph glyph-name="acircumflex.ss01" horiz-adv-x="596" 
d="M260 -8q-64 0 -115 31t-80.5 84t-29.5 120q0 60 22 112.5t60.5 92t90 62t109.5 22.5q49 0 91.5 -16.5t72.5 -48.5l12 58h97l-108 -509h-97l6 31q-60 -39 -131 -39zM285 78q35 0 67.5 13t58.5 36l50 232q-20 32 -58 51t-83 19q-52 0 -95 -26t-68.5 -69.5t-25.5 -97.5
q0 -46 20 -81.5t55 -56t79 -20.5zM187 600l134 127h104l79 -127h-78l-61 77l-94 -77h-84z" />
    <glyph glyph-name="adieresis.ss01" horiz-adv-x="596" 
d="M260 -8q-64 0 -115 31t-80.5 84t-29.5 120q0 60 22 112.5t60.5 92t90 62t109.5 22.5q49 0 91.5 -16.5t72.5 -48.5l12 58h97l-108 -509h-97l6 31q-60 -39 -131 -39zM285 78q35 0 67.5 13t58.5 36l50 232q-20 32 -58 51t-83 19q-52 0 -95 -26t-68.5 -69.5t-25.5 -97.5
q0 -46 20 -81.5t55 -56t79 -20.5zM257 602q-22 0 -36.5 15t-14.5 37q0 27 19.5 46.5t45.5 19.5q21 0 36 -15.5t15 -37.5q0 -25 -19.5 -45t-45.5 -20zM446 602q-21 0 -36 15t-15 37q0 26 20 46t46 20q21 0 35.5 -15.5t14.5 -37.5q0 -25 -19.5 -45t-45.5 -20z" />
    <glyph glyph-name="agrave.ss01" horiz-adv-x="596" 
d="M260 -8q-64 0 -115 31t-80.5 84t-29.5 120q0 60 22 112.5t60.5 92t90 62t109.5 22.5q49 0 91.5 -16.5t72.5 -48.5l12 58h97l-108 -509h-97l6 31q-60 -39 -131 -39zM285 78q35 0 67.5 13t58.5 36l50 232q-20 32 -58 51t-83 19q-52 0 -95 -26t-68.5 -69.5t-25.5 -97.5
q0 -46 20 -81.5t55 -56t79 -20.5zM316 603l-125 122h118l89 -122h-82z" />
    <glyph glyph-name="amacron.ss01" horiz-adv-x="596" 
d="M260 -8q-64 0 -115 31t-80.5 84t-29.5 120q0 60 22 112.5t60.5 92t90 62t109.5 22.5q49 0 91.5 -16.5t72.5 -48.5l12 58h97l-108 -509h-97l6 31q-60 -39 -131 -39zM285 78q35 0 67.5 13t58.5 36l50 232q-20 32 -58 51t-83 19q-52 0 -95 -26t-68.5 -69.5t-25.5 -97.5
q0 -46 20 -81.5t55 -56t79 -20.5zM201 623l15 67h291l-15 -67h-291z" />
    <glyph glyph-name="aogonek.ss01" horiz-adv-x="596" 
d="M382 -222q-40 0 -64 20t-24 53q0 41 29.5 78t90.5 71h-29l6 31q-60 -39 -131 -39q-64 0 -115 31t-80.5 84t-29.5 120q0 60 22 112.5t60.5 92t90 62t109.5 22.5q49 0 91.5 -16.5t72.5 -48.5l12 58h97l-108 -509q-62 -33 -92 -63.5t-30 -62.5q0 -18 12.5 -29t33.5 -11
q23 0 44 11l5 -49q-17 -8 -36 -13t-37 -5zM285 78q73 0 126 49l50 232q-20 32 -58 51t-83 19q-52 0 -95 -26t-68.5 -69.5t-25.5 -97.5q0 -46 20 -81.5t55 -56t79 -20.5z" />
    <glyph glyph-name="aring.ss01" horiz-adv-x="596" 
d="M260 -8q-64 0 -115 31t-80.5 84t-29.5 120q0 60 22 112.5t60.5 92t90 62t109.5 22.5q49 0 91.5 -16.5t72.5 -48.5l12 58h97l-108 -509h-97l6 31q-60 -39 -131 -39zM285 78q35 0 67.5 13t58.5 36l50 232q-20 32 -58 51t-83 19q-52 0 -95 -26t-68.5 -69.5t-25.5 -97.5
q0 -46 20 -81.5t55 -56t79 -20.5zM356 584q-46 0 -75.5 28.5t-29.5 72.5q0 34 17.5 63t45.5 47t61 18q46 0 75.5 -28.5t29.5 -73.5q0 -34 -17 -62.5t-45.5 -46.5t-61.5 -18zM357 631q30 0 51.5 22.5t21.5 53.5q0 24 -16 41t-41 17q-29 0 -50.5 -22t-21.5 -54q0 -25 16 -41.5
t40 -16.5z" />
    <glyph glyph-name="atilde.ss01" horiz-adv-x="596" 
d="M260 -8q-64 0 -115 31t-80.5 84t-29.5 120q0 60 22 112.5t60.5 92t90 62t109.5 22.5q49 0 91.5 -16.5t72.5 -48.5l12 58h97l-108 -509h-97l6 31q-60 -39 -131 -39zM285 78q35 0 67.5 13t58.5 36l50 232q-20 32 -58 51t-83 19q-52 0 -95 -26t-68.5 -69.5t-25.5 -97.5
q0 -46 20 -81.5t55 -56t79 -20.5zM236 600l-61 20q44 100 110 100q29 0 54 -14.5t47.5 -29t41.5 -14.5q16 0 27 11.5t24 41.5l62 -19q-22 -52 -49.5 -77t-62.5 -25q-29 0 -54 14.5t-46.5 29t-43.5 14.5q-14 0 -25.5 -12t-23.5 -40z" />
    <glyph glyph-name="g.ss02" horiz-adv-x="549" 
d="M215 -213q-121 0 -192 32.5t-71 87.5q0 38 31 68t86 45q-24 22 -24 54q0 36 25 63.5t66 40.5q-32 23 -51.5 57t-19.5 74q0 57 32 104t85.5 75.5t116.5 28.5q44 0 81.5 -14.5t64.5 -39.5q24 32 56.5 49.5t66.5 17.5q10 0 18.5 -1t16.5 -4l-15 -80q-9 3 -20.5 4t-23.5 1
q-42 0 -72 -21q25 -38 25 -84q0 -57 -31 -103.5t-83.5 -74t-116.5 -27.5q-41 0 -75 11q-24 -5 -38.5 -17t-14.5 -30q0 -29 50 -35l175 -20q58 -7 88.5 -33t30.5 -67q0 -48 -33.5 -84.5t-93.5 -57t-140 -20.5zM271 215q36 0 66 17t49 45t19 61q0 28 -14.5 51.5t-39.5 36.5
t-56 13q-37 0 -68 -16.5t-50 -45t-19 -63.5q0 -28 14.5 -50.5t40.5 -35.5t58 -13zM222 -146q71 0 114 19.5t43 51.5q0 15 -13 25.5t-37 13.5l-159 18q-11 1 -20.5 3t-18.5 4q-40 -7 -63 -25t-23 -42q0 -31 47 -49.5t130 -18.5z" />
    <glyph glyph-name="gbreve.ss02" horiz-adv-x="549" 
d="M215 -213q-121 0 -192 32.5t-71 87.5q0 38 31 68t86 45q-24 22 -24 54q0 36 25 63.5t66 40.5q-32 23 -51.5 57t-19.5 74q0 57 32 104t85.5 75.5t116.5 28.5q44 0 81.5 -14.5t64.5 -39.5q24 32 56.5 49.5t66.5 17.5q10 0 18.5 -1t16.5 -4l-15 -80q-9 3 -20.5 4t-23.5 1
q-42 0 -72 -21q25 -38 25 -84q0 -57 -31 -103.5t-83.5 -74t-116.5 -27.5q-41 0 -75 11q-24 -5 -38.5 -17t-14.5 -30q0 -29 50 -35l175 -20q58 -7 88.5 -33t30.5 -67q0 -48 -33.5 -84.5t-93.5 -57t-140 -20.5zM271 215q36 0 66 17t49 45t19 61q0 28 -14.5 51.5t-39.5 36.5
t-56 13q-37 0 -68 -16.5t-50 -45t-19 -63.5q0 -28 14.5 -50.5t40.5 -35.5t58 -13zM222 -146q71 0 114 19.5t43 51.5q0 15 -13 25.5t-37 13.5l-159 18q-11 1 -20.5 3t-18.5 4q-40 -7 -63 -25t-23 -42q0 -31 47 -49.5t130 -18.5zM334 595q-65 0 -104 36.5t-39 98.5l63 12
q2 -42 23 -64t59 -22q68 0 108 81l64 -20q-26 -59 -71.5 -90.5t-102.5 -31.5z" />
    <glyph glyph-name="gcircumflex.ss02" horiz-adv-x="549" 
d="M215 -213q-121 0 -192 32.5t-71 87.5q0 38 31 68t86 45q-24 22 -24 54q0 36 25 63.5t66 40.5q-32 23 -51.5 57t-19.5 74q0 57 32 104t85.5 75.5t116.5 28.5q44 0 81.5 -14.5t64.5 -39.5q24 32 56.5 49.5t66.5 17.5q10 0 18.5 -1t16.5 -4l-15 -80q-9 3 -20.5 4t-23.5 1
q-42 0 -72 -21q25 -38 25 -84q0 -57 -31 -103.5t-83.5 -74t-116.5 -27.5q-41 0 -75 11q-24 -5 -38.5 -17t-14.5 -30q0 -29 50 -35l175 -20q58 -7 88.5 -33t30.5 -67q0 -48 -33.5 -84.5t-93.5 -57t-140 -20.5zM271 215q36 0 66 17t49 45t19 61q0 28 -14.5 51.5t-39.5 36.5
t-56 13q-37 0 -68 -16.5t-50 -45t-19 -63.5q0 -28 14.5 -50.5t40.5 -35.5t58 -13zM222 -146q71 0 114 19.5t43 51.5q0 15 -13 25.5t-37 13.5l-159 18q-11 1 -20.5 3t-18.5 4q-40 -7 -63 -25t-23 -42q0 -31 47 -49.5t130 -18.5zM165 600l134 127h104l79 -127h-78l-61 77
l-94 -77h-84z" />
    <glyph glyph-name="uni0123.ss02" horiz-adv-x="549" 
d="M460 794l-85 -190h-97l109 190h73zM215 -213q-121 0 -192 32.5t-71 87.5q0 38 31 68t86 45q-24 22 -24 54q0 36 25 63.5t66 40.5q-32 23 -51.5 57t-19.5 74q0 57 32 104t85.5 75.5t116.5 28.5q44 0 81.5 -14.5t64.5 -39.5q24 32 56.5 49.5t66.5 17.5q10 0 18.5 -1
t16.5 -4l-15 -80q-9 3 -20.5 4t-23.5 1q-42 0 -72 -21q25 -38 25 -84q0 -57 -31 -103.5t-83.5 -74t-116.5 -27.5q-41 0 -75 11q-24 -5 -38.5 -17t-14.5 -30q0 -29 50 -35l175 -20q58 -7 88.5 -33t30.5 -67q0 -48 -33.5 -84.5t-93.5 -57t-140 -20.5zM271 215q36 0 66 17
t49 45t19 61q0 28 -14.5 51.5t-39.5 36.5t-56 13q-37 0 -68 -16.5t-50 -45t-19 -63.5q0 -28 14.5 -50.5t40.5 -35.5t58 -13zM222 -146q71 0 114 19.5t43 51.5q0 15 -13 25.5t-37 13.5l-159 18q-11 1 -20.5 3t-18.5 4q-40 -7 -63 -25t-23 -42q0 -31 47 -49.5t130 -18.5z" />
    <glyph glyph-name="gdotaccent.ss02" horiz-adv-x="549" 
d="M215 -213q-121 0 -192 32.5t-71 87.5q0 38 31 68t86 45q-24 22 -24 54q0 36 25 63.5t66 40.5q-32 23 -51.5 57t-19.5 74q0 57 32 104t85.5 75.5t116.5 28.5q44 0 81.5 -14.5t64.5 -39.5q24 32 56.5 49.5t66.5 17.5q10 0 18.5 -1t16.5 -4l-15 -80q-9 3 -20.5 4t-23.5 1
q-42 0 -72 -21q25 -38 25 -84q0 -57 -31 -103.5t-83.5 -74t-116.5 -27.5q-41 0 -75 11q-24 -5 -38.5 -17t-14.5 -30q0 -29 50 -35l175 -20q58 -7 88.5 -33t30.5 -67q0 -48 -33.5 -84.5t-93.5 -57t-140 -20.5zM271 215q36 0 66 17t49 45t19 61q0 28 -14.5 51.5t-39.5 36.5
t-56 13q-37 0 -68 -16.5t-50 -45t-19 -63.5q0 -28 14.5 -50.5t40.5 -35.5t58 -13zM222 -146q71 0 114 19.5t43 51.5q0 15 -13 25.5t-37 13.5l-159 18q-11 1 -20.5 3t-18.5 4q-40 -7 -63 -25t-23 -42q0 -31 47 -49.5t130 -18.5zM328 602q-23 0 -37.5 15t-14.5 37
q0 27 19.5 46.5t46.5 19.5q21 0 35.5 -15.5t14.5 -37.5q0 -25 -19.5 -45t-44.5 -20z" />
    <glyph glyph-name="exclamdown.cap" horiz-adv-x="199" 
d="M187 503l-94 -503h-102l119 503h77zM187 711q25 0 40.5 -16t15.5 -40q0 -19 -9.5 -35t-26 -26t-35.5 -10q-23 0 -38.5 16.5t-15.5 40.5q0 18 9.5 34t25.5 26t34 10z" />
    <glyph glyph-name="questiondown.cap" horiz-adv-x="482" 
d="M365 498q-7 -47 -21 -81.5t-37.5 -59.5t-59.5 -46l-63 -36q-39 -23 -60.5 -51.5t-21.5 -58.5q0 -39 32.5 -62.5t84.5 -23.5q45 0 87.5 21.5t74.5 57.5l68 -46q-48 -56 -111.5 -88t-131.5 -32q-59 0 -105 20t-72 56t-26 83q0 58 34 103t108 88l51 30q39 21 58.5 50
t26.5 76h84zM360 710q24 0 39.5 -16t15.5 -40q0 -18 -9 -34.5t-25.5 -26.5t-35.5 -10q-24 0 -40 16.5t-16 40.5q0 19 10 34.5t26 25.5t35 10z" />
    <glyph glyph-name="periodcentered.cap" horiz-adv-x="250" 
d="M137 285q-24 0 -40 16t-16 40q0 19 10 35t26 26t35 10q24 0 39.5 -16t15.5 -41q0 -18 -10 -34t-25.5 -26t-34.5 -10z" />
    <glyph glyph-name="hyphen.cap" horiz-adv-x="451" 
d="M69 391h354l-18 -87h-354z" />
    <glyph glyph-name="endash.cap" horiz-adv-x="551" 
d="M69 391h452l-18 -87h-452z" />
    <glyph glyph-name="emdash.cap" horiz-adv-x="702" 
d="M71 391h599l-18 -87h-599z" />
    <glyph glyph-name="uni2015.cap" horiz-adv-x="951" 
d="M72 391h844l-18 -87h-844z" />
    <glyph glyph-name="at.cap" horiz-adv-x="771" 
d="M427 -11q-78 0 -144.5 26.5t-115.5 74t-76 111.5t-27 139q0 80 27 147.5t75.5 117.5t115 78t143.5 28q72 0 133 -23t106.5 -64.5t71 -97.5t25.5 -120t-23.5 -114t-64.5 -78.5t-95 -28.5q-69 0 -97 41q-49 -44 -105 -44q-41 0 -74 20.5t-52 55t-19 77.5q0 51 23.5 91.5
t62.5 64.5t87 24q28 0 53.5 -9.5t44.5 -26.5l4 23h73l-41 -197q-6 -32 6.5 -49t42.5 -17q34 0 60.5 21t41 58t14.5 84q0 74 -36.5 132.5t-100 92t-143.5 33.5q-64 0 -118.5 -24t-95.5 -67t-64 -100.5t-23 -124.5q0 -88 39.5 -156t108.5 -106.5t159 -38.5q93 0 168 39l21 -49
q-45 -22 -92.5 -33t-98.5 -11zM392 243q41 0 73 31q-2 16 3 39l20 99q-13 20 -35 30.5t-48 10.5q-28 0 -51 -15t-37.5 -40.5t-14.5 -56.5q0 -43 25.5 -70.5t64.5 -27.5z" />
    <glyph glyph-name="uni030C.alt" horiz-adv-x="0" 
d="M153 505l50 198l93 18l-76 -216h-67z" />
    <glyph glyph-name="zero.tf" 
d="M279 -10q-64 0 -114.5 32t-78.5 93.5t-28 151.5q0 95 24.5 175t67 140.5t98 94t117.5 33.5q65 0 115 -32t78 -93.5t28 -151.5q0 -94 -24.5 -174.5t-67 -141t-98 -94t-117.5 -33.5zM363 625q-42 0 -80 -27.5t-67.5 -76t-46.5 -112.5t-17 -138q0 -63 16.5 -106.5
t45.5 -66.5t67 -23q43 0 80.5 27.5t67 76t46.5 113t17 137.5q0 67 -18 110.5t-47 64.5t-64 21z" />
    <glyph glyph-name="one.tf" 
d="M47 0l18 83h177l109 508l-193 -76l19 93l233 92h60l-131 -617h193l-18 -83h-467z" />
    <glyph glyph-name="two.tf" 
d="M23 0l14 70l366 327q41 36 59.5 68.5t18.5 66.5q0 41 -33 67t-85 26q-43 0 -85 -18t-98 -59l-42 71q61 45 120 68t119 23q59 0 104 -20.5t70 -58t25 -87.5q0 -36 -11 -68t-36 -64t-67 -68l-294 -262l332 1l-17 -83h-460z" />
    <glyph glyph-name="three.tf" 
d="M271 -11q-79 0 -143.5 34t-108.5 94l71 56q41 -52 86.5 -75.5t100.5 -23.5q47 0 83 17t56 46.5t20 67.5q0 47 -34.5 78t-94.5 31h-62l17 82h75q39 0 71.5 16t51 43.5t18.5 61.5q0 45 -34 76.5t-97 31.5q-48 0 -90 -16t-85 -51l-49 67q46 42 104 64t124 22
q71 0 121.5 -24.5t77.5 -65t27 -89.5q0 -63 -40 -112.5t-119 -71.5q53 -17 83 -55.5t30 -88.5q0 -61 -34 -110t-92.5 -77t-133.5 -28z" />
    <glyph glyph-name="four.tf" 
d="M343 0l38 178h-371l16 78l455 444h105l-93 -439h90l-17 -83h-91l-38 -178h-94zM139 261h259l68 319z" />
    <glyph glyph-name="five.tf" 
d="M263 -10q-75 0 -138 29t-105 83l67 62q39 -47 83.5 -69t99.5 -22q48 0 86 21t60 57t22 81q0 59 -40 93.5t-109 34.5q-28 0 -58 -7.5t-66 -22.5l-64 27l87 343h412l-19 -83h-326l-54 -207q34 14 63 19.5t59 5.5q65 0 113 -23.5t74 -66.5t26 -101q0 -71 -36 -128.5
t-98 -91.5t-139 -34z" />
    <glyph glyph-name="six.tf" 
d="M305 -11q-68 0 -124 34t-89.5 98t-33.5 154q0 98 27.5 178t76.5 137.5t113.5 89t136.5 31.5q60 0 108.5 -18.5t88.5 -52.5l-56 -73q-36 30 -71 44t-73 14q-62 0 -116 -35.5t-90 -99t-47 -150.5q40 47 90 71.5t105 24.5q63 0 111 -26t75 -70.5t27 -101.5
q0 -55 -20.5 -100.5t-56.5 -78.5t-82.5 -51.5t-99.5 -18.5zM315 74q44 0 78.5 20.5t55 56t20.5 80.5q0 39 -17.5 67.5t-49 45t-74.5 16.5q-48 0 -94 -20.5t-82 -59.5q1 -66 22 -112t57.5 -70t83.5 -24z" />
    <glyph glyph-name="seven.tf" 
d="M61 0l461 615h-403l19 85h510l-16 -74l-455 -626h-116z" />
    <glyph glyph-name="eight.tf" 
d="M278 -10q-72 0 -127.5 24.5t-86 68t-30.5 96.5q0 48 23 87.5t64 68t96 40.5q-45 20 -68.5 55t-23.5 78q0 60 33.5 105.5t89 71.5t121.5 26q68 0 115.5 -23.5t73.5 -63t26 -87.5q0 -42 -19 -78t-55 -62t-84 -40q52 -21 84.5 -61.5t32.5 -93.5q0 -62 -36 -110t-96 -75
t-133 -27zM348 403q39 0 71 16.5t51.5 44.5t19.5 63q0 30 -14.5 54t-43.5 37.5t-71 13.5q-39 0 -71.5 -16.5t-52 -44t-19.5 -63.5q0 -30 16.5 -54t45.5 -37.5t68 -13.5zM286 68q48 0 84 17.5t56.5 48t20.5 69.5q0 35 -19 62.5t-53 44t-81 16.5t-84 -17.5t-57.5 -47
t-20.5 -68.5q0 -35 18.5 -63t53.5 -45t82 -17z" />
    <glyph glyph-name="nine.tf" horiz-adv-x="613" 
d="M343 711q69 0 125 -34t89.5 -98t33.5 -154q0 -97 -28 -177.5t-77 -138t-113 -89t-137 -31.5q-59 0 -107.5 18.5t-89.5 52.5l57 73q36 -30 71 -44t72 -14q63 0 116.5 35.5t90 99.5t47.5 150q-40 -46 -90 -71t-105 -25q-63 0 -111.5 26t-75 71t-26.5 101q0 55 20 100.5
t56 78.5t83 51.5t99 18.5zM333 626q-43 0 -78 -20.5t-55.5 -56t-20.5 -80.5q0 -38 17.5 -67t49.5 -45.5t75 -16.5q48 0 93.5 21t82.5 59q-1 66 -22 112t-57.5 70t-84.5 24z" />
    <glyph glyph-name="zero.tab.slash" 
d="M279 -10q-64 0 -114.5 32t-78.5 93.5t-28 151.5q0 95 24.5 175t67 140.5t98 94t117.5 33.5q65 0 115 -32t78 -93.5t28 -151.5q0 -94 -24.5 -174.5t-67 -141t-98 -94t-117.5 -33.5zM164 185l281 403q-32 37 -82 37q-42 0 -80 -27.5t-67.5 -76t-46.5 -112.5t-17 -138
q0 -51 12 -86zM281 75q43 0 80.5 27.5t67 76t46.5 113t17 137.5q0 50 -11 83l-281 -401q32 -36 81 -36z" />
    <glyph glyph-name="caronSlovak" 
d="M307 505l50 198l93 18l-76 -216h-67z" />
    </font>
</defs>
</svg>
