<?xml version="1.0" standalone="no"?>
<!DOCTYPE svg PUBLIC "-//W3C//DTD SVG 1.1//EN" "http://www.w3.org/Graphics/SVG/1.1/DTD/svg11.dtd" >
<svg xmlns="http://www.w3.org/2000/svg" xmlns:xlink="http://www.w3.org/1999/xlink" version="1.1">
<metadata>
Created by FontForge 20201107 at Fri Nov 15 15:25:12 2024
 By 
Copyright 2024 The Red Hat Project Authors (https://github.com/RedHatOfficial/RedHatFont)
</metadata>
<defs>
<font id="RedHatDisplay-SemiBold" horiz-adv-x="600" >
  <font-face 
    font-family="Red Hat Display SemiBold"
    font-weight="600"
    font-stretch="normal"
    units-per-em="1000"
    panose-1="2 1 3 3 4 2 1 6 3 3"
    ascent="800"
    descent="-200"
    x-height="509"
    cap-height="700"
    bbox="-70 -273 1086 1005"
    underline-thickness="100"
    underline-position="-250"
    unicode-range="U+000D-FFFD"
  />
<missing-glyph horiz-adv-x="514" 
d="M60 -100v850h394v-850h-394z" />
    <glyph glyph-name="fi" unicode="fi" horiz-adv-x="616" 
d="M135 0v425h-118v84h118v76q0 80 44.5 122.5t128.5 42.5q20 0 38.5 -2t33.5 -7v-87q-17 5 -31 7t-31 2q-42 0 -63 -19.5t-21 -60.5v-74h146v-84h-146v-425h-99zM457 0v509h101v-509h-101zM507 591q-25 0 -43 18.5t-18 43.5q0 26 18 44t43 18q26 0 44 -18t18 -44
q0 -25 -18 -43.5t-44 -18.5z" />
    <glyph glyph-name="fl" unicode="fl" horiz-adv-x="616" 
d="M135 0v425h-118v84h118v76q0 80 44.5 122.5t128.5 42.5q20 0 38.5 -2t33.5 -7v-87q-17 5 -31 7t-31 2q-42 0 -63 -19.5t-21 -60.5v-74h146v-84h-146v-425h-99zM457 0v700l101 19v-719h-101z" />
    <glyph glyph-name=".notdef" horiz-adv-x="514" 
d="M60 -100v850h394v-850h-394z" />
    <glyph glyph-name=".null" horiz-adv-x="0" 
 />
    <glyph glyph-name="nonmarkingreturn" horiz-adv-x="333" 
 />
    <glyph glyph-name="CR" unicode="&#xd;" horiz-adv-x="209" 
 />
    <glyph glyph-name="space" unicode=" " horiz-adv-x="209" 
 />
    <glyph glyph-name="exclam" unicode="!" horiz-adv-x="216" 
d="M68 201l-12 504h103l-12 -504h-79zM108 -8q-26 0 -45 19t-19 45t19 45t45 19t45 -19t19 -45t-19 -45t-45 -19z" />
    <glyph glyph-name="quotedbl" unicode="&#x22;" horiz-adv-x="367" 
d="M72 467l-13 236h99l-13 -236h-73zM224 467l-13 236h99l-13 -236h-73z" />
    <glyph glyph-name="numbersign" unicode="#" horiz-adv-x="712" 
d="M75 0l60 208h-105v75h126l39 134h-115v75h135l60 208h92l-60 -208h178l60 208h91l-60 -208h106v-75h-127l-38 -134h115v-75h-136l-60 -208h-91l60 208h-178l-60 -208h-92zM247 283h179l38 134h-178z" />
    <glyph glyph-name="dollar" unicode="$" horiz-adv-x="581" 
d="M257 -67v87q-71 6 -133 34.5t-109 76.5l57 69q79 -82 185 -97v210l-44 9q-99 20 -141 60t-42 114q0 56 28.5 97.5t79.5 65t119 24.5v84h57v-86q59 -7 116.5 -28t107.5 -55l-47 -76q-46 30 -90 48t-87 25v-200l42 -8q107 -22 152 -62.5t45 -112.5q0 -55 -29.5 -97.5
t-83.5 -67.5t-126 -28v-86h-57zM257 404v196q-60 -1 -97 -27t-37 -69q0 -28 11.5 -46.5t37 -30.5t70.5 -21zM314 100q63 3 102.5 32t39.5 73q0 28 -11 46t-38.5 30t-77.5 21l-15 3v-205z" />
    <glyph glyph-name="percent" unicode="%" horiz-adv-x="762" 
d="M178 345q-69 0 -111 50t-42 130q0 81 42 130.5t111 49.5q68 0 110.5 -49.5t42.5 -130.5q0 -80 -42.5 -130t-110.5 -50zM178 402q41 0 65 33.5t24 89.5q0 57 -24 90.5t-65 33.5t-64.5 -33.5t-24.5 -90.5q1 -56 24.5 -89.5t64.5 -33.5zM142 0l394 700h79l-395 -700h-78z
M585 -5q-69 0 -111 50t-42 130q0 81 42 130.5t111 49.5q68 0 110.5 -49.5t42.5 -130.5q0 -80 -42.5 -130t-110.5 -50zM585 52q41 0 65 33.5t24 89.5q0 57 -24 90.5t-65 33.5t-64.5 -33.5t-24.5 -90.5q1 -56 24.5 -89.5t64.5 -33.5z" />
    <glyph glyph-name="ampersand" unicode="&#x26;" horiz-adv-x="666" 
d="M263 -11q-71 0 -124.5 25t-83.5 70t-30 104q0 43 14 76t46.5 62t86.5 60q-34 43 -47.5 79t-13.5 76q0 49 23 87.5t64 60.5t93 22q49 0 87.5 -19.5t61 -54t22.5 -79.5q0 -48 -26 -86.5t-81 -71.5l-50 -30q36 -40 79 -81.5t87 -82.5q23 37 38 81.5t25 93.5l89 -15
q-14 -64 -35 -119t-50 -100q29 -26 57.5 -48.5t55.5 -43.5l-60 -71q-26 20 -54.5 42.5t-56.5 46.5q-43 -41 -98.5 -62.5t-118.5 -21.5zM255 429l50 30q33 19 48.5 42.5t15.5 53.5q0 33 -23 56t-58 23q-37 0 -61 -25.5t-24 -65.5q0 -27 11.5 -52.5t40.5 -61.5zM269 71
q43 0 79.5 15t66.5 44q-53 48 -102.5 97.5t-90.5 96.5q-38 -21 -61 -41t-32.5 -41.5t-9.5 -47.5q0 -56 41 -89.5t109 -33.5z" />
    <glyph glyph-name="quotesingle" unicode="'" horiz-adv-x="216" 
d="M72 467l-13 236h99l-13 -236h-73z" />
    <glyph glyph-name="parenleft" unicode="(" horiz-adv-x="399" 
d="M313 -215q-123 72 -188.5 191t-65.5 272t65.5 272.5t188.5 191.5l54 -65q-103 -62 -158 -165t-55 -234q0 -130 55 -233.5t158 -164.5z" />
    <glyph glyph-name="parenright" unicode=")" horiz-adv-x="399" 
d="M86 715q123 -72 188 -191.5t65 -272.5t-65 -272t-188 -191l-54 65q103 62 158 165t55 233q0 132 -55 235t-158 164z" />
    <glyph glyph-name="asterisk" unicode="*" horiz-adv-x="458" 
d="M195 330l2 129l-113 -70l-37 58l119 70l-117 70l38 57l109 -69l-1 125h69l-1 -124l109 68l38 -57l-118 -70l121 -70l-39 -58l-112 70l2 -129h-69z" />
    <glyph glyph-name="plus" unicode="+" 
d="M260 138v179h-166v78h166v179h80v-179h166v-78h-166v-179h-80z" />
    <glyph glyph-name="comma" unicode="," horiz-adv-x="250" 
d="M27 -143l62 233h106l-91 -233h-77z" />
    <glyph glyph-name="hyphen" unicode="-" horiz-adv-x="452" 
d="M46 239v87h360v-87h-360z" />
    <glyph glyph-name="period" unicode="." horiz-adv-x="250" 
d="M125 -8q-26 0 -45 19t-19 45t19 45t45 19t45 -19t19 -45t-19 -45t-45 -19z" />
    <glyph glyph-name="slash" unicode="/" horiz-adv-x="480" 
d="M-63 -206l415 906h99l-415 -906h-99z" />
    <glyph glyph-name="zero" unicode="0" horiz-adv-x="672" 
d="M336 -11q-87 0 -153.5 45.5t-104 127t-37.5 188.5t37.5 188.5t104 127t153.5 45.5t153.5 -45.5t103.5 -127t37 -188.5t-37 -188.5t-103.5 -127t-153.5 -45.5zM336 77q60 0 104 33.5t68 95t24 144.5q0 84 -24 145t-68 94.5t-104 33.5t-104 -33.5t-68 -94.5t-24 -145
q0 -83 24 -144.5t68 -95t104 -33.5z" />
    <glyph glyph-name="one" unicode="1" horiz-adv-x="314" 
d="M151 0v597l-126 -54v89l162 68h64v-700h-100z" />
    <glyph glyph-name="two" unicode="2" 
d="M66 0v70l285 302q28 30 44 54t23 45.5t7 45.5q0 47 -38 78t-96 31q-48 0 -90 -19t-92 -66l-56 66q57 52 116.5 78t123.5 26q67 0 118 -24t80 -66.5t29 -97.5q0 -35 -9.5 -64.5t-31.5 -62t-62 -74.5l-227 -240l343 1v-83h-467z" />
    <glyph glyph-name="three" unicode="3" 
d="M287 -11q-75 0 -140.5 26.5t-113.5 76.5l65 62q42 -43 85.5 -61.5t102.5 -18.5q47 0 83 15.5t56 44t20 64.5q0 34 -17 60.5t-47 41t-69 14.5h-85v81h78q53 0 85 31t32 81q0 33 -18.5 60t-50 42.5t-70.5 15.5q-53 0 -93.5 -19t-83.5 -64l-65 62q48 52 111 79.5t133 27.5
q68 0 121 -25t83 -69.5t30 -100.5t-36 -99t-95 -60q70 -15 112.5 -59.5t42.5 -104.5q0 -59 -33 -105t-90.5 -72.5t-132.5 -26.5z" />
    <glyph glyph-name="four" unicode="4" horiz-adv-x="642" 
d="M424 0v177h-397v80l385 443h112v-438h84v-85h-84v-177h-100zM146 262h278v319z" />
    <glyph glyph-name="five" unicode="5" 
d="M285 -11q-140 0 -243 95l59 66q45 -41 89.5 -59.5t97.5 -18.5q47 0 82.5 18.5t55 52t19.5 77.5q0 62 -44 100.5t-115 38.5q-36 0 -71 -9t-73 -29l-68 21l16 358h416v-83h-332l-9 -215q38 19 73.5 26.5t73.5 7.5q70 0 122 -26.5t80.5 -74.5t28.5 -111q0 -70 -32.5 -122.5
t-90.5 -82.5t-135 -30z" />
    <glyph glyph-name="six" unicode="6" 
d="M322 -10q-84 0 -148 43t-100 119.5t-36 177.5q0 115 40 200.5t112.5 133t169.5 47.5q48 0 96 -14.5t83 -41.5l-52 -72q-31 20 -64.5 30.5t-70.5 10.5q-67 0 -115.5 -34.5t-74.5 -99.5t-28 -157q38 49 89.5 76.5t108.5 27.5q68 0 121 -27.5t83 -76.5t30 -112
q0 -66 -32 -118.5t-87 -82.5t-125 -30zM317 360q-52 0 -98 -24t-81 -67q9 -58 33.5 -102.5t62.5 -69t85 -24.5q44 0 78 19t53.5 52t19.5 75q0 41 -19.5 73t-54 50t-79.5 18z" />
    <glyph glyph-name="seven" unicode="7" 
d="M118 0l333 615h-408v85h513v-74l-325 -626h-113z" />
    <glyph glyph-name="eight" unicode="8" 
d="M300 -11q-75 0 -132.5 26t-90.5 72t-33 105q0 41 19.5 76t55 61t80.5 37q-58 18 -94 60.5t-36 96.5q0 53 30 95.5t82.5 67.5t118.5 25t118.5 -25t82.5 -67.5t30 -95.5q0 -54 -35.5 -96.5t-94.5 -60.5q69 -18 112 -65.5t43 -108.5q0 -59 -32.5 -105t-90.5 -72t-133 -26z
M300 403q39 0 70 15t49 41t18 58q0 33 -18 59t-49 41t-70 15t-70 -15t-49 -41t-18 -59q0 -32 18 -58t49 -41t70 -15zM300 68q46 0 82 17t57 46.5t21 65.5q0 37 -21 66t-57 46t-82 17t-82 -17t-57 -46t-21 -66q0 -36 21 -65.5t57 -46.5t82 -17z" />
    <glyph glyph-name="nine" unicode="9" horiz-adv-x="622" 
d="M287 711q84 0 148 -43.5t100 -119.5t36 -177q0 -115 -40 -200.5t-112 -133t-170 -47.5q-47 0 -95 15t-83 40l52 73q30 -20 64 -30.5t70 -10.5q68 0 116.5 34.5t74.5 100t27 155.5q-37 -49 -89 -76t-108 -27q-69 0 -122 28t-83 76.5t-30 111.5q0 67 32 119t87 82t125 30z
M293 341q51 0 97 24t81 66q-8 60 -33 103.5t-62.5 68t-85.5 24.5q-43 0 -77.5 -18.5t-54 -51.5t-19.5 -75q0 -41 19.5 -73t54.5 -50t80 -18z" />
    <glyph glyph-name="colon" unicode=":" horiz-adv-x="250" 
d="M125 -8q-26 0 -45 19t-19 45t19 45t45 19t45 -19t19 -45t-19 -45t-45 -19zM125 392q-26 0 -45 19t-19 45t19 45t45 19t45 -19t19 -45t-19 -45t-45 -19z" />
    <glyph glyph-name="semicolon" unicode=";" horiz-adv-x="250" 
d="M135 392q-26 0 -45 19t-19 45t19 45t45 19t45 -19t19 -45t-19 -45t-45 -19zM21 -143l62 233h106l-91 -233h-77z" />
    <glyph glyph-name="less" unicode="&#x3c;" 
d="M421 85l-327 263l329 263l50 -60l-257 -201l257 -203z" />
    <glyph glyph-name="equal" unicode="=" 
d="M94 228v78h412v-78h-412zM94 403v78h412v-78h-412z" />
    <glyph glyph-name="greater" unicode="&#x3e;" 
d="M179 611l327 -263l-329 -263l-50 61l257 201l-257 202z" />
    <glyph glyph-name="question" unicode="?" horiz-adv-x="514" 
d="M184 205q-2 46 4.5 79t25.5 59t50 49l47 33q39 28 55 51.5t16 52.5q0 27 -17.5 48.5t-46.5 34.5t-65 13q-48 0 -89 -23t-69 -66l-80 42q26 42 63 71.5t82.5 45.5t96.5 16q64 0 114.5 -23.5t79.5 -63.5t29 -92q0 -35 -10.5 -63t-37 -54t-72.5 -58l-31 -22
q-34 -23 -48 -53.5t-11 -76.5h-86zM227 -8q-26 0 -44.5 19t-18.5 45t18.5 45t44.5 19t45 -19t19 -45t-19 -45t-45 -19z" />
    <glyph glyph-name="at" unicode="@" horiz-adv-x="781" 
d="M406 -144q-78 0 -144.5 26.5t-116 73.5t-76.5 111.5t-27 139.5q0 80 27.5 147.5t76.5 117.5t115 78.5t144 28.5q71 0 132 -23.5t106.5 -65t71 -97.5t25.5 -120t-23.5 -114t-65 -78.5t-94.5 -28.5q-69 0 -98 41q-24 -21 -51 -32.5t-54 -11.5q-41 0 -74 20.5t-51.5 55
t-18.5 77.5q0 51 23 91.5t62 64.5t88 24q58 0 97 -36l4 23h74l-41 -198q-6 -31 7 -48t43 -17q33 0 59 21t41 58t15 84q0 74 -37 132.5t-100 92t-143 33.5q-63 0 -118 -24t-96.5 -67t-64 -100.5t-22.5 -124.5q0 -88 39 -155.5t108.5 -106.5t159.5 -39q92 0 167 39l22 -49
q-45 -22 -92.5 -33t-98.5 -11zM371 110q41 0 73 31v18.5t3 20.5l19 99q-13 20 -34.5 30.5t-47.5 10.5q-28 0 -51.5 -15t-37.5 -40.5t-14 -56.5q0 -43 25 -70.5t65 -27.5z" />
    <glyph glyph-name="A" unicode="A" horiz-adv-x="701" 
d="M1 0l289 700h124l287 -700h-115l-81 205h-313l-82 -205h-109zM227 292h244l-122 307z" />
    <glyph glyph-name="B" unicode="B" horiz-adv-x="671" 
d="M71 0v700h303q69 0 120 -23t79.5 -64.5t28.5 -97.5q0 -51 -26.5 -90t-72.5 -62q58 -21 92 -63.5t34 -99.5q0 -61 -30 -106t-84.5 -69.5t-126.5 -24.5h-317zM177 403h191q59 0 94 28t35 76t-35 76t-94 28h-191v-208zM177 89h203q65 0 103.5 31.5t38.5 83.5t-38.5 83
t-103.5 31h-203v-229z" />
    <glyph glyph-name="C" unicode="C" horiz-adv-x="720" 
d="M408 -11q-78 0 -144.5 27.5t-117 77t-78 115t-27.5 141.5t27.5 141.5t78 115t117.5 77t144 27.5q56 0 108 -14.5t96.5 -41.5t78.5 -66l-71 -72q-40 47 -95.5 72t-116.5 25q-56 0 -103 -20t-82 -56t-55 -83.5t-20 -104.5q0 -56 20 -104t55.5 -83.5t83.5 -55.5t104 -20
q61 0 115 24.5t93 68.5l69 -70q-34 -37 -78.5 -64.5t-96 -42t-105.5 -14.5z" />
    <glyph glyph-name="D" unicode="D" horiz-adv-x="728" 
d="M177 95h143q55 0 102 19t82.5 53.5t55 81t19.5 100.5q0 55 -19.5 101.5t-55 81.5t-82.5 54t-102 19h-143v-510zM71 0v700h247q80 0 147 -26.5t116.5 -73.5t77.5 -111t28 -140q0 -75 -27.5 -138.5t-77.5 -110.5t-117 -73.5t-147 -26.5h-247z" />
    <glyph glyph-name="E" unicode="E" horiz-adv-x="628" 
d="M71 0v700h517v-92h-411v-210h269v-90h-269v-216h415v-92h-521z" />
    <glyph glyph-name="F" unicode="F" horiz-adv-x="621" 
d="M71 0v700h518v-92h-412v-215h271v-90h-271v-303h-106z" />
    <glyph glyph-name="G" unicode="G" horiz-adv-x="790" 
d="M407 -11q-77 0 -143.5 28t-116.5 77.5t-78 115t-28 140.5t27.5 140.5t77.5 115t116 77.5t143 28q83 0 157.5 -32t124.5 -90l-72 -69q-39 45 -94 69.5t-116 24.5q-55 0 -101.5 -20t-81.5 -56t-54.5 -83.5t-19.5 -104.5q0 -56 20 -104.5t55 -84t82 -55.5t102 -20
q62 0 112 25.5t82 71t40 102.5h-233v92h343v-36q0 -75 -26 -139t-72.5 -112t-109.5 -74.5t-136 -26.5z" />
    <glyph glyph-name="H" unicode="H" horiz-adv-x="725" 
d="M71 0v700h106v-300h371v300h106v-700h-106v305h-371v-305h-106z" />
    <glyph glyph-name="I" unicode="I" horiz-adv-x="248" 
d="M71 0v700h106v-700h-106z" />
    <glyph glyph-name="J" unicode="J" horiz-adv-x="617" 
d="M283 -11q-96 0 -165.5 49.5t-100.5 140.5l97 38q25 -66 67.5 -98.5t102.5 -32.5q77 0 123 50t46 134v430h106v-433q0 -84 -34 -146.5t-96 -97t-146 -34.5z" />
    <glyph glyph-name="K" unicode="K" horiz-adv-x="651" 
d="M71 0v700h106v-324l338 324h133l-363 -339l374 -361h-144l-338 331v-331h-106z" />
    <glyph glyph-name="L" unicode="L" horiz-adv-x="614" 
d="M71 0v700h106v-606h402v-94h-508z" />
    <glyph glyph-name="M" unicode="M" horiz-adv-x="862" 
d="M71 0v700h141l219 -447l219 447h140v-700h-99v571l-261 -521l-261 521v-571h-98z" />
    <glyph glyph-name="N" unicode="N" horiz-adv-x="735" 
d="M71 0v700h103l390 -519v519h100v-700h-94l-399 535v-535h-100z" />
    <glyph glyph-name="O" unicode="O" horiz-adv-x="811" 
d="M406 -11q-77 0 -143.5 27.5t-116.5 77t-77.5 115t-27.5 141.5t27.5 141.5t77.5 115t116.5 77t143.5 27.5q76 0 142 -27.5t116 -77t78 -115t28 -141.5t-28 -141.5t-78 -115t-116 -77t-142 -27.5zM406 86q54 0 100.5 20t81.5 56t54.5 84t19.5 104q0 57 -19.5 104.5
t-54.5 83.5t-81.5 56t-100.5 20q-55 0 -102 -20t-81.5 -56t-54.5 -83.5t-20 -104.5q0 -56 20 -104t54.5 -84t81.5 -56t102 -20z" />
    <glyph glyph-name="P" unicode="P" horiz-adv-x="661" 
d="M71 0v700h324q69 0 120.5 -26.5t80 -73.5t28.5 -110q0 -61 -28.5 -108t-80.5 -73.5t-120 -26.5h-218v-282h-106zM177 371h208q61 0 97 32.5t36 85.5q0 55 -36 87t-97 32h-208v-237z" />
    <glyph glyph-name="Q" unicode="Q" horiz-adv-x="811" 
d="M631 -24l-48 59q-39 -21 -83.5 -33.5t-93.5 -12.5q-77 0 -143.5 27.5t-116.5 77t-77.5 115t-27.5 141.5t27.5 141.5t77.5 115t116.5 77t143.5 27.5q76 0 142 -27.5t116 -77t78 -115t28 -141.5q0 -77 -30 -144.5t-82 -116.5l73 -89zM406 86q31 0 59.5 7.5t52.5 21.5
l-90 108l100 25l65 -79q32 35 50.5 81.5t18.5 99.5q0 57 -19.5 104.5t-54.5 83.5t-81.5 56t-100.5 20q-55 0 -102 -20t-81.5 -56t-54.5 -83.5t-20 -104.5q0 -56 20 -104t54.5 -84t81.5 -56t102 -20z" />
    <glyph glyph-name="R" unicode="R" horiz-adv-x="659" 
d="M71 0v700h318q70 0 122.5 -26t81.5 -72.5t29 -109.5q0 -68 -39 -118t-104 -72l156 -302h-118l-144 287h-196v-287h-106zM177 375h203q62 0 99 31.5t37 84.5t-37 85t-99 32h-203v-233z" />
    <glyph glyph-name="S" unicode="S" horiz-adv-x="613" 
d="M308 -10q-84 0 -162 32.5t-138 93.5l64 75q57 -56 116.5 -83.5t125.5 -27.5q50 0 88 15t59.5 41.5t21.5 60.5q0 47 -33 72t-109 38l-117 19q-96 16 -143.5 61t-47.5 120q0 61 32 106.5t90.5 70.5t136.5 25q75 0 148.5 -24.5t132.5 -70.5l-58 -80q-113 86 -229 86
q-46 0 -80 -13t-53 -36.5t-19 -55.5q0 -42 29 -64t96 -33l113 -19q111 -18 163 -65t52 -129q0 -64 -34.5 -112.5t-98 -75.5t-146.5 -27z" />
    <glyph glyph-name="T" unicode="T" horiz-adv-x="632" 
d="M263 0v606h-246v94h597v-94h-245v-606h-106z" />
    <glyph glyph-name="U" unicode="U" horiz-adv-x="713" 
d="M356 -11q-91 0 -158 38t-103.5 107.5t-36.5 164.5v401h106v-401q0 -65 23.5 -112.5t67.5 -73.5t102 -26t101 26t67 73.5t24 112.5v401h105v-401q0 -95 -36.5 -164.5t-103 -107.5t-158.5 -38z" />
    <glyph glyph-name="V" unicode="V" horiz-adv-x="701" 
d="M286 0l-285 700h114l236 -596l241 596h109l-290 -700h-125z" />
    <glyph glyph-name="W" unicode="W" horiz-adv-x="908" 
d="M184 0l-153 700h108l109 -534l158 534h100l158 -533l110 533h103l-152 -700h-109l-161 549l-162 -549h-109z" />
    <glyph glyph-name="X" unicode="X" horiz-adv-x="664" 
d="M1 0l268 362l-253 338h127l189 -258l188 258h123l-250 -337l271 -363h-127l-207 284l-207 -284h-122z" />
    <glyph glyph-name="Y" unicode="Y" horiz-adv-x="667" 
d="M281 0v278l-282 422h123l215 -329l215 329h117l-283 -424v-276h-105z" />
    <glyph glyph-name="Z" unicode="Z" horiz-adv-x="609" 
d="M23 0v73l420 535h-417v92h555v-73l-421 -535h427v-92h-564z" />
    <glyph glyph-name="bracketleft" unicode="[" horiz-adv-x="367" 
d="M57 -209v909h272v-80h-177v-750h177v-79h-272z" />
    <glyph glyph-name="backslash" unicode="\" horiz-adv-x="486" 
d="M446 -206l-416 906h103l416 -906h-103z" />
    <glyph glyph-name="bracketright" unicode="]" horiz-adv-x="367" 
d="M310 700v-909h-272v79h176v750h-176v80h272z" />
    <glyph glyph-name="asciicircum" unicode="^" horiz-adv-x="555" 
d="M52 350l183 350h86l183 -350h-86l-140 270l-141 -270h-85z" />
    <glyph glyph-name="underscore" unicode="_" horiz-adv-x="487" 
d="M-1 -153v73h489v-73h-489z" />
    <glyph glyph-name="grave" unicode="`" 
d="M283 603l-128 122h122l90 -122h-84z" />
    <glyph glyph-name="a" unicode="a" horiz-adv-x="533" 
d="M220 -9q-55 0 -97 19.5t-66 54.5t-24 81q0 72 55 113.5t151 41.5q75 0 139 -29v54q0 54 -31.5 81.5t-92.5 27.5q-35 0 -73 -10.5t-85 -33.5l-37 76q58 27 108 39.5t101 12.5q99 0 153.5 -47t54.5 -134v-338h-98v44q-34 -27 -73 -40t-85 -13zM129 148q0 -37 31.5 -59.5
t82.5 -22.5q40 0 73.5 11.5t61.5 36.5v86q-29 17 -60.5 24.5t-70.5 7.5q-54 0 -86 -23t-32 -61z" />
    <glyph glyph-name="b" unicode="b" horiz-adv-x="607" 
d="M59 0v700l101 19v-258q63 56 154 56q73 0 131 -35t92.5 -94t34.5 -133t-34.5 -133.5t-93 -94.5t-132.5 -35q-42 0 -81.5 13.5t-72.5 38.5v-44h-99zM301 79q49 0 87.5 23t61.5 62.5t23 89.5t-23 90t-61.5 63t-87.5 23q-43 0 -80 -16t-61 -45v-229q24 -29 61.5 -45
t79.5 -16z" />
    <glyph glyph-name="c" unicode="c" horiz-adv-x="521" 
d="M298 -9q-73 0 -132.5 35t-94.5 95t-35 134t35 134t94.5 95t132.5 35q58 0 111.5 -22t93.5 -62l-63 -69q-29 32 -65 48t-75 16q-46 0 -83.5 -23t-59.5 -63t-22 -89t22 -89t60.5 -63t84.5 -23q39 0 73 15t64 46l61 -65q-40 -41 -92.5 -63t-109.5 -22z" />
    <glyph glyph-name="d" unicode="d" horiz-adv-x="607" 
d="M293 -8q-71 0 -130 35t-93 94.5t-34 133.5t34.5 133t93.5 94t131 35q42 0 81 -13t72 -37v233l100 19v-719h-99v49q-65 -57 -156 -57zM307 79q43 0 79.5 16t61.5 46v229q-25 28 -62 44t-79 16q-49 0 -88 -22.5t-61.5 -62t-22.5 -89.5t22.5 -90t62 -63.5t87.5 -23.5z" />
    <glyph glyph-name="e" unicode="e" horiz-adv-x="573" 
d="M303 -9q-75 0 -135.5 35t-96 95t-35.5 134q0 73 34 133t92 95t130 35q70 0 125.5 -35.5t88 -96t32.5 -136.5v-28h-401q7 -41 30.5 -74t60 -52t79.5 -19q38 0 71.5 11.5t57.5 32.5l64 -63q-44 -34 -92 -50.5t-105 -16.5zM137 298h301q-7 39 -28 69.5t-52.5 48t-68.5 17.5
q-38 0 -70 -17t-53 -47.5t-29 -70.5z" />
    <glyph glyph-name="f" unicode="f" horiz-adv-x="398" 
d="M135 0v425h-118v84h118v76q0 80 44.5 122.5t128.5 42.5q20 0 38.5 -2t33.5 -7v-87q-17 5 -31 7t-31 2q-42 0 -63 -19.5t-21 -60.5v-74h146v-84h-146v-425h-99z" />
    <glyph glyph-name="g" unicode="g" horiz-adv-x="603" 
d="M311 -214q-56 0 -109 13t-96 37l39 79q44 -23 83.5 -34t79.5 -11q67 0 101.5 31t34.5 91v58q-67 -53 -152 -53q-71 0 -129.5 34.5t-92.5 94t-34 132.5q0 72 34.5 131.5t93 94t131.5 34.5q41 0 79.5 -13.5t70.5 -38.5v43h99v-517q0 -99 -60 -152.5t-173 -53.5zM304 83
q44 0 80 15.5t60 44.5v228q-24 28 -60.5 43.5t-79.5 15.5q-48 0 -86.5 -22.5t-60.5 -62t-22 -87.5q0 -50 22.5 -89.5t61 -62.5t85.5 -23z" />
    <glyph glyph-name="h" unicode="h" horiz-adv-x="568" 
d="M59 0v700l101 22v-265q59 62 153 62q58 0 103 -25t70 -70t25 -104v-320h-100v303q0 60 -34 94.5t-92 34.5q-41 0 -72.5 -17t-52.5 -49v-366h-101z" />
    <glyph glyph-name="i" unicode="i" horiz-adv-x="219" 
d="M59 0v509h101v-509h-101zM109 591q-25 0 -43 18.5t-18 43.5q0 26 18 44t43 18q26 0 44 -18t18 -44q0 -25 -18 -43.5t-44 -18.5z" />
    <glyph glyph-name="j" unicode="j" horiz-adv-x="219" 
d="M109 591q-25 0 -43 18.5t-18 43.5q0 26 18 44t43 18q26 0 44 -18t18 -44q0 -25 -18 -43.5t-44 -18.5zM14 -214q-16 0 -31.5 2.5t-25.5 4.5v80q17 -4 40 -4q33 0 47.5 15t14.5 47v578h101v-585q0 -66 -38 -102t-108 -36z" />
    <glyph glyph-name="k" unicode="k" horiz-adv-x="525" 
d="M59 0v700l101 19v-433l246 223h118l-263 -238l277 -271h-133l-245 239v-239h-101z" />
    <glyph glyph-name="l" unicode="l" horiz-adv-x="219" 
d="M59 0v700l101 19v-719h-101z" />
    <glyph glyph-name="m" unicode="m" horiz-adv-x="879" 
d="M59 0v509h101v-48q56 58 142 58q52 0 93 -22.5t65 -62.5q31 43 74.5 64t97.5 21q56 0 98.5 -25t67 -70t24.5 -104v-320h-100v303q0 60 -31.5 94.5t-84.5 34.5q-37 0 -67.5 -17.5t-52.5 -51.5q2 -10 3 -20.5t1 -22.5v-320h-99v303q0 60 -31.5 94.5t-84.5 34.5
q-36 0 -65.5 -15.5t-49.5 -46.5v-370h-101z" />
    <glyph glyph-name="n" unicode="n" horiz-adv-x="568" 
d="M59 0v509h101v-52q59 62 153 62q58 0 103 -25t70 -70t25 -104v-320h-100v303q0 60 -34 94.5t-92 34.5q-41 0 -72.5 -17t-52.5 -49v-366h-101z" />
    <glyph glyph-name="o" unicode="o" horiz-adv-x="602" 
d="M301 -10q-74 0 -134.5 35t-95.5 95t-35 134t35 134.5t95.5 95.5t134.5 35q75 0 135 -35t95 -95t35 -135q0 -74 -35 -134t-95 -95t-135 -35zM301 78q47 0 84.5 23.5t60 63.5t22.5 89q0 50 -22.5 89.5t-60 63t-84.5 23.5q-46 0 -84 -23.5t-60.5 -63t-22.5 -89.5
q0 -49 22.5 -89t60.5 -63.5t84 -23.5z" />
    <glyph glyph-name="p" unicode="p" horiz-adv-x="607" 
d="M59 -204v713h99v-49q65 57 156 57q73 0 131 -35t92.5 -94t34.5 -133t-34.5 -133.5t-93 -94.5t-132.5 -35q-42 0 -81 13.5t-71 37.5v-247h-101zM301 79q49 0 87.5 23t61.5 62.5t23 89.5t-23 90t-61.5 63t-87.5 23q-43 0 -80 -16t-61 -45v-229q24 -29 61.5 -45t79.5 -16z
" />
    <glyph glyph-name="q" unicode="q" horiz-adv-x="607" 
d="M448 -204v251q-65 -55 -155 -55q-71 0 -130 35t-93 94.5t-34 133.5t34.5 133t93.5 94t131 35q43 0 82.5 -13.5t71.5 -37.5v43h99v-713h-100zM307 79q43 0 79.5 16t61.5 46v229q-25 28 -62 44t-79 16q-49 0 -88 -22.5t-61.5 -62t-22.5 -89.5t22.5 -90t62 -63.5t87.5 -23.5
z" />
    <glyph glyph-name="r" unicode="r" horiz-adv-x="372" 
d="M59 0v509h101v-65q23 37 58.5 57t80.5 20q31 -1 51 -9v-90q-13 6 -28.5 8.5t-30.5 2.5q-44 0 -77.5 -24t-53.5 -68v-341h-101z" />
    <glyph glyph-name="s" unicode="s" horiz-adv-x="465" 
d="M234 -10q-66 0 -123.5 19.5t-99.5 55.5l55 67q39 -32 81 -48t84 -16q54 0 88 21t34 54q0 28 -20 43.5t-62 21.5l-92 14q-76 11 -114 47t-38 96q0 46 25 80.5t70 54t105 19.5q56 0 106.5 -16t97.5 -50l-50 -66q-43 28 -82 41t-80 13q-45 0 -73.5 -19.5t-28.5 -50.5
q0 -28 20 -43t64 -22l92 -13q76 -10 115 -46t39 -96q0 -46 -28 -82.5t-76 -57.5t-109 -21z" />
    <glyph glyph-name="t" unicode="t" horiz-adv-x="390" 
d="M277 -9q-74 0 -113 34.5t-39 100.5v299h-108v84h108v130l100 24v-154h150v-84h-150v-276q0 -39 17 -55.5t58 -16.5q20 0 36.5 3t36.5 10v-85q-20 -7 -47 -10.5t-49 -3.5z" />
    <glyph glyph-name="u" unicode="u" horiz-adv-x="568" 
d="M256 -10q-59 0 -104 25.5t-70.5 70.5t-25.5 104v319h100v-302q0 -60 34.5 -95t92.5 -35q41 0 73 18t52 49v365h101v-509h-101v51q-59 -61 -152 -61z" />
    <glyph glyph-name="v" unicode="v" horiz-adv-x="541" 
d="M223 0l-220 509h110l159 -380l159 380h107l-219 -509h-96z" />
    <glyph glyph-name="w" unicode="w" horiz-adv-x="732" 
d="M154 0l-142 509h97l99 -373l116 373h87l115 -373l99 373h95l-143 -509h-96l-115 372l-115 -372h-97z" />
    <glyph glyph-name="x" unicode="x" horiz-adv-x="518" 
d="M2 0l198 261l-190 248h118l131 -174l130 174h114l-188 -247l200 -262h-118l-140 188l-142 -188h-113z" />
    <glyph glyph-name="y" unicode="y" horiz-adv-x="538" 
d="M93 -215q-16 0 -30 1.5t-23 4.5v88q18 -4 44 -4q70 0 102 75l21 49l-204 510h111l149 -387l163 387h108l-246 -572q-23 -54 -50.5 -87.5t-62.5 -49t-82 -15.5z" />
    <glyph glyph-name="z" unicode="z" horiz-adv-x="478" 
d="M29 0v75l285 348h-282v86h408v-73l-286 -349h291v-87h-416z" />
    <glyph glyph-name="braceleft" unicode="{" horiz-adv-x="402" 
d="M274 -216q-62 0 -101 27t-49.5 73t12.5 102l38 97q21 53 1.5 89t-71.5 36h-81v79h81q52 0 71.5 36.5t-1.5 88.5l-38 96q-23 57 -12.5 103t49.5 73t101 27q22 0 43 -4t45 -12l-17 -74q-17 6 -31.5 8.5t-31.5 2.5q-45 0 -61.5 -31.5t2.5 -80.5l43 -112q22 -56 -3.5 -101
t-83.5 -59q59 -15 83.5 -60.5t3.5 -100.5l-43 -112q-19 -48 -2.5 -80t61.5 -32q17 0 31.5 2.5t31.5 8.5l17 -74q-24 -8 -45 -12t-43 -4z" />
    <glyph glyph-name="bar" unicode="|" horiz-adv-x="299" 
d="M104 -206v906h91v-906h-91z" />
    <glyph glyph-name="braceright" unicode="}" horiz-adv-x="402" 
d="M128 711q62 0 101 -27t49.5 -72.5t-12.5 -102.5l-38 -97q-21 -53 -1.5 -89t71.5 -36h81v-78h-81q-52 0 -71.5 -36.5t1.5 -89.5l38 -96q24 -56 13 -102.5t-50 -73.5t-101 -27q-22 0 -43 4t-45 12l17 74q17 -6 31.5 -8.5t30.5 -2.5q45 0 62 32t-2 80l-43 112q-22 56 3 101
t83 59q-58 16 -82.5 61t-3.5 100l43 113q19 48 2 79.5t-62 31.5q-16 0 -30.5 -2.5t-31.5 -8.5l-17 74q24 8 45 12t43 4z" />
    <glyph glyph-name="asciitilde" unicode="~" horiz-adv-x="585" 
d="M108 294l-72 9q9 75 43.5 115.5t89.5 40.5q21 0 43.5 -6.5t49.5 -20.5l82 -41q23 -11 37.5 -16t26.5 -5q58 0 69 86l72 -8q-9 -76 -44 -116.5t-89 -40.5q-20 0 -43.5 6.5t-49.5 20.5l-83 41q-24 13 -37.5 17t-25.5 4q-58 0 -69 -86z" />
    <glyph glyph-name="uni00A0" unicode="&#xa0;" horiz-adv-x="209" 
 />
    <glyph glyph-name="exclamdown" unicode="&#xa1;" horiz-adv-x="216" 
d="M148 296l12 -504h-103l12 504h79zM108 505q26 0 45 -19t19 -45t-19 -45t-45 -19t-45 19t-19 45t19 45t45 19z" />
    <glyph glyph-name="cent" unicode="&#xa2;" horiz-adv-x="522" 
d="M267 -116v108q-65 8 -117.5 44t-83 93t-30.5 126t30.5 125.5t83 93t117.5 44.5v96h55v-96q52 -4 99 -25.5t82 -57.5l-63 -69q-25 27 -55 43t-63 19v-347q32 4 61.5 19t55.5 41l61 -65q-36 -36 -81.5 -58t-96.5 -26v-108h-55zM135 255q0 -43 17 -79.5t47 -60t68 -31.5v342
q-38 -8 -68 -32.5t-47 -60t-17 -78.5z" />
    <glyph glyph-name="sterling" unicode="&#xa3;" horiz-adv-x="629" 
d="M463 -23q-15 0 -31 2t-33 6l-190 41q-10 2 -20 3.5t-19 1.5q-32 0 -55 -16.5t-40 -50.5l-75 48q27 47 61.5 72t80.5 29q22 18 22 55q0 2 -0.5 7t-2.5 17.5t-6.5 38t-12.5 70.5h-102v70h89q-7 40 -11 62.5t-5 35.5t-1 22q0 67 27.5 116t78.5 76.5t121 27.5q93 0 153 -45
t83 -133l-85 -26q-15 58 -53 89t-96 31q-65 0 -99.5 -35.5t-34.5 -98.5q0 -8 1 -19t5 -34.5t12 -68.5h201v-70h-188q7 -35 10 -56t5 -33t2.5 -18t0.5 -10q0 -49 -27 -79l185 -39q11 -2 21 -3.5t20 -1.5q59 0 90 60l74 -46q-55 -98 -156 -98z" />
    <glyph glyph-name="currency" unicode="&#xa4;" horiz-adv-x="684" 
d="M89 56l-51 51l94 95q-24 32 -38 73.5t-14 86.5q0 46 14 86.5t38 72.5l-94 96l51 52l96 -96q32 25 72 38.5t85 13.5t85 -14t73 -39l95 97l50 -51l-95 -96q25 -32 39.5 -73t14.5 -87q0 -45 -14 -86t-39 -74l95 -96l-51 -51l-95 96q-33 -25 -73 -39t-85 -14t-85.5 14
t-73.5 39zM342 186q46 0 84 23.5t60.5 63.5t22.5 89q0 50 -22.5 89.5t-60.5 63t-84 23.5q-47 0 -84.5 -23.5t-60 -63t-22.5 -89.5q0 -49 22.5 -89t60 -63.5t84.5 -23.5z" />
    <glyph glyph-name="yen" unicode="&#xa5;" horiz-adv-x="670" 
d="M284 0v133h-184v62h184v68h-184v62h154l-249 375h123l212 -329l208 329h117l-245 -375h150v-62h-181v-68h181v-62h-181v-133h-105z" />
    <glyph glyph-name="brokenbar" unicode="&#xa6;" horiz-adv-x="300" 
d="M104 288v412h93v-412h-93zM104 -206v412h93v-412h-93z" />
    <glyph glyph-name="section" unicode="&#xa7;" horiz-adv-x="571" 
d="M280 -52q-48 0 -96 13.5t-93 38.5l39 65q87 -48 150 -47q43 0 67.5 18.5t24.5 50.5q0 25 -16 42t-53 29l-108 35q-80 27 -112.5 60t-32.5 88q0 46 27 80t74 49q-43 36 -43 95q0 66 50.5 105.5t133.5 39.5q47 0 95 -13.5t93 -38.5l-39 -65q-84 48 -150 48
q-43 0 -67.5 -18.5t-24.5 -51.5q0 -25 16.5 -41.5t53.5 -29.5l107 -35q80 -26 112.5 -59t32.5 -89q0 -46 -26.5 -80t-74.5 -50q43 -36 43 -95q0 -65 -50.5 -104.5t-132.5 -39.5zM347 227q41 5 65 26.5t24 53.5q0 29 -19.5 48t-62.5 33l-116 37q-4 1 -7.5 2.5t-6.5 2.5
q-41 -5 -65 -26t-24 -54q0 -28 19.5 -46.5t62.5 -33.5l116 -38q4 -1 7.5 -2t6.5 -3z" />
    <glyph glyph-name="dieresis" unicode="&#xa8;" 
d="M203 608q-25 0 -42.5 17t-17.5 42q0 24 17.5 41t41.5 17q26 0 43 -17t17 -41q0 -25 -17 -42t-42 -17zM398 608q-25 0 -42.5 17t-17.5 42q0 24 17.5 41t42.5 17t42 -17t17 -41q0 -25 -17 -42t-42 -17z" />
    <glyph glyph-name="copyright" unicode="&#xa9;" horiz-adv-x="798" 
d="M408 164q-52 0 -94.5 24.5t-67 67t-24.5 94.5q0 53 24.5 95t67 67.5t94.5 25.5q42 0 80.5 -16t65.5 -46l-49 -53q-20 23 -44 34t-51 11q-31 0 -55.5 -15.5t-39.5 -42t-15 -60.5q0 -32 15 -58.5t40 -42t56 -15.5q27 0 50 10.5t43 31.5l49 -51q-29 -30 -66 -45.5t-79 -15.5
zM399 -11q-76 0 -141 27.5t-114 77t-76 115t-27 141.5t27 141.5t76 115t114 77t141 27.5q75 0 140.5 -27.5t114 -76.5t76 -114.5t27.5 -142.5q0 -76 -27.5 -142t-76 -115t-114 -76.5t-140.5 -27.5zM399 42q63 0 118 23.5t96 66t64.5 98.5t23.5 120t-23.5 120t-64.5 98.5
t-96 66t-118 23.5t-117.5 -23.5t-95.5 -66t-64.5 -98.5t-23.5 -120t23.5 -120t64.5 -98.5t95.5 -66t117.5 -23.5z" />
    <glyph glyph-name="ordfeminine" unicode="&#xaa;" horiz-adv-x="421" 
d="M173 313q-63 0 -102.5 32t-39.5 85q0 54 42 85t115 31q27 0 52.5 -5t48.5 -14v37q0 78 -90 78q-25 0 -53.5 -7.5t-65.5 -24.5l-29 61q43 21 82.5 30.5t77.5 9.5q76 0 117 -36t41 -103v-252h-80v31q-49 -38 -116 -38zM192 373q28 0 52.5 8.5t44.5 23.5v64q-20 12 -43.5 17
t-50.5 5q-39 0 -62 -16t-23 -43t22.5 -43t59.5 -16z" />
    <glyph glyph-name="guillemotleft" unicode="&#xab;" horiz-adv-x="632" 
d="M263 0l-237 255l237 254h105l-231 -252l234 -257h-108zM488 0l-238 255l238 254h105l-232 -252l235 -257h-108z" />
    <glyph glyph-name="logicalnot" unicode="&#xac;" horiz-adv-x="588" 
d="M449 0v248h-385v78h465v-326h-80z" />
    <glyph glyph-name="registered" unicode="&#xae;" horiz-adv-x="488" 
d="M244 309q-57 0 -102.5 27t-72.5 73.5t-27 102.5q0 58 27 104t72.5 73t102.5 27q56 0 102 -27t73 -73t27 -104q0 -56 -27 -102.5t-73 -73.5t-102 -27zM243 347q48 0 84 21.5t56.5 59t20.5 84.5q0 48 -20.5 85.5t-56.5 58.5t-84 21q-45 0 -81.5 -21t-57 -58.5t-20.5 -85.5
q0 -46 20.5 -83.5t57 -59.5t81.5 -22zM175 419v188h79q30 0 47 -15.5t17 -42.5q0 -16 -9.5 -30t-24.5 -22l45 -78h-44l-39 69h-31v-69h-40zM247 576h-32v-58h31q32 0 32 29q0 14 -7.5 21.5t-23.5 7.5z" />
    <glyph glyph-name="macron" unicode="&#xaf;" 
d="M150 623v67h300v-67h-300z" />
    <glyph glyph-name="degree" unicode="&#xb0;" horiz-adv-x="403" 
d="M202 419q-41 0 -74.5 20t-53 53.5t-19.5 72.5q0 40 19.5 73t53 53t74.5 20t74 -20t52.5 -53t19.5 -73q0 -39 -19.5 -72.5t-52.5 -53.5t-74 -20zM202 478q35 0 60.5 25.5t25.5 61.5t-25.5 61.5t-60.5 25.5q-36 0 -61.5 -25.5t-25.5 -61.5t25.5 -61.5t61.5 -25.5z" />
    <glyph glyph-name="plusminus" unicode="&#xb1;" 
d="M94 -1v78h412v-78h-412zM260 184v168h-166v78h166v168h80v-168h166v-78h-166v-168h-80z" />
    <glyph glyph-name="uni00B2" unicode="&#xb2;" horiz-adv-x="298" 
d="M26 350v47l138 124q25 22 35 38.5t10 34.5q0 24 -18 39.5t-47 15.5q-24 0 -46 -10t-48 -33l-37 43q31 27 64.5 41.5t68.5 14.5q56 0 91.5 -30t35.5 -77q0 -30 -15 -56t-52 -60l-86 -77h158v-55h-252z" />
    <glyph glyph-name="uni00B3" unicode="&#xb3;" horiz-adv-x="320" 
d="M154 345q-40 0 -76.5 14t-60.5 40l44 41q22 -21 42.5 -30t50.5 -9q33 0 53 14.5t20 36.5q0 20 -18.5 32t-49.5 12h-32v53h26q27 0 45 15t18 37q0 21 -17.5 34t-45.5 13q-27 0 -46.5 -9t-41.5 -32l-45 41q26 27 61.5 42.5t73.5 15.5q56 0 92 -27.5t35 -71.5
q1 -25 -13.5 -46.5t-39.5 -34.5q30 -10 47.5 -30.5t17.5 -48.5q0 -44 -39.5 -73t-100.5 -29z" />
    <glyph glyph-name="acute" unicode="&#xb4;" 
d="M229 603l92 122h121l-129 -122h-84z" />
    <glyph glyph-name="uni00B5" unicode="&#xb5;" horiz-adv-x="578" 
d="M63 -204v713h100v-305q0 -60 34.5 -95t91.5 -35q41 0 73 18.5t52 53.5v363h101v-509h-101v69q-28 -38 -67 -58t-88 -20q-28 0 -52.5 6.5t-43.5 20.5v-222h-100z" />
    <glyph glyph-name="paragraph" unicode="&#xb6;" horiz-adv-x="671" 
d="M316 0v274h-50q-68 0 -121 26.5t-82.5 74.5t-29.5 110q0 65 29.5 113t82 75t120.5 27h335v-700h-88v274h-109v-274h-87zM403 356h109v261h-109v-261zM264 356h52v261h-52q-62 0 -100 -35.5t-38 -94.5t38 -95t100 -36z" />
    <glyph glyph-name="periodcentered" unicode="&#xb7;" horiz-adv-x="250" 
d="M125 220q-26 0 -45 18.5t-19 44.5q0 27 19 45.5t45 18.5t45 -18.5t19 -44.5q0 -27 -19 -45.5t-45 -18.5z" />
    <glyph glyph-name="cedilla" unicode="&#xb8;" 
d="M291 -231q-72 0 -119 42l37 39q37 -31 81 -31q28 0 44 12.5t16 32.5t-17 31.5t-46 11.5h-35l27 93h53l-14 -51q44 -3 69.5 -25.5t25.5 -59.5q0 -41 -35 -68t-87 -27z" />
    <glyph glyph-name="uni00B9" unicode="&#xb9;" horiz-adv-x="178" 
d="M86 350v283l-68 -27v56l92 38h42v-350h-66z" />
    <glyph glyph-name="ordmasculine" unicode="&#xba;" horiz-adv-x="472" 
d="M236 310q-56 0 -101.5 27t-72.5 72.5t-27 101.5t27 101t72.5 72t101.5 27t101.5 -27t72.5 -72t27 -101t-27 -101.5t-72.5 -72.5t-101.5 -27zM236 382q34 0 61 17t43 46t16 66q0 36 -16 65t-43 46t-61 17t-61 -17t-43 -46t-16 -65q0 -37 16 -66t43 -46t61 -17z" />
    <glyph glyph-name="guillemotright" unicode="&#xbb;" horiz-adv-x="632" 
d="M369 509l237 -255l-237 -254h-105l231 253l-234 256h108zM143 509l238 -255l-238 -254h-104l231 253l-234 256h107z" />
    <glyph glyph-name="onequarter" unicode="&#xbc;" horiz-adv-x="629" 
d="M506 0v83h-197v53l188 214h75v-212h44v-55h-44v-83h-66zM384 138h122v138zM86 350v283l-68 -27v56l92 38h42v-350h-66zM44 1l394 700h79l-395 -700h-78z" />
    <glyph glyph-name="onehalf" unicode="&#xbd;" horiz-adv-x="660" 
d="M86 350v283l-68 -27v56l92 38h42v-350h-66zM44 0l394 700h79l-395 -700h-78zM389 0v47l138 124q25 22 35 38.5t10 34.5q0 24 -18 39.5t-47 15.5q-24 0 -46 -10t-48 -33l-37 43q31 27 64.5 41.5t68.5 14.5q56 0 91.5 -30t35.5 -77q0 -30 -15 -56t-52 -60l-86 -77h158v-55
h-252z" />
    <glyph glyph-name="threequarters" unicode="&#xbe;" horiz-adv-x="723" 
d="M600 0v83h-197v53l188 214h75v-212h44v-55h-44v-83h-66zM478 138h122v138zM154 345q-40 0 -76.5 14t-60.5 40l44 41q22 -21 42.5 -30t50.5 -9q33 0 53 14.5t20 36.5q0 20 -18.5 32t-49.5 12h-32v53h26q27 0 45 15t18 37q0 21 -17.5 34t-45.5 13q-27 0 -46.5 -9t-41.5 -32
l-45 41q26 27 61.5 42.5t73.5 15.5q56 0 92 -27.5t35 -71.5q1 -25 -13.5 -46.5t-39.5 -34.5q30 -10 47.5 -30.5t17.5 -48.5q0 -44 -39.5 -73t-100.5 -29zM138 0l394 700h79l-395 -700h-78z" />
    <glyph glyph-name="questiondown" unicode="&#xbf;" horiz-adv-x="514" 
d="M326 292q3 -45 -4 -78.5t-25 -59t-51 -49.5l-47 -33q-37 -28 -53.5 -51.5t-16.5 -52.5q0 -26 17 -48t46.5 -35t65.5 -13q48 0 88.5 23t69.5 66l80 -42q-26 -42 -63.5 -71.5t-83 -45.5t-96.5 -16q-63 0 -113.5 23.5t-80 64t-29.5 91.5q0 35 11 63t37.5 54.5t71.5 57.5
l31 22q35 24 49 54t11 76h85zM283 505q26 0 45 -19t19 -45t-19 -45t-45 -19t-44.5 19t-18.5 45t18.5 45t44.5 19z" />
    <glyph glyph-name="Agrave" unicode="&#xc0;" horiz-adv-x="701" 
d="M1 0l289 700h124l287 -700h-115l-81 205h-313l-82 -205h-109zM227 292h244l-122 307zM328 794l-128 122h122l90 -122h-84z" />
    <glyph glyph-name="Aacute" unicode="&#xc1;" horiz-adv-x="701" 
d="M1 0l289 700h124l287 -700h-115l-81 205h-313l-82 -205h-109zM227 292h244l-122 307zM280 794l92 122h121l-129 -122h-84z" />
    <glyph glyph-name="Acircumflex" unicode="&#xc2;" horiz-adv-x="701" 
d="M1 0l289 700h124l287 -700h-115l-81 205h-313l-82 -205h-109zM227 292h244l-122 307zM429 791l-79 77l-79 -77h-81l108 127h106l108 -127h-83z" />
    <glyph glyph-name="Atilde" unicode="&#xc3;" horiz-adv-x="701" 
d="M1 0l289 700h124l287 -700h-115l-81 205h-313l-82 -205h-109zM227 292h244l-122 307zM238 786l-66 14q24 109 103 109q27 0 53 -13.5t49 -26.5t43 -13q17 0 27.5 12.5t17.5 42.5l64 -13q-11 -55 -37 -82t-65 -27q-26 0 -52 13.5t-50 26.5t-44 13q-18 0 -27.5 -13
t-15.5 -43z" />
    <glyph glyph-name="Adieresis" unicode="&#xc4;" horiz-adv-x="701" 
d="M1 0l289 700h124l287 -700h-115l-81 205h-313l-82 -205h-109zM227 292h244l-122 307zM254 799q-25 0 -42.5 17t-17.5 42q0 24 17.5 41t41.5 17q26 0 43 -17t17 -41q0 -25 -17 -42t-42 -17zM449 799q-25 0 -42.5 17t-17.5 42q0 24 17.5 41t42.5 17t42 -17t17 -41
q0 -25 -17 -42t-42 -17z" />
    <glyph glyph-name="Aring" unicode="&#xc5;" horiz-adv-x="701" 
d="M1 0l289 700h124l287 -700h-115l-81 205h-313l-82 -205h-109zM227 292h244l-122 307zM351 775q-32 0 -58.5 15.5t-42.5 42t-16 57.5q0 32 16 58t42.5 41.5t58.5 15.5t58.5 -15.5t42.5 -41.5t16 -58q0 -31 -16 -57.5t-42.5 -42t-58.5 -15.5zM351 823q28 0 47.5 19.5
t19.5 47.5t-19.5 47.5t-47.5 19.5t-47.5 -19.5t-19.5 -47.5t19.5 -47.5t47.5 -19.5z" />
    <glyph glyph-name="AE" unicode="&#xc6;" horiz-adv-x="965" 
d="M1 0l289 700h639v-92h-475l84 -210h255v-90h-220l86 -216h270v-92h-343l-81 205h-313l-82 -205h-109zM227 292h244l-121 307z" />
    <glyph glyph-name="Ccedilla" unicode="&#xc7;" horiz-adv-x="720" 
d="M391 -231q-71 0 -118 42l37 39q37 -31 81 -31q28 0 44 12.5t16 32.5t-17 31.5t-46 11.5h-35l24 84q-72 5 -133 34.5t-107 78t-71 111.5t-25 135q0 76 27.5 141.5t78 115t117.5 77t144 27.5q56 0 108 -14.5t96.5 -41.5t78.5 -66l-71 -72q-40 47 -95.5 72t-116.5 25
q-56 0 -103 -20t-82 -56t-55 -83.5t-20 -104.5q0 -56 20 -104t55.5 -83.5t83.5 -55.5t104 -20q61 0 115 24.5t93 68.5l69 -70q-48 -53 -115.5 -84t-142.5 -36l-11 -41q44 -3 69.5 -25.5t25.5 -59.5q0 -41 -35 -68t-88 -27z" />
    <glyph glyph-name="Egrave" unicode="&#xc8;" horiz-adv-x="628" 
d="M71 0v700h517v-92h-411v-210h269v-90h-269v-216h415v-92h-521zM319 794l-128 122h122l90 -122h-84z" />
    <glyph glyph-name="Eacute" unicode="&#xc9;" horiz-adv-x="628" 
d="M71 0v700h517v-92h-411v-210h269v-90h-269v-216h415v-92h-521zM271 794l92 122h121l-129 -122h-84z" />
    <glyph glyph-name="Ecircumflex" unicode="&#xca;" horiz-adv-x="628" 
d="M71 0v700h517v-92h-411v-210h269v-90h-269v-216h415v-92h-521zM420 791l-79 77l-79 -77h-81l108 127h106l108 -127h-83z" />
    <glyph glyph-name="Edieresis" unicode="&#xcb;" horiz-adv-x="628" 
d="M71 0v700h517v-92h-411v-210h269v-90h-269v-216h415v-92h-521zM245 799q-25 0 -42.5 17t-17.5 42q0 24 17.5 41t41.5 17q26 0 43 -17t17 -41q0 -25 -17 -42t-42 -17zM440 799q-25 0 -42.5 17t-17.5 42q0 24 17.5 41t42.5 17t42 -17t17 -41q0 -25 -17 -42t-42 -17z" />
    <glyph glyph-name="Igrave" unicode="&#xcc;" horiz-adv-x="248" 
d="M71 0v700h106v-700h-106zM101 794l-128 122h122l90 -122h-84z" />
    <glyph glyph-name="Iacute" unicode="&#xcd;" horiz-adv-x="248" 
d="M71 0v700h106v-700h-106zM53 794l92 122h121l-129 -122h-84z" />
    <glyph glyph-name="Icircumflex" unicode="&#xce;" horiz-adv-x="248" 
d="M71 0v700h106v-700h-106zM202 791l-79 77l-79 -77h-81l108 127h106l108 -127h-83z" />
    <glyph glyph-name="Idieresis" unicode="&#xcf;" horiz-adv-x="248" 
d="M71 0v700h106v-700h-106zM27 799q-25 0 -42.5 17t-17.5 42q0 24 17.5 41t41.5 17q26 0 43 -17t17 -41q0 -25 -17 -42t-42 -17zM222 799q-25 0 -42.5 17t-17.5 42q0 24 17.5 41t42.5 17t42 -17t17 -41q0 -25 -17 -42t-42 -17z" />
    <glyph glyph-name="Eth" unicode="&#xd0;" horiz-adv-x="755" 
d="M98 0v307h-83v87h83v306h247q79 0 146 -26.5t117 -73.5t77.5 -111t27.5 -140q0 -75 -27 -138.5t-77 -110.5t-117.5 -73.5t-146.5 -26.5h-247zM203 95h143q56 0 102.5 19t82 53.5t55 81t19.5 101.5q0 54 -19.5 100.5t-55 81.5t-82.5 54t-102 19h-143v-211h180v-87h-180
v-212z" />
    <glyph glyph-name="Ntilde" unicode="&#xd1;" horiz-adv-x="735" 
d="M71 0v700h103l390 -519v519h100v-700h-94l-399 535v-535h-100zM254 786l-66 14q24 109 103 109q27 0 53 -13.5t49 -26.5t43 -13q17 0 27.5 12.5t17.5 42.5l64 -13q-11 -55 -37 -82t-65 -27q-26 0 -52 13.5t-50 26.5t-44 13q-18 0 -27.5 -13t-15.5 -43z" />
    <glyph glyph-name="Ograve" unicode="&#xd2;" horiz-adv-x="811" 
d="M406 -11q-77 0 -143.5 27.5t-116.5 77t-77.5 115t-27.5 141.5t27.5 141.5t77.5 115t116.5 77t143.5 27.5q76 0 142 -27.5t116 -77t78 -115t28 -141.5t-28 -141.5t-78 -115t-116 -77t-142 -27.5zM406 86q54 0 100.5 20t81.5 56t54.5 84t19.5 104q0 57 -19.5 104.5
t-54.5 83.5t-81.5 56t-100.5 20q-55 0 -102 -20t-81.5 -56t-54.5 -83.5t-20 -104.5q0 -56 20 -104t54.5 -84t81.5 -56t102 -20zM383 794l-128 122h122l90 -122h-84z" />
    <glyph glyph-name="Oacute" unicode="&#xd3;" horiz-adv-x="811" 
d="M406 -11q-77 0 -143.5 27.5t-116.5 77t-77.5 115t-27.5 141.5t27.5 141.5t77.5 115t116.5 77t143.5 27.5q76 0 142 -27.5t116 -77t78 -115t28 -141.5t-28 -141.5t-78 -115t-116 -77t-142 -27.5zM406 86q54 0 100.5 20t81.5 56t54.5 84t19.5 104q0 57 -19.5 104.5
t-54.5 83.5t-81.5 56t-100.5 20q-55 0 -102 -20t-81.5 -56t-54.5 -83.5t-20 -104.5q0 -56 20 -104t54.5 -84t81.5 -56t102 -20zM335 794l92 122h121l-129 -122h-84z" />
    <glyph glyph-name="Ocircumflex" unicode="&#xd4;" horiz-adv-x="811" 
d="M406 -11q-77 0 -143.5 27.5t-116.5 77t-77.5 115t-27.5 141.5t27.5 141.5t77.5 115t116.5 77t143.5 27.5q76 0 142 -27.5t116 -77t78 -115t28 -141.5t-28 -141.5t-78 -115t-116 -77t-142 -27.5zM406 86q54 0 100.5 20t81.5 56t54.5 84t19.5 104q0 57 -19.5 104.5
t-54.5 83.5t-81.5 56t-100.5 20q-55 0 -102 -20t-81.5 -56t-54.5 -83.5t-20 -104.5q0 -56 20 -104t54.5 -84t81.5 -56t102 -20zM484 791l-79 77l-79 -77h-81l108 127h106l108 -127h-83z" />
    <glyph glyph-name="Otilde" unicode="&#xd5;" horiz-adv-x="811" 
d="M406 -11q-77 0 -143.5 27.5t-116.5 77t-77.5 115t-27.5 141.5t27.5 141.5t77.5 115t116.5 77t143.5 27.5q76 0 142 -27.5t116 -77t78 -115t28 -141.5t-28 -141.5t-78 -115t-116 -77t-142 -27.5zM406 86q54 0 100.5 20t81.5 56t54.5 84t19.5 104q0 57 -19.5 104.5
t-54.5 83.5t-81.5 56t-100.5 20q-55 0 -102 -20t-81.5 -56t-54.5 -83.5t-20 -104.5q0 -56 20 -104t54.5 -84t81.5 -56t102 -20zM293 786l-66 14q24 109 103 109q27 0 53 -13.5t49 -26.5t43 -13q17 0 27.5 12.5t17.5 42.5l64 -13q-11 -55 -37 -82t-65 -27q-26 0 -52 13.5
t-50 26.5t-44 13q-18 0 -27.5 -13t-15.5 -43z" />
    <glyph glyph-name="Odieresis" unicode="&#xd6;" horiz-adv-x="811" 
d="M406 -11q-77 0 -143.5 27.5t-116.5 77t-77.5 115t-27.5 141.5t27.5 141.5t77.5 115t116.5 77t143.5 27.5q76 0 142 -27.5t116 -77t78 -115t28 -141.5t-28 -141.5t-78 -115t-116 -77t-142 -27.5zM406 86q54 0 100.5 20t81.5 56t54.5 84t19.5 104q0 57 -19.5 104.5
t-54.5 83.5t-81.5 56t-100.5 20q-55 0 -102 -20t-81.5 -56t-54.5 -83.5t-20 -104.5q0 -56 20 -104t54.5 -84t81.5 -56t102 -20zM309 799q-25 0 -42.5 17t-17.5 42q0 24 17.5 41t41.5 17q26 0 43 -17t17 -41q0 -25 -17 -42t-42 -17zM504 799q-25 0 -42.5 17t-17.5 42
q0 24 17.5 41t42.5 17t42 -17t17 -41q0 -25 -17 -42t-42 -17z" />
    <glyph glyph-name="multiply" unicode="&#xd7;" 
d="M154 153l-47 51l144 154l-145 156l48 52l146 -155l145 154l49 -50l-146 -155l146 -156l-50 -52l-145 155z" />
    <glyph glyph-name="Oslash" unicode="&#xd8;" horiz-adv-x="811" 
d="M406 -11q-57 0 -108.5 15.5t-94.5 44.5l-41 -49h-100l81 97q-48 49 -75 114t-27 139q0 76 27.5 141.5t77.5 115t116.5 77t143.5 27.5q54 0 104.5 -15t92.5 -42l38 46h101l-78 -94q49 -48 77.5 -114t28.5 -142t-28 -141.5t-78 -115t-116 -77t-142 -27.5zM210 178l329 398
q-29 19 -63 28.5t-70 9.5q-55 0 -102 -20t-81.5 -56t-54.5 -83.5t-20 -104.5q0 -50 16.5 -94t45.5 -78zM406 86q54 0 100.5 20t81.5 56t54.5 84t19.5 104q0 52 -17 97t-47 79l-331 -399q30 -19 65 -30t74 -11z" />
    <glyph glyph-name="Ugrave" unicode="&#xd9;" horiz-adv-x="713" 
d="M356 -11q-91 0 -158 38t-103.5 107.5t-36.5 164.5v401h106v-401q0 -65 23.5 -112.5t67.5 -73.5t102 -26t101 26t67 73.5t24 112.5v401h105v-401q0 -95 -36.5 -164.5t-103 -107.5t-158.5 -38zM333 794l-128 122h122l90 -122h-84z" />
    <glyph glyph-name="Uacute" unicode="&#xda;" horiz-adv-x="713" 
d="M356 -11q-91 0 -158 38t-103.5 107.5t-36.5 164.5v401h106v-401q0 -65 23.5 -112.5t67.5 -73.5t102 -26t101 26t67 73.5t24 112.5v401h105v-401q0 -95 -36.5 -164.5t-103 -107.5t-158.5 -38zM286 794l92 122h121l-129 -122h-84z" />
    <glyph glyph-name="Ucircumflex" unicode="&#xdb;" horiz-adv-x="713" 
d="M356 -11q-91 0 -158 38t-103.5 107.5t-36.5 164.5v401h106v-401q0 -65 23.5 -112.5t67.5 -73.5t102 -26t101 26t67 73.5t24 112.5v401h105v-401q0 -95 -36.5 -164.5t-103 -107.5t-158.5 -38zM435 791l-79 77l-79 -77h-81l108 127h106l108 -127h-83z" />
    <glyph glyph-name="Udieresis" unicode="&#xdc;" horiz-adv-x="713" 
d="M356 -11q-91 0 -158 38t-103.5 107.5t-36.5 164.5v401h106v-401q0 -65 23.5 -112.5t67.5 -73.5t102 -26t101 26t67 73.5t24 112.5v401h105v-401q0 -95 -36.5 -164.5t-103 -107.5t-158.5 -38zM260 799q-25 0 -42.5 17t-17.5 42q0 24 17.5 41t41.5 17q26 0 43 -17t17 -41
q0 -25 -17 -42t-42 -17zM455 799q-25 0 -42.5 17t-17.5 42q0 24 17.5 41t42.5 17t42 -17t17 -41q0 -25 -17 -42t-42 -17z" />
    <glyph glyph-name="Yacute" unicode="&#xdd;" horiz-adv-x="667" 
d="M281 0v278l-282 422h123l215 -329l215 329h117l-283 -424v-276h-105zM263 794l92 122h121l-129 -122h-84z" />
    <glyph glyph-name="Thorn" unicode="&#xde;" horiz-adv-x="654" 
d="M71 0v700h106v-136h219q64 0 114 -28.5t79 -76.5t29 -110q0 -61 -29 -109t-79 -75.5t-114 -27.5h-219v-137h-106zM177 227h208q36 0 64.5 16t45 43.5t16.5 62.5t-16.5 63t-45 44t-64.5 15h-208v-244z" />
    <glyph glyph-name="germandbls" unicode="&#xdf;" horiz-adv-x="652" 
d="M444 -11q-119 0 -204 81l55 56q66 -64 146 -64q46 0 73.5 19t27.5 50q0 30 -16.5 47.5t-58.5 30.5l-82 27q-59 20 -84 45t-25 63q0 35 18.5 57.5t45.5 38t54.5 30t46 32.5t18.5 45q0 40 -39.5 64.5t-101.5 24.5q-77 0 -118 -42t-41 -123v-471h-100v471q0 117 68 182
t189 65q73 0 127.5 -19.5t84 -55.5t29.5 -84q0 -41 -18.5 -67.5t-46 -44t-55 -31t-46 -27t-18.5 -32.5q0 -17 12 -28t47 -23l78 -27q67 -23 96 -55.5t29 -84.5q0 -68 -52.5 -109t-138.5 -41z" />
    <glyph glyph-name="agrave" unicode="&#xe0;" horiz-adv-x="533" 
d="M220 -9q-55 0 -97 19.5t-66 54.5t-24 81q0 72 55 113.5t151 41.5q75 0 139 -29v54q0 54 -31.5 81.5t-92.5 27.5q-35 0 -73 -10.5t-85 -33.5l-37 76q58 27 108 39.5t101 12.5q99 0 153.5 -47t54.5 -134v-338h-98v44q-34 -27 -73 -40t-85 -13zM129 148q0 -37 31.5 -59.5
t82.5 -22.5q40 0 73.5 11.5t61.5 36.5v86q-29 17 -60.5 24.5t-70.5 7.5q-54 0 -86 -23t-32 -61zM235 603l-128 122h122l90 -122h-84z" />
    <glyph glyph-name="aacute" unicode="&#xe1;" horiz-adv-x="533" 
d="M220 -9q-55 0 -97 19.5t-66 54.5t-24 81q0 72 55 113.5t151 41.5q75 0 139 -29v54q0 54 -31.5 81.5t-92.5 27.5q-35 0 -73 -10.5t-85 -33.5l-37 76q58 27 108 39.5t101 12.5q99 0 153.5 -47t54.5 -134v-338h-98v44q-34 -27 -73 -40t-85 -13zM129 148q0 -37 31.5 -59.5
t82.5 -22.5q40 0 73.5 11.5t61.5 36.5v86q-29 17 -60.5 24.5t-70.5 7.5q-54 0 -86 -23t-32 -61zM187 603l92 122h121l-129 -122h-84z" />
    <glyph glyph-name="acircumflex" unicode="&#xe2;" horiz-adv-x="533" 
d="M220 -9q-55 0 -97 19.5t-66 54.5t-24 81q0 72 55 113.5t151 41.5q75 0 139 -29v54q0 54 -31.5 81.5t-92.5 27.5q-35 0 -73 -10.5t-85 -33.5l-37 76q58 27 108 39.5t101 12.5q99 0 153.5 -47t54.5 -134v-338h-98v44q-34 -27 -73 -40t-85 -13zM129 148q0 -37 31.5 -59.5
t82.5 -22.5q40 0 73.5 11.5t61.5 36.5v86q-29 17 -60.5 24.5t-70.5 7.5q-54 0 -86 -23t-32 -61zM336 600l-79 77l-79 -77h-81l108 127h106l108 -127h-83z" />
    <glyph glyph-name="atilde" unicode="&#xe3;" horiz-adv-x="533" 
d="M220 -9q-55 0 -97 19.5t-66 54.5t-24 81q0 72 55 113.5t151 41.5q75 0 139 -29v54q0 54 -31.5 81.5t-92.5 27.5q-35 0 -73 -10.5t-85 -33.5l-37 76q58 27 108 39.5t101 12.5q99 0 153.5 -47t54.5 -134v-338h-98v44q-34 -27 -73 -40t-85 -13zM129 148q0 -37 31.5 -59.5
t82.5 -22.5q40 0 73.5 11.5t61.5 36.5v86q-29 17 -60.5 24.5t-70.5 7.5q-54 0 -86 -23t-32 -61zM145 596l-66 14q24 109 103 109q27 0 53 -13.5t49 -26.5t43 -13q17 0 27.5 12.5t17.5 42.5l64 -13q-11 -55 -37 -82t-65 -27q-26 0 -52 13.5t-50 26.5t-44 13q-18 0 -27.5 -13
t-15.5 -43z" />
    <glyph glyph-name="adieresis" unicode="&#xe4;" horiz-adv-x="533" 
d="M220 -9q-55 0 -97 19.5t-66 54.5t-24 81q0 72 55 113.5t151 41.5q75 0 139 -29v54q0 54 -31.5 81.5t-92.5 27.5q-35 0 -73 -10.5t-85 -33.5l-37 76q58 27 108 39.5t101 12.5q99 0 153.5 -47t54.5 -134v-338h-98v44q-34 -27 -73 -40t-85 -13zM129 148q0 -37 31.5 -59.5
t82.5 -22.5q40 0 73.5 11.5t61.5 36.5v86q-29 17 -60.5 24.5t-70.5 7.5q-54 0 -86 -23t-32 -61zM161 608q-25 0 -42.5 17t-17.5 42q0 24 17.5 41t41.5 17q26 0 43 -17t17 -41q0 -25 -17 -42t-42 -17zM356 608q-25 0 -42.5 17t-17.5 42q0 24 17.5 41t42.5 17t42 -17t17 -41
q0 -25 -17 -42t-42 -17z" />
    <glyph glyph-name="aring" unicode="&#xe5;" horiz-adv-x="533" 
d="M220 -9q-55 0 -97 19.5t-66 54.5t-24 81q0 72 55 113.5t151 41.5q75 0 139 -29v54q0 54 -31.5 81.5t-92.5 27.5q-35 0 -73 -10.5t-85 -33.5l-37 76q58 27 108 39.5t101 12.5q99 0 153.5 -47t54.5 -134v-338h-98v44q-34 -27 -73 -40t-85 -13zM129 148q0 -37 31.5 -59.5
t82.5 -22.5q40 0 73.5 11.5t61.5 36.5v86q-29 17 -60.5 24.5t-70.5 7.5q-54 0 -86 -23t-32 -61zM258 584q-32 0 -58.5 15.5t-42.5 42t-16 57.5q0 32 16 58t42.5 41.5t58.5 15.5t58.5 -15.5t42.5 -41.5t16 -58q0 -31 -16 -57.5t-42.5 -42t-58.5 -15.5zM258 632
q28 0 47.5 19.5t19.5 47.5t-19.5 47.5t-47.5 19.5t-47.5 -19.5t-19.5 -47.5t19.5 -47.5t47.5 -19.5z" />
    <glyph glyph-name="ae" unicode="&#xe6;" horiz-adv-x="915" 
d="M220 -9q-55 0 -96.5 19.5t-65 54.5t-23.5 81q0 72 55.5 113.5t150.5 41.5q74 0 137 -27v52q0 54 -31.5 81.5t-92.5 27.5q-35 0 -73 -10.5t-85 -33.5l-37 76q58 27 108 39.5t101 12.5q67 0 113.5 -22t68.5 -65q33 40 80.5 63t102.5 23q71 0 126.5 -35.5t87.5 -96
t32 -136.5v-28h-400q7 -41 30.5 -74t60 -52t79.5 -19q37 0 71 11.5t57 32.5l65 -63q-45 -34 -92.5 -50.5t-104.5 -16.5q-64 0 -117.5 26t-90.5 70q-43 -48 -97 -72t-120 -24zM479 298h301q-7 39 -28.5 69.5t-52.5 48t-68 17.5q-38 0 -70 -17t-53.5 -47.5t-28.5 -70.5z
M243 66q47 0 86.5 19t72.5 57q-6 13 -10.5 27.5t-8.5 29.5q-29 17 -62 25t-72 8q-54 0 -86 -23t-32 -61q0 -37 31 -59.5t81 -22.5z" />
    <glyph glyph-name="ccedilla" unicode="&#xe7;" horiz-adv-x="521" 
d="M284 -231q-72 0 -119 42l37 39q37 -31 81 -31q28 0 44 12.5t16 32.5t-17 31.5t-46 11.5h-35l25 85q-67 7 -120 43t-83.5 93t-30.5 127q0 74 35 134t94.5 95t132.5 35q58 0 111.5 -22t93.5 -62l-63 -69q-29 32 -65 48t-75 16q-46 0 -83.5 -23t-59.5 -63t-22 -89t22 -89
t60.5 -63t84.5 -23q39 0 73 15t64 46l61 -65q-36 -36 -81.5 -57.5t-95.5 -26.5l-12 -43q44 -3 69.5 -25.5t25.5 -59.5q0 -41 -35 -68t-87 -27z" />
    <glyph glyph-name="egrave" unicode="&#xe8;" horiz-adv-x="573" 
d="M303 -9q-75 0 -135.5 35t-96 95t-35.5 134q0 73 34 133t92 95t130 35q70 0 125.5 -35.5t88 -96t32.5 -136.5v-28h-401q7 -41 30.5 -74t60 -52t79.5 -19q38 0 71.5 11.5t57.5 32.5l64 -63q-44 -34 -92 -50.5t-105 -16.5zM137 298h301q-7 39 -28 69.5t-52.5 48t-68.5 17.5
q-38 0 -70 -17t-53 -47.5t-29 -70.5zM267 603l-128 122h122l90 -122h-84z" />
    <glyph glyph-name="eacute" unicode="&#xe9;" horiz-adv-x="573" 
d="M303 -9q-75 0 -135.5 35t-96 95t-35.5 134q0 73 34 133t92 95t130 35q70 0 125.5 -35.5t88 -96t32.5 -136.5v-28h-401q7 -41 30.5 -74t60 -52t79.5 -19q38 0 71.5 11.5t57.5 32.5l64 -63q-44 -34 -92 -50.5t-105 -16.5zM137 298h301q-7 39 -28 69.5t-52.5 48t-68.5 17.5
q-38 0 -70 -17t-53 -47.5t-29 -70.5zM219 603l92 122h121l-129 -122h-84z" />
    <glyph glyph-name="ecircumflex" unicode="&#xea;" horiz-adv-x="573" 
d="M303 -9q-75 0 -135.5 35t-96 95t-35.5 134q0 73 34 133t92 95t130 35q70 0 125.5 -35.5t88 -96t32.5 -136.5v-28h-401q7 -41 30.5 -74t60 -52t79.5 -19q38 0 71.5 11.5t57.5 32.5l64 -63q-44 -34 -92 -50.5t-105 -16.5zM137 298h301q-7 39 -28 69.5t-52.5 48t-68.5 17.5
q-38 0 -70 -17t-53 -47.5t-29 -70.5zM368 600l-79 77l-79 -77h-81l108 127h106l108 -127h-83z" />
    <glyph glyph-name="edieresis" unicode="&#xeb;" horiz-adv-x="573" 
d="M303 -9q-75 0 -135.5 35t-96 95t-35.5 134q0 73 34 133t92 95t130 35q70 0 125.5 -35.5t88 -96t32.5 -136.5v-28h-401q7 -41 30.5 -74t60 -52t79.5 -19q38 0 71.5 11.5t57.5 32.5l64 -63q-44 -34 -92 -50.5t-105 -16.5zM137 298h301q-7 39 -28 69.5t-52.5 48t-68.5 17.5
q-38 0 -70 -17t-53 -47.5t-29 -70.5zM193 608q-25 0 -42.5 17t-17.5 42q0 24 17.5 41t41.5 17q26 0 43 -17t17 -41q0 -25 -17 -42t-42 -17zM388 608q-25 0 -42.5 17t-17.5 42q0 24 17.5 41t42.5 17t42 -17t17 -41q0 -25 -17 -42t-42 -17z" />
    <glyph glyph-name="igrave" unicode="&#xec;" horiz-adv-x="219" 
d="M59 0v509h101v-509h-101zM86 603l-128 122h122l90 -122h-84z" />
    <glyph glyph-name="iacute" unicode="&#xed;" horiz-adv-x="219" 
d="M59 0v509h101v-509h-101zM38 603l92 122h121l-129 -122h-84z" />
    <glyph glyph-name="icircumflex" unicode="&#xee;" horiz-adv-x="219" 
d="M59 0v509h101v-509h-101zM187 600l-79 77l-79 -77h-81l108 127h106l108 -127h-83z" />
    <glyph glyph-name="idieresis" unicode="&#xef;" horiz-adv-x="219" 
d="M59 0v509h101v-509h-101zM12 608q-25 0 -42.5 17t-17.5 42q0 24 17.5 41t41.5 17q26 0 43 -17t17 -41q0 -25 -17 -42t-42 -17zM207 608q-25 0 -42.5 17t-17.5 42q0 24 17.5 41t42.5 17t42 -17t17 -41q0 -25 -17 -42t-42 -17z" />
    <glyph glyph-name="eth" unicode="&#xf0;" horiz-adv-x="599" 
d="M289 -10q-71 0 -128.5 34t-91 92t-33.5 130q0 50 19 94t52.5 77t77.5 51.5t94 18.5q55 0 98 -22t70 -61q-9 51 -34 96.5t-62 81.5l-96 -61l-40 57l79 49q-21 16 -45 27t-51 19l47 70q35 -13 67.5 -29.5t60.5 -36.5l105 66l39 -57l-90 -56q62 -62 94.5 -145.5t32.5 -184.5
q0 -94 -32.5 -163.5t-92 -108t-140.5 -38.5zM292 80q44 0 79.5 21.5t56.5 58t21 82.5q0 45 -21 81.5t-56.5 58t-79.5 21.5q-45 0 -80.5 -21.5t-56.5 -58t-21 -81.5q0 -46 21 -82.5t56.5 -58t80.5 -21.5z" />
    <glyph glyph-name="ntilde" unicode="&#xf1;" horiz-adv-x="568" 
d="M59 0v509h101v-52q59 62 153 62q58 0 103 -25t70 -70t25 -104v-320h-100v303q0 60 -34 94.5t-92 34.5q-41 0 -72.5 -17t-52.5 -49v-366h-101zM173 596l-66 14q24 109 103 109q27 0 53 -13.5t49 -26.5t43 -13q17 0 27.5 12.5t17.5 42.5l64 -13q-11 -55 -37 -82t-65 -27
q-26 0 -52 13.5t-50 26.5t-44 13q-18 0 -27.5 -13t-15.5 -43z" />
    <glyph glyph-name="ograve" unicode="&#xf2;" horiz-adv-x="602" 
d="M301 -10q-74 0 -134.5 35t-95.5 95t-35 134t35 134.5t95.5 95.5t134.5 35q75 0 135 -35t95 -95t35 -135q0 -74 -35 -134t-95 -95t-135 -35zM301 78q47 0 84.5 23.5t60 63.5t22.5 89q0 50 -22.5 89.5t-60 63t-84.5 23.5q-46 0 -84 -23.5t-60.5 -63t-22.5 -89.5
q0 -49 22.5 -89t60.5 -63.5t84 -23.5zM278 603l-128 122h122l90 -122h-84z" />
    <glyph glyph-name="oacute" unicode="&#xf3;" horiz-adv-x="602" 
d="M301 -10q-74 0 -134.5 35t-95.5 95t-35 134t35 134.5t95.5 95.5t134.5 35q75 0 135 -35t95 -95t35 -135q0 -74 -35 -134t-95 -95t-135 -35zM301 78q47 0 84.5 23.5t60 63.5t22.5 89q0 50 -22.5 89.5t-60 63t-84.5 23.5q-46 0 -84 -23.5t-60.5 -63t-22.5 -89.5
q0 -49 22.5 -89t60.5 -63.5t84 -23.5zM230 603l92 122h121l-129 -122h-84z" />
    <glyph glyph-name="ocircumflex" unicode="&#xf4;" horiz-adv-x="602" 
d="M301 -10q-74 0 -134.5 35t-95.5 95t-35 134t35 134.5t95.5 95.5t134.5 35q75 0 135 -35t95 -95t35 -135q0 -74 -35 -134t-95 -95t-135 -35zM301 78q47 0 84.5 23.5t60 63.5t22.5 89q0 50 -22.5 89.5t-60 63t-84.5 23.5q-46 0 -84 -23.5t-60.5 -63t-22.5 -89.5
q0 -49 22.5 -89t60.5 -63.5t84 -23.5zM379 600l-79 77l-79 -77h-81l108 127h106l108 -127h-83z" />
    <glyph glyph-name="otilde" unicode="&#xf5;" horiz-adv-x="602" 
d="M301 -10q-74 0 -134.5 35t-95.5 95t-35 134t35 134.5t95.5 95.5t134.5 35q75 0 135 -35t95 -95t35 -135q0 -74 -35 -134t-95 -95t-135 -35zM301 78q47 0 84.5 23.5t60 63.5t22.5 89q0 50 -22.5 89.5t-60 63t-84.5 23.5q-46 0 -84 -23.5t-60.5 -63t-22.5 -89.5
q0 -49 22.5 -89t60.5 -63.5t84 -23.5zM188 596l-66 14q24 109 103 109q27 0 53 -13.5t49 -26.5t43 -13q17 0 27.5 12.5t17.5 42.5l64 -13q-11 -55 -37 -82t-65 -27q-26 0 -52 13.5t-50 26.5t-44 13q-18 0 -27.5 -13t-15.5 -43z" />
    <glyph glyph-name="odieresis" unicode="&#xf6;" horiz-adv-x="602" 
d="M301 -10q-74 0 -134.5 35t-95.5 95t-35 134t35 134.5t95.5 95.5t134.5 35q75 0 135 -35t95 -95t35 -135q0 -74 -35 -134t-95 -95t-135 -35zM301 78q47 0 84.5 23.5t60 63.5t22.5 89q0 50 -22.5 89.5t-60 63t-84.5 23.5q-46 0 -84 -23.5t-60.5 -63t-22.5 -89.5
q0 -49 22.5 -89t60.5 -63.5t84 -23.5zM204 608q-25 0 -42.5 17t-17.5 42q0 24 17.5 41t41.5 17q26 0 43 -17t17 -41q0 -25 -17 -42t-42 -17zM399 608q-25 0 -42.5 17t-17.5 42q0 24 17.5 41t42.5 17t42 -17t17 -41q0 -25 -17 -42t-42 -17z" />
    <glyph glyph-name="divide" unicode="&#xf7;" 
d="M300 492q-27 0 -45.5 19t-18.5 46q0 26 18.5 45t45.5 19t45.5 -19t18.5 -46q0 -26 -18.5 -45t-45.5 -19zM300 95q-27 0 -45.5 19.5t-18.5 45.5q0 27 18.5 46t45.5 19t45.5 -19t18.5 -46q0 -26 -18.5 -45.5t-45.5 -19.5zM94 319v78h412v-78h-412z" />
    <glyph glyph-name="oslash" unicode="&#xf8;" horiz-adv-x="602" 
d="M301 -10q-41 0 -78 11t-68 32l-28 -33h-77l59 71q-34 35 -53.5 82.5t-19.5 101.5q0 74 35 134t95.5 95t134.5 35q41 0 77.5 -11t67.5 -31l27 32h78l-58 -69q34 -36 53.5 -83.5t19.5 -101.5q0 -74 -35.5 -134.5t-95.5 -95.5t-134 -35zM170 145l217 261q-18 12 -39.5 18.5
t-46.5 6.5q-46 0 -84 -23.5t-60.5 -63t-22.5 -89.5q0 -32 9.5 -59.5t26.5 -50.5zM301 78q47 0 84.5 23.5t59.5 64t22 89.5q0 32 -9.5 60t-26.5 50l-217 -261q19 -12 41 -19t46 -7z" />
    <glyph glyph-name="ugrave" unicode="&#xf9;" horiz-adv-x="568" 
d="M256 -10q-59 0 -104 25.5t-70.5 70.5t-25.5 104v319h100v-302q0 -60 34.5 -95t92.5 -35q41 0 73 18t52 49v365h101v-509h-101v51q-59 -61 -152 -61zM261 603l-128 122h122l90 -122h-84z" />
    <glyph glyph-name="uacute" unicode="&#xfa;" horiz-adv-x="568" 
d="M256 -10q-59 0 -104 25.5t-70.5 70.5t-25.5 104v319h100v-302q0 -60 34.5 -95t92.5 -35q41 0 73 18t52 49v365h101v-509h-101v51q-59 -61 -152 -61zM213 603l92 122h121l-129 -122h-84z" />
    <glyph glyph-name="ucircumflex" unicode="&#xfb;" horiz-adv-x="568" 
d="M256 -10q-59 0 -104 25.5t-70.5 70.5t-25.5 104v319h100v-302q0 -60 34.5 -95t92.5 -35q41 0 73 18t52 49v365h101v-509h-101v51q-59 -61 -152 -61zM362 600l-79 77l-79 -77h-81l108 127h106l108 -127h-83z" />
    <glyph glyph-name="udieresis" unicode="&#xfc;" horiz-adv-x="568" 
d="M256 -10q-59 0 -104 25.5t-70.5 70.5t-25.5 104v319h100v-302q0 -60 34.5 -95t92.5 -35q41 0 73 18t52 49v365h101v-509h-101v51q-59 -61 -152 -61zM187 608q-25 0 -42.5 17t-17.5 42q0 24 17.5 41t41.5 17q26 0 43 -17t17 -41q0 -25 -17 -42t-42 -17zM382 608
q-25 0 -42.5 17t-17.5 42q0 24 17.5 41t42.5 17t42 -17t17 -41q0 -25 -17 -42t-42 -17z" />
    <glyph glyph-name="yacute" unicode="&#xfd;" horiz-adv-x="538" 
d="M93 -215q-16 0 -30 1.5t-23 4.5v88q18 -4 44 -4q70 0 102 75l21 49l-204 510h111l149 -387l163 387h108l-246 -572q-23 -54 -50.5 -87.5t-62.5 -49t-82 -15.5zM194 603l92 122h121l-129 -122h-84z" />
    <glyph glyph-name="thorn" unicode="&#xfe;" horiz-adv-x="609" 
d="M59 -206v906l101 22v-261q63 56 154 56q73 0 131 -35t92.5 -94t34.5 -133t-34.5 -133.5t-93 -94.5t-132.5 -35q-42 0 -81 13.5t-71 37.5v-249h-101zM301 430q-43 0 -80 -16t-61 -45v-229q24 -29 61.5 -45t79.5 -16q49 0 87.5 23t61.5 62.5t23 89.5t-23 90t-61.5 63
t-87.5 23z" />
    <glyph glyph-name="ydieresis" unicode="&#xff;" horiz-adv-x="538" 
d="M93 -215q-16 0 -30 1.5t-23 4.5v88q18 -4 44 -4q70 0 102 75l21 49l-204 510h111l149 -387l163 387h108l-246 -572q-23 -54 -50.5 -87.5t-62.5 -49t-82 -15.5zM168 608q-25 0 -42.5 17t-17.5 42q0 24 17.5 41t41.5 17q26 0 43 -17t17 -41q0 -25 -17 -42t-42 -17zM363 608
q-25 0 -42.5 17t-17.5 42q0 24 17.5 41t42.5 17t42 -17t17 -41q0 -25 -17 -42t-42 -17z" />
    <glyph glyph-name="Amacron" unicode="&#x100;" horiz-adv-x="701" 
d="M1 0l289 700h124l287 -700h-115l-81 205h-313l-82 -205h-109zM227 292h244l-122 307zM201 814v67h300v-67h-300z" />
    <glyph glyph-name="amacron" unicode="&#x101;" horiz-adv-x="533" 
d="M220 -9q-55 0 -97 19.5t-66 54.5t-24 81q0 72 55 113.5t151 41.5q75 0 139 -29v54q0 54 -31.5 81.5t-92.5 27.5q-35 0 -73 -10.5t-85 -33.5l-37 76q58 27 108 39.5t101 12.5q99 0 153.5 -47t54.5 -134v-338h-98v44q-34 -27 -73 -40t-85 -13zM129 148q0 -37 31.5 -59.5
t82.5 -22.5q40 0 73.5 11.5t61.5 36.5v86q-29 17 -60.5 24.5t-70.5 7.5q-54 0 -86 -23t-32 -61zM108 623v67h300v-67h-300z" />
    <glyph glyph-name="Abreve" unicode="&#x102;" horiz-adv-x="701" 
d="M1 0l289 700h124l287 -700h-115l-81 205h-313l-82 -205h-109zM227 292h244l-122 307zM351 786q-63 0 -106 34t-57 94l66 17q22 -84 97 -84q36 0 61 21.5t36 62.5l66 -17q-14 -60 -57 -94t-106 -34z" />
    <glyph glyph-name="abreve" unicode="&#x103;" horiz-adv-x="533" 
d="M220 -9q-55 0 -97 19.5t-66 54.5t-24 81q0 72 55 113.5t151 41.5q75 0 139 -29v54q0 54 -31.5 81.5t-92.5 27.5q-35 0 -73 -10.5t-85 -33.5l-37 76q58 27 108 39.5t101 12.5q99 0 153.5 -47t54.5 -134v-338h-98v44q-34 -27 -73 -40t-85 -13zM129 148q0 -37 31.5 -59.5
t82.5 -22.5q40 0 73.5 11.5t61.5 36.5v86q-29 17 -60.5 24.5t-70.5 7.5q-54 0 -86 -23t-32 -61zM258 595q-63 0 -106 34t-57 94l66 17q22 -84 97 -84q36 0 61 21.5t36 62.5l66 -17q-14 -60 -57 -94t-106 -34z" />
    <glyph glyph-name="Aogonek" unicode="&#x104;" horiz-adv-x="701" 
d="M640 -221q-46 0 -73.5 24.5t-27.5 63.5q0 36 22.5 67.5t72.5 65.5h-48l-81 205h-313l-82 -205h-109l289 700h125l286 -700q-51 -31 -75 -59t-24 -56q0 -24 14 -36.5t41 -12.5q11 0 23 3.5t21 9.5l17 -48q-17 -10 -36.5 -16t-41.5 -6zM227 292h244l-121 307z" />
    <glyph glyph-name="aogonek" unicode="&#x105;" horiz-adv-x="533" 
d="M415 -221q-45 0 -73 24.5t-28 63.5q0 36 23 67.5t73 65.5h-32v44q-34 -27 -73 -40t-85 -13q-55 0 -97 19.5t-66 54.5t-24 81q0 72 55 113.5t151 41.5q75 0 139 -29v54q0 54 -31.5 81.5t-92.5 27.5q-35 0 -73 -10.5t-85 -33.5l-37 76q58 27 108 39.5t101 12.5
q99 0 153.5 -47t54.5 -134v-338q-51 -31 -75 -59t-24 -56q0 -24 14.5 -36.5t40.5 -12.5q12 0 23.5 3.5t20.5 9.5l17 -48q-16 -10 -36 -16t-42 -6zM243 66q40 0 73.5 11.5t61.5 36.5v86q-29 17 -60.5 24.5t-70.5 7.5q-54 0 -86 -23t-32 -61q0 -37 31.5 -59.5t82.5 -22.5z" />
    <glyph glyph-name="Cacute" unicode="&#x106;" horiz-adv-x="720" 
d="M408 -11q-78 0 -144.5 27.5t-117 77t-78 115t-27.5 141.5t27.5 141.5t78 115t117.5 77t144 27.5q56 0 108 -14.5t96.5 -41.5t78.5 -66l-71 -72q-40 47 -95.5 72t-116.5 25q-56 0 -103 -20t-82 -56t-55 -83.5t-20 -104.5q0 -56 20 -104t55.5 -83.5t83.5 -55.5t104 -20
q61 0 115 24.5t93 68.5l69 -70q-34 -37 -78.5 -64.5t-96 -42t-105.5 -14.5zM334 794l92 122h121l-129 -122h-84z" />
    <glyph glyph-name="cacute" unicode="&#x107;" horiz-adv-x="521" 
d="M298 -9q-73 0 -132.5 35t-94.5 95t-35 134t35 134t94.5 95t132.5 35q58 0 111.5 -22t93.5 -62l-63 -69q-29 32 -65 48t-75 16q-46 0 -83.5 -23t-59.5 -63t-22 -89t22 -89t60.5 -63t84.5 -23q39 0 73 15t64 46l61 -65q-40 -41 -92.5 -63t-109.5 -22zM226 603l92 122h121
l-129 -122h-84z" />
    <glyph glyph-name="Ccircumflex" unicode="&#x108;" horiz-adv-x="720" 
d="M408 -11q-78 0 -144.5 27.5t-117 77t-78 115t-27.5 141.5t27.5 141.5t78 115t117.5 77t144 27.5q56 0 108 -14.5t96.5 -41.5t78.5 -66l-71 -72q-40 47 -95.5 72t-116.5 25q-56 0 -103 -20t-82 -56t-55 -83.5t-20 -104.5q0 -56 20 -104t55.5 -83.5t83.5 -55.5t104 -20
q61 0 115 24.5t93 68.5l69 -70q-34 -37 -78.5 -64.5t-96 -42t-105.5 -14.5zM483 791l-79 77l-79 -77h-81l108 127h106l108 -127h-83z" />
    <glyph glyph-name="ccircumflex" unicode="&#x109;" horiz-adv-x="521" 
d="M298 -9q-73 0 -132.5 35t-94.5 95t-35 134t35 134t94.5 95t132.5 35q58 0 111.5 -22t93.5 -62l-63 -69q-29 32 -65 48t-75 16q-46 0 -83.5 -23t-59.5 -63t-22 -89t22 -89t60.5 -63t84.5 -23q39 0 73 15t64 46l61 -65q-40 -41 -92.5 -63t-109.5 -22zM375 600l-79 77
l-79 -77h-81l108 127h106l108 -127h-83z" />
    <glyph glyph-name="Cdotaccent" unicode="&#x10a;" horiz-adv-x="720" 
d="M408 -11q-78 0 -144.5 27.5t-117 77t-78 115t-27.5 141.5t27.5 141.5t78 115t117.5 77t144 27.5q56 0 108 -14.5t96.5 -41.5t78.5 -66l-71 -72q-40 47 -95.5 72t-116.5 25q-56 0 -103 -20t-82 -56t-55 -83.5t-20 -104.5q0 -56 20 -104t55.5 -83.5t83.5 -55.5t104 -20
q61 0 115 24.5t93 68.5l69 -70q-34 -37 -78.5 -64.5t-96 -42t-105.5 -14.5zM405 793q-25 0 -42.5 17t-17.5 42q0 24 17.5 41.5t42.5 17.5t42.5 -17.5t17.5 -41.5q0 -25 -17.5 -42t-42.5 -17z" />
    <glyph glyph-name="cdotaccent" unicode="&#x10b;" horiz-adv-x="521" 
d="M298 -9q-73 0 -132.5 35t-94.5 95t-35 134t35 134t94.5 95t132.5 35q58 0 111.5 -22t93.5 -62l-63 -69q-29 32 -65 48t-75 16q-46 0 -83.5 -23t-59.5 -63t-22 -89t22 -89t60.5 -63t84.5 -23q39 0 73 15t64 46l61 -65q-40 -41 -92.5 -63t-109.5 -22zM297 602
q-25 0 -42.5 17t-17.5 42q0 24 17.5 41.5t42.5 17.5t42.5 -17.5t17.5 -41.5q0 -25 -17.5 -42t-42.5 -17z" />
    <glyph glyph-name="Ccaron" unicode="&#x10c;" horiz-adv-x="720" 
d="M408 -11q-78 0 -144.5 27.5t-117 77t-78 115t-27.5 141.5t27.5 141.5t78 115t117.5 77t144 27.5q56 0 108 -14.5t96.5 -41.5t78.5 -66l-71 -72q-40 47 -95.5 72t-116.5 25q-56 0 -103 -20t-82 -56t-55 -83.5t-20 -104.5q0 -56 20 -104t55.5 -83.5t83.5 -55.5t104 -20
q61 0 115 24.5t93 68.5l69 -70q-34 -37 -78.5 -64.5t-96 -42t-105.5 -14.5zM327 919l79 -77l78 77h82l-108 -127h-106l-108 127h83z" />
    <glyph glyph-name="ccaron" unicode="&#x10d;" horiz-adv-x="521" 
d="M298 -9q-73 0 -132.5 35t-94.5 95t-35 134t35 134t94.5 95t132.5 35q58 0 111.5 -22t93.5 -62l-63 -69q-29 32 -65 48t-75 16q-46 0 -83.5 -23t-59.5 -63t-22 -89t22 -89t60.5 -63t84.5 -23q39 0 73 15t64 46l61 -65q-40 -41 -92.5 -63t-109.5 -22zM219 728l79 -77l78 77
h82l-108 -127h-106l-108 127h83z" />
    <glyph glyph-name="Dcaron" unicode="&#x10e;" horiz-adv-x="728" 
d="M177 95h143q55 0 102 19t82.5 53.5t55 81t19.5 100.5q0 55 -19.5 101.5t-55 81.5t-82.5 54t-102 19h-143v-510zM71 0v700h247q80 0 147 -26.5t116.5 -73.5t77.5 -111t28 -140q0 -75 -27.5 -138.5t-77.5 -110.5t-117 -73.5t-147 -26.5h-247zM286 919l79 -77l78 77h82
l-108 -127h-106l-108 127h83z" />
    <glyph glyph-name="dcaron" unicode="&#x10f;" horiz-adv-x="607" 
d="M293 -8q-71 0 -130 35t-93 94.5t-34 133.5t34.5 133t93.5 94t131 35q42 0 81 -13t72 -37v233l100 19v-719h-99v49q-65 -57 -156 -57zM307 79q43 0 79.5 16t61.5 46v229q-25 28 -62 44t-79 16q-49 0 -88 -22.5t-61.5 -62t-22.5 -89.5t22.5 -90t62 -63.5t87.5 -23.5z
M637 521l5 195l91 15l-30 -210h-66z" />
    <glyph glyph-name="Dcroat" unicode="&#x110;" horiz-adv-x="755" 
d="M98 0v307h-83v87h83v306h247q79 0 146 -26.5t117 -73.5t77.5 -111t27.5 -140q0 -75 -27 -138.5t-77 -110.5t-117.5 -73.5t-146.5 -26.5h-247zM203 95h143q56 0 102.5 19t82 53.5t55 81t19.5 101.5q0 54 -19.5 100.5t-55 81.5t-82.5 54t-102 19h-143v-211h180v-87h-180
v-212z" />
    <glyph glyph-name="dcroat" unicode="&#x111;" horiz-adv-x="606" 
d="M293 -8q-71 0 -130 35t-93 94.5t-34 133.5t34.5 133t93.5 94t131 35q42 0 81 -13t72 -37v116h-154v69h154v48l100 22v-70h60v-69h-60v-583h-99v49q-65 -57 -156 -57zM307 79q43 0 79.5 16t61.5 46v229q-25 28 -62 44t-79 16q-49 0 -88 -22.5t-61.5 -62t-22.5 -89.5
t22.5 -90t62 -63.5t87.5 -23.5z" />
    <glyph glyph-name="Emacron" unicode="&#x112;" horiz-adv-x="628" 
d="M71 0v700h517v-92h-411v-210h269v-90h-269v-216h415v-92h-521zM192 814v67h300v-67h-300z" />
    <glyph glyph-name="emacron" unicode="&#x113;" horiz-adv-x="573" 
d="M303 -9q-75 0 -135.5 35t-96 95t-35.5 134q0 73 34 133t92 95t130 35q70 0 125.5 -35.5t88 -96t32.5 -136.5v-28h-401q7 -41 30.5 -74t60 -52t79.5 -19q38 0 71.5 11.5t57.5 32.5l64 -63q-44 -34 -92 -50.5t-105 -16.5zM137 298h301q-7 39 -28 69.5t-52.5 48t-68.5 17.5
q-38 0 -70 -17t-53 -47.5t-29 -70.5zM140 623v67h300v-67h-300z" />
    <glyph glyph-name="Ebreve" unicode="&#x114;" horiz-adv-x="628" 
d="M71 0v700h517v-92h-411v-210h269v-90h-269v-216h415v-92h-521zM342 786q-63 0 -106 34t-57 94l66 17q22 -84 97 -84q36 0 61 21.5t36 62.5l66 -17q-14 -60 -57 -94t-106 -34z" />
    <glyph glyph-name="ebreve" unicode="&#x115;" horiz-adv-x="573" 
d="M303 -9q-75 0 -135.5 35t-96 95t-35.5 134q0 73 34 133t92 95t130 35q70 0 125.5 -35.5t88 -96t32.5 -136.5v-28h-401q7 -41 30.5 -74t60 -52t79.5 -19q38 0 71.5 11.5t57.5 32.5l64 -63q-44 -34 -92 -50.5t-105 -16.5zM137 298h301q-7 39 -28 69.5t-52.5 48t-68.5 17.5
q-38 0 -70 -17t-53 -47.5t-29 -70.5zM290 595q-63 0 -106 34t-57 94l66 17q22 -84 97 -84q36 0 61 21.5t36 62.5l66 -17q-14 -60 -57 -94t-106 -34z" />
    <glyph glyph-name="Edotaccent" unicode="&#x116;" horiz-adv-x="628" 
d="M71 0v700h517v-92h-411v-210h269v-90h-269v-216h415v-92h-521zM342 793q-25 0 -42.5 17t-17.5 42q0 24 17.5 41.5t42.5 17.5t42.5 -17.5t17.5 -41.5q0 -25 -17.5 -42t-42.5 -17z" />
    <glyph glyph-name="edotaccent" unicode="&#x117;" horiz-adv-x="573" 
d="M303 -9q-75 0 -135.5 35t-96 95t-35.5 134q0 73 34 133t92 95t130 35q70 0 125.5 -35.5t88 -96t32.5 -136.5v-28h-401q7 -41 30.5 -74t60 -52t79.5 -19q38 0 71.5 11.5t57.5 32.5l64 -63q-44 -34 -92 -50.5t-105 -16.5zM137 298h301q-7 39 -28 69.5t-52.5 48t-68.5 17.5
q-38 0 -70 -17t-53 -47.5t-29 -70.5zM290 602q-25 0 -42.5 17t-17.5 42q0 24 17.5 41.5t42.5 17.5t42.5 -17.5t17.5 -41.5q0 -25 -17.5 -42t-42.5 -17z" />
    <glyph glyph-name="Eogonek" unicode="&#x118;" horiz-adv-x="628" 
d="M608 -199q-16 -10 -36 -16t-42 -6q-45 0 -73 24.5t-28 63.5q0 36 23 67.5t73 65.5h-454v700h517v-92h-411v-210h269v-90h-269v-216h415v-92q-52 -31 -76 -59t-24 -56q0 -24 14.5 -36.5t40.5 -12.5q12 0 23.5 3.5t20.5 9.5z" />
    <glyph glyph-name="eogonek" unicode="&#x119;" horiz-adv-x="573" 
d="M321 -221q-45 0 -73 24.5t-28 63.5q0 34 20 63.5t62 60.5q-76 1 -136 36t-95 94.5t-35 133.5q0 73 34 133t92 95t130 35q70 0 125.5 -35.5t88 -96t32.5 -136.5v-28h-401q7 -41 30.5 -74t60 -52t79.5 -19q38 0 71.5 11.5t57.5 32.5l64 -63q-28 -22 -57 -36.5t-62 -22.5
q-50 -31 -74 -58.5t-24 -55.5q0 -24 14.5 -36.5t40.5 -12.5q12 0 23.5 3.5t20.5 9.5l17 -48q-16 -10 -36 -16t-42 -6zM137 298h301q-7 39 -28 69.5t-52.5 48t-68.5 17.5q-38 0 -70 -17t-53 -47.5t-29 -70.5z" />
    <glyph glyph-name="Ecaron" unicode="&#x11a;" horiz-adv-x="628" 
d="M71 0v700h517v-92h-411v-210h269v-90h-269v-216h415v-92h-521zM264 919l79 -77l78 77h82l-108 -127h-106l-108 127h83z" />
    <glyph glyph-name="ecaron" unicode="&#x11b;" horiz-adv-x="573" 
d="M303 -9q-75 0 -135.5 35t-96 95t-35.5 134q0 73 34 133t92 95t130 35q70 0 125.5 -35.5t88 -96t32.5 -136.5v-28h-401q7 -41 30.5 -74t60 -52t79.5 -19q38 0 71.5 11.5t57.5 32.5l64 -63q-44 -34 -92 -50.5t-105 -16.5zM137 298h301q-7 39 -28 69.5t-52.5 48t-68.5 17.5
q-38 0 -70 -17t-53 -47.5t-29 -70.5zM212 728l79 -77l78 77h82l-108 -127h-106l-108 127h83z" />
    <glyph glyph-name="Gcircumflex" unicode="&#x11c;" horiz-adv-x="790" 
d="M407 -11q-77 0 -143.5 28t-116.5 77.5t-78 115t-28 140.5t27.5 140.5t77.5 115t116 77.5t143 28q83 0 157.5 -32t124.5 -90l-72 -69q-39 45 -94 69.5t-116 24.5q-55 0 -101.5 -20t-81.5 -56t-54.5 -83.5t-19.5 -104.5q0 -56 20 -104.5t55 -84t82 -55.5t102 -20
q62 0 112 25.5t82 71t40 102.5h-233v92h343v-36q0 -75 -26 -139t-72.5 -112t-109.5 -74.5t-136 -26.5zM483 791l-79 77l-79 -77h-81l108 127h106l108 -127h-83z" />
    <glyph glyph-name="gcircumflex" unicode="&#x11d;" horiz-adv-x="603" 
d="M311 -214q-56 0 -109 13t-96 37l39 79q44 -23 83.5 -34t79.5 -11q67 0 101.5 31t34.5 91v58q-67 -53 -152 -53q-71 0 -129.5 34.5t-92.5 94t-34 132.5q0 72 34.5 131.5t93 94t131.5 34.5q41 0 79.5 -13.5t70.5 -38.5v43h99v-517q0 -99 -60 -152.5t-173 -53.5zM304 83
q44 0 80 15.5t60 44.5v228q-24 28 -60.5 43.5t-79.5 15.5q-48 0 -86.5 -22.5t-60.5 -62t-22 -87.5q0 -50 22.5 -89.5t61 -62.5t85.5 -23zM378 600l-79 77l-79 -77h-81l108 127h106l108 -127h-83z" />
    <glyph glyph-name="Gbreve" unicode="&#x11e;" horiz-adv-x="790" 
d="M407 -11q-77 0 -143.5 28t-116.5 77.5t-78 115t-28 140.5t27.5 140.5t77.5 115t116 77.5t143 28q83 0 157.5 -32t124.5 -90l-72 -69q-39 45 -94 69.5t-116 24.5q-55 0 -101.5 -20t-81.5 -56t-54.5 -83.5t-19.5 -104.5q0 -56 20 -104.5t55 -84t82 -55.5t102 -20
q62 0 112 25.5t82 71t40 102.5h-233v92h343v-36q0 -75 -26 -139t-72.5 -112t-109.5 -74.5t-136 -26.5zM405 786q-63 0 -106 34t-57 94l66 17q22 -84 97 -84q36 0 61 21.5t36 62.5l66 -17q-14 -60 -57 -94t-106 -34z" />
    <glyph glyph-name="gbreve" unicode="&#x11f;" horiz-adv-x="603" 
d="M311 -214q-56 0 -109 13t-96 37l39 79q44 -23 83.5 -34t79.5 -11q67 0 101.5 31t34.5 91v58q-67 -53 -152 -53q-71 0 -129.5 34.5t-92.5 94t-34 132.5q0 72 34.5 131.5t93 94t131.5 34.5q41 0 79.5 -13.5t70.5 -38.5v43h99v-517q0 -99 -60 -152.5t-173 -53.5zM304 83
q44 0 80 15.5t60 44.5v228q-24 28 -60.5 43.5t-79.5 15.5q-48 0 -86.5 -22.5t-60.5 -62t-22 -87.5q0 -50 22.5 -89.5t61 -62.5t85.5 -23zM300 595q-63 0 -106 34t-57 94l66 17q22 -84 97 -84q36 0 61 21.5t36 62.5l66 -17q-14 -60 -57 -94t-106 -34z" />
    <glyph glyph-name="Gdotaccent" unicode="&#x120;" horiz-adv-x="790" 
d="M407 -11q-77 0 -143.5 28t-116.5 77.5t-78 115t-28 140.5t27.5 140.5t77.5 115t116 77.5t143 28q83 0 157.5 -32t124.5 -90l-72 -69q-39 45 -94 69.5t-116 24.5q-55 0 -101.5 -20t-81.5 -56t-54.5 -83.5t-19.5 -104.5q0 -56 20 -104.5t55 -84t82 -55.5t102 -20
q62 0 112 25.5t82 71t40 102.5h-233v92h343v-36q0 -75 -26 -139t-72.5 -112t-109.5 -74.5t-136 -26.5zM405 793q-25 0 -42.5 17t-17.5 42q0 24 17.5 41.5t42.5 17.5t42.5 -17.5t17.5 -41.5q0 -25 -17.5 -42t-42.5 -17z" />
    <glyph glyph-name="gdotaccent" unicode="&#x121;" horiz-adv-x="603" 
d="M311 -214q-56 0 -109 13t-96 37l39 79q44 -23 83.5 -34t79.5 -11q67 0 101.5 31t34.5 91v58q-67 -53 -152 -53q-71 0 -129.5 34.5t-92.5 94t-34 132.5q0 72 34.5 131.5t93 94t131.5 34.5q41 0 79.5 -13.5t70.5 -38.5v43h99v-517q0 -99 -60 -152.5t-173 -53.5zM304 83
q44 0 80 15.5t60 44.5v228q-24 28 -60.5 43.5t-79.5 15.5q-48 0 -86.5 -22.5t-60.5 -62t-22 -87.5q0 -50 22.5 -89.5t61 -62.5t85.5 -23zM300 602q-25 0 -42.5 17t-17.5 42q0 24 17.5 41.5t42.5 17.5t42.5 -17.5t17.5 -41.5q0 -25 -17.5 -42t-42.5 -17z" />
    <glyph glyph-name="uni0122" unicode="&#x122;" horiz-adv-x="790" 
d="M407 -11q-77 0 -143.5 28t-116.5 77.5t-78 115t-28 140.5t27.5 140.5t77.5 115t116 77.5t143 28q83 0 157.5 -32t124.5 -90l-72 -69q-39 45 -94 69.5t-116 24.5q-55 0 -101.5 -20t-81.5 -56t-54.5 -83.5t-19.5 -104.5q0 -56 20 -104.5t55 -84t82 -55.5t102 -20
q62 0 112 25.5t82 71t40 102.5h-233v92h343v-36q0 -75 -26 -139t-72.5 -112t-109.5 -74.5t-136 -26.5zM316 -273l45 190h97l-68 -190h-74z" />
    <glyph glyph-name="uni0123" unicode="&#x123;" horiz-adv-x="602" 
d="M394 799l-46 -190h-97l69 190h74zM311 -214q-56 0 -109 13t-96 37l39 79q44 -23 83.5 -34t79.5 -11q67 0 101.5 31t34.5 91v58q-67 -53 -152 -53q-71 0 -129.5 34.5t-92.5 94t-34 132.5q0 72 34.5 131.5t93 94t131.5 34.5q41 0 79.5 -13.5t70.5 -38.5v43h99v-517
q0 -99 -60 -152.5t-173 -53.5zM304 83q44 0 80 15.5t60 44.5v228q-24 28 -60.5 43.5t-79.5 15.5q-48 0 -86.5 -22.5t-60.5 -62t-22 -87.5q0 -50 22.5 -89.5t61 -62.5t85.5 -23z" />
    <glyph glyph-name="Hcircumflex" unicode="&#x124;" horiz-adv-x="725" 
d="M71 0v700h106v-300h371v300h106v-700h-106v305h-371v-305h-106zM440 791l-79 77l-79 -77h-81l108 127h106l108 -127h-83z" />
    <glyph glyph-name="hcircumflex" unicode="&#x125;" horiz-adv-x="568" 
d="M59 0v700l101 22v-265q59 62 153 62q58 0 103 -25t70 -70t25 -104v-320h-100v303q0 60 -34 94.5t-92 34.5q-41 0 -72.5 -17t-52.5 -49v-366h-101zM186 791l-79 77l-79 -77h-81l108 127h106l108 -127h-83z" />
    <glyph glyph-name="Hbar" unicode="&#x126;" horiz-adv-x="739" 
d="M78 0v511h-65v84h65v105h106v-105h371v105h106v-105h65v-84h-65v-511h-106v305h-371v-305h-106zM184 400h371v111h-371v-111z" />
    <glyph glyph-name="hbar" unicode="&#x127;" horiz-adv-x="568" 
d="M59 0v583h-61v69h61v48l101 22v-70h152v-69h-152v-126q59 62 153 62q58 0 103 -25t70 -70t25 -104v-320h-100v303q0 60 -34 94.5t-92 34.5q-41 0 -72.5 -17t-52.5 -49v-366h-101z" />
    <glyph glyph-name="Itilde" unicode="&#x128;" horiz-adv-x="248" 
d="M71 0v700h106v-700h-106zM11 786l-66 14q24 109 103 109q27 0 53 -13.5t49 -26.5t43 -13q17 0 27.5 12.5t17.5 42.5l64 -13q-11 -55 -37 -82t-65 -27q-26 0 -52 13.5t-50 26.5t-44 13q-18 0 -27.5 -13t-15.5 -43z" />
    <glyph glyph-name="itilde" unicode="&#x129;" horiz-adv-x="219" 
d="M59 0v509h101v-509h-101zM-4 596l-66 14q24 109 103 109q27 0 53 -13.5t49 -26.5t43 -13q17 0 27.5 12.5t17.5 42.5l64 -13q-11 -55 -37 -82t-65 -27q-26 0 -52 13.5t-50 26.5t-44 13q-18 0 -27.5 -13t-15.5 -43z" />
    <glyph glyph-name="Imacron" unicode="&#x12a;" horiz-adv-x="248" 
d="M71 0v700h106v-700h-106zM-26 814v67h300v-67h-300z" />
    <glyph glyph-name="imacron" unicode="&#x12b;" horiz-adv-x="219" 
d="M59 0v509h101v-509h-101zM-41 623v67h300v-67h-300z" />
    <glyph glyph-name="Ibreve" unicode="&#x12c;" horiz-adv-x="248" 
d="M71 0v700h106v-700h-106zM124 786q-63 0 -106 34t-57 94l66 17q22 -84 97 -84q36 0 61 21.5t36 62.5l66 -17q-14 -60 -57 -94t-106 -34z" />
    <glyph glyph-name="ibreve" unicode="&#x12d;" horiz-adv-x="219" 
d="M59 0v509h101v-509h-101zM109 595q-63 0 -106 34t-57 94l66 17q22 -84 97 -84q36 0 61 21.5t36 62.5l66 -17q-14 -60 -57 -94t-106 -34z" />
    <glyph glyph-name="Iogonek" unicode="&#x12e;" horiz-adv-x="248" 
d="M115 -221q-45 0 -73 24.5t-28 63.5q0 36 23 67.5t73 65.5h-39v700h106v-700q-52 -31 -76 -59t-24 -56q0 -24 14.5 -36.5t40.5 -12.5q12 0 23.5 3.5t21.5 9.5l16 -48q-16 -10 -36 -16t-42 -6z" />
    <glyph glyph-name="iogonek" unicode="&#x12f;" horiz-adv-x="219" 
d="M109 591q-25 0 -43 18.5t-18 43.5q0 26 18 44t43 18q26 0 44 -18t18 -44q0 -25 -18 -43.5t-44 -18.5zM98 -221q-45 0 -73 24.5t-28 63.5q0 36 23 67.5t73 65.5h-34v509h101v-509q-52 -31 -76 -59t-24 -56q0 -24 14.5 -36.5t40.5 -12.5q12 0 23.5 3.5t20.5 9.5l17 -48
q-16 -10 -36 -16t-42 -6z" />
    <glyph glyph-name="Idotaccent" unicode="&#x130;" horiz-adv-x="248" 
d="M71 0v700h106v-700h-106zM124 793q-25 0 -42.5 17t-17.5 42q0 24 17.5 41.5t42.5 17.5t42.5 -17.5t17.5 -41.5q0 -25 -17.5 -42t-42.5 -17z" />
    <glyph glyph-name="dotlessi" unicode="&#x131;" horiz-adv-x="219" 
d="M59 0v509h101v-509h-101z" />
    <glyph glyph-name="IJ" unicode="&#x132;" horiz-adv-x="866" 
d="M71 0v700h106v-700h-106zM531 -11q-96 0 -165.5 49.5t-100.5 140.5l97 38q25 -66 67.5 -98.5t102.5 -32.5q77 0 123 50t46 134v430h106v-433q0 -84 -34 -146.5t-96 -97t-146 -34.5z" />
    <glyph glyph-name="ij" unicode="&#x133;" horiz-adv-x="437" 
d="M59 0v509h101v-509h-101zM109 591q-25 0 -43 18.5t-18 43.5q0 26 18 44t43 18q26 0 44 -18t18 -44q0 -25 -18 -43.5t-44 -18.5zM328 591q-25 0 -43 18.5t-18 43.5q0 26 18 44t43 18q26 0 44 -18t18 -44q0 -25 -18 -43.5t-44 -18.5zM233 -214q-16 0 -31.5 2.5t-25.5 4.5
v80q17 -4 40 -4q33 0 47.5 15t14.5 47v578h101v-585q0 -66 -38 -102t-108 -36z" />
    <glyph glyph-name="Jcircumflex" unicode="&#x134;" horiz-adv-x="617" 
d="M283 -11q-96 0 -165.5 49.5t-100.5 140.5l97 38q25 -66 67.5 -98.5t102.5 -32.5q77 0 123 50t46 134v430h106v-433q0 -84 -34 -146.5t-96 -97t-146 -34.5zM585 791l-79 77l-79 -77h-81l108 127h106l108 -127h-83z" />
    <glyph glyph-name="jcircumflex" unicode="&#x135;" horiz-adv-x="219" 
d="M15 -214q-16 0 -31 2.5l-27 4.5v80q18 -4 41 -4q33 0 47 15t14 47v578h101v-586q0 -65 -37.5 -101t-107.5 -36zM187 600l-79 77l-79 -77h-81l108 127h106l108 -127h-83z" />
    <glyph glyph-name="uni0136" unicode="&#x136;" horiz-adv-x="651" 
d="M71 0v700h106v-324l338 324h133l-363 -339l374 -361h-144l-338 331v-331h-106zM249 -273l45 190h97l-68 -190h-74z" />
    <glyph glyph-name="uni0137" unicode="&#x137;" horiz-adv-x="525" 
d="M59 0v700l101 19v-433l246 223h118l-263 -238l277 -271h-133l-245 239v-239h-101zM171 -273l45 190h97l-68 -190h-74z" />
    <glyph glyph-name="kgreenlandic" unicode="&#x138;" horiz-adv-x="525" 
d="M59 0v509h101v-223l246 223h118l-263 -238l277 -271h-133l-245 239v-239h-101z" />
    <glyph glyph-name="Lacute" unicode="&#x139;" horiz-adv-x="614" 
d="M71 0v700h106v-606h402v-94h-508zM52 794l92 122h121l-129 -122h-84z" />
    <glyph glyph-name="lacute" unicode="&#x13a;" horiz-adv-x="219" 
d="M59 0v700l101 19v-719h-101zM38 795l92 122h121l-129 -122h-84z" />
    <glyph glyph-name="uni013B" unicode="&#x13b;" horiz-adv-x="614" 
d="M71 0v700h106v-606h402v-94h-508zM252 -273l45 190h97l-68 -190h-74z" />
    <glyph glyph-name="uni013C" unicode="&#x13c;" horiz-adv-x="219" 
d="M59 0v700l101 19v-719h-101zM16 -273l45 190h97l-68 -190h-74z" />
    <glyph glyph-name="Lcaron" unicode="&#x13d;" horiz-adv-x="609" 
d="M71 0v700h106v-606h402v-94h-508zM399 505l5 195l91 15l-30 -210h-66z" />
    <glyph glyph-name="lcaron" unicode="&#x13e;" horiz-adv-x="219" 
d="M59 0v700l101 19v-719h-101zM244 521l5 195l91 15l-30 -210h-66z" />
    <glyph glyph-name="Lslash" unicode="&#x141;" horiz-adv-x="628" 
d="M90 0v222l-79 -56v94l79 57v383h106v-312l190 135v-94l-190 -136v-199h402v-94h-508z" />
    <glyph glyph-name="lslash" unicode="&#x142;" horiz-adv-x="260" 
d="M81 0v292l-73 -57v95l73 57v313l101 22v-260l73 56v-96l-73 -56v-366h-101z" />
    <glyph glyph-name="Nacute" unicode="&#x143;" horiz-adv-x="735" 
d="M71 0v700h103l390 -519v519h100v-700h-94l-399 535v-535h-100zM296 794l92 122h121l-129 -122h-84z" />
    <glyph glyph-name="nacute" unicode="&#x144;" horiz-adv-x="568" 
d="M59 0v509h101v-52q59 62 153 62q58 0 103 -25t70 -70t25 -104v-320h-100v303q0 60 -34 94.5t-92 34.5q-41 0 -72.5 -17t-52.5 -49v-366h-101zM215 603l92 122h121l-129 -122h-84z" />
    <glyph glyph-name="uni0145" unicode="&#x145;" horiz-adv-x="735" 
d="M71 0v700h103l390 -519v519h100v-700h-94l-399 535v-535h-100zM274 -273l45 190h97l-68 -190h-74z" />
    <glyph glyph-name="uni0146" unicode="&#x146;" horiz-adv-x="568" 
d="M59 0v509h101v-52q59 62 153 62q58 0 103 -25t70 -70t25 -104v-320h-100v303q0 60 -34 94.5t-92 34.5q-41 0 -72.5 -17t-52.5 -49v-366h-101zM192 -273l45 190h97l-68 -190h-74z" />
    <glyph glyph-name="Ncaron" unicode="&#x147;" horiz-adv-x="735" 
d="M71 0v700h103l390 -519v519h100v-700h-94l-399 535v-535h-100zM289 919l79 -77l78 77h82l-108 -127h-106l-108 127h83z" />
    <glyph glyph-name="ncaron" unicode="&#x148;" horiz-adv-x="568" 
d="M59 0v509h101v-52q59 62 153 62q58 0 103 -25t70 -70t25 -104v-320h-100v303q0 60 -34 94.5t-92 34.5q-41 0 -72.5 -17t-52.5 -49v-366h-101zM208 728l79 -77l78 77h82l-108 -127h-106l-108 127h83z" />
    <glyph glyph-name="Eng" unicode="&#x14a;" horiz-adv-x="735" 
d="M519 -210q-14 0 -31 2.5t-27 4.5v80q18 -4 41 -4q33 0 47.5 15t14.5 47v67l-393 527v-529h-100v700h98l395 -527v527h100v-772q0 -66 -37.5 -102t-107.5 -36z" />
    <glyph glyph-name="eng" unicode="&#x14b;" horiz-adv-x="568" 
d="M366 -211q-14 0 -29.5 2.5t-27.5 4.5v80q18 -4 41 -4q32 0 46.5 15t14.5 47v369q0 60 -34 94.5t-92 34.5q-41 0 -72.5 -17t-52.5 -49v-366h-101v509h101v-52q59 62 153 62q58 0 103 -25t70 -70t25 -104v-394q0 -65 -37.5 -101t-107.5 -36z" />
    <glyph glyph-name="Omacron" unicode="&#x14c;" horiz-adv-x="811" 
d="M406 -11q-77 0 -143.5 27.5t-116.5 77t-77.5 115t-27.5 141.5t27.5 141.5t77.5 115t116.5 77t143.5 27.5q76 0 142 -27.5t116 -77t78 -115t28 -141.5t-28 -141.5t-78 -115t-116 -77t-142 -27.5zM406 86q54 0 100.5 20t81.5 56t54.5 84t19.5 104q0 57 -19.5 104.5
t-54.5 83.5t-81.5 56t-100.5 20q-55 0 -102 -20t-81.5 -56t-54.5 -83.5t-20 -104.5q0 -56 20 -104t54.5 -84t81.5 -56t102 -20zM256 814v67h300v-67h-300z" />
    <glyph glyph-name="omacron" unicode="&#x14d;" horiz-adv-x="602" 
d="M301 -10q-74 0 -134.5 35t-95.5 95t-35 134t35 134.5t95.5 95.5t134.5 35q75 0 135 -35t95 -95t35 -135q0 -74 -35 -134t-95 -95t-135 -35zM301 78q47 0 84.5 23.5t60 63.5t22.5 89q0 50 -22.5 89.5t-60 63t-84.5 23.5q-46 0 -84 -23.5t-60.5 -63t-22.5 -89.5
q0 -49 22.5 -89t60.5 -63.5t84 -23.5zM151 623v67h300v-67h-300z" />
    <glyph glyph-name="Obreve" unicode="&#x14e;" horiz-adv-x="811" 
d="M406 -11q-77 0 -143.5 27.5t-116.5 77t-77.5 115t-27.5 141.5t27.5 141.5t77.5 115t116.5 77t143.5 27.5q76 0 142 -27.5t116 -77t78 -115t28 -141.5t-28 -141.5t-78 -115t-116 -77t-142 -27.5zM406 86q54 0 100.5 20t81.5 56t54.5 84t19.5 104q0 57 -19.5 104.5
t-54.5 83.5t-81.5 56t-100.5 20q-55 0 -102 -20t-81.5 -56t-54.5 -83.5t-20 -104.5q0 -56 20 -104t54.5 -84t81.5 -56t102 -20zM406 786q-63 0 -106 34t-57 94l66 17q22 -84 97 -84q36 0 61 21.5t36 62.5l66 -17q-14 -60 -57 -94t-106 -34z" />
    <glyph glyph-name="obreve" unicode="&#x14f;" horiz-adv-x="602" 
d="M301 -10q-74 0 -134.5 35t-95.5 95t-35 134t35 134.5t95.5 95.5t134.5 35q75 0 135 -35t95 -95t35 -135q0 -74 -35 -134t-95 -95t-135 -35zM301 78q47 0 84.5 23.5t60 63.5t22.5 89q0 50 -22.5 89.5t-60 63t-84.5 23.5q-46 0 -84 -23.5t-60.5 -63t-22.5 -89.5
q0 -49 22.5 -89t60.5 -63.5t84 -23.5zM301 595q-63 0 -106 34t-57 94l66 17q22 -84 97 -84q36 0 61 21.5t36 62.5l66 -17q-14 -60 -57 -94t-106 -34z" />
    <glyph glyph-name="Ohungarumlaut" unicode="&#x150;" horiz-adv-x="811" 
d="M406 -11q-77 0 -143.5 27.5t-116.5 77t-77.5 115t-27.5 141.5t27.5 141.5t77.5 115t116.5 77t143.5 27.5q76 0 142 -27.5t116 -77t78 -115t28 -141.5t-28 -141.5t-78 -115t-116 -77t-142 -27.5zM406 86q54 0 100.5 20t81.5 56t54.5 84t19.5 104q0 57 -19.5 104.5
t-54.5 83.5t-81.5 56t-100.5 20q-55 0 -102 -20t-81.5 -56t-54.5 -83.5t-20 -104.5q0 -56 20 -104t54.5 -84t81.5 -56t102 -20zM268 797l102 119h107l-129 -119h-80zM450 797l103 119h108l-135 -119h-76z" />
    <glyph glyph-name="ohungarumlaut" unicode="&#x151;" horiz-adv-x="602" 
d="M301 -10q-74 0 -134.5 35t-95.5 95t-35 134t35 134.5t95.5 95.5t134.5 35q75 0 135 -35t95 -95t35 -135q0 -74 -35 -134t-95 -95t-135 -35zM301 78q47 0 84.5 23.5t60 63.5t22.5 89q0 50 -22.5 89.5t-60 63t-84.5 23.5q-46 0 -84 -23.5t-60.5 -63t-22.5 -89.5
q0 -49 22.5 -89t60.5 -63.5t84 -23.5zM163 606l102 119h107l-129 -119h-80zM345 606l103 119h108l-135 -119h-76z" />
    <glyph glyph-name="OE" unicode="&#x152;" horiz-adv-x="1091" 
d="M396 0q-73 0 -137.5 27t-113 75t-75.5 111.5t-27 136.5t27 136.5t75.5 111.5t113 75t137.5 27h658v-92h-428q49 -37 80.5 -91.5t39.5 -118.5h181v-90h-180q-7 -65 -38.5 -121.5t-81.5 -94.5h427v-92h-658zM396 95q52 0 97 19.5t78.5 54t52 81t18.5 100.5t-18.5 100.5
t-52 81t-78.5 54t-97 19.5q-51 0 -95.5 -19.5t-78.5 -54t-52.5 -81t-18.5 -100.5t18.5 -100.5t52.5 -81t78.5 -54t95.5 -19.5z" />
    <glyph glyph-name="oe" unicode="&#x153;" horiz-adv-x="1006" 
d="M301 -10q-74 0 -134.5 35t-95.5 95.5t-35 134.5t35 134t95.5 95t134.5 35q68 0 124.5 -31.5t89.5 -85.5q34 53 88.5 84.5t120.5 31.5q70 0 125.5 -35.5t88 -96t32.5 -136.5v-28h-401q8 -41 31.5 -74t60 -52t79.5 -19q37 0 70.5 11.5t57.5 32.5l65 -63q-45 -34 -93 -50.5
t-105 -16.5q-70 0 -127.5 32t-91.5 85q-34 -54 -90.5 -86t-124.5 -32zM301 78q47 0 84.5 23.5t59.5 64t22 89.5q0 50 -22 89.5t-59.5 63t-84.5 23.5q-46 0 -84 -23.5t-60.5 -63t-22.5 -89.5q0 -49 22.5 -89.5t60.5 -64t84 -23.5zM570 298h301q-8 39 -29 69.5t-52.5 48
t-68.5 17.5q-38 0 -70 -17t-53 -47.5t-28 -70.5z" />
    <glyph glyph-name="Racute" unicode="&#x154;" horiz-adv-x="659" 
d="M71 0v700h318q70 0 122.5 -26t81.5 -72.5t29 -109.5q0 -68 -39 -118t-104 -72l156 -302h-118l-144 287h-196v-287h-106zM177 375h203q62 0 99 31.5t37 84.5t-37 85t-99 32h-203v-233zM255 794l92 122h121l-129 -122h-84z" />
    <glyph glyph-name="racute" unicode="&#x155;" horiz-adv-x="372" 
d="M59 0v509h101v-65q23 37 58.5 57t80.5 20q31 -1 51 -9v-90q-13 6 -28.5 8.5t-30.5 2.5q-44 0 -77.5 -24t-53.5 -68v-341h-101zM131 603l92 122h121l-129 -122h-84z" />
    <glyph glyph-name="uni0156" unicode="&#x156;" horiz-adv-x="659" 
d="M71 0v700h318q70 0 122.5 -26t81.5 -72.5t29 -109.5q0 -68 -39 -118t-104 -72l156 -302h-118l-144 287h-196v-287h-106zM177 375h203q62 0 99 31.5t37 84.5t-37 85t-99 32h-203v-233zM237 -273l45 190h97l-68 -190h-74z" />
    <glyph glyph-name="uni0157" unicode="&#x157;" horiz-adv-x="372" 
d="M59 0v509h101v-65q23 37 58.5 57t80.5 20q31 -1 51 -9v-90q-13 6 -28.5 8.5t-30.5 2.5q-44 0 -77.5 -24t-53.5 -68v-341h-101zM14 -273l45 190h97l-68 -190h-74z" />
    <glyph glyph-name="Rcaron" unicode="&#x158;" horiz-adv-x="659" 
d="M71 0v700h318q70 0 122.5 -26t81.5 -72.5t29 -109.5q0 -68 -39 -118t-104 -72l156 -302h-118l-144 287h-196v-287h-106zM177 375h203q62 0 99 31.5t37 84.5t-37 85t-99 32h-203v-233zM248 919l79 -77l78 77h82l-108 -127h-106l-108 127h83z" />
    <glyph glyph-name="rcaron" unicode="&#x159;" horiz-adv-x="372" 
d="M59 0v509h101v-65q23 37 58.5 57t80.5 20q31 -1 51 -9v-90q-13 6 -28.5 8.5t-30.5 2.5q-44 0 -77.5 -24t-53.5 -68v-341h-101zM124 728l79 -77l78 77h82l-108 -127h-106l-108 127h83z" />
    <glyph glyph-name="Sacute" unicode="&#x15a;" horiz-adv-x="613" 
d="M308 -10q-84 0 -162 32.5t-138 93.5l64 75q57 -56 116.5 -83.5t125.5 -27.5q50 0 88 15t59.5 41.5t21.5 60.5q0 47 -33 72t-109 38l-117 19q-96 16 -143.5 61t-47.5 120q0 61 32 106.5t90.5 70.5t136.5 25q75 0 148.5 -24.5t132.5 -70.5l-58 -80q-113 86 -229 86
q-46 0 -80 -13t-53 -36.5t-19 -55.5q0 -42 29 -64t96 -33l113 -19q111 -18 163 -65t52 -129q0 -64 -34.5 -112.5t-98 -75.5t-146.5 -27zM218 795l92 122h121l-129 -122h-84z" />
    <glyph glyph-name="sacute" unicode="&#x15b;" horiz-adv-x="465" 
d="M234 -10q-66 0 -123.5 19.5t-99.5 55.5l55 67q39 -32 81 -48t84 -16q54 0 88 21t34 54q0 28 -20 43.5t-62 21.5l-92 14q-76 11 -114 47t-38 96q0 46 25 80.5t70 54t105 19.5q56 0 106.5 -16t97.5 -50l-50 -66q-43 28 -82 41t-80 13q-45 0 -73.5 -19.5t-28.5 -50.5
q0 -28 20 -43t64 -22l92 -13q76 -10 115 -46t39 -96q0 -46 -28 -82.5t-76 -57.5t-109 -21zM159 603l92 122h121l-129 -122h-84z" />
    <glyph glyph-name="Scircumflex" unicode="&#x15c;" horiz-adv-x="613" 
d="M308 -10q-84 0 -162 32.5t-138 93.5l64 75q57 -56 116.5 -83.5t125.5 -27.5q50 0 88 15t59.5 41.5t21.5 60.5q0 47 -33 72t-109 38l-117 19q-96 16 -143.5 61t-47.5 120q0 61 32 106.5t90.5 70.5t136.5 25q75 0 148.5 -24.5t132.5 -70.5l-58 -80q-113 86 -229 86
q-46 0 -80 -13t-53 -36.5t-19 -55.5q0 -42 29 -64t96 -33l113 -19q111 -18 163 -65t52 -129q0 -64 -34.5 -112.5t-98 -75.5t-146.5 -27zM367 792l-79 77l-79 -77h-81l108 127h106l108 -127h-83z" />
    <glyph glyph-name="scircumflex" unicode="&#x15d;" horiz-adv-x="465" 
d="M234 -10q-66 0 -123.5 19.5t-99.5 55.5l55 67q39 -32 81 -48t84 -16q54 0 88 21t34 54q0 28 -20 43.5t-62 21.5l-92 14q-76 11 -114 47t-38 96q0 46 25 80.5t70 54t105 19.5q56 0 106.5 -16t97.5 -50l-50 -66q-43 28 -82 41t-80 13q-45 0 -73.5 -19.5t-28.5 -50.5
q0 -28 20 -43t64 -22l92 -13q76 -10 115 -46t39 -96q0 -46 -28 -82.5t-76 -57.5t-109 -21zM308 600l-79 77l-79 -77h-81l108 127h106l108 -127h-83z" />
    <glyph glyph-name="Scedilla" unicode="&#x15e;" horiz-adv-x="613" 
d="M281 -230q-72 0 -118 43l36 39q38 -31 81 -31q28 0 44 12t16 32t-17 31.5t-46 11.5h-35l25 84q-73 8 -140 39.5t-119 84.5l64 75q57 -56 116.5 -83.5t125.5 -27.5q50 0 88 15t59.5 41.5t21.5 60.5q0 47 -33 72t-109 38l-117 19q-96 16 -143.5 61t-47.5 120q0 61 32 106.5
t90.5 70.5t136.5 25q75 0 148.5 -24.5t132.5 -70.5l-58 -80q-113 86 -229 86q-46 0 -80 -13t-53 -36.5t-19 -55.5q0 -42 29 -64t96 -33l113 -19q111 -18 163 -65t52 -129q0 -62 -33.5 -110.5t-94 -75.5t-140.5 -29l-11 -40q44 -2 69.5 -25t25.5 -60q0 -41 -35 -68t-87 -27z
" />
    <glyph glyph-name="scedilla" unicode="&#x15f;" horiz-adv-x="465" 
d="M219 -231q-71 0 -118 42l36 39q38 -31 81 -31q29 0 44.5 12.5t15.5 32.5t-16.5 31.5t-46.5 11.5h-34l25 85q-57 3 -107.5 22t-87.5 52l55 66q39 -31 81 -47.5t84 -16.5q54 0 88 21t34 55q0 27 -20 42.5t-62 21.5l-92 14q-76 11 -114 46.5t-38 95.5q0 45 25 80t70 54
t105 19q56 0 106.5 -16t97.5 -49l-50 -66q-43 28 -82 40.5t-80 12.5q-45 0 -73.5 -19t-28.5 -50q0 -27 20 -42t64 -22l92 -13q76 -10 115 -46t39 -95q0 -43 -24.5 -77.5t-67 -56t-97.5 -26.5l-12 -43q44 -3 69.5 -25.5t25.5 -59.5q0 -41 -34.5 -68t-87.5 -27z" />
    <glyph glyph-name="Scaron" unicode="&#x160;" horiz-adv-x="613" 
d="M308 -10q-84 0 -162 32.5t-138 93.5l64 75q57 -56 116.5 -83.5t125.5 -27.5q50 0 88 15t59.5 41.5t21.5 60.5q0 47 -33 72t-109 38l-117 19q-96 16 -143.5 61t-47.5 120q0 61 32 106.5t90.5 70.5t136.5 25q75 0 148.5 -24.5t132.5 -70.5l-58 -80q-113 86 -229 86
q-46 0 -80 -13t-53 -36.5t-19 -55.5q0 -42 29 -64t96 -33l113 -19q111 -18 163 -65t52 -129q0 -64 -34.5 -112.5t-98 -75.5t-146.5 -27zM211 920l79 -77l78 77h82l-108 -127h-106l-108 127h83z" />
    <glyph glyph-name="scaron" unicode="&#x161;" horiz-adv-x="465" 
d="M234 -10q-66 0 -123.5 19.5t-99.5 55.5l55 67q39 -32 81 -48t84 -16q54 0 88 21t34 54q0 28 -20 43.5t-62 21.5l-92 14q-76 11 -114 47t-38 96q0 46 25 80.5t70 54t105 19.5q56 0 106.5 -16t97.5 -50l-50 -66q-43 28 -82 41t-80 13q-45 0 -73.5 -19.5t-28.5 -50.5
q0 -28 20 -43t64 -22l92 -13q76 -10 115 -46t39 -96q0 -46 -28 -82.5t-76 -57.5t-109 -21zM152 728l79 -77l78 77h82l-108 -127h-106l-108 127h83z" />
    <glyph glyph-name="uni0162" unicode="&#x162;" horiz-adv-x="632" 
d="M300 -231q-72 0 -118 42l36 39q38 -31 81 -31q28 0 44 12.5t16 32.5t-17 31.5t-46 11.5h-34l27 93h-26v606h-246v94h597v-94h-245v-606h-28l-14 -51q44 -3 69.5 -25.5t25.5 -59.5q0 -41 -34.5 -68t-87.5 -27z" />
    <glyph glyph-name="uni0163" unicode="&#x163;" horiz-adv-x="390" 
d="M230 -231q-72 0 -119 42l37 39q37 -31 81 -31q28 0 44 12.5t16 32.5t-17 31.5t-46 11.5h-35l27 91q-93 25 -93 129v298h-108v84h108v130l100 24v-154h150v-84h-150v-275q0 -39 17 -55.5t58 -16.5q20 0 36.5 3t36.5 9v-84q-20 -7 -47 -10.5t-49 -3.5h-4h-4l-12 -43
q44 -3 69.5 -25.5t25.5 -59.5q0 -41 -35 -68t-87 -27z" />
    <glyph glyph-name="Tcaron" unicode="&#x164;" horiz-adv-x="632" 
d="M263 0v606h-246v94h597v-94h-245v-606h-106zM238 919l79 -77l78 77h82l-108 -127h-106l-108 127h83z" />
    <glyph glyph-name="tcaron" unicode="&#x165;" horiz-adv-x="390" 
d="M277 -9q-74 0 -113 34.5t-39 100.5v299h-108v84h108v130l100 24v-154h150v-84h-150v-276q0 -39 17 -55.5t58 -16.5q20 0 36.5 3t36.5 10v-85q-20 -7 -47 -10.5t-49 -3.5zM298 583l5 195l91 15l-30 -210h-66z" />
    <glyph glyph-name="Tbar" unicode="&#x166;" horiz-adv-x="632" 
d="M263 0v295h-144v87h144v224h-246v94h597v-94h-245v-224h144v-87h-144v-295h-106z" />
    <glyph glyph-name="tbar" unicode="&#x167;" horiz-adv-x="390" 
d="M277 -9q-74 0 -113 34.5t-39 100.5v123h-108v75h108v101h-108v84h108v130l100 24v-154h150v-84h-150v-101h152v-75h-152v-100q0 -39 17 -55.5t58 -16.5q20 0 36.5 3t36.5 10v-85q-20 -7 -47 -10.5t-49 -3.5z" />
    <glyph glyph-name="Utilde" unicode="&#x168;" horiz-adv-x="713" 
d="M356 -11q-91 0 -158 38t-103.5 107.5t-36.5 164.5v401h106v-401q0 -65 23.5 -112.5t67.5 -73.5t102 -26t101 26t67 73.5t24 112.5v401h105v-401q0 -95 -36.5 -164.5t-103 -107.5t-158.5 -38zM244 786l-66 14q24 109 103 109q27 0 53 -13.5t49 -26.5t43 -13
q17 0 27.5 12.5t17.5 42.5l64 -13q-11 -55 -37 -82t-65 -27q-26 0 -52 13.5t-50 26.5t-44 13q-18 0 -27.5 -13t-15.5 -43z" />
    <glyph glyph-name="utilde" unicode="&#x169;" horiz-adv-x="568" 
d="M256 -10q-59 0 -104 25.5t-70.5 70.5t-25.5 104v319h100v-302q0 -60 34.5 -95t92.5 -35q41 0 73 18t52 49v365h101v-509h-101v51q-59 -61 -152 -61zM171 596l-66 14q24 109 103 109q27 0 53 -13.5t49 -26.5t43 -13q17 0 27.5 12.5t17.5 42.5l64 -13q-11 -55 -37 -82
t-65 -27q-26 0 -52 13.5t-50 26.5t-44 13q-18 0 -27.5 -13t-15.5 -43z" />
    <glyph glyph-name="Umacron" unicode="&#x16a;" horiz-adv-x="713" 
d="M356 -11q-91 0 -158 38t-103.5 107.5t-36.5 164.5v401h106v-401q0 -65 23.5 -112.5t67.5 -73.5t102 -26t101 26t67 73.5t24 112.5v401h105v-401q0 -95 -36.5 -164.5t-103 -107.5t-158.5 -38zM207 814v67h300v-67h-300z" />
    <glyph glyph-name="umacron" unicode="&#x16b;" horiz-adv-x="568" 
d="M256 -10q-59 0 -104 25.5t-70.5 70.5t-25.5 104v319h100v-302q0 -60 34.5 -95t92.5 -35q41 0 73 18t52 49v365h101v-509h-101v51q-59 -61 -152 -61zM134 623v67h300v-67h-300z" />
    <glyph glyph-name="Ubreve" unicode="&#x16c;" horiz-adv-x="713" 
d="M356 -11q-91 0 -158 38t-103.5 107.5t-36.5 164.5v401h106v-401q0 -65 23.5 -112.5t67.5 -73.5t102 -26t101 26t67 73.5t24 112.5v401h105v-401q0 -95 -36.5 -164.5t-103 -107.5t-158.5 -38zM357 786q-63 0 -106 34t-57 94l66 17q22 -84 97 -84q36 0 61 21.5t36 62.5
l66 -17q-14 -60 -57 -94t-106 -34z" />
    <glyph glyph-name="ubreve" unicode="&#x16d;" horiz-adv-x="568" 
d="M256 -10q-59 0 -104 25.5t-70.5 70.5t-25.5 104v319h100v-302q0 -60 34.5 -95t92.5 -35q41 0 73 18t52 49v365h101v-509h-101v51q-59 -61 -152 -61zM284 595q-63 0 -106 34t-57 94l66 17q22 -84 97 -84q36 0 61 21.5t36 62.5l66 -17q-14 -60 -57 -94t-106 -34z" />
    <glyph glyph-name="Uring" unicode="&#x16e;" horiz-adv-x="713" 
d="M356 -11q-91 0 -158 38t-103.5 107.5t-36.5 164.5v401h106v-401q0 -65 23.5 -112.5t67.5 -73.5t102 -26t101 26t67 73.5t24 112.5v401h105v-401q0 -95 -36.5 -164.5t-103 -107.5t-158.5 -38zM357 775q-32 0 -58.5 15.5t-42.5 42t-16 57.5q0 32 16 58t42.5 41.5t58.5 15.5
t58.5 -15.5t42.5 -41.5t16 -58q0 -31 -16 -57.5t-42.5 -42t-58.5 -15.5zM357 823q28 0 47.5 19.5t19.5 47.5t-19.5 47.5t-47.5 19.5t-47.5 -19.5t-19.5 -47.5t19.5 -47.5t47.5 -19.5z" />
    <glyph glyph-name="uring" unicode="&#x16f;" horiz-adv-x="568" 
d="M256 -10q-59 0 -104 25.5t-70.5 70.5t-25.5 104v319h100v-302q0 -60 34.5 -95t92.5 -35q41 0 73 18t52 49v365h101v-509h-101v51q-59 -61 -152 -61zM284 584q-32 0 -58.5 15.5t-42.5 42t-16 57.5q0 32 16 58t42.5 41.5t58.5 15.5t58.5 -15.5t42.5 -41.5t16 -58
q0 -31 -16 -57.5t-42.5 -42t-58.5 -15.5zM284 632q28 0 47.5 19.5t19.5 47.5t-19.5 47.5t-47.5 19.5t-47.5 -19.5t-19.5 -47.5t19.5 -47.5t47.5 -19.5z" />
    <glyph glyph-name="Uhungarumlaut" unicode="&#x170;" horiz-adv-x="713" 
d="M356 -11q-91 0 -158 38t-103.5 107.5t-36.5 164.5v401h106v-401q0 -65 23.5 -112.5t67.5 -73.5t102 -26t101 26t67 73.5t24 112.5v401h105v-401q0 -95 -36.5 -164.5t-103 -107.5t-158.5 -38zM219 797l102 119h107l-129 -119h-80zM401 797l103 119h108l-135 -119h-76z" />
    <glyph glyph-name="uhungarumlaut" unicode="&#x171;" horiz-adv-x="568" 
d="M256 -10q-59 0 -104 25.5t-70.5 70.5t-25.5 104v319h100v-302q0 -60 34.5 -95t92.5 -35q41 0 73 18t52 49v365h101v-509h-101v51q-59 -61 -152 -61zM146 606l102 119h107l-129 -119h-80zM328 606l103 119h108l-135 -119h-76z" />
    <glyph glyph-name="Uogonek" unicode="&#x172;" horiz-adv-x="713" 
d="M377 -221q-45 0 -73 24.5t-28 63.5q0 33 19.5 62t62.5 60q-91 1 -158.5 38.5t-104.5 106.5t-37 165v401h106v-401q0 -65 23.5 -112.5t67.5 -73.5t102 -26t101 26t67 73.5t24 112.5v401h105v-401q0 -120 -58.5 -199.5t-160.5 -102.5q-49 -31 -72.5 -58t-23.5 -54
q0 -24 14.5 -36.5t40.5 -12.5q12 0 23.5 3.5t20.5 9.5l17 -48q-16 -10 -36 -16t-42 -6z" />
    <glyph glyph-name="uogonek" unicode="&#x173;" horiz-adv-x="568" 
d="M448 -221q-45 0 -73 24.5t-28 63.5q0 36 23 67.5t73 65.5h-35v51q-59 -61 -152 -61q-59 0 -104 25.5t-70.5 70.5t-25.5 104v319h100v-302q0 -60 34.5 -95t92.5 -35q41 0 73 18t52 49v365h101v-509q-52 -31 -75.5 -59t-23.5 -56q0 -24 14.5 -36.5t40.5 -12.5
q12 0 23.5 3.5t21.5 9.5l16 -48q-16 -10 -36 -16t-42 -6z" />
    <glyph glyph-name="Wcircumflex" unicode="&#x174;" horiz-adv-x="908" 
d="M184 0l-153 700h108l109 -534l158 534h100l158 -533l110 533h103l-152 -700h-109l-161 549l-162 -549h-109zM530 791l-79 77l-79 -77h-81l108 127h106l108 -127h-83z" />
    <glyph glyph-name="wcircumflex" unicode="&#x175;" horiz-adv-x="732" 
d="M154 0l-142 509h97l99 -373l116 373h87l115 -373l99 373h95l-143 -509h-96l-115 372l-115 -372h-97zM444 600l-79 77l-79 -77h-81l108 127h106l108 -127h-83z" />
    <glyph glyph-name="Ycircumflex" unicode="&#x176;" horiz-adv-x="667" 
d="M281 0v278l-282 422h123l215 -329l215 329h117l-283 -424v-276h-105zM412 791l-79 77l-79 -77h-81l108 127h106l108 -127h-83z" />
    <glyph glyph-name="ycircumflex" unicode="&#x177;" horiz-adv-x="538" 
d="M93 -215q-16 0 -30 1.5t-23 4.5v88q18 -4 44 -4q70 0 102 75l21 49l-204 510h111l149 -387l163 387h108l-246 -572q-23 -54 -50.5 -87.5t-62.5 -49t-82 -15.5zM343 600l-79 77l-79 -77h-81l108 127h106l108 -127h-83z" />
    <glyph glyph-name="Ydieresis" unicode="&#x178;" horiz-adv-x="667" 
d="M281 0v278l-282 422h123l215 -329l215 329h117l-283 -424v-276h-105zM237 799q-25 0 -42.5 17t-17.5 42q0 24 17.5 41t41.5 17q26 0 43 -17t17 -41q0 -25 -17 -42t-42 -17zM432 799q-25 0 -42.5 17t-17.5 42q0 24 17.5 41t42.5 17t42 -17t17 -41q0 -25 -17 -42t-42 -17z
" />
    <glyph glyph-name="Zacute" unicode="&#x179;" horiz-adv-x="609" 
d="M23 0v73l420 535h-417v92h555v-73l-421 -535h427v-92h-564zM241 794l92 122h121l-129 -122h-84z" />
    <glyph glyph-name="zacute" unicode="&#x17a;" horiz-adv-x="478" 
d="M29 0v75l285 348h-282v86h408v-73l-286 -349h291v-87h-416zM164 603l92 122h121l-129 -122h-84z" />
    <glyph glyph-name="Zdotaccent" unicode="&#x17b;" horiz-adv-x="609" 
d="M23 0v73l420 535h-417v92h555v-73l-421 -535h427v-92h-564zM312 793q-25 0 -42.5 17t-17.5 42q0 24 17.5 41.5t42.5 17.5t42.5 -17.5t17.5 -41.5q0 -25 -17.5 -42t-42.5 -17z" />
    <glyph glyph-name="zdotaccent" unicode="&#x17c;" horiz-adv-x="478" 
d="M29 0v75l285 348h-282v86h408v-73l-286 -349h291v-87h-416zM235 602q-25 0 -42.5 17t-17.5 42q0 24 17.5 41.5t42.5 17.5t42.5 -17.5t17.5 -41.5q0 -25 -17.5 -42t-42.5 -17z" />
    <glyph glyph-name="Zcaron" unicode="&#x17d;" horiz-adv-x="609" 
d="M23 0v73l420 535h-417v92h555v-73l-421 -535h427v-92h-564zM234 919l79 -77l78 77h82l-108 -127h-106l-108 127h83z" />
    <glyph glyph-name="zcaron" unicode="&#x17e;" horiz-adv-x="478" 
d="M29 0v75l285 348h-282v86h408v-73l-286 -349h291v-87h-416zM157 728l79 -77l78 77h82l-108 -127h-106l-108 127h83z" />
    <glyph glyph-name="uni0218" unicode="&#x218;" horiz-adv-x="613" 
d="M308 -10q-84 0 -162 32.5t-138 93.5l64 75q57 -56 116.5 -83.5t125.5 -27.5q50 0 88 15t59.5 41.5t21.5 60.5q0 47 -33 72t-109 38l-117 19q-96 16 -143.5 61t-47.5 120q0 61 32 106.5t90.5 70.5t136.5 25q75 0 148.5 -24.5t132.5 -70.5l-58 -80q-113 86 -229 86
q-46 0 -80 -13t-53 -36.5t-19 -55.5q0 -42 29 -64t96 -33l113 -19q111 -18 163 -65t52 -129q0 -64 -34.5 -112.5t-98 -75.5t-146.5 -27zM204 -272l45 190h97l-68 -190h-74z" />
    <glyph glyph-name="uni0219" unicode="&#x219;" horiz-adv-x="465" 
d="M234 -10q-66 0 -123.5 19.5t-99.5 55.5l55 67q39 -32 81 -48t84 -16q54 0 88 21t34 54q0 28 -20 43.5t-62 21.5l-92 14q-76 11 -114 47t-38 96q0 46 25 80.5t70 54t105 19.5q56 0 106.5 -16t97.5 -50l-50 -66q-43 28 -82 41t-80 13q-45 0 -73.5 -19.5t-28.5 -50.5
q0 -28 20 -43t64 -22l92 -13q76 -10 115 -46t39 -96q0 -46 -28 -82.5t-76 -57.5t-109 -21zM141 -273l45 190h97l-68 -190h-74z" />
    <glyph glyph-name="uni021A" unicode="&#x21a;" horiz-adv-x="632" 
d="M263 0v606h-246v94h597v-94h-245v-606h-106zM222 -273l45 190h97l-68 -190h-74z" />
    <glyph glyph-name="uni021B" unicode="&#x21b;" horiz-adv-x="390" 
d="M277 -9q-74 0 -113 34.5t-39 100.5v299h-108v84h108v130l100 24v-154h150v-84h-150v-276q0 -39 17 -55.5t58 -16.5q20 0 36.5 3t36.5 10v-85q-20 -7 -47 -10.5t-49 -3.5zM150 -273l45 190h97l-68 -190h-74z" />
    <glyph glyph-name="uni0237" unicode="&#x237;" horiz-adv-x="219" 
d="M15 -214q-16 0 -31 2.5l-27 4.5v80q18 -4 41 -4q33 0 47 15t14 47v578h101v-586q0 -65 -37.5 -101t-107.5 -36z" />
    <glyph glyph-name="uni02BB" unicode="&#x2bb;" horiz-adv-x="250" 
d="M215 728l-62 -233h-106l91 233h77z" />
    <glyph glyph-name="uni02BC" unicode="&#x2bc;" horiz-adv-x="250" 
d="M44 495l63 233h106l-92 -233h-77z" />
    <glyph glyph-name="circumflex" unicode="&#x2c6;" 
d="M378 600l-79 77l-79 -77h-81l108 127h106l108 -127h-83z" />
    <glyph glyph-name="caron" unicode="&#x2c7;" 
d="M222 728l79 -77l78 77h82l-108 -127h-106l-108 127h83z" />
    <glyph glyph-name="breve" unicode="&#x2d8;" 
d="M300 595q-63 0 -106 34t-57 94l66 17q22 -84 97 -84q36 0 61 21.5t36 62.5l66 -17q-14 -60 -57 -94t-106 -34z" />
    <glyph glyph-name="dotaccent" unicode="&#x2d9;" 
d="M300 602q-25 0 -42.5 17t-17.5 42q0 24 17.5 41.5t42.5 17.5t42.5 -17.5t17.5 -41.5q0 -25 -17.5 -42t-42.5 -17z" />
    <glyph glyph-name="ring" unicode="&#x2da;" 
d="M300 584q-32 0 -58.5 15.5t-42.5 42t-16 57.5q0 32 16 58t42.5 41.5t58.5 15.5t58.5 -15.5t42.5 -41.5t16 -58q0 -31 -16 -57.5t-42.5 -42t-58.5 -15.5zM300 632q28 0 47.5 19.5t19.5 47.5t-19.5 47.5t-47.5 19.5t-47.5 -19.5t-19.5 -47.5t19.5 -47.5t47.5 -19.5z" />
    <glyph glyph-name="ogonek" unicode="&#x2db;" 
d="M297 -221q-45 0 -73 24.5t-28 63.5q0 41 29.5 76t94.5 75l38 -18q-51 -31 -75 -59t-24 -56q0 -24 14.5 -36.5t40.5 -12.5q12 0 23.5 3.5t20.5 9.5l17 -48q-16 -10 -36 -16t-42 -6z" />
    <glyph glyph-name="tilde" unicode="&#x2dc;" 
d="M187 595l-66 14q24 109 103 109q27 0 53 -13.5t49 -26.5t43 -13q17 0 27.5 12.5t17.5 42.5l64 -13q-11 -55 -37 -82t-65 -27q-26 0 -52 13.5t-50 26.5t-44 13q-18 0 -27.5 -13t-15.5 -43z" />
    <glyph glyph-name="hungarumlaut" unicode="&#x2dd;" 
d="M162 606l102 119h107l-129 -119h-80zM344 606l103 119h108l-135 -119h-76z" />
    <glyph glyph-name="gravecomb" unicode="&#x300;" horiz-adv-x="0" 
d="M283 603l-128 122h122l90 -122h-84z" />
    <glyph glyph-name="acutecomb" unicode="&#x301;" horiz-adv-x="0" 
d="M229 603l92 122h121l-129 -122h-84z" />
    <glyph glyph-name="uni0302" unicode="&#x302;" horiz-adv-x="0" 
d="M378 600l-79 77l-79 -77h-81l108 127h106l108 -127h-83z" />
    <glyph glyph-name="tildecomb" unicode="&#x303;" horiz-adv-x="0" 
d="M187 595l-66 14q24 109 103 109q27 0 53 -13.5t49 -26.5t43 -13q17 0 27.5 12.5t17.5 42.5l64 -13q-11 -55 -37 -82t-65 -27q-26 0 -52 13.5t-50 26.5t-44 13q-18 0 -27.5 -13t-15.5 -43z" />
    <glyph glyph-name="uni0304" unicode="&#x304;" horiz-adv-x="0" 
d="M150 623v67h300v-67h-300z" />
    <glyph glyph-name="uni0306" unicode="&#x306;" horiz-adv-x="0" 
d="M300 595q-63 0 -106 34t-57 94l66 17q22 -84 97 -84q36 0 61 21.5t36 62.5l66 -17q-14 -60 -57 -94t-106 -34z" />
    <glyph glyph-name="uni0307" unicode="&#x307;" horiz-adv-x="0" 
d="M300 602q-25 0 -42.5 17t-17.5 42q0 24 17.5 41.5t42.5 17.5t42.5 -17.5t17.5 -41.5q0 -25 -17.5 -42t-42.5 -17z" />
    <glyph glyph-name="uni0308" unicode="&#x308;" horiz-adv-x="0" 
d="M203 608q-25 0 -42.5 17t-17.5 42q0 24 17.5 41t41.5 17q26 0 43 -17t17 -41q0 -25 -17 -42t-42 -17zM398 608q-25 0 -42.5 17t-17.5 42q0 24 17.5 41t42.5 17t42 -17t17 -41q0 -25 -17 -42t-42 -17z" />
    <glyph glyph-name="uni030A" unicode="&#x30a;" horiz-adv-x="0" 
d="M300 584q-32 0 -58.5 15.5t-42.5 42t-16 57.5q0 32 16 58t42.5 41.5t58.5 15.5t58.5 -15.5t42.5 -41.5t16 -58q0 -31 -16 -57.5t-42.5 -42t-58.5 -15.5zM300 632q28 0 47.5 19.5t19.5 47.5t-19.5 47.5t-47.5 19.5t-47.5 -19.5t-19.5 -47.5t19.5 -47.5t47.5 -19.5z" />
    <glyph glyph-name="uni030B" unicode="&#x30b;" horiz-adv-x="0" 
d="M162 606l102 119h107l-129 -119h-80zM344 606l103 119h108l-135 -119h-76z" />
    <glyph glyph-name="uni030C" unicode="&#x30c;" horiz-adv-x="0" 
d="M222 728l79 -77l78 77h82l-108 -127h-106l-108 127h83z" />
    <glyph glyph-name="uni0312" unicode="&#x312;" horiz-adv-x="0" 
d="M215 728l-62 -233h-106l91 233h77z" />
    <glyph glyph-name="uni0326" unicode="&#x326;" horiz-adv-x="0" 
d="M206 -273l45 190h97l-68 -190h-74z" />
    <glyph glyph-name="uni0327" unicode="&#x327;" horiz-adv-x="0" 
d="M291 -231q-72 0 -119 42l37 39q37 -31 81 -31q28 0 44 12.5t16 32.5t-17 31.5t-46 11.5h-35l27 93h53l-14 -51q44 -3 69.5 -25.5t25.5 -59.5q0 -41 -35 -68t-87 -27z" />
    <glyph glyph-name="uni0328" unicode="&#x328;" horiz-adv-x="0" 
d="M297 -221q-45 0 -73 24.5t-28 63.5q0 41 29.5 76t94.5 75l38 -18q-51 -31 -75 -59t-24 -56q0 -24 14.5 -36.5t40.5 -12.5q12 0 23.5 3.5t20.5 9.5l17 -48q-16 -10 -36 -16t-42 -6z" />
    <glyph glyph-name="Wgrave" unicode="&#x1e80;" horiz-adv-x="908" 
d="M184 0l-153 700h108l109 -534l158 534h100l158 -533l110 533h103l-152 -700h-109l-161 549l-162 -549h-109zM429 794l-128 122h122l90 -122h-84z" />
    <glyph glyph-name="wgrave" unicode="&#x1e81;" horiz-adv-x="732" 
d="M154 0l-142 509h97l99 -373l116 373h87l115 -373l99 373h95l-143 -509h-96l-115 372l-115 -372h-97zM343 603l-128 122h122l90 -122h-84z" />
    <glyph glyph-name="Wacute" unicode="&#x1e82;" horiz-adv-x="908" 
d="M184 0l-153 700h108l109 -534l158 534h100l158 -533l110 533h103l-152 -700h-109l-161 549l-162 -549h-109zM381 794l92 122h121l-129 -122h-84z" />
    <glyph glyph-name="wacute" unicode="&#x1e83;" horiz-adv-x="732" 
d="M154 0l-142 509h97l99 -373l116 373h87l115 -373l99 373h95l-143 -509h-96l-115 372l-115 -372h-97zM295 603l92 122h121l-129 -122h-84z" />
    <glyph glyph-name="Wdieresis" unicode="&#x1e84;" horiz-adv-x="908" 
d="M184 0l-153 700h108l109 -534l158 534h100l158 -533l110 533h103l-152 -700h-109l-161 549l-162 -549h-109zM355 799q-25 0 -42.5 17t-17.5 42q0 24 17.5 41t41.5 17q26 0 43 -17t17 -41q0 -25 -17 -42t-42 -17zM550 799q-25 0 -42.5 17t-17.5 42q0 24 17.5 41t42.5 17
t42 -17t17 -41q0 -25 -17 -42t-42 -17z" />
    <glyph glyph-name="wdieresis" unicode="&#x1e85;" horiz-adv-x="732" 
d="M154 0l-142 509h97l99 -373l116 373h87l115 -373l99 373h95l-143 -509h-96l-115 372l-115 -372h-97zM269 608q-25 0 -42.5 17t-17.5 42q0 24 17.5 41t41.5 17q26 0 43 -17t17 -41q0 -25 -17 -42t-42 -17zM464 608q-25 0 -42.5 17t-17.5 42q0 24 17.5 41t42.5 17t42 -17
t17 -41q0 -25 -17 -42t-42 -17z" />
    <glyph glyph-name="uni1E9E" unicode="&#x1e9e;" horiz-adv-x="647" 
d="M413 -11q-47 0 -94 15.5t-85 43.5l47 90q33 -26 63.5 -39t58.5 -13q27 0 48.5 10t34.5 27.5t13 39.5q0 25 -8 42.5t-27 33t-53 32.5q-39 21 -61.5 39t-32.5 36.5t-10 38.5q0 22 9.5 43t34.5 54l91 123h-265v-605h-106v700h496v-92l-118 -153q-11 -14 -19 -25t-11.5 -19.5
t-3.5 -15.5q0 -9 6 -16.5t24 -18.5t53 -29q55 -27 81.5 -67t26.5 -97q0 -51 -25 -91.5t-68.5 -63.5t-99.5 -23z" />
    <glyph glyph-name="Ygrave" unicode="&#x1ef2;" horiz-adv-x="667" 
d="M281 0v278l-282 422h123l215 -329l215 329h117l-283 -424v-276h-105zM311 794l-128 122h122l90 -122h-84z" />
    <glyph glyph-name="ygrave" unicode="&#x1ef3;" horiz-adv-x="538" 
d="M93 -215q-16 0 -30 1.5t-23 4.5v88q18 -4 44 -4q70 0 102 75l21 49l-204 510h111l149 -387l163 387h108l-246 -572q-23 -54 -50.5 -87.5t-62.5 -49t-82 -15.5zM242 603l-128 122h122l90 -122h-84z" />
    <glyph glyph-name="uni2002" unicode="&#x2002;" horiz-adv-x="500" 
 />
    <glyph glyph-name="uni2003" unicode="&#x2003;" horiz-adv-x="1000" 
 />
    <glyph glyph-name="uni2009" unicode="&#x2009;" horiz-adv-x="175" 
 />
    <glyph glyph-name="uni200A" unicode="&#x200a;" horiz-adv-x="100" 
 />
    <glyph glyph-name="uni200B" unicode="&#x200b;" horiz-adv-x="0" 
 />
    <glyph glyph-name="endash" unicode="&#x2013;" horiz-adv-x="552" 
d="M46 239v87h460v-87h-460z" />
    <glyph glyph-name="emdash" unicode="&#x2014;" horiz-adv-x="702" 
d="M46 239v87h610v-87h-610z" />
    <glyph glyph-name="uni2015" unicode="&#x2015;" horiz-adv-x="952" 
d="M46 239v87h860v-87h-860z" />
    <glyph glyph-name="quoteleft" unicode="&#x2018;" horiz-adv-x="250" 
d="M215 728l-62 -233h-106l91 233h77z" />
    <glyph glyph-name="quoteright" unicode="&#x2019;" horiz-adv-x="250" 
d="M44 495l63 233h106l-92 -233h-77z" />
    <glyph glyph-name="quotesinglbase" unicode="&#x201a;" horiz-adv-x="250" 
d="M27 -143l62 233h106l-91 -233h-77z" />
    <glyph glyph-name="quotedblleft" unicode="&#x201c;" horiz-adv-x="409" 
d="M215 728l-62 -233h-106l91 233h77zM375 728l-63 -233h-106l92 233h77z" />
    <glyph glyph-name="quotedblright" unicode="&#x201d;" horiz-adv-x="409" 
d="M204 495l62 233h107l-92 -233h-77zM44 495l63 233h106l-92 -233h-77z" />
    <glyph glyph-name="quotedblbase" unicode="&#x201e;" horiz-adv-x="409" 
d="M186 -143l62 233h106l-91 -233h-77zM27 -143l62 233h106l-91 -233h-77z" />
    <glyph glyph-name="dagger" unicode="&#x2020;" horiz-adv-x="435" 
d="M175 0v430h-123v79h123v191h85v-191h124v-79h-124v-430h-85z" />
    <glyph glyph-name="daggerdbl" unicode="&#x2021;" horiz-adv-x="435" 
d="M175 0v191h-123v79h123v160h-123v79h123v191h85v-191h124v-79h-124v-160h124v-79h-124v-191h-85z" />
    <glyph glyph-name="bullet" unicode="&#x2022;" horiz-adv-x="339" 
d="M169 237q-29 0 -53.5 14t-39 38.5t-14.5 53.5q0 30 14.5 54.5t39 39t53.5 14.5q30 0 54.5 -14.5t39.5 -39t15 -54.5q0 -29 -14.5 -53.5t-39 -38.5t-55.5 -14z" />
    <glyph glyph-name="ellipsis" unicode="&#x2026;" horiz-adv-x="668" 
d="M125 -8q-26 0 -45 19t-19 45t19 45t45 19t45 -19t19 -45t-19 -45t-45 -19zM334 -8q-26 0 -45 19t-19 45t19 45t45 19t45 -19t19 -45t-19 -45t-45 -19zM543 -8q-26 0 -45 19t-19 45t19 45t45 19t45 -19t19 -45t-19 -45t-45 -19z" />
    <glyph glyph-name="perthousand" unicode="&#x2030;" horiz-adv-x="1111" 
d="M178 345q-69 0 -111 50t-42 130q0 81 42 130.5t111 49.5q68 0 110.5 -49.5t42.5 -130.5q0 -80 -42.5 -130t-110.5 -50zM178 402q41 0 65 33.5t24 89.5q0 57 -24 90.5t-65 33.5t-64.5 -33.5t-24.5 -90.5q1 -56 24.5 -89.5t64.5 -33.5zM142 0l394 700h79l-395 -700h-78z
M585 -5q-69 0 -111 50t-42 130q0 81 42 130.5t111 49.5q68 0 110.5 -49.5t42.5 -130.5q0 -80 -42.5 -130t-110.5 -50zM585 52q41 0 65 33.5t24 89.5q0 57 -24 90.5t-65 33.5t-64.5 -33.5t-24.5 -90.5q1 -56 24.5 -89.5t64.5 -33.5zM933 -5q-69 0 -111 50t-42 130
q0 81 42 130.5t111 49.5q68 0 110.5 -49.5t42.5 -130.5q0 -80 -42.5 -130t-110.5 -50zM933 52q41 0 65 33.5t24 89.5q0 57 -24 90.5t-65 33.5t-64.5 -33.5t-24.5 -90.5q1 -56 24.5 -89.5t64.5 -33.5z" />
    <glyph glyph-name="minute" unicode="&#x2032;" horiz-adv-x="250" 
d="M44 495l63 233h106l-92 -233h-77z" />
    <glyph glyph-name="second" unicode="&#x2033;" horiz-adv-x="409" 
d="M204 495l62 233h107l-92 -233h-77zM44 495l63 233h106l-92 -233h-77z" />
    <glyph glyph-name="guilsinglleft" unicode="&#x2039;" horiz-adv-x="407" 
d="M263 0l-237 255l237 254h105l-231 -252l234 -257h-108z" />
    <glyph glyph-name="guilsinglright" unicode="&#x203a;" horiz-adv-x="407" 
d="M143 509l238 -255l-238 -254h-104l231 253l-234 256h107z" />
    <glyph glyph-name="fraction" unicode="&#x2044;" horiz-adv-x="578" 
d="M25 0l394 700h79l-395 -700h-78z" />
    <glyph glyph-name="uni2070" unicode="&#x2070;" horiz-adv-x="355" 
d="M178 345q-69 0 -111 50t-42 130q0 81 42 130.5t111 49.5q68 0 110.5 -49.5t42.5 -130.5q0 -80 -42.5 -130t-110.5 -50zM178 402q41 0 65 33.5t24 89.5q0 57 -24 90.5t-65 33.5t-64.5 -33.5t-24.5 -90.5q1 -56 24.5 -89.5t64.5 -33.5z" />
    <glyph glyph-name="uni2074" unicode="&#x2074;" horiz-adv-x="341" 
d="M218 350v83h-197v53l188 214h75v-212h44v-55h-44v-83h-66zM96 488h122v138z" />
    <glyph glyph-name="uni2075" unicode="&#x2075;" horiz-adv-x="315" 
d="M150 345q-77 0 -130 47l40 45q23 -19 44.5 -28t47.5 -9q33 0 53 17t20 44q0 25 -21.5 41.5t-55.5 16.5q-15 0 -32 -3t-34 -11l-43 13l9 182h224v-56h-171l-4 -84q16 6 32.5 8.5t32.5 2.5q59 0 94.5 -30t35.5 -79q0 -53 -39.5 -85t-102.5 -32z" />
    <glyph glyph-name="uni2076" unicode="&#x2076;" horiz-adv-x="331" 
d="M178 345q-69 0 -111.5 47.5t-42.5 124.5q0 86 47.5 137t126.5 51q26 0 53.5 -9t46.5 -24l-37 -48q-15 13 -32.5 18t-36.5 5q-47 0 -73 -31t-29 -90q18 20 43.5 31t52.5 11q54 0 88.5 -30.5t34.5 -77.5q0 -49 -37 -82t-94 -33zM176 516q-24 0 -45 -10t-36 -29
q7 -35 28.5 -55.5t52.5 -20.5q29 0 48.5 16.5t19.5 41.5t-19 41t-49 16z" />
    <glyph glyph-name="uni2077" unicode="&#x2077;" horiz-adv-x="307" 
d="M58 350l163 293h-204v57h279v-49l-160 -301h-78z" />
    <glyph glyph-name="uni2078" unicode="&#x2078;" horiz-adv-x="331" 
d="M166 345q-62 0 -101 28.5t-39 74.5q0 27 17 49.5t45 32.5q-22 12 -36 33t-14 45q0 42 36.5 70t90.5 28q55 0 91.5 -28t36.5 -70q0 -24 -14 -45t-37 -33q28 -10 45 -32.5t17 -49.5q0 -46 -38.5 -74.5t-99.5 -28.5zM166 555q26 0 44 13.5t18 34.5t-18 35.5t-44 14.5
q-28 0 -45.5 -14.5t-17.5 -35.5t17.5 -34.5t45.5 -13.5zM166 399q31 0 52 15t21 37q0 24 -21 39t-52 15q-33 0 -53.5 -15t-20.5 -39q0 -22 20.5 -37t53.5 -15z" />
    <glyph glyph-name="uni2079" unicode="&#x2079;" horiz-adv-x="331" 
d="M153 705q69 0 111.5 -48t42.5 -125q0 -84 -47.5 -135.5t-125.5 -51.5q-27 0 -54.5 9t-46.5 24l37 47q16 -11 33 -17t36 -6q47 0 73 31.5t29 89.5q-18 -19 -43 -30.5t-53 -11.5q-54 0 -88.5 30.5t-34.5 77.5q0 50 37.5 83t93.5 33zM156 533q23 0 44 10.5t36 29.5
q-7 35 -28.5 55.5t-52.5 20.5q-29 0 -48.5 -16.5t-19.5 -41.5q0 -26 19 -42t50 -16z" />
    <glyph glyph-name="uni2080" unicode="&#x2080;" horiz-adv-x="355" 
d="M178 -5q-69 0 -111 50t-42 130q0 81 42 130.5t111 49.5q68 0 110.5 -49.5t42.5 -130.5q0 -80 -42.5 -130t-110.5 -50zM178 52q41 0 65 33.5t24 89.5q0 57 -24 90.5t-65 33.5t-64.5 -33.5t-24.5 -90.5q1 -56 24.5 -89.5t64.5 -33.5z" />
    <glyph glyph-name="uni2081" unicode="&#x2081;" horiz-adv-x="178" 
d="M86 0v283l-68 -27v56l92 38h42v-350h-66z" />
    <glyph glyph-name="uni2082" unicode="&#x2082;" horiz-adv-x="298" 
d="M26 0v47l138 124q25 22 35 38.5t10 34.5q0 24 -18 39.5t-47 15.5q-24 0 -46 -10t-48 -33l-37 43q31 27 64.5 41.5t68.5 14.5q56 0 91.5 -30t35.5 -77q0 -30 -15 -56t-52 -60l-86 -77h158v-55h-252z" />
    <glyph glyph-name="uni2083" unicode="&#x2083;" horiz-adv-x="320" 
d="M154 -5q-40 0 -76.5 14t-60.5 40l44 41q22 -21 42.5 -30t50.5 -9q33 0 53 14.5t20 36.5q0 20 -18.5 32t-49.5 12h-32v53h26q27 0 45 15t18 37q0 21 -17.5 34t-45.5 13q-27 0 -46.5 -9t-41.5 -32l-45 41q26 27 61.5 42.5t73.5 15.5q56 0 92 -27.5t35 -71.5
q1 -25 -13.5 -46.5t-39.5 -34.5q30 -10 47.5 -30.5t17.5 -48.5q0 -44 -39.5 -73t-100.5 -29z" />
    <glyph glyph-name="uni2084" unicode="&#x2084;" horiz-adv-x="341" 
d="M218 0v83h-197v53l188 214h75v-212h44v-55h-44v-83h-66zM96 138h122v138z" />
    <glyph glyph-name="uni2085" unicode="&#x2085;" horiz-adv-x="315" 
d="M150 -5q-77 0 -130 47l40 45q23 -19 44.5 -28t47.5 -9q33 0 53 17t20 44q0 25 -21.5 41.5t-55.5 16.5q-15 0 -32 -3t-34 -11l-43 13l9 182h224v-56h-171l-4 -84q16 6 32.5 8.5t32.5 2.5q59 0 94.5 -30t35.5 -79q0 -53 -39.5 -85t-102.5 -32z" />
    <glyph glyph-name="uni2086" unicode="&#x2086;" horiz-adv-x="331" 
d="M178 -5q-69 0 -111.5 47.5t-42.5 124.5q0 86 47.5 137t126.5 51q26 0 53.5 -9t46.5 -24l-37 -48q-15 13 -32.5 18t-36.5 5q-47 0 -73 -31t-29 -90q18 20 43.5 31t52.5 11q54 0 88.5 -30.5t34.5 -77.5q0 -49 -37 -82t-94 -33zM176 166q-24 0 -45 -10t-36 -29
q7 -35 28.5 -55.5t52.5 -20.5q29 0 48.5 16.5t19.5 41.5t-19 41t-49 16z" />
    <glyph glyph-name="uni2087" unicode="&#x2087;" horiz-adv-x="307" 
d="M58 0l163 293h-204v57h279v-49l-160 -301h-78z" />
    <glyph glyph-name="uni2088" unicode="&#x2088;" horiz-adv-x="331" 
d="M166 -5q-62 0 -101 28.5t-39 74.5q0 27 17 49.5t45 32.5q-22 12 -36 33t-14 45q0 42 36.5 70t90.5 28q55 0 91.5 -28t36.5 -70q0 -24 -14 -45t-37 -33q28 -10 45 -32.5t17 -49.5q0 -46 -38.5 -74.5t-99.5 -28.5zM166 205q26 0 44 13.5t18 34.5t-18 35.5t-44 14.5
q-28 0 -45.5 -14.5t-17.5 -35.5t17.5 -34.5t45.5 -13.5zM166 49q31 0 52 15t21 37q0 24 -21 39t-52 15q-33 0 -53.5 -15t-20.5 -39q0 -22 20.5 -37t53.5 -15z" />
    <glyph glyph-name="uni2089" unicode="&#x2089;" horiz-adv-x="331" 
d="M153 355q69 0 111.5 -48t42.5 -125q0 -84 -47.5 -135.5t-125.5 -51.5q-27 0 -54.5 9t-46.5 24l37 47q16 -11 33 -17t36 -6q47 0 73 31.5t29 89.5q-18 -19 -43 -30.5t-53 -11.5q-54 0 -88.5 30.5t-34.5 77.5q0 50 37.5 83t93.5 33zM156 183q23 0 44 10.5t36 29.5
q-7 35 -28.5 55.5t-52.5 20.5q-29 0 -48.5 -16.5t-19.5 -41.5q0 -26 19 -42t50 -16z" />
    <glyph glyph-name="Euro" unicode="&#x20ac;" horiz-adv-x="781" 
d="M467 -11q-85 0 -154.5 33t-116.5 93t-66 140h-96v59h88q-1 9 -1.5 18t-0.5 18q0 10 0.5 19.5t1.5 18.5h-88v59h97q19 80 66 139t117 92t155 33q86 0 156 -32t116 -95l-70 -53q-34 47 -86.5 71.5t-116.5 24.5q-59 0 -107 -22t-81.5 -62.5t-49.5 -95.5h271l-22 -59h-261
q-1 -9 -1.5 -18.5t-0.5 -19.5q0 -9 0.5 -18t1.5 -18h235l-21 -59h-202q15 -55 48.5 -96t81.5 -63t107 -22q63 0 117 25t87 70l68 -52q-47 -62 -117 -95t-155 -33z" />
    <glyph glyph-name="trademark" unicode="&#x2122;" horiz-adv-x="681" 
d="M326 421v279h67l82 -167l82 167h67v-279h-52l2 213l-99 -195l-99 193l1 -211h-51zM127 421v232h-97v47h248v-47h-97v-232h-54z" />
    <glyph glyph-name="arrowup" unicode="&#x2191;" horiz-adv-x="551" 
d="M227 0v569l-154 -200l-62 51l264 330l263 -329l-62 -52l-156 202v-571h-93z" />
    <glyph glyph-name="arrowdown" unicode="&#x2193;" horiz-adv-x="551" 
d="M321 700v-569l155 200l62 -51l-264 -330l-263 329l61 52l156 -202v571h93z" />
    <glyph glyph-name="minus" unicode="&#x2212;" 
d="M94 319v78h412v-78h-412z" />
    <glyph glyph-name="uni2215" unicode="&#x2215;" horiz-adv-x="578" 
d="M25 0l395 700h78l-395 -700h-78z" />
    <glyph glyph-name="notequal" unicode="&#x2260;" 
d="M102 110l78 119h-86v78h136l65 96h-201v79h251l77 117h76l-77 -117h85v-79h-135l-64 -96h199v-78h-249l-79 -119h-76z" />
    <glyph glyph-name="uniFEFF" unicode="&#xfeff;" horiz-adv-x="0" 
 />
    <glyph glyph-name="uniFFFD" unicode="&#xfffd;" horiz-adv-x="574" 
d="M90 -100v850h394v-850h-394z" />
    <glyph glyph-name="i.loclTRK" horiz-adv-x="219" 
d="M59 0v509h101v-509h-101zM109 591q-25 0 -43 18.5t-18 43.5q0 26 18 44t43 18q26 0 44 -18t18 -44q0 -25 -18 -43.5t-44 -18.5z" />
    <glyph glyph-name="a.ss01" horiz-adv-x="607" 
d="M293 -8q-71 0 -130 35t-93 94.5t-34 133.5t34.5 133t93.5 94t131 35q42 0 81 -13t72 -37v42h100v-509h-99v49q-65 -57 -156 -57zM307 79q43 0 79.5 16t61.5 46v229q-25 28 -62 44t-79 16q-49 0 -88 -22.5t-61.5 -62t-22.5 -89.5t22.5 -90t62 -63.5t87.5 -23.5z" />
    <glyph glyph-name="aacute.ss01" horiz-adv-x="607" 
d="M293 -8q-71 0 -130 35t-93 94.5t-34 133.5t34.5 133t93.5 94t131 35q42 0 81 -13t72 -37v42h100v-509h-99v49q-65 -57 -156 -57zM307 79q43 0 79.5 16t61.5 46v229q-25 28 -62 44t-79 16q-49 0 -88 -22.5t-61.5 -62t-22.5 -89.5t22.5 -90t62 -63.5t87.5 -23.5zM232 603
l92 122h121l-129 -122h-84z" />
    <glyph glyph-name="abreve.ss01" horiz-adv-x="607" 
d="M293 -8q-71 0 -130 35t-93 94.5t-34 133.5t34.5 133t93.5 94t131 35q42 0 81 -13t72 -37v42h100v-509h-99v49q-65 -57 -156 -57zM307 79q43 0 79.5 16t61.5 46v229q-25 28 -62 44t-79 16q-49 0 -88 -22.5t-61.5 -62t-22.5 -89.5t22.5 -90t62 -63.5t87.5 -23.5zM303 595
q-63 0 -106 34t-57 94l66 17q22 -84 97 -84q36 0 61 21.5t36 62.5l66 -17q-14 -60 -57 -94t-106 -34z" />
    <glyph glyph-name="acircumflex.ss01" horiz-adv-x="607" 
d="M293 -8q-71 0 -130 35t-93 94.5t-34 133.5t34.5 133t93.5 94t131 35q42 0 81 -13t72 -37v42h100v-509h-99v49q-65 -57 -156 -57zM307 79q43 0 79.5 16t61.5 46v229q-25 28 -62 44t-79 16q-49 0 -88 -22.5t-61.5 -62t-22.5 -89.5t22.5 -90t62 -63.5t87.5 -23.5zM381 600
l-79 77l-79 -77h-81l108 127h106l108 -127h-83z" />
    <glyph glyph-name="adieresis.ss01" horiz-adv-x="607" 
d="M293 -8q-71 0 -130 35t-93 94.5t-34 133.5t34.5 133t93.5 94t131 35q42 0 81 -13t72 -37v42h100v-509h-99v49q-65 -57 -156 -57zM307 79q43 0 79.5 16t61.5 46v229q-25 28 -62 44t-79 16q-49 0 -88 -22.5t-61.5 -62t-22.5 -89.5t22.5 -90t62 -63.5t87.5 -23.5zM206 608
q-25 0 -42.5 17t-17.5 42q0 24 17.5 41t41.5 17q26 0 43 -17t17 -41q0 -25 -17 -42t-42 -17zM401 608q-25 0 -42.5 17t-17.5 42q0 24 17.5 41t42.5 17t42 -17t17 -41q0 -25 -17 -42t-42 -17z" />
    <glyph glyph-name="agrave.ss01" horiz-adv-x="607" 
d="M293 -8q-71 0 -130 35t-93 94.5t-34 133.5t34.5 133t93.5 94t131 35q42 0 81 -13t72 -37v42h100v-509h-99v49q-65 -57 -156 -57zM307 79q43 0 79.5 16t61.5 46v229q-25 28 -62 44t-79 16q-49 0 -88 -22.5t-61.5 -62t-22.5 -89.5t22.5 -90t62 -63.5t87.5 -23.5zM280 603
l-128 122h122l90 -122h-84z" />
    <glyph glyph-name="amacron.ss01" horiz-adv-x="607" 
d="M293 -8q-71 0 -130 35t-93 94.5t-34 133.5t34.5 133t93.5 94t131 35q42 0 81 -13t72 -37v42h100v-509h-99v49q-65 -57 -156 -57zM307 79q43 0 79.5 16t61.5 46v229q-25 28 -62 44t-79 16q-49 0 -88 -22.5t-61.5 -62t-22.5 -89.5t22.5 -90t62 -63.5t87.5 -23.5zM153 623
v67h300v-67h-300z" />
    <glyph glyph-name="aogonek.ss01" horiz-adv-x="607" 
d="M487 -221q-46 0 -73.5 24.5t-27.5 63.5q0 36 22.5 67.5t72.5 65.5h-32v49q-65 -57 -156 -57q-71 0 -130 35.5t-93 94.5t-34 133t34.5 133t93.5 94t131 35q42 0 81 -13t72 -37v42h100v-509q-51 -31 -75 -59t-24 -56q0 -24 14 -36.5t41 -12.5q11 0 23 3.5t21 9.5l17 -48
q-16 -10 -36 -16t-42 -6zM135 256q0 -50 22.5 -90t61.5 -63.5t88 -23.5q43 0 79.5 16t61.5 46v229q-25 28 -62 44t-79 16q-49 0 -88 -22.5t-61.5 -62t-22.5 -89.5z" />
    <glyph glyph-name="aring.ss01" horiz-adv-x="607" 
d="M293 -8q-71 0 -130 35t-93 94.5t-34 133.5t34.5 133t93.5 94t131 35q42 0 81 -13t72 -37v42h100v-509h-99v49q-65 -57 -156 -57zM307 79q43 0 79.5 16t61.5 46v229q-25 28 -62 44t-79 16q-49 0 -88 -22.5t-61.5 -62t-22.5 -89.5t22.5 -90t62 -63.5t87.5 -23.5zM303 584
q-32 0 -58.5 15.5t-42.5 42t-16 57.5q0 32 16 58t42.5 41.5t58.5 15.5t58.5 -15.5t42.5 -41.5t16 -58q0 -31 -16 -57.5t-42.5 -42t-58.5 -15.5zM303 632q28 0 47.5 19.5t19.5 47.5t-19.5 47.5t-47.5 19.5t-47.5 -19.5t-19.5 -47.5t19.5 -47.5t47.5 -19.5z" />
    <glyph glyph-name="atilde.ss01" horiz-adv-x="607" 
d="M293 -8q-71 0 -130 35t-93 94.5t-34 133.5t34.5 133t93.5 94t131 35q42 0 81 -13t72 -37v42h100v-509h-99v49q-65 -57 -156 -57zM307 79q43 0 79.5 16t61.5 46v229q-25 28 -62 44t-79 16q-49 0 -88 -22.5t-61.5 -62t-22.5 -89.5t22.5 -90t62 -63.5t87.5 -23.5zM190 596
l-66 14q24 109 103 109q27 0 53 -13.5t49 -26.5t43 -13q17 0 27.5 12.5t17.5 42.5l64 -13q-11 -55 -37 -82t-65 -27q-26 0 -52 13.5t-50 26.5t-44 13q-18 0 -27.5 -13t-15.5 -43z" />
    <glyph glyph-name="g.ss02" horiz-adv-x="559" 
d="M266 -214q-117 0 -180 31.5t-63 88.5q0 33 26.5 60t73.5 43q-37 26 -37 71q0 28 18 51t48 37q-44 25 -71 67t-27 93q0 54 29.5 97.5t79 68.5t110.5 25q40 0 76.5 -12t64.5 -32q20 32 50 50t65 18q9 0 15.5 -1t11.5 -2l3 -81q-7 2 -15 2.5t-18 0.5q-45 0 -75 -22
q19 -24 29.5 -52t10.5 -60q0 -53 -29 -97t-78.5 -69.5t-110.5 -25.5q-16 0 -32.5 2.5t-31.5 6.5q-34 -15 -34 -40q0 -36 59 -39l178 -7q68 -3 105.5 -32t37.5 -80q0 -49 -35.5 -85.5t-100.5 -56t-153 -19.5zM273 214q35 0 63 15t44 41t16 58t-16 58t-44 40.5t-63 14.5
t-63 -14.5t-44.5 -40.5t-16.5 -58t16.5 -58t44.5 -41t63 -15zM262 -146q89 0 140.5 20.5t51.5 55.5q0 39 -59 41l-161 7q-12 1 -22.5 2t-20.5 2q-36 -8 -55.5 -24.5t-19.5 -38.5q0 -31 38 -48t108 -17z" />
    <glyph glyph-name="gbreve.ss02" horiz-adv-x="559" 
d="M266 -214q-117 0 -180 31.5t-63 88.5q0 33 26.5 60t73.5 43q-37 26 -37 71q0 28 18 51t48 37q-44 25 -71 67t-27 93q0 54 29.5 97.5t79 68.5t110.5 25q40 0 76.5 -12t64.5 -32q20 32 50 50t65 18q9 0 15.5 -1t11.5 -2l3 -81q-7 2 -15 2.5t-18 0.5q-45 0 -75 -22
q19 -24 29.5 -52t10.5 -60q0 -53 -29 -97t-78.5 -69.5t-110.5 -25.5q-16 0 -32.5 2.5t-31.5 6.5q-34 -15 -34 -40q0 -36 59 -39l178 -7q68 -3 105.5 -32t37.5 -80q0 -49 -35.5 -85.5t-100.5 -56t-153 -19.5zM273 214q35 0 63 15t44 41t16 58t-16 58t-44 40.5t-63 14.5
t-63 -14.5t-44.5 -40.5t-16.5 -58t16.5 -58t44.5 -41t63 -15zM262 -146q89 0 140.5 20.5t51.5 55.5q0 39 -59 41l-161 7q-12 1 -22.5 2t-20.5 2q-36 -8 -55.5 -24.5t-19.5 -38.5q0 -31 38 -48t108 -17zM275 595q-63 0 -106 34t-57 94l66 17q22 -84 97 -84q36 0 61 21.5
t36 62.5l66 -17q-14 -60 -57 -94t-106 -34z" />
    <glyph glyph-name="gcircumflex.ss02" horiz-adv-x="559" 
d="M266 -214q-117 0 -180 31.5t-63 88.5q0 33 26.5 60t73.5 43q-37 26 -37 71q0 28 18 51t48 37q-44 25 -71 67t-27 93q0 54 29.5 97.5t79 68.5t110.5 25q40 0 76.5 -12t64.5 -32q20 32 50 50t65 18q9 0 15.5 -1t11.5 -2l3 -81q-7 2 -15 2.5t-18 0.5q-45 0 -75 -22
q19 -24 29.5 -52t10.5 -60q0 -53 -29 -97t-78.5 -69.5t-110.5 -25.5q-16 0 -32.5 2.5t-31.5 6.5q-34 -15 -34 -40q0 -36 59 -39l178 -7q68 -3 105.5 -32t37.5 -80q0 -49 -35.5 -85.5t-100.5 -56t-153 -19.5zM273 214q35 0 63 15t44 41t16 58t-16 58t-44 40.5t-63 14.5
t-63 -14.5t-44.5 -40.5t-16.5 -58t16.5 -58t44.5 -41t63 -15zM262 -146q89 0 140.5 20.5t51.5 55.5q0 39 -59 41l-161 7q-12 1 -22.5 2t-20.5 2q-36 -8 -55.5 -24.5t-19.5 -38.5q0 -31 38 -48t108 -17zM353 600l-79 77l-79 -77h-81l108 127h106l108 -127h-83z" />
    <glyph glyph-name="uni0123.ss02" horiz-adv-x="559" 
d="M372 793l-45 -190h-97l68 190h74zM266 -214q-117 0 -180 31.5t-63 88.5q0 33 26.5 60t73.5 43q-37 26 -37 71q0 28 18 51t48 37q-44 25 -71 67t-27 93q0 54 29.5 97.5t79 68.5t110.5 25q40 0 76.5 -12t64.5 -32q20 32 50 50t65 18q9 0 15.5 -1t11.5 -2l3 -81
q-7 2 -15 2.5t-18 0.5q-45 0 -75 -22q19 -24 29.5 -52t10.5 -60q0 -53 -29 -97t-78.5 -69.5t-110.5 -25.5q-16 0 -32.5 2.5t-31.5 6.5q-34 -15 -34 -40q0 -36 59 -39l178 -7q68 -3 105.5 -32t37.5 -80q0 -49 -35.5 -85.5t-100.5 -56t-153 -19.5zM273 214q35 0 63 15t44 41
t16 58t-16 58t-44 40.5t-63 14.5t-63 -14.5t-44.5 -40.5t-16.5 -58t16.5 -58t44.5 -41t63 -15zM262 -146q89 0 140.5 20.5t51.5 55.5q0 39 -59 41l-161 7q-12 1 -22.5 2t-20.5 2q-36 -8 -55.5 -24.5t-19.5 -38.5q0 -31 38 -48t108 -17z" />
    <glyph glyph-name="gdotaccent.ss02" horiz-adv-x="559" 
d="M266 -214q-117 0 -180 31.5t-63 88.5q0 33 26.5 60t73.5 43q-37 26 -37 71q0 28 18 51t48 37q-44 25 -71 67t-27 93q0 54 29.5 97.5t79 68.5t110.5 25q40 0 76.5 -12t64.5 -32q20 32 50 50t65 18q9 0 15.5 -1t11.5 -2l3 -81q-7 2 -15 2.5t-18 0.5q-45 0 -75 -22
q19 -24 29.5 -52t10.5 -60q0 -53 -29 -97t-78.5 -69.5t-110.5 -25.5q-16 0 -32.5 2.5t-31.5 6.5q-34 -15 -34 -40q0 -36 59 -39l178 -7q68 -3 105.5 -32t37.5 -80q0 -49 -35.5 -85.5t-100.5 -56t-153 -19.5zM273 214q35 0 63 15t44 41t16 58t-16 58t-44 40.5t-63 14.5
t-63 -14.5t-44.5 -40.5t-16.5 -58t16.5 -58t44.5 -41t63 -15zM262 -146q89 0 140.5 20.5t51.5 55.5q0 39 -59 41l-161 7q-12 1 -22.5 2t-20.5 2q-36 -8 -55.5 -24.5t-19.5 -38.5q0 -31 38 -48t108 -17zM275 602q-25 0 -42.5 17t-17.5 42q0 24 17.5 41.5t42.5 17.5
t42.5 -17.5t17.5 -41.5q0 -25 -17.5 -42t-42.5 -17z" />
    <glyph glyph-name="exclamdown.cap" horiz-adv-x="221" 
d="M153 499l12 -505h-103l12 505h79zM113 707q26 0 45 -19t19 -45t-19 -44.5t-45 -18.5t-44.5 18.5t-18.5 44.5t18.5 45t44.5 19z" />
    <glyph glyph-name="questiondown.cap" horiz-adv-x="515" 
d="M331 495q3 -45 -4 -78.5t-25 -59t-51 -49.5l-47 -33q-38 -28 -54 -51.5t-16 -52.5q0 -26 17 -48t46.5 -35t65.5 -13q48 0 88.5 23t68.5 66l80 -42q-26 -42 -63 -71.5t-82.5 -45.5t-96.5 -16q-63 0 -113.5 23.5t-80 64t-29.5 91.5q0 35 11 63t37.5 54.5t71.5 57.5l31 22
q35 24 49 54t11 76h85zM288 708q26 0 45 -19t19 -45t-19 -45t-45 -19t-45 19t-19 45t19 45t45 19z" />
    <glyph glyph-name="periodcentered.cap" horiz-adv-x="252" 
d="M125 285q-26 0 -45 18.5t-19 44.5q0 27 19 45.5t45 18.5t45 -18.5t19 -44.5q0 -27 -19 -45.5t-45 -18.5z" />
    <glyph glyph-name="hyphen.cap" horiz-adv-x="452" 
d="M46 304v87h360v-87h-360z" />
    <glyph glyph-name="endash.cap" horiz-adv-x="552" 
d="M46 304v87h460v-87h-460z" />
    <glyph glyph-name="emdash.cap" horiz-adv-x="702" 
d="M46 304v87h610v-87h-610z" />
    <glyph glyph-name="uni2015.cap" horiz-adv-x="952" 
d="M46 304v87h860v-87h-860z" />
    <glyph glyph-name="at.cap" horiz-adv-x="784" 
d="M406 -11q-78 0 -144.5 26.5t-116 73.5t-76.5 111.5t-27 139.5q0 80 27.5 147.5t76.5 117.5t115 78.5t144 28.5q71 0 132 -23.5t106.5 -65t71 -97.5t25.5 -120t-23.5 -114t-65 -78.5t-94.5 -28.5q-69 0 -98 41q-24 -21 -51 -32.5t-54 -11.5q-41 0 -74 20.5t-51.5 55
t-18.5 77.5q0 51 23 91.5t62 64.5t88 24q58 0 97 -36l4 23h74l-41 -198q-6 -31 7 -48t43 -17q33 0 59 21t41 58t15 84q0 74 -37 132.5t-100 92t-143 33.5q-63 0 -118 -24t-96.5 -67t-64 -100.5t-22.5 -124.5q0 -88 39 -155.5t108.5 -106.5t159.5 -39q92 0 167 39l22 -49
q-45 -22 -92.5 -33t-98.5 -11zM371 243q41 0 73 31v18.5t3 20.5l19 99q-13 20 -34.5 30.5t-47.5 10.5q-28 0 -51.5 -15t-37.5 -40.5t-14 -56.5q0 -43 25 -70.5t65 -27.5z" />
    <glyph glyph-name="uni030C.alt" horiz-adv-x="0" 
d="M98 505l5 195l91 15l-30 -210h-66z" />
    <glyph glyph-name="uni030C.ss02" horiz-adv-x="0" 
d="M25 505l5 195l91 15l-30 -210h-66z" />
    <glyph glyph-name="zero.tf" 
d="M300 -11q-77 0 -136.5 43.5t-93 124.5t-33.5 193q0 113 33.5 193.5t93 124t136.5 43.5q78 0 137 -43.5t92.5 -124t33.5 -193.5q0 -112 -33.5 -193t-92.5 -124.5t-137 -43.5zM300 625q-50 0 -87.5 -34t-57.5 -95.5t-20 -145.5q0 -67 12.5 -119t36 -86.5t53 -52t63.5 -17.5
q50 0 87.5 34t57.5 95.5t20 145.5q0 72 -14 124t-37.5 85.5t-53 49.5t-60.5 16z" />
    <glyph glyph-name="one.tf" 
d="M74 0v83h177v514l-177 -76v87l213 92h61v-617h193v-83h-467z" />
    <glyph glyph-name="two.tf" 
d="M66 0v70l285 302q28 30 44 54t23 45.5t7 45.5q0 47 -38 78t-96 31q-48 0 -90 -19t-92 -66l-56 66q57 52 116.5 78t123.5 26q67 0 118 -24t80 -66.5t29 -97.5q0 -35 -9.5 -64.5t-31.5 -62t-62 -74.5l-227 -240l343 1v-83h-467z" />
    <glyph glyph-name="three.tf" 
d="M287 -11q-75 0 -140.5 26.5t-113.5 76.5l65 62q42 -43 85.5 -61.5t102.5 -18.5q47 0 83 15.5t56 44t20 64.5q0 34 -17 60.5t-47 41t-69 14.5h-85v81h78q53 0 85 31t32 81q0 33 -18.5 60t-50 42.5t-70.5 15.5q-53 0 -93.5 -19t-83.5 -64l-65 62q48 52 111 79.5t133 27.5
q68 0 121 -25t83 -69.5t30 -100.5t-36 -99t-95 -60q70 -15 112.5 -59.5t42.5 -104.5q0 -59 -33 -105t-90.5 -72.5t-132.5 -26.5z" />
    <glyph glyph-name="four.tf" 
d="M394 0v178h-371v78l360 444h105v-439h92v-83h-92v-178h-94zM131 261h263v325z" />
    <glyph glyph-name="five.tf" 
d="M285 -11q-140 0 -243 95l59 66q45 -41 89.5 -59.5t97.5 -18.5q47 0 82.5 18.5t55 52t19.5 77.5q0 62 -44 100.5t-115 38.5q-36 0 -71 -9t-73 -29l-68 21l16 358h416v-83h-332l-9 -215q38 19 73.5 26.5t73.5 7.5q70 0 122 -26.5t80.5 -74.5t28.5 -111q0 -70 -32.5 -122.5
t-90.5 -82.5t-135 -30z" />
    <glyph glyph-name="six.tf" 
d="M322 -10q-84 0 -148 43t-100 119.5t-36 177.5q0 115 40 200.5t112.5 133t169.5 47.5q48 0 96 -14.5t83 -41.5l-52 -72q-31 20 -64.5 30.5t-70.5 10.5q-67 0 -115.5 -34.5t-74.5 -99.5t-28 -157q38 49 89.5 76.5t108.5 27.5q68 0 121 -27.5t83 -76.5t30 -112
q0 -66 -32 -118.5t-87 -82.5t-125 -30zM317 360q-52 0 -98 -24t-81 -67q9 -58 33.5 -102.5t62.5 -69t85 -24.5q44 0 78 19t53.5 52t19.5 75q0 41 -19.5 73t-54 50t-79.5 18z" />
    <glyph glyph-name="seven.tf" 
d="M118 0l333 615h-408v85h513v-74l-325 -626h-113z" />
    <glyph glyph-name="eight.tf" 
d="M300 -11q-75 0 -132.5 26t-90.5 72t-33 105q0 41 19.5 76t55 61t80.5 37q-58 18 -94 60.5t-36 96.5q0 53 30 95.5t82.5 67.5t118.5 25t118.5 -25t82.5 -67.5t30 -95.5q0 -54 -35.5 -96.5t-94.5 -60.5q69 -18 112 -65.5t43 -108.5q0 -59 -32.5 -105t-90.5 -72t-133 -26z
M300 403q39 0 70 15t49 41t18 58q0 33 -18 59t-49 41t-70 15t-70 -15t-49 -41t-18 -59q0 -32 18 -58t49 -41t70 -15zM300 68q46 0 82 17t57 46.5t21 65.5q0 37 -21 66t-57 46t-82 17t-82 -17t-57 -46t-21 -66q0 -36 21 -65.5t57 -46.5t82 -17z" />
    <glyph glyph-name="nine.tf" horiz-adv-x="622" 
d="M287 711q84 0 148 -43.5t100 -119.5t36 -177q0 -115 -40 -200.5t-112 -133t-170 -47.5q-47 0 -95 15t-83 40l52 73q30 -20 64 -30.5t70 -10.5q68 0 116.5 34.5t74.5 100t27 155.5q-37 -49 -89 -76t-108 -27q-69 0 -122 28t-83 76.5t-30 111.5q0 67 32 119t87 82t125 30z
M293 341q51 0 97 24t81 66q-8 60 -33 103.5t-62.5 68t-85.5 24.5q-43 0 -77.5 -18.5t-54 -51.5t-19.5 -75q0 -41 19.5 -73t54.5 -50t80 -18z" />
    <glyph glyph-name="zero.tab.slash" 
d="M300 -11q-77 0 -136.5 43.5t-93 124.5t-33.5 193q0 113 33.5 193.5t93 124t136.5 43.5q78 0 137 -43.5t92.5 -124t33.5 -193.5q0 -112 -33.5 -193t-92.5 -124.5t-137 -43.5zM168 175l218 417q-18 16 -39.5 24.5t-46.5 8.5q-50 0 -87.5 -34t-57.5 -95.5t-20 -145.5
q0 -53 8.5 -97.5t24.5 -77.5zM300 75q50 0 87.5 34t57.5 95.5t20 145.5q0 53 -8.5 97.5t-24.5 77.5l-218 -417q37 -33 86 -33z" />
    <glyph glyph-name="caronSlovak" 
d="M283 505l5 195l91 15l-30 -210h-66z" />
    </font>
</defs>
</svg>
